<?xml version="1.0" standalone="no"?>
<!DOCTYPE svg PUBLIC "-//W3C//DTD SVG 1.1//EN" "http://www.w3.org/Graphics/SVG/1.1/DTD/svg11.dtd" >
<svg xmlns="http://www.w3.org/2000/svg" xmlns:xlink="http://www.w3.org/1999/xlink" version="1.1">
<metadata>
Created by FontForge 20170731 at Sat Sep  2 13:02:04 2023
 By Aleksey,,,
Copyright (c) 2018 by Alexander Slobzheninov. All rights reserved.
</metadata>
<defs>
<font id="Agrandir-WideBlackItalic" horiz-adv-x="1484" >
  <font-face 
    font-family="Agrandir Wide Black"
    font-weight="900"
    font-style="italic"
    font-stretch="expanded"
    units-per-em="2048"
    panose-1="0 0 10 5 0 0 0 0 0 0"
    ascent="1536"
    descent="-512"
    x-height="1065"
    cap-height="1475"
    bbox="-651 -624.586 3125 2048"
    underline-thickness="81"
    underline-position="-326"
    slope="-9"
    unicode-range="U+000D-F6C3"
  />
<missing-glyph horiz-adv-x="0" 
 />
    <glyph glyph-name=".notdef" horiz-adv-x="0" 
 />
    <glyph glyph-name=".null" horiz-adv-x="0" 
 />
    <glyph glyph-name="nonmarkingreturn" horiz-adv-x="682" 
 />
    <glyph glyph-name="NULL" horiz-adv-x="1759" 
d="M90 0l234 1475h1413l-234 -1475h-1413zM555 348h594l123 778h-594z" />
    <glyph glyph-name="NULL" horiz-adv-x="1759" 
d="M90 0l234 1475h1413l-234 -1475h-1413zM555 348h594l123 778h-594z" />
    <glyph glyph-name="CR" unicode="&#xd;" horiz-adv-x="106" 
 />
    <glyph glyph-name="space" unicode=" " horiz-adv-x="366" 
 />
    <glyph glyph-name="exclam" unicode="!" horiz-adv-x="712" 
d="M217 553l-41 512l66 410h528l-65 -410l-203 -512h-285zM268 -20q-112 0 -180 58.5t-68 154.5q0 128 96 213.5t234 85.5q112 0 181 -60t69 -156q0 -127 -97.5 -211.5t-234.5 -84.5z" />
    <glyph glyph-name="quotedbl" unicode="&#x22;" horiz-adv-x="493" 
d="M139 893l94 582h82l-92 -582h-84zM385 893l94 582h82l-92 -582h-84z" />
    <glyph glyph-name="numbersign" unicode="#" horiz-adv-x="1789" 
d="M377 -20l-76 20l213 500h-489l14 82h512l166 389h-514l12 82h537l194 454l78 -20l-186 -434h393l192 454l76 -22l-184 -432h522l-10 -82h-547l-164 -389h547l-16 -82h-568l-219 -520l-76 20l211 500h-395zM635 582h397l164 389h-393z" />
    <glyph glyph-name="dollar" unicode="$" horiz-adv-x="1662" 
d="M1081 946q285 -41 414 -143.5t129 -286.5q0 -133 -69.5 -241.5t-187.5 -176.5t-268.5 -104.5t-318.5 -36.5h-6l-35 -223h-82l37 225q-255 13 -437.5 103.5t-256.5 238.5l373 223q59 -70 161 -117t222 -59l30 193l-124 16q-277 40 -402 137.5t-125 274.5q0 139 64.5 247
t176.5 173t253.5 98t306.5 33h6l25 159h82l-27 -161q232 -13 394 -92t229 -207l-347 -218q-55 60 -144 99t-191 45l-27 -178zM707 1061q0 -29 37 -48.5t112 -33.5l25 164q-79 -5 -126.5 -26.5t-47.5 -55.5zM836 344q101 0 158 23t57 65q0 71 -172 96l-13 2z" />
    <glyph glyph-name="percent" unicode="%" horiz-adv-x="1931" 
d="M387 -20l-70 47l1301 1501l68 -47zM487 688q-167 0 -268.5 97.5t-101.5 254.5q0 194 133.5 330.5t324.5 136.5q166 0 267.5 -98.5t101.5 -257.5q0 -194 -132.5 -328.5t-324.5 -134.5zM508 913q78 0 134 63t56 157q0 67 -37.5 108t-101.5 41q-85 0 -139.5 -64t-54.5 -159
q0 -65 39.5 -105.5t103.5 -40.5zM1419 -29q-167 0 -268.5 98t-101.5 255q0 194 133.5 330.5t324.5 136.5q166 0 267.5 -99t101.5 -258q0 -194 -132.5 -328.5t-324.5 -134.5zM1440 197q78 0 134 62.5t56 156.5q0 67 -37.5 108t-101.5 41q-85 0 -140 -64t-55 -159
q0 -65 40 -105t104 -40z" />
    <glyph glyph-name="ampersand" unicode="&#x26;" horiz-adv-x="1892" 
d="M1516 291l292 -291h-538l-92 88q-261 -119 -578 -119q-262 0 -425 108t-163 294q0 84 29.5 152t87.5 118.5t130 87t169 68.5q-98 106 -98 235q0 113 57 204.5t152.5 149t215.5 88.5t251 31q169 0 299.5 -40t210 -126.5t79.5 -210.5q0 -164 -127.5 -261.5t-392.5 -145.5
l199 -189q133 101 244 240l264 -237q-123 -139 -266 -244zM999 1198q-80 0 -134 -38t-54 -105q0 -69 70 -148q290 54 290 187q0 53 -48 78.5t-124 25.5zM727 301q85 0 188 35l-256 239q-70 -19 -110.5 -58t-40.5 -89q0 -56 60.5 -91.5t158.5 -35.5z" />
    <glyph glyph-name="quotesingle" unicode="'" horiz-adv-x="206" 
d="M119 893l94 582h82l-92 -582h-84z" />
    <glyph glyph-name="parenleft" unicode="(" horiz-adv-x="458" 
d="M236 -383q-117 157 -168 431t-11 532q40 264 176 542t304 437l55 -54q-161 -159 -289.5 -422t-163.5 -503q-36 -237 9.5 -499t152.5 -417z" />
    <glyph glyph-name="parenright" unicode=")" horiz-adv-x="458" 
d="M-61 -389l-56 53q168 167 290.5 420.5t162.5 495.5q40 248 -1.5 502.5t-160.5 422.5l66 47q128 -172 175 -438t3 -534t-173 -535.5t-306 -433.5z" />
    <glyph glyph-name="asterisk" unicode="*" horiz-adv-x="901" 
d="M418 584l43 266q6 45 -16.5 59.5t-63.5 -8.5l-254 -133l-29 72l250 133q42 24 47 51t-30 51l-209 133l53 72l211 -133q34 -23 61 -8t33 59l43 266h82l-43 -266q-6 -45 16.5 -59.5t65.5 8.5l252 133l28 -72l-251 -133q-42 -24 -47 -51t30 -51l211 -133l-53 -72l-209 133
q-35 23 -62.5 8t-33.5 -59l-43 -266h-82z" />
    <glyph glyph-name="plus" unicode="+" horiz-adv-x="1239" 
d="M342 276l47 283h-328l56 348h327l43 281h471l-45 -281h330l-55 -348h-330l-45 -283h-471z" />
    <glyph glyph-name="comma" unicode="," horiz-adv-x="655" 
d="M-80 -365l14 72q195 -45 332 46.5t185 283.5q-81 -43 -164 -50.5t-146.5 17t-104 82t-40.5 137.5q0 116 83.5 192.5t201.5 76.5q123 0 195.5 -86.5t72.5 -227.5q0 -109 -32 -206.5t-89 -169.5t-136 -120.5t-173 -59.5t-199 13z" />
    <glyph glyph-name="hyphen" unicode="-" horiz-adv-x="854" 
d="M39 430l45 287h743l-45 -287h-743z" />
    <glyph glyph-name="period" unicode="." horiz-adv-x="653" 
d="M264 -20q-119 0 -193.5 67t-74.5 172q0 125 87 199t214 74q119 0 192.5 -67.5t73.5 -174.5q0 -119 -84.5 -194.5t-214.5 -75.5z" />
    <glyph glyph-name="slash" unicode="/" horiz-adv-x="909" 
d="M-66 -492l-71 31l1104 1958l69 -33z" />
    <glyph glyph-name="zero" unicode="0" horiz-adv-x="1753" 
d="M786 -31q-321 0 -513.5 168.5t-192.5 454.5q0 191 74.5 360.5t201.5 290.5t302.5 191.5t371.5 70.5q322 0 515.5 -168.5t193.5 -455.5q0 -189 -75 -358.5t-202.5 -290.5t-303.5 -192t-372 -71zM858 410q88 0 159 65.5t107.5 163t36.5 201.5q0 108 -53.5 166.5
t-146.5 58.5q-66 0 -124 -38.5t-96.5 -100.5t-60 -138t-21.5 -153q0 -108 53 -166.5t146 -58.5z" />
    <glyph glyph-name="one" unicode="1" horiz-adv-x="1302" 
d="M-29 0l62 389h381l86 555h-2q-102 -127 -291 -184l-66 424q298 69 475 291h549l-172 -1086h260l-61 -389h-1221z" />
    <glyph glyph-name="two" unicode="2" horiz-adv-x="1581" 
d="M-31 0l33 205q40 263 182.5 402t425.5 190l205 41q113 23 163 63.5t50 108.5q0 38 -33.5 60t-93.5 22q-92 0 -202.5 -53t-194.5 -146l-328 231q120 181 337 281t478 100q276 0 447.5 -119.5t171.5 -320.5q0 -215 -133 -339.5t-420 -178.5l-242 -45q-97 -18 -147.5 -49.5
t-57.5 -83.5h875l-58 -369h-1458z" />
    <glyph glyph-name="three" unicode="3" horiz-adv-x="1579" 
d="M741 -31q-344 0 -538.5 131.5t-194.5 368.5l586 109q-3 -99 41 -156t123 -57q73 0 118.5 44.5t45.5 118.5q0 54 -37.5 85.5t-102.5 33.5l-118 4l36 228l119 4q78 3 127 50t49 116q0 44 -29.5 67t-82.5 23q-73 0 -127 -46.5t-74 -134.5l-543 91q62 219 261 340.5
t509 121.5q296 0 467.5 -103.5t171.5 -287.5q0 -119 -74.5 -213.5t-191.5 -136.5v-4q109 -40 168 -118t59 -183q0 -151 -96.5 -264t-270 -172.5t-401.5 -59.5z" />
    <glyph glyph-name="four" unicode="4" horiz-adv-x="1617" 
d="M774 0l43 276h-848l47 287l795 912h748l-136 -850h148l-55 -349h-148l-43 -276h-551zM561 625h311l93 434h-4z" />
    <glyph glyph-name="five" unicode="5" horiz-adv-x="1599" 
d="M715 -31q-328 0 -523.5 129t-185.5 346l604 107q0 -84 41.5 -135t118.5 -51q83 0 140 56t57 130q0 60 -41 95.5t-113 35.5q-44 0 -87 -21t-69 -55l-489 66l178 803h1204l-57 -369h-709l-39 -182q60 35 144.5 55t169.5 20q231 0 365.5 -113t134.5 -308q0 -120 -44.5 -221
t-122.5 -172t-185 -120t-231 -72.5t-261 -23.5z" />
    <glyph glyph-name="six" unicode="6" horiz-adv-x="1638" 
d="M985 1505q240 0 414 -82t278 -233l-364 -184q-82 71 -159 101t-179 30q-110 0 -188 -59t-99 -165q159 101 381 101q242 0 386 -116t144 -314q0 -142 -70.5 -260t-189.5 -194.5t-271.5 -118.5t-319.5 -42q-323 0 -500.5 141.5t-177.5 438.5q0 289 110 504.5t317.5 333.5
t487.5 118zM854 707q-90 0 -149.5 -64t-59.5 -154q0 -63 41 -99t113 -36q92 0 151.5 67.5t59.5 156.5q0 60 -41.5 94.5t-114.5 34.5z" />
    <glyph glyph-name="seven" unicode="7" horiz-adv-x="1368" 
d="M78 0q90 271 274.5 541.5t456.5 513.5h-694l65 420h1311l-57 -359q-507 -510 -693 -1116h-663z" />
    <glyph glyph-name="eight" unicode="8" horiz-adv-x="1640" 
d="M752 -20q-331 0 -526 111.5t-195 301.5q0 132 99.5 238.5t260.5 146.5q-89 39 -141.5 115.5t-52.5 161.5q0 139 96 244.5t267.5 161t393.5 55.5q307 0 487.5 -101.5t180.5 -275.5q0 -110 -81.5 -210t-211.5 -151q113 -37 181.5 -119.5t68.5 -181.5q0 -150 -105.5 -263.5
t-292.5 -173.5t-429 -60zM879 897q77 0 132.5 44.5t55.5 105.5q0 47 -39 75.5t-108 28.5q-82 0 -135.5 -42t-53.5 -105q0 -48 40.5 -77.5t107.5 -29.5zM791 340q83 0 140.5 45.5t57.5 108.5q0 50 -42.5 81t-112.5 31q-83 0 -142 -45.5t-59 -109.5q0 -50 44 -80.5t114 -30.5z
" />
    <glyph glyph-name="nine" unicode="9" horiz-adv-x="1703" 
d="M768 -31q-607 0 -768 314l358 194q92 -78 186 -111.5t214 -33.5q134 0 218.5 59.5t102.5 173.5q-156 -104 -358 -104q-258 0 -405.5 111t-147.5 302q0 117 43.5 218.5t120 176.5t178.5 128.5t222 80.5t247 27q344 0 531.5 -144.5t187.5 -438.5q0 -277 -112.5 -492.5
t-325 -338t-492.5 -122.5zM913 768q93 0 152 65.5t59 151.5q0 63 -40.5 99t-112.5 36q-90 0 -150.5 -68t-60.5 -155q0 -60 40.5 -94.5t112.5 -34.5z" />
    <glyph glyph-name="colon" unicode=":" horiz-adv-x="653" 
d="M371 655q-119 0 -194 68t-75 174q0 118 85.5 194t215.5 76q119 0 193 -67.5t74 -173.5q0 -122 -86.5 -196.5t-212.5 -74.5zM264 -20q-119 0 -193.5 67t-74.5 172q0 125 87 199t214 74q119 0 192.5 -67.5t73.5 -174.5q0 -119 -84.5 -194.5t-214.5 -75.5z" />
    <glyph glyph-name="semicolon" unicode=";" horiz-adv-x="657" 
d="M375 655q-119 0 -194 67.5t-75 172.5q0 125 87.5 198.5t214.5 73.5q119 0 192.5 -67.5t73.5 -173.5q0 -119 -84.5 -195t-214.5 -76zM-80 -365l14 72q195 -45 332 46.5t185 283.5q-81 -43 -164 -50.5t-146.5 17t-104 82t-40.5 137.5q0 116 83.5 192.5t201.5 76.5
q123 0 195.5 -86.5t72.5 -227.5q0 -109 -32 -206.5t-89 -169.5t-136 -120.5t-173 -59.5t-199 13z" />
    <glyph glyph-name="less" unicode="&#x3c;" horiz-adv-x="1054" 
d="M834 164l-793 278l82 510l885 277l41 -369l-678 -164l626 -164z" />
    <glyph glyph-name="equal" unicode="=" horiz-adv-x="1218" 
d="M96 788l49 312h1106l-49 -312h-1106zM18 303l50 311h1106l-50 -311h-1106z" />
    <glyph glyph-name="greater" unicode="&#x3e;" horiz-adv-x="1054" 
d="M272 1229l793 -277l-82 -510l-885 -278l-41 368l678 164l-626 164z" />
    <glyph glyph-name="question" unicode="?" horiz-adv-x="1511" 
d="M481 553q20 118 81.5 193t178.5 122l107 47q69 26 100 59t31 79q0 38 -33.5 59t-89.5 21q-87 0 -152.5 -51t-87.5 -138l-518 86q51 223 271 358.5t540 135.5q192 0 340.5 -49t231 -140.5t82.5 -210.5q0 -146 -95.5 -242t-296.5 -155l-84 -31q-120 -38 -137 -143h-469z
M635 -20q-112 0 -180 58.5t-68 154.5q0 128 96 213.5t234 85.5q112 0 181 -60t69 -156q0 -127 -97.5 -211.5t-234.5 -84.5z" />
    <glyph glyph-name="at" unicode="@" horiz-adv-x="2109" 
d="M913 -338q-190 0 -352.5 49.5t-279 138.5t-182.5 219.5t-66 286.5q0 211 95 396.5t253.5 313.5t368.5 201.5t436 73.5q255 0 450.5 -85t308.5 -253t113 -397q0 -285 -129 -459t-370 -174q-314 0 -361 226l-2 16h-2q-77 -115 -206 -177.5t-294 -62.5q-184 0 -284.5 65
t-100.5 187q0 179 158 282t438 130l287 29q37 3 58.5 20t21.5 45q0 58 -135 58q-110 0 -226.5 -45.5t-218.5 -127.5l-274 160q109 150 309 235t447 85q111 0 206 -15.5t175.5 -49.5t134.5 -85t78.5 -125.5t11.5 -167.5l-66 -415q-6 -33 8 -53.5t43 -20.5q65 0 116 63.5
t77.5 163t26.5 213.5q0 203 -103 353.5t-284 228.5t-416 78q-139 0 -274.5 -30.5t-253.5 -86.5t-218.5 -138t-172 -180t-112 -218t-40.5 -248q0 -191 107 -334t292 -217t422 -74q226 0 442 88l21 -72q-227 -94 -482 -94zM952 297q110 0 181 36.5t75 98.5l2 19l-217 -19
q-145 -12 -145 -84q0 -24 27 -37.5t77 -13.5z" />
    <glyph glyph-name="A" unicode="A" horiz-adv-x="1845" 
d="M-86 0l811 1475h705l331 -1475h-608l-33 231h-502l-112 -231h-592zM760 573h330l-78 504h-4z" />
    <glyph glyph-name="B" unicode="B" horiz-adv-x="1761" 
d="M8 0l234 1475h999q246 0 389.5 -100t143.5 -267q0 -122 -80 -221t-213 -137v-5q106 -31 163.5 -104t57.5 -180q0 -131 -82 -236.5t-226.5 -165t-322.5 -59.5h-1063zM741 891h275q75 0 118.5 38.5t43.5 98.5q0 46 -32.5 72t-92.5 26h-275zM653 348h297q77 0 122.5 37.5
t45.5 101.5q0 51 -34.5 79t-94.5 28h-297z" />
    <glyph glyph-name="C" unicode="C" horiz-adv-x="1902" 
d="M932 -39q-395 0 -625.5 180.5t-230.5 491.5q0 188 79.5 353t212.5 280t312.5 181t374.5 66q351 0 559 -155t217 -416l-553 -100q-11 105 -75 163t-175 58q-98 0 -181 -54.5t-130 -143.5t-47 -191q0 -120 83 -189t224 -69q132 0 237 68.5t144 185.5l534 -74
q-56 -187 -198 -332t-340.5 -224t-421.5 -79z" />
    <glyph glyph-name="D" unicode="D" horiz-adv-x="1845" 
d="M8 0l234 1475h805q380 0 583 -158.5t203 -454.5q0 -415 -254.5 -638.5t-728.5 -223.5h-842zM645 420h219q184 0 283.5 100t99.5 283q0 123 -72.5 187.5t-209.5 64.5h-220z" />
    <glyph glyph-name="E" unicode="E" horiz-adv-x="1429" 
d="M8 0l234 1475h1278l-64 -400h-706l-27 -157h627l-56 -340h-624l-29 -179h729l-63 -399h-1299z" />
    <glyph glyph-name="F" unicode="F" horiz-adv-x="1425" 
d="M8 0l234 1475h1298l-72 -451h-706l-31 -188h586l-62 -381h-583l-72 -455h-592z" />
    <glyph glyph-name="G" unicode="G" horiz-adv-x="1966" 
d="M774 -33q-327 0 -515.5 163.5t-188.5 442.5q0 269 133 485t361.5 335.5t506.5 119.5q329 0 528.5 -138t223.5 -371l-563 -89q-17 73 -79 115.5t-153 42.5q-157 0 -258.5 -114.5t-101.5 -280.5q0 -134 86 -211.5t235 -77.5q130 0 224 47t122 127h-506l48 297h1071
l-136 -860h-438l8 236h-2q-98 -123 -262.5 -196t-343.5 -73z" />
    <glyph glyph-name="H" unicode="H" horiz-adv-x="1851" 
d="M8 0l234 1475h592l-80 -502h483l80 502h592l-234 -1475h-592l88 553h-483l-88 -553h-592z" />
    <glyph glyph-name="I" unicode="I" horiz-adv-x="772" 
d="M8 0l234 1475h589l-233 -1475h-590z" />
    <glyph glyph-name="J" unicode="J" horiz-adv-x="1538" 
d="M662 -39q-320 0 -497 135.5t-167 374.5l532 139q-6 -108 38 -168.5t126 -60.5q69 0 116.5 40t57.5 109l152 945h592l-152 -957q-43 -264 -254.5 -410.5t-543.5 -146.5z" />
    <glyph glyph-name="K" unicode="K" horiz-adv-x="1794" 
d="M8 0l234 1475h592l-72 -447l4 -2l467 449h711l-644 -566l410 -909h-700l-181 518l-172 -147l-57 -371h-592z" />
    <glyph glyph-name="L" unicode="L" horiz-adv-x="1372" 
d="M8 0l234 1475h592l-162 -1014h647l-72 -461h-1239z" />
    <glyph glyph-name="M" unicode="M" horiz-adv-x="2414" 
d="M8 0l234 1475h757l211 -887h4l498 887h760l-234 -1475h-540l137 848l-4 2l-475 -850h-457l-215 850h-4l-131 -850h-541z" />
    <glyph glyph-name="N" unicode="N" horiz-adv-x="1966" 
d="M8 0l234 1475h688l407 -861h4l138 861h544l-233 -1475h-688l-408 866h-4l-137 -866h-545z" />
    <glyph glyph-name="O" unicode="O" horiz-adv-x="1994" 
d="M920 -49q-393 0 -620.5 176.5t-227.5 476.5q0 202 85 375.5t229.5 292t340.5 185.5t414 67q393 0 620.5 -177t227.5 -477q0 -161 -54.5 -305.5t-153.5 -255.5t-231.5 -192t-294 -123.5t-335.5 -42.5zM983 401q177 0 292.5 117t115.5 287q0 125 -83.5 196.5t-230.5 71.5
q-177 0 -292 -116.5t-115 -286.5q0 -125 83 -197t230 -72z" />
    <glyph glyph-name="P" unicode="P" horiz-adv-x="1738" 
d="M8 0l234 1475h968q272 0 419 -116.5t147 -334.5q0 -287 -184 -442.5t-525 -155.5h-401l-68 -426h-590zM723 784h223q112 0 172 50.5t60 144.5q0 66 -46.5 101.5t-132.5 35.5h-223z" />
    <glyph glyph-name="Q" unicode="Q" horiz-adv-x="1994" 
d="M1096 -37l-6 -31q-6 -40 24 -62t90 -22q149 0 305 70l35 -280q-225 -107 -481 -107q-196 0 -301 91.5t-76 254.5l14 90q-296 46 -462 214t-166 423q0 202 85 375.5t229.5 292t340.5 185.5t414 67q393 0 620.5 -177t227.5 -477q0 -181 -68.5 -340t-189 -274.5
t-283.5 -191.5t-352 -101zM1077 1073q-177 0 -292 -116.5t-115 -286.5q0 -125 83 -197t230 -72q177 0 292.5 117t115.5 287q0 125 -83.5 196.5t-230.5 71.5z" />
    <glyph glyph-name="R" unicode="R" horiz-adv-x="1822" 
d="M1346 -39q-152 0 -241.5 77.5t-125.5 203.5l-33 127q-45 102 -158 102h-114l-74 -471h-592l234 1475h981q276 0 424.5 -107.5t148.5 -308.5q0 -173 -105 -300.5t-298 -180.5v-3q74 -25 96 -124l43 -107q19 -59 86 -59q47 0 90 24l35 -241q-71 -47 -183.5 -77t-213.5 -30z
M727 809h258q102 0 156.5 45t54.5 129q0 60 -42 91.5t-122 31.5h-258z" />
    <glyph glyph-name="S" unicode="S" horiz-adv-x="1662" 
d="M780 -43q-285 0 -492.5 92t-287.5 252l373 223q68 -80 194 -130t267 -50q101 0 159 23t58 65q0 71 -172 96l-217 29q-277 40 -402 137.5t-125 274.5q0 139 64.5 247t176.5 173t253.5 98t306.5 33q264 0 450 -81t259 -220l-347 -218q-59 65 -155.5 104.5t-206.5 39.5
q-103 0 -166 -22t-63 -62q0 -59 182 -88l192 -27q285 -41 414 -143.5t129 -286.5q0 -133 -69.5 -241.5t-187.5 -176.5t-268.5 -104.5t-318.5 -36.5z" />
    <glyph glyph-name="T" unicode="T" horiz-adv-x="1527" 
d="M383 0l162 1024h-436l71 451h1467l-72 -451h-438l-162 -1024h-592z" />
    <glyph glyph-name="U" unicode="U" horiz-adv-x="1826" 
d="M823 -39q-403 0 -592 166t-139 475l137 873h592l-131 -852q-17 -101 36 -156t169 -55q117 0 188 55t86 156l136 852h591l-139 -885q-50 -303 -291.5 -466t-642.5 -163z" />
    <glyph glyph-name="V" unicode="V" horiz-adv-x="1847" 
d="M492 0l-342 1475h608l157 -977h5l466 977h611l-811 -1475h-694z" />
    <glyph glyph-name="W" unicode="W" horiz-adv-x="2975" 
d="M420 0l-270 1475h593l115 -967h4l449 967h653l145 -967h5l417 967h594l-739 -1475h-678l-149 961h-5l-454 -961h-680z" />
    <glyph glyph-name="X" unicode="X" horiz-adv-x="1875" 
d="M-84 0l725 770l-489 705h628l250 -363l354 363h641l-729 -736l496 -739h-641l-250 377l-354 -377h-631z" />
    <glyph glyph-name="Y" unicode="Y" horiz-adv-x="1734" 
d="M496 0l77 492l-423 983h608l174 -557h4l328 557h620l-719 -983l-78 -492h-591z" />
    <glyph glyph-name="Z" unicode="Z" horiz-adv-x="1525" 
d="M-12 0l71 457l807 608h-690l70 410h1341l-78 -467l-809 -598h734l-64 -410h-1382z" />
    <glyph glyph-name="bracketleft" unicode="[" horiz-adv-x="462" 
d="M-53 -389l307 1945h350l-12 -81h-266l-283 -1782h266l-12 -82h-350z" />
    <glyph glyph-name="backslash" unicode="\" horiz-adv-x="921" 
d="M657 -492l-483 1956l82 33l481 -1958z" />
    <glyph glyph-name="bracketright" unicode="]" horiz-adv-x="462" 
d="M225 -389h-350l12 82h267l282 1782h-266l12 81h350z" />
    <glyph glyph-name="asciicircum" unicode="^" horiz-adv-x="1239" 
d="M492 819l-394 142l361 514h622l195 -514l-418 -142l-119 408z" />
    <glyph glyph-name="underscore" unicode="_" horiz-adv-x="1177" 
d="M-98 -82l14 82h1178l-15 -82h-1177z" />
    <glyph glyph-name="grave" unicode="`" horiz-adv-x="514" 
d="M489 1229l-256 293l66 55l256 -295z" />
    <glyph glyph-name="a" unicode="a" horiz-adv-x="1519" 
d="M434 -25q-194 0 -304 112.5t-110 309.5q0 183 72.5 340.5t209.5 255t310 97.5q136 0 232 -71.5t125 -197.5h2l108 244h459l-168 -1065h-459l-32 242h-2q-69 -125 -187.5 -196t-255.5 -71zM727 358q96 0 158.5 64t62.5 151q0 61 -45.5 97.5t-122.5 36.5q-96 0 -158.5 -64
t-62.5 -151q0 -61 45.5 -97.5t122.5 -36.5z" />
    <glyph glyph-name="b" unicode="b" horiz-adv-x="1519" 
d="M928 -25q-148 0 -251 70.5t-130 196.5h-2l-109 -242h-454l243 1536h531l-115 -711h2q69 124 193 194.5t270 70.5q185 0 289 -111t104 -307q0 -184 -69.5 -342t-202 -256.5t-299.5 -98.5zM739 358q96 0 159 64t63 151q0 61 -45 97.5t-123 36.5q-94 0 -157 -64t-63 -151
q0 -61 44.5 -97.5t121.5 -36.5z" />
    <glyph glyph-name="c" unicode="c" horiz-adv-x="1480" 
d="M682 -33q-308 0 -481.5 126.5t-173.5 348.5q0 144 60 267.5t163 208t243 132.5t298 48q282 0 448.5 -121.5t163.5 -325.5l-500 -86q6 83 -29 128.5t-108 45.5q-92 0 -149.5 -78t-57.5 -176q0 -74 47 -116.5t129 -42.5q85 0 148.5 52t85.5 142l477 -63
q-63 -225 -269 -357.5t-495 -132.5z" />
    <glyph glyph-name="d" unicode="d" horiz-adv-x="1519" 
d="M416 -25q-186 0 -291 111.5t-105 306.5q0 137 41.5 263t114.5 222.5t181.5 154t234.5 57.5q145 0 246 -70.5t129 -192.5h2l114 709h531l-244 -1536h-452l-33 242h-2q-68 -125 -194 -196t-273 -71zM727 358q96 0 158.5 64t62.5 151q0 61 -45.5 97.5t-122.5 36.5
q-96 0 -158.5 -64t-62.5 -151q0 -61 45.5 -97.5t122.5 -36.5z" />
    <glyph glyph-name="e" unicode="e" horiz-adv-x="1468" 
d="M750 -33q-332 0 -527.5 128t-195.5 349q0 143 64.5 266.5t172.5 207.5t252.5 132t302.5 48q288 0 455.5 -123t167.5 -334q0 -57 -14 -123t-37 -108h-838q11 -44 48 -74t87.5 -42.5t114.5 -12.5q97 0 193.5 24.5t156.5 61.5l199 -195q-93 -93 -256.5 -149t-345.5 -56z
M586 633h338q3 78 -33 120t-103 42q-72 0 -127 -44t-75 -118z" />
    <glyph glyph-name="f" unicode="f" horiz-adv-x="1208" 
d="M147 0l113 717h-213l55 348h213l13 78q32 200 197 312t425 112q246 0 439 -88l-134 -344q-123 55 -239 55q-69 0 -114 -29t-52 -78l-4 -18h399l-55 -348h-399l-113 -717h-531z" />
    <glyph glyph-name="g" unicode="g" horiz-adv-x="1521" 
d="M442 -463q-190 0 -351 32t-253 89l203 365q79 -51 191.5 -81t222.5 -30q170 0 280 63t127 170l10 58h-2q-69 -87 -190 -138t-260 -51q-187 0 -291 107t-104 295q0 132 42 255t116 217t183 150t234 56q144 0 243.5 -73t127.5 -198h2l106 242h461l-145 -918
q-30 -189 -156.5 -327.5t-331 -210.5t-465.5 -72zM727 354q97 0 159 68t62 162q0 65 -43.5 101t-122.5 36q-97 0 -159 -67t-62 -162q0 -65 43.5 -101.5t122.5 -36.5z" />
    <glyph glyph-name="h" unicode="h" 
d="M-18 0l243 1536h531l-115 -713h2q169 267 463 267q189 0 284 -106t64 -288l-111 -696h-528l92 592q12 72 -18 111.5t-96 39.5q-77 0 -129 -48.5t-64 -135.5l-88 -559h-530z" />
    <glyph glyph-name="i" unicode="i" horiz-adv-x="661" 
d="M430 1147q-114 0 -182 59t-68 156q0 132 95.5 219.5t236.5 87.5q114 0 181 -59t67 -158q0 -130 -95.5 -217.5t-234.5 -87.5zM-18 0l168 1065h530l-168 -1065h-530z" />
    <glyph glyph-name="j" unicode="j" horiz-adv-x="663" 
d="M430 1147q-113 0 -180.5 59t-67.5 156q0 132 95.5 219.5t234.5 87.5q114 0 182 -59.5t68 -157.5q0 -131 -96 -218t-236 -87zM-53 -463q-183 0 -336 39l104 324q63 -17 123 -17q59 0 97.5 32.5t48.5 96.5l166 1053h532l-176 -1110q-31 -196 -180 -307t-379 -111z" />
    <glyph glyph-name="k" unicode="k" horiz-adv-x="1452" 
d="M-18 0l243 1536h531l-117 -733h2l289 262h604l-471 -387l301 -678h-573l-134 385l-98 -82l-47 -303h-530z" />
    <glyph glyph-name="l" unicode="l" horiz-adv-x="661" 
d="M-18 0l243 1536h531l-244 -1536h-530z" />
    <glyph glyph-name="m" unicode="m" horiz-adv-x="2254" 
d="M-18 0l168 1065h428l34 -262h2q75 132 204 209.5t276 77.5q149 0 232 -75t95 -212h2q78 134 208 210.5t280 76.5q178 0 260 -109.5t51 -302.5l-106 -678h-531l90 573q11 68 -15.5 106t-84.5 38q-70 0 -116 -46t-60 -126l-86 -545h-531l92 573q11 68 -16.5 106t-85.5 38
q-69 0 -115.5 -46t-58.5 -126l-86 -545h-530z" />
    <glyph glyph-name="n" unicode="n" 
d="M1106 1090q189 0 284 -106t64 -288l-111 -696h-528l92 592q12 72 -18 111.5t-96 39.5q-77 0 -129 -48.5t-64 -135.5l-88 -559h-530l168 1065h442l29 -242h2q79 125 205 196t278 71z" />
    <glyph glyph-name="o" unicode="o" horiz-adv-x="1509" 
d="M674 -33q-305 0 -477 125.5t-172 343.5q0 197 111.5 350t294.5 232.5t403 79.5q306 0 477.5 -125.5t171.5 -343.5q0 -149 -64.5 -274.5t-175 -209.5t-257.5 -131t-312 -47zM731 324q99 0 160 79.5t61 182.5q0 74 -47 114.5t-127 40.5q-102 0 -161.5 -79t-59.5 -179
q0 -76 47 -117.5t127 -41.5z" />
    <glyph glyph-name="p" unicode="p" horiz-adv-x="1519" 
d="M-86 -430l236 1495h454l31 -242h2q69 125 194.5 196t274.5 71q185 0 289 -111t104 -307q0 -184 -69.5 -342t-202 -256.5t-299.5 -98.5q-145 0 -245.5 70t-129.5 193h-2l-107 -668h-530zM739 358q96 0 159 64t63 151q0 61 -45 97.5t-123 36.5q-94 0 -157 -64t-63 -151
q0 -61 44.5 -97.5t121.5 -36.5z" />
    <glyph glyph-name="q" unicode="q" horiz-adv-x="1519" 
d="M770 -430l109 670h-2q-69 -124 -193 -194.5t-270 -70.5q-185 0 -289.5 111t-104.5 307q0 137 41.5 263t114.5 222.5t182 154t236 57.5q147 0 249.5 -70.5t131.5 -196.5h2l108 242h453l-238 -1495h-530zM727 358q96 0 158.5 64t62.5 151q0 61 -45.5 97.5t-122.5 36.5
q-96 0 -158.5 -64t-62.5 -151q0 -61 45.5 -97.5t122.5 -36.5z" />
    <glyph glyph-name="r" unicode="r" horiz-adv-x="1308" 
d="M1026 1090q161 0 236.5 -118.5t50.5 -334.5l-484 -98q15 107 -7.5 163t-78.5 56q-54 0 -91 -52.5t-52 -148.5l-88 -557h-530l168 1065h434l39 -227h2q69 121 173.5 186.5t227.5 65.5z" />
    <glyph glyph-name="s" unicode="s" horiz-adv-x="1355" 
d="M635 -31q-239 0 -419.5 63t-240.5 185l275 150q64 -51 169.5 -82t213.5 -31q97 0 141.5 11.5t44.5 37.5q0 24 -38 40t-117 30l-205 35q-172 29 -261 96t-89 186q0 106 52 186.5t142 127t200 69.5t238 23q198 0 349.5 -55.5t218.5 -170.5l-277 -143q-50 45 -131 71.5
t-172 26.5q-77 0 -125.5 -14t-48.5 -39q0 -23 32 -37t109 -28l211 -33q189 -33 291 -106t102 -201q0 -102 -52.5 -180t-145 -125t-210 -70t-257.5 -23z" />
    <glyph glyph-name="t" unicode="t" horiz-adv-x="1288" 
d="M672 -31q-255 0 -376 112t-91 310l49 326h-207l55 348h207l43 260l547 102l-59 -362h477l-55 -348h-478l-32 -209q-24 -156 133 -156q74 0 138.5 20.5t150.5 69.5l24 -333q-127 -75 -251 -107.5t-275 -32.5z" />
    <glyph glyph-name="u" unicode="u" 
d="M379 -25q-189 0 -284 106t-64 288l110 696h529l-92 -592q-12 -72 18 -111.5t96 -39.5q77 0 129 48.5t64 135.5l88 559h530l-168 -1065h-442l-29 242h-2q-79 -125 -205 -196t-278 -71z" />
    <glyph glyph-name="v" unicode="v" horiz-adv-x="1564" 
d="M356 0l-272 1065h557l117 -688h4l332 688h555l-619 -1065h-674z" />
    <glyph glyph-name="w" unicode="w" horiz-adv-x="2277" 
d="M276 0l-192 1065h537l53 -608h2l330 608h434l135 -608h2l248 608h536l-528 -1065h-559l-125 590h-2l-313 -590h-558z" />
    <glyph glyph-name="x" unicode="x" horiz-adv-x="1548" 
d="M-84 0l561 553l-379 512h561l164 -256l260 256h535l-559 -535l405 -530h-577l-170 262l-252 -262h-549z" />
    <glyph glyph-name="y" unicode="y" horiz-adv-x="1492" 
d="M426 -463q-166 0 -329.5 38t-272.5 103l199 363q91 -51 202 -81t209 -30q169 0 282.5 74.5t133.5 198.5l12 84h-2q-61 -126 -182 -199.5t-266 -73.5q-197 0 -295 121.5t-66 317.5l99 612h530l-84 -528q-12 -78 18 -125t93 -47q75 0 127.5 50t64.5 136l82 514h530
l-141 -899q-46 -287 -303 -458t-641 -171z" />
    <glyph glyph-name="z" unicode="z" horiz-adv-x="1273" 
d="M-37 0l57 369l603 368h-523l52 328h1138l-57 -369l-612 -368h573l-51 -328h-1180z" />
    <glyph glyph-name="braceleft" unicode="{" horiz-adv-x="612" 
d="M256 -389q-82 0 -123.5 56.5t-26.5 148.5l87 551q10 70 -18 113t-85 46l-41 2l21 129l41 2q59 3 101 47t52 115l84 531q15 92 74.5 148t142.5 56h189l-13 -81h-188q-46 0 -80 -34t-43 -89l-86 -551q-13 -85 -67.5 -141t-129.5 -64v-4q72 -7 108 -63.5t24 -141.5l-91 -571
q-9 -55 13.5 -89t68.5 -34h189l-15 -82h-188z" />
    <glyph glyph-name="bar" unicode="|" horiz-adv-x="264" 
d="M-68 -471l320 2007h80l-320 -2007h-80z" />
    <glyph glyph-name="braceright" unicode="}" horiz-adv-x="612" 
d="M66 -389h-189l10 82h189q46 0 80 34t43 89l90 571q12 84 66.5 140.5t129.5 64.5v4q-72 8 -108 64t-23 141l86 551q9 55 -13.5 89t-68.5 34h-188l12 81h189q83 0 124.5 -56t26.5 -148l-84 -531q-10 -72 18 -115.5t87 -46.5l41 -2l-21 -129l-41 -2q-60 -3 -102.5 -46
t-52.5 -113l-86 -551q-15 -92 -74 -148.5t-141 -56.5z" />
    <glyph glyph-name="asciitilde" unicode="~" horiz-adv-x="1443" 
d="M1278 764l129 -268q-75 -92 -193.5 -150.5t-238.5 -58.5q-163 0 -328 102q-59 37 -95 57t-84.5 38t-86.5 18q-94 0 -197 -76l-127 270q69 90 190 147.5t242 57.5q170 0 338 -115q76 -49 131.5 -74.5t110.5 -25.5q98 0 209 78z" />
    <glyph glyph-name="exclamdown" unicode="&#xa1;" horiz-adv-x="712" 
d="M449 1106q112 0 179.5 -58.5t67.5 -154.5q0 -128 -96 -213.5t-233 -85.5q-113 0 -181.5 59.5t-68.5 155.5q0 127 97 212t235 85zM500 532l41 -512l-66 -409h-528l65 409l203 512h285z" />
    <glyph glyph-name="cent" unicode="&#xa2;" horiz-adv-x="1492" 
d="M997 530l459 -90q-61 -220 -265 -346.5t-489 -126.5h-4l-36 -233h-82l36 235q-274 20 -429.5 154.5t-155.5 349.5q0 140 60.5 258.5t164.5 198t244 124t297 44.5l32 213h82l-34 -217q246 -19 391.5 -145t142.5 -314l-475 -47q0 123 -117 147l-63 -409q88 9 152.5 65
t88.5 139zM539 475q0 -131 135 -149l65 411q-90 -12 -145 -87t-55 -175z" />
    <glyph glyph-name="sterling" unicode="&#xa3;" horiz-adv-x="1603" 
d="M-41 0l53 416q96 34 175 130t102 212h-191l15 82h186l29 180q35 218 229.5 351.5t476.5 133.5q184 0 330.5 -61.5t223 -168.5t65.5 -235l-471 -30q0 54 -35 85t-98 31q-71 0 -120 -43t-59 -116l-20 -127h688l-14 -82h-690q-21 -136 -111.5 -241t-228.5 -163v-2l1044 6
l-57 -358h-1522z" />
    <glyph glyph-name="currency" unicode="&#xa4;" horiz-adv-x="1370" 
d="M-2 -102l-59 55l272 244q-64 108 -64 247q0 119 42 227t118 185l-190 213l59 57l191 -211q156 129 376 129q116 0 207.5 -41t151.5 -112l264 235l55 -57l-268 -242q64 -108 64 -247q0 -117 -41.5 -225t-118.5 -187l186 -213l-55 -57l-191 211q-156 -129 -376 -129
q-116 0 -207.5 41t-151.5 112zM651 315q101 0 163.5 65t62.5 173q0 73 -43.5 114.5t-120.5 41.5q-99 0 -161.5 -65t-62.5 -173q0 -72 43 -114t119 -42z" />
    <glyph glyph-name="yen" unicode="&#xa5;" horiz-adv-x="1746" 
d="M496 0l45 287h-404l13 82h403l14 82h-403l12 81h367l-393 943h593l179 -601l358 601h616l-684 -943h357l-13 -81h-397l-14 -82h397l-12 -82h-397l-46 -287h-591z" />
    <glyph glyph-name="section" unicode="&#xa7;" 
d="M651 -31q-291 0 -469.5 97.5t-165.5 261.5l455 24q0 -33 15 -54t46 -31t64.5 -13.5t83.5 -3.5q90 0 149.5 19.5t63.5 52.5q6 30 -23.5 46.5t-97.5 22.5l-252 29q-215 22 -314.5 93.5t-78.5 201.5q22 141 199 221q-42 34 -59 89t-5 122q18 114 102 193.5t212 117t292 37.5
q163 0 288 -39t193 -114.5t58 -176.5l-432 -16q-3 76 -121 76q-51 0 -84 -16.5t-39 -47.5q-3 -27 19.5 -42t76.5 -21l238 -25q214 -22 316.5 -96t82.5 -203q-18 -121 -192 -207q73 -31 109 -94t22 -156q-18 -114 -120.5 -193.5t-263.5 -117t-368 -37.5zM952 674q19 10 31 27
t12 32q2 28 -28 44.5t-97 25.5l-258 22q-43 -21 -49 -61q-1 -27 22.5 -41.5t78.5 -22.5z" />
    <glyph glyph-name="dieresis" unicode="&#xa8;" horiz-adv-x="1323" 
d="M426 1188q-92 0 -147.5 50.5t-55.5 133.5q0 108 80.5 182t192.5 74q91 0 146.5 -51t55.5 -131q0 -109 -79.5 -183.5t-192.5 -74.5zM1106 1188q-91 0 -147 50.5t-56 133.5q0 107 81.5 181.5t191.5 74.5q92 0 147 -50.5t55 -131.5q0 -109 -79.5 -183.5t-192.5 -74.5z" />
    <glyph glyph-name="copyright" unicode="&#xa9;" horiz-adv-x="1968" 
d="M915 -51q-378 0 -608.5 191.5t-230.5 498.5q0 189 86 355.5t229 282t333 182.5t394 67q187 0 344 -51t266 -142t169.5 -219t60.5 -280t-55 -290.5t-153.5 -245.5t-229 -186t-286 -121t-319.5 -42zM926 27q186 0 360 61t304.5 166.5t209 256.5t78.5 320q0 274 -208 445.5
t-554 171.5q-126 0 -247.5 -28t-227.5 -78.5t-195.5 -124t-153.5 -162t-100 -195.5t-36 -221q0 -178 93 -316.5t268.5 -217t408.5 -78.5zM952 178q-307 0 -481 126.5t-174 348.5q0 192 103 343t276.5 232t384.5 81q283 0 450 -121.5t164 -325.5l-499 -86q5 83 -31 128.5
t-109 45.5q-92 0 -149.5 -78t-57.5 -176q0 -73 47.5 -116t129.5 -43q86 0 148.5 51.5t84.5 142.5l477 -63q-62 -225 -268 -357.5t-496 -132.5z" />
    <glyph glyph-name="guillemotleft" unicode="&#xab;" horiz-adv-x="1036" 
d="M446 -20l-415 552l592 553l53 -53l-533 -500l373 -499zM856 -20l-416 552l590 553l53 -53l-530 -500l371 -499z" />
    <glyph glyph-name="logicalnot" unicode="&#xac;" horiz-adv-x="1423" 
d="M963 307l51 328h-942l55 348h1311l-107 -676h-368z" />
    <glyph glyph-name="registered" unicode="&#xae;" horiz-adv-x="1968" 
d="M915 -51q-378 0 -608.5 191.5t-230.5 498.5q0 189 86 355.5t229 282t333 182.5t394 67q187 0 344 -51t266 -142t169.5 -219t60.5 -280t-55 -290.5t-153.5 -245.5t-229 -186t-286 -121t-319.5 -42zM926 27q187 0 360.5 60.5t304 165.5t209 256t78.5 322q0 134 -54 248
t-152 195.5t-242 127.5t-316 46q-126 0 -247.5 -28t-227 -78.5t-195 -124t-153 -162t-99.5 -195.5t-36 -221q0 -178 93 -316.5t268.5 -217t408.5 -78.5zM467 197l172 1085h524q185 0 290.5 -88t105.5 -240q0 -124 -62 -212t-180 -134l106 -411h-366l-66 374h-119l-59 -374
h-346zM911 811h156q65 0 111.5 34t46.5 91q0 38 -26 59t-75 21h-182z" />
    <glyph glyph-name="macron" unicode="&#xaf;" horiz-adv-x="858" 
d="M158 1208l12 82h758l-13 -82h-757z" />
    <glyph glyph-name="degree" unicode="&#xb0;" horiz-adv-x="884" 
d="M475 688q-155 0 -257.5 95.5t-102.5 244.5q0 125 63 235.5t172 177t236 66.5q157 0 258.5 -96t101.5 -248q0 -124 -63.5 -233.5t-172.5 -175.5t-235 -66zM483 768q157 0 267 115.5t110 275.5q0 121 -76.5 196t-201.5 75q-160 0 -270.5 -118t-110.5 -276
q0 -119 77.5 -193.5t204.5 -74.5z" />
    <glyph glyph-name="plusminus" unicode="&#xb1;" horiz-adv-x="1218" 
d="M414 532l30 195h-358l47 297h359l30 195h389l-30 -195h358l-47 -297h-358l-31 -195h-389zM20 307l15 82h1106l-15 -82h-1106z" />
    <glyph glyph-name="acute" unicode="&#xb4;" horiz-adv-x="524" 
d="M246 1229l-49 53l348 295l49 -55z" />
    <glyph glyph-name="paragraph" unicode="&#xb6;" horiz-adv-x="1802" 
d="M352 -410l156 983q-213 0 -322 124t-77 327q34 203 183 327t359 124h1270l-53 -338h-182l-246 -1547h-441l246 1547h-207l-245 -1547h-441z" />
    <glyph glyph-name="periodcentered" unicode="&#xb7;" horiz-adv-x="653" 
d="M330 401q-119 0 -194 67.5t-75 172.5q0 125 87 198.5t214 73.5q121 0 195 -67.5t74 -173.5q0 -118 -85.5 -194.5t-215.5 -76.5z" />
    <glyph glyph-name="cedilla" unicode="&#xb8;" horiz-adv-x="530" 
d="M115 -420q-59 0 -107 30.5t-67 78.5l71 51q10 -34 43.5 -56t73.5 -22q47 0 79 21t38 55q6 40 -27.5 64t-93.5 24h-72l49 178h82l-28 -102q92 -6 138 -49.5t34 -124.5q-9 -64 -69 -106t-144 -42z" />
    <glyph glyph-name="guillemotright" unicode="&#xbb;" horiz-adv-x="1036" 
d="M4 -20l-51 53l530 499l-372 500l69 53l416 -553zM414 -20l-52 53l531 499l-373 500l70 53l416 -553z" />
    <glyph glyph-name="questiondown" unicode="&#xbf;" horiz-adv-x="1511" 
d="M860 1096q112 0 181 -59t69 -154q0 -127 -96.5 -212t-233.5 -85q-113 0 -181.5 58.5t-68.5 154.5q0 127 96.5 212t233.5 85zM1014 524q-19 -119 -80.5 -194.5t-179.5 -122.5l-107 -47q-69 -26 -100 -58.5t-31 -76.5q0 -38 34 -59t89 -21q88 0 153.5 49.5t86.5 136.5
l518 -86q-50 -223 -269.5 -358.5t-539.5 -135.5q-293 0 -474.5 110t-181.5 292q0 145 96 241.5t296 153.5l84 31q63 20 95.5 54.5t41.5 90.5h469z" />
    <glyph glyph-name="Agrave" unicode="&#xc0;" horiz-adv-x="1845" 
d="M1087 1602l-217 251l62 52l217 -254zM-86 0l811 1475h705l331 -1475h-608l-33 231h-502l-112 -231h-592zM760 573h330l-78 504h-4z" />
    <glyph glyph-name="Aacute" unicode="&#xc1;" horiz-adv-x="1845" 
d="M1112 1597l-49 54l297 254l49 -56zM-86 0l811 1475h705l331 -1475h-608l-33 231h-502l-112 -231h-592zM760 573h330l-78 504h-4z" />
    <glyph glyph-name="Acircumflex" unicode="&#xc2;" horiz-adv-x="1845" 
d="M778 1597l-43 64l348 223h111l279 -223l-56 -64l-284 224zM-86 0l811 1475h705l331 -1475h-608l-33 231h-502l-112 -231h-592zM760 573h330l-78 504h-4z" />
    <glyph glyph-name="Atilde" unicode="&#xc3;" horiz-adv-x="1845" 
d="M1284 1597q-64 0 -109 31t-90 86q-26 31 -42.5 47.5t-45 31.5t-59.5 15q-64 0 -113 -53.5t-61 -136.5h-84q20 120 95 196t175 76q30 0 58 -9t45.5 -18t42 -32t33 -32.5t32.5 -37.5q33 -40 63 -61t70 -21q65 0 115.5 54t63.5 139h81q-19 -121 -94 -198t-176 -77zM-86 0
l811 1475h705l331 -1475h-608l-33 231h-502l-112 -231h-592zM760 573h330l-78 504h-4z" />
    <glyph glyph-name="Adieresis" unicode="&#xc4;" horiz-adv-x="1845" 
d="M762 1577q-101 0 -157.5 64.5t-41.5 164.5q17 101 94.5 166.5t178.5 65.5q102 0 157.5 -65t40.5 -167q-17 -100 -93.5 -164.5t-178.5 -64.5zM1415 1577q-102 0 -158.5 65t-39.5 164q15 101 92.5 166.5t179.5 65.5t158 -65.5t39 -166.5q-15 -99 -92 -164t-179 -65zM-86 0
l811 1475h705l331 -1475h-608l-33 231h-502l-112 -231h-592zM760 573h330l-78 504h-4z" />
    <glyph glyph-name="Aring" unicode="&#xc5;" horiz-adv-x="1845" 
d="M1092 1597q-76 0 -121 44.5t-45 117.5q0 96 66.5 162t160.5 66q76 0 121 -44.5t45 -117.5q0 -96 -66.5 -162t-160.5 -66zM1104 1675q56 0 93.5 40.5t37.5 96.5q0 42 -26.5 69.5t-69.5 27.5q-53 0 -93 -40t-40 -95q0 -43 27.5 -71t70.5 -28zM-86 0l811 1475h705l331 -1475
h-608l-33 231h-502l-112 -231h-592zM760 573h330l-78 504h-4z" />
    <glyph glyph-name="AE" unicode="&#xc6;" horiz-adv-x="2398" 
d="M-86 0l1016 1475h1558l-63 -400h-553l-23 -153h469l-53 -338h-471l-29 -185h572l-62 -399h-1145l29 195h-459l-127 -195h-659zM897 532h320l100 639h-2z" />
    <glyph glyph-name="Ccedilla" unicode="&#xc7;" horiz-adv-x="1902" 
d="M1892 596q-55 -184 -193.5 -327.5t-332.5 -223.5t-412 -84l-16 -59q92 -6 138 -49.5t34 -124.5q-9 -64 -69 -106t-144 -42q-59 0 -107 30.5t-67 78.5l72 51q11 -34 43.5 -56t72.5 -22q47 0 79 21t38 55q6 40 -27.5 64t-93.5 24h-71l36 137q-370 14 -583 192.5t-213 477.5
q0 188 79.5 353t212.5 280t312.5 181t374.5 66q351 0 559 -155t217 -416l-553 -100q-11 105 -75 163t-175 58q-98 0 -181 -54.5t-130 -143.5t-47 -191q0 -120 83 -189t224 -69q132 0 237 68.5t144 185.5z" />
    <glyph glyph-name="Egrave" unicode="&#xc8;" horiz-adv-x="1429" 
d="M907 1602l-217 251l62 52l217 -254zM8 0l234 1475h1278l-64 -400h-706l-27 -157h627l-56 -340h-624l-29 -179h729l-63 -399h-1299z" />
    <glyph glyph-name="Eacute" unicode="&#xc9;" horiz-adv-x="1429" 
d="M932 1597l-49 54l297 254l49 -56zM8 0l234 1475h1278l-64 -400h-706l-27 -157h627l-56 -340h-624l-29 -179h729l-63 -399h-1299z" />
    <glyph glyph-name="Ecircumflex" unicode="&#xca;" horiz-adv-x="1429" 
d="M598 1597l-43 64l348 223h111l278 -223l-55 -64l-285 224zM8 0l234 1475h1278l-64 -400h-706l-27 -157h627l-56 -340h-624l-29 -179h729l-63 -399h-1299z" />
    <glyph glyph-name="Edieresis" unicode="&#xcb;" horiz-adv-x="1429" 
d="M582 1577q-101 0 -157.5 64.5t-41.5 164.5q17 101 94 166.5t178 65.5q103 0 158.5 -65.5t40.5 -166.5q-17 -100 -93.5 -164.5t-178.5 -64.5zM1235 1577q-102 0 -159 65t-40 164q15 101 93 166.5t180 65.5t157.5 -65.5t38.5 -166.5q-15 -99 -91.5 -164t-178.5 -65zM8 0
l234 1475h1278l-64 -400h-706l-27 -157h627l-56 -340h-624l-29 -179h729l-63 -399h-1299z" />
    <glyph glyph-name="Igrave" unicode="&#xcc;" horiz-adv-x="772" 
d="M627 1602l-326 239l55 64l324 -240zM8 0l234 1475h589l-233 -1475h-590z" />
    <glyph glyph-name="Iacute" unicode="&#xcd;" horiz-adv-x="772" 
d="M489 1597l-36 68l401 240l35 -68zM8 0l234 1475h589l-233 -1475h-590z" />
    <glyph glyph-name="Icircumflex" unicode="&#xce;" horiz-adv-x="772" 
d="M299 1597l-49 62l297 225h110l224 -225l-60 -62l-227 226zM8 0l234 1475h589l-233 -1475h-590z" />
    <glyph glyph-name="Idieresis" unicode="&#xcf;" horiz-adv-x="772" 
d="M301 1577q-109 0 -171.5 75t-43.5 187q13 89 81 144t161 55q112 0 173 -75t44 -189q-14 -88 -81.5 -142.5t-162.5 -54.5zM846 1577q-109 0 -171.5 75t-43.5 187q12 88 79.5 143.5t159.5 55.5q112 0 174.5 -75t45.5 -189q-13 -87 -81.5 -142t-162.5 -55zM8 0l234 1475h589
l-233 -1475h-590z" />
    <glyph glyph-name="Ntilde" unicode="&#xd1;" horiz-adv-x="1966" 
d="M1350 1597q-64 0 -109 31t-90 86q-26 31 -42.5 47.5t-45 31.5t-59.5 15q-65 0 -114 -53.5t-61 -136.5h-84q20 119 95.5 195.5t175.5 76.5q30 0 58 -9t45.5 -18t42 -32t33 -32.5t32.5 -37.5q33 -40 63 -61t70 -21q65 0 115 54t63 139h82q-19 -121 -94 -198t-176 -77zM8 0
l234 1475h688l407 -861h4l138 861h544l-233 -1475h-688l-408 866h-4l-137 -866h-545z" />
    <glyph glyph-name="Ograve" unicode="&#xd2;" horiz-adv-x="1994" 
d="M1161 1602l-217 251l62 52l217 -254zM920 -49q-393 0 -620.5 176.5t-227.5 476.5q0 202 85 375.5t229.5 292t340.5 185.5t414 67q393 0 620.5 -177t227.5 -477q0 -161 -54.5 -305.5t-153.5 -255.5t-231.5 -192t-294 -123.5t-335.5 -42.5zM983 401q177 0 292.5 117
t115.5 287q0 125 -83.5 196.5t-230.5 71.5q-177 0 -292 -116.5t-115 -286.5q0 -125 83 -197t230 -72z" />
    <glyph glyph-name="Oacute" unicode="&#xd3;" horiz-adv-x="1994" 
d="M1186 1597l-49 54l297 254l49 -56zM920 -49q-393 0 -620.5 176.5t-227.5 476.5q0 202 85 375.5t229.5 292t340.5 185.5t414 67q393 0 620.5 -177t227.5 -477q0 -161 -54.5 -305.5t-153.5 -255.5t-231.5 -192t-294 -123.5t-335.5 -42.5zM983 401q177 0 292.5 117
t115.5 287q0 125 -83.5 196.5t-230.5 71.5q-177 0 -292 -116.5t-115 -286.5q0 -125 83 -197t230 -72z" />
    <glyph glyph-name="Ocircumflex" unicode="&#xd4;" horiz-adv-x="1994" 
d="M852 1597l-43 64l348 223h111l278 -223l-55 -64l-285 224zM920 -49q-393 0 -620.5 176.5t-227.5 476.5q0 202 85 375.5t229.5 292t340.5 185.5t414 67q393 0 620.5 -177t227.5 -477q0 -161 -54.5 -305.5t-153.5 -255.5t-231.5 -192t-294 -123.5t-335.5 -42.5zM983 401
q177 0 292.5 117t115.5 287q0 125 -83.5 196.5t-230.5 71.5q-177 0 -292 -116.5t-115 -286.5q0 -125 83 -197t230 -72z" />
    <glyph glyph-name="Otilde" unicode="&#xd5;" horiz-adv-x="1994" 
d="M1360 1597q-64 0 -109 31t-90 86q-26 31 -42.5 47.5t-45 31.5t-59.5 15q-64 0 -113 -53.5t-61 -136.5h-84q20 120 95 196t175 76q30 0 58 -9t45.5 -18t42 -32t33 -32.5t32.5 -37.5q33 -40 63 -61t70 -21q65 0 115 54t63 139h82q-19 -121 -94 -198t-176 -77zM920 -49
q-393 0 -620.5 176.5t-227.5 476.5q0 202 85 375.5t229.5 292t340.5 185.5t414 67q393 0 620.5 -177t227.5 -477q0 -161 -54.5 -305.5t-153.5 -255.5t-231.5 -192t-294 -123.5t-335.5 -42.5zM983 401q177 0 292.5 117t115.5 287q0 125 -83.5 196.5t-230.5 71.5
q-177 0 -292 -116.5t-115 -286.5q0 -125 83 -197t230 -72z" />
    <glyph glyph-name="Odieresis" unicode="&#xd6;" horiz-adv-x="1994" 
d="M838 1577q-101 0 -157.5 64.5t-41.5 164.5q17 101 94 166.5t178 65.5q103 0 158.5 -65.5t40.5 -166.5q-17 -100 -93.5 -164.5t-178.5 -64.5zM1491 1577q-102 0 -159 65t-40 164q15 101 93 166.5t180 65.5t157.5 -65.5t38.5 -166.5q-15 -99 -91.5 -164t-178.5 -65z
M920 -49q-393 0 -620.5 176.5t-227.5 476.5q0 202 85 375.5t229.5 292t340.5 185.5t414 67q393 0 620.5 -177t227.5 -477q0 -161 -54.5 -305.5t-153.5 -255.5t-231.5 -192t-294 -123.5t-335.5 -42.5zM983 401q177 0 292.5 117t115.5 287q0 125 -83.5 196.5t-230.5 71.5
q-177 0 -292 -116.5t-115 -286.5q0 -125 83 -197t230 -72z" />
    <glyph glyph-name="multiply" unicode="&#xd7;" horiz-adv-x="1130" 
d="M254 287l-195 266l258 184l-200 185l280 266l238 -213l307 213l195 -266l-258 -185l198 -184l-278 -266l-240 215z" />
    <glyph glyph-name="Oslash" unicode="&#xd8;" horiz-adv-x="1994" 
d="M1362 1507q295 -46 461 -214t166 -423q0 -161 -54.5 -305.5t-153.5 -255.5t-231.5 -192t-294 -123.5t-335.5 -42.5q-87 0 -185 10l-92 -227l-76 30l86 211q-276 56 -428.5 220.5t-152.5 408.5q0 202 85 375.5t229.5 292t340.5 185.5t414 67q69 0 137 -6l82 204l76 -32z
M670 670q0 -89 43 -152t123 -92l262 647h-21q-177 0 -292 -116.5t-115 -286.5zM983 401q177 0 292.5 117t115.5 287q0 100 -54.5 167.5t-154.5 90.5l-267 -657q50 -5 68 -5z" />
    <glyph glyph-name="Ugrave" unicode="&#xd9;" horiz-adv-x="1826" 
d="M1077 1602l-217 251l62 52l217 -254zM823 -39q-403 0 -592 166t-139 475l137 873h592l-131 -852q-17 -101 36 -156t169 -55q117 0 188 55t86 156l136 852h591l-139 -885q-50 -303 -291.5 -466t-642.5 -163z" />
    <glyph glyph-name="Uacute" unicode="&#xda;" horiz-adv-x="1826" 
d="M1102 1597l-49 54l297 254l49 -56zM823 -39q-403 0 -592 166t-139 475l137 873h592l-131 -852q-17 -101 36 -156t169 -55q117 0 188 55t86 156l136 852h591l-139 -885q-50 -303 -291.5 -466t-642.5 -163z" />
    <glyph glyph-name="Ucircumflex" unicode="&#xdb;" horiz-adv-x="1826" 
d="M768 1597l-43 64l348 223h111l278 -223l-55 -64l-285 224zM823 -39q-403 0 -592 166t-139 475l137 873h592l-131 -852q-17 -101 36 -156t169 -55q117 0 188 55t86 156l136 852h591l-139 -885q-50 -303 -291.5 -466t-642.5 -163z" />
    <glyph glyph-name="Udieresis" unicode="&#xdc;" horiz-adv-x="1826" 
d="M752 1577q-101 0 -157.5 64.5t-41.5 164.5q17 101 94 166.5t178 65.5q103 0 158.5 -65.5t40.5 -166.5q-17 -100 -93.5 -164.5t-178.5 -64.5zM1405 1577q-102 0 -159 65t-40 164q15 101 93 166.5t180 65.5t157.5 -65.5t38.5 -166.5q-15 -99 -91.5 -164t-178.5 -65z
M823 -39q-403 0 -592 166t-139 475l137 873h592l-131 -852q-17 -101 36 -156t169 -55q117 0 188 55t86 156l136 852h591l-139 -885q-50 -303 -291.5 -466t-642.5 -163z" />
    <glyph glyph-name="Yacute" unicode="&#xdd;" horiz-adv-x="1734" 
d="M1063 1597l-49 54l297 254l49 -56zM496 0l77 492l-423 983h608l174 -557h4l328 557h620l-719 -983l-78 -492h-591z" />
    <glyph glyph-name="germandbls" unicode="&#xdf;" horiz-adv-x="1767" 
d="M1425 713q44 -16 78.5 -32t73.5 -42t65 -55.5t43 -71.5t17 -90q0 -138 -76 -239t-208 -152t-304 -51q-160 0 -297.5 26.5t-220.5 73.5l152 307q59 -31 136.5 -49.5t145.5 -18.5q50 0 79.5 13.5t29.5 36.5q0 33 -76 59l-105 39q-106 36 -168.5 93t-62.5 151
q0 134 114.5 219t346.5 127q16 32 16 57q0 90 -194 90q-139 0 -227 -61t-105 -168l-154 -975h-530l145 920q47 303 281.5 469.5t603.5 166.5q340 0 527.5 -107t187.5 -300q0 -76 -29 -148.5t-82 -126.5q-342 -7 -342 -71q0 -29 45 -49z" />
    <glyph glyph-name="agrave" unicode="&#xe0;" horiz-adv-x="1519" 
d="M856 1229l-256 293l66 55l256 -295zM434 -25q-194 0 -304 112.5t-110 309.5q0 183 72.5 340.5t209.5 255t310 97.5q136 0 232 -71.5t125 -197.5h2l108 244h459l-168 -1065h-459l-32 242h-2q-69 -125 -187.5 -196t-255.5 -71zM727 358q96 0 158.5 64t62.5 151
q0 61 -45.5 97.5t-122.5 36.5q-96 0 -158.5 -64t-62.5 -151q0 -61 45.5 -97.5t122.5 -36.5z" />
    <glyph glyph-name="aacute" unicode="&#xe1;" horiz-adv-x="1519" 
d="M872 1229l-49 53l348 295l50 -55zM434 -25q-194 0 -304 112.5t-110 309.5q0 183 72.5 340.5t209.5 255t310 97.5q136 0 232 -71.5t125 -197.5h2l108 244h459l-168 -1065h-459l-32 242h-2q-69 -125 -187.5 -196t-255.5 -71zM727 358q96 0 158.5 64t62.5 151
q0 61 -45.5 97.5t-122.5 36.5q-96 0 -158.5 -64t-62.5 -151q0 -61 45.5 -97.5t122.5 -36.5z" />
    <glyph glyph-name="acircumflex" unicode="&#xe2;" horiz-adv-x="1519" 
d="M487 1208l-43 64l414 264h111l329 -264l-55 -64l-338 265zM434 -25q-194 0 -304 112.5t-110 309.5q0 183 72.5 340.5t209.5 255t310 97.5q136 0 232 -71.5t125 -197.5h2l108 244h459l-168 -1065h-459l-32 242h-2q-69 -125 -187.5 -196t-255.5 -71zM727 358q96 0 158.5 64
t62.5 151q0 61 -45.5 97.5t-122.5 36.5q-96 0 -158.5 -64t-62.5 -151q0 -61 45.5 -97.5t122.5 -36.5z" />
    <glyph glyph-name="atilde" unicode="&#xe3;" horiz-adv-x="1519" 
d="M1051 1208q-45 0 -84 18.5t-61 39.5t-50 55q-32 36 -46 50.5t-44.5 32t-63.5 17.5q-64 0 -112 -54t-62 -138h-82q20 119 95.5 195.5t175.5 76.5q46 0 85.5 -19.5t61 -40t51.5 -57.5q26 -31 42.5 -47.5t44.5 -31.5t59 -15q65 0 115 54t63 139h80q-19 -120 -94 -197.5
t-174 -77.5zM434 -25q-194 0 -304 112.5t-110 309.5q0 183 72.5 340.5t209.5 255t310 97.5q136 0 232 -71.5t125 -197.5h2l108 244h459l-168 -1065h-459l-32 242h-2q-69 -125 -187.5 -196t-255.5 -71zM727 358q96 0 158.5 64t62.5 151q0 61 -45.5 97.5t-122.5 36.5
q-96 0 -158.5 -64t-62.5 -151q0 -61 45.5 -97.5t122.5 -36.5z" />
    <glyph glyph-name="adieresis" unicode="&#xe4;" horiz-adv-x="1519" 
d="M516 1188q-92 0 -147.5 50.5t-55.5 133.5q0 108 80.5 182t192.5 74q91 0 146.5 -51t55.5 -131q0 -109 -79.5 -183.5t-192.5 -74.5zM1196 1188q-91 0 -147 50.5t-56 133.5q0 107 81.5 181.5t191.5 74.5q92 0 147 -50.5t55 -131.5q0 -109 -79.5 -183.5t-192.5 -74.5z
M434 -25q-194 0 -304 112.5t-110 309.5q0 183 72.5 340.5t209.5 255t310 97.5q136 0 232 -71.5t125 -197.5h2l108 244h459l-168 -1065h-459l-32 242h-2q-69 -125 -187.5 -196t-255.5 -71zM727 358q96 0 158.5 64t62.5 151q0 61 -45.5 97.5t-122.5 36.5q-96 0 -158.5 -64
t-62.5 -151q0 -61 45.5 -97.5t122.5 -36.5z" />
    <glyph glyph-name="aring" unicode="&#xe5;" horiz-adv-x="1519" 
d="M862 1208q-76 0 -121 44t-45 118q0 99 66 163t162 64q76 0 121 -43.5t45 -115.5q0 -100 -65 -165t-163 -65zM874 1286q55 0 93.5 39.5t38.5 99.5q0 43 -26.5 69t-70.5 26q-56 0 -94.5 -39.5t-38.5 -98.5q0 -44 27 -70t71 -26zM434 -25q-194 0 -304 112.5t-110 309.5
q0 183 72.5 340.5t209.5 255t310 97.5q136 0 232 -71.5t125 -197.5h2l108 244h459l-168 -1065h-459l-32 242h-2q-69 -125 -187.5 -196t-255.5 -71zM727 358q96 0 158.5 64t62.5 151q0 61 -45.5 97.5t-122.5 36.5q-96 0 -158.5 -64t-62.5 -151q0 -61 45.5 -97.5t122.5 -36.5z
" />
    <glyph glyph-name="ae" unicode="&#xe6;" horiz-adv-x="2254" 
d="M471 -33q-243 0 -375.5 85.5t-109.5 232.5q24 146 184.5 234t411.5 112l280 26q68 7 76 58q4 35 -33.5 53t-107.5 18q-99 0 -204 -38.5t-192 -110.5l-297 149q118 148 299.5 230t378.5 82q291 0 426 -142q203 142 478 142q283 0 427.5 -147.5t106.5 -397.5
q-15 -89 -43 -143h-840q14 -67 81 -98t165 -31q100 0 197 24t157 62l209 -201q-107 -93 -268 -146t-346 -53q-161 0 -276 41.5t-205 120.5q-97 -72 -258 -117t-322 -45zM1370 633h334q10 72 -27 117t-106 45q-66 0 -118.5 -43.5t-82.5 -118.5zM631 276q94 0 169.5 41.5
t84.5 100.5l4 28l-197 -18q-154 -13 -166 -84q-4 -31 25 -49.5t80 -18.5z" />
    <glyph glyph-name="ccedilla" unicode="&#xe7;" horiz-adv-x="1480" 
d="M1446 457q-62 -218 -255.5 -349.5t-469.5 -140.5l-19 -65q92 -6 138 -49.5t34 -124.5q-9 -64 -68.5 -106t-143.5 -42q-59 0 -107.5 30.5t-67.5 78.5l72 51q10 -34 43.5 -56t73.5 -22q47 0 79 21t38 55q6 40 -27.5 64t-93.5 24h-72l39 141q-288 9 -450 135t-162 340
q0 144 60 267.5t163 208t243 132.5t298 48q282 0 448.5 -121.5t163.5 -325.5l-500 -86q6 83 -29 128.5t-108 45.5q-92 0 -149.5 -78t-57.5 -176q0 -74 47 -116.5t129 -42.5q85 0 148.5 52t85.5 142z" />
    <glyph glyph-name="egrave" unicode="&#xe8;" horiz-adv-x="1468" 
d="M842 1229l-256 293l65 55l256 -295zM750 -33q-332 0 -527.5 128t-195.5 349q0 143 64.5 266.5t172.5 207.5t252.5 132t302.5 48q288 0 455.5 -123t167.5 -334q0 -57 -14 -123t-37 -108h-838q11 -44 48 -74t87.5 -42.5t114.5 -12.5q97 0 193.5 24.5t156.5 61.5l199 -195
q-93 -93 -256.5 -149t-345.5 -56zM586 633h338q3 78 -33 120t-103 42q-72 0 -127 -44t-75 -118z" />
    <glyph glyph-name="eacute" unicode="&#xe9;" horiz-adv-x="1468" 
d="M860 1229l-49 53l348 295l49 -55zM750 -33q-332 0 -527.5 128t-195.5 349q0 143 64.5 266.5t172.5 207.5t252.5 132t302.5 48q288 0 455.5 -123t167.5 -334q0 -57 -14 -123t-37 -108h-838q11 -44 48 -74t87.5 -42.5t114.5 -12.5q97 0 193.5 24.5t156.5 61.5l199 -195
q-93 -93 -256.5 -149t-345.5 -56zM586 633h338q3 78 -33 120t-103 42q-72 0 -127 -44t-75 -118z" />
    <glyph glyph-name="ecircumflex" unicode="&#xea;" horiz-adv-x="1468" 
d="M473 1208l-43 64l414 264h110l330 -264l-55 -64l-338 265zM750 -33q-332 0 -527.5 128t-195.5 349q0 143 64.5 266.5t172.5 207.5t252.5 132t302.5 48q288 0 455.5 -123t167.5 -334q0 -57 -14 -123t-37 -108h-838q11 -44 48 -74t87.5 -42.5t114.5 -12.5q97 0 193.5 24.5
t156.5 61.5l199 -195q-93 -93 -256.5 -149t-345.5 -56zM586 633h338q3 78 -33 120t-103 42q-72 0 -127 -44t-75 -118z" />
    <glyph glyph-name="edieresis" unicode="&#xeb;" horiz-adv-x="1468" 
d="M504 1188q-92 0 -147.5 50.5t-55.5 133.5q0 108 80.5 182t191.5 74q91 0 147 -51t56 -131q0 -109 -79.5 -183.5t-192.5 -74.5zM1184 1188q-91 0 -147 50.5t-56 133.5q0 107 81 181.5t191 74.5q93 0 148 -50.5t55 -131.5q0 -109 -79.5 -183.5t-192.5 -74.5zM750 -33
q-332 0 -527.5 128t-195.5 349q0 143 64.5 266.5t172.5 207.5t252.5 132t302.5 48q288 0 455.5 -123t167.5 -334q0 -57 -14 -123t-37 -108h-838q11 -44 48 -74t87.5 -42.5t114.5 -12.5q97 0 193.5 24.5t156.5 61.5l199 -195q-93 -93 -256.5 -149t-345.5 -56zM586 633h338
q3 78 -33 120t-103 42q-72 0 -127 -44t-75 -118z" />
    <glyph glyph-name="igrave" unicode="&#xec;" horiz-adv-x="661" 
d="M578 1147l-381 280l57 68l379 -281zM-18 0l168 1065h530l-168 -1065h-530z" />
    <glyph glyph-name="iacute" unicode="&#xed;" horiz-adv-x="661" 
d="M301 1147l-35 67l469 281l35 -68zM-18 0l168 1065h530l-168 -1065h-530z" />
    <glyph glyph-name="icircumflex" unicode="&#xee;" horiz-adv-x="661" 
d="M240 1208l-62 49l256 279h111l172 -279l-70 -49l-164 265zM-18 0l168 1065h530l-168 -1065h-530z" />
    <glyph glyph-name="idieresis" unicode="&#xef;" horiz-adv-x="661" 
d="M195 1188q-109 0 -172 72.5t-46 179.5q13 84 80 136t160 52q113 0 175.5 -72.5t43.5 -181.5q-12 -83 -79 -134.5t-162 -51.5zM721 1188q-109 0 -172.5 72.5t-44.5 179.5q12 84 79 136t160 52q112 0 174.5 -72.5t45.5 -181.5q-13 -83 -80.5 -134.5t-161.5 -51.5zM-18 0
l168 1065h530l-168 -1065h-530z" />
    <glyph glyph-name="ntilde" unicode="&#xf1;" 
d="M1034 1208q-45 0 -84 18.5t-60.5 39t-49.5 55.5q-32 36 -46 50.5t-44.5 32t-63.5 17.5q-64 0 -112 -54t-62 -138h-82q20 120 95 196t175 76q46 0 86 -19.5t61.5 -40.5t51.5 -57q27 -32 42.5 -48t43.5 -31t59 -15q65 0 115.5 54t63.5 139h80q-19 -120 -94.5 -197.5
t-174.5 -77.5zM1106 1090q189 0 284 -106t64 -288l-111 -696h-528l92 592q12 72 -18 111.5t-96 39.5q-77 0 -129 -48.5t-64 -135.5l-88 -559h-530l168 1065h442l29 -242h2q79 125 205 196t278 71z" />
    <glyph glyph-name="ograve" unicode="&#xf2;" horiz-adv-x="1509" 
d="M856 1229l-256 293l66 55l256 -295zM674 -33q-305 0 -477 125.5t-172 343.5q0 197 111.5 350t294.5 232.5t403 79.5q306 0 477.5 -125.5t171.5 -343.5q0 -149 -64.5 -274.5t-175 -209.5t-257.5 -131t-312 -47zM731 324q99 0 160 79.5t61 182.5q0 74 -47 114.5t-127 40.5
q-102 0 -161.5 -79t-59.5 -179q0 -76 47 -117.5t127 -41.5z" />
    <glyph glyph-name="oacute" unicode="&#xf3;" horiz-adv-x="1509" 
d="M872 1229l-49 53l348 295l50 -55zM674 -33q-305 0 -477 125.5t-172 343.5q0 197 111.5 350t294.5 232.5t403 79.5q306 0 477.5 -125.5t171.5 -343.5q0 -149 -64.5 -274.5t-175 -209.5t-257.5 -131t-312 -47zM731 324q99 0 160 79.5t61 182.5q0 74 -47 114.5t-127 40.5
q-102 0 -161.5 -79t-59.5 -179q0 -76 47 -117.5t127 -41.5z" />
    <glyph glyph-name="ocircumflex" unicode="&#xf4;" horiz-adv-x="1509" 
d="M487 1208l-43 64l414 264h111l329 -264l-55 -64l-338 265zM674 -33q-305 0 -477 125.5t-172 343.5q0 197 111.5 350t294.5 232.5t403 79.5q306 0 477.5 -125.5t171.5 -343.5q0 -149 -64.5 -274.5t-175 -209.5t-257.5 -131t-312 -47zM731 324q99 0 160 79.5t61 182.5
q0 74 -47 114.5t-127 40.5q-102 0 -161.5 -79t-59.5 -179q0 -76 47 -117.5t127 -41.5z" />
    <glyph glyph-name="otilde" unicode="&#xf5;" horiz-adv-x="1509" 
d="M1051 1208q-45 0 -84 18.5t-61 39.5t-50 55q-32 36 -46 50.5t-44.5 32t-63.5 17.5q-64 0 -112 -54t-62 -138h-82q20 119 95.5 195.5t175.5 76.5q46 0 85.5 -19.5t61 -40t51.5 -57.5q26 -31 42.5 -47.5t44.5 -31.5t59 -15q65 0 115 54t63 139h80q-19 -120 -94 -197.5
t-174 -77.5zM674 -33q-305 0 -477 125.5t-172 343.5q0 197 111.5 350t294.5 232.5t403 79.5q306 0 477.5 -125.5t171.5 -343.5q0 -149 -64.5 -274.5t-175 -209.5t-257.5 -131t-312 -47zM731 324q99 0 160 79.5t61 182.5q0 74 -47 114.5t-127 40.5q-102 0 -161.5 -79
t-59.5 -179q0 -76 47 -117.5t127 -41.5z" />
    <glyph glyph-name="odieresis" unicode="&#xf6;" horiz-adv-x="1509" 
d="M518 1188q-92 0 -147.5 50.5t-55.5 133.5q0 108 80.5 182t192.5 74q91 0 147 -51t56 -131q0 -109 -80 -183.5t-193 -74.5zM1198 1188q-91 0 -147 50.5t-56 133.5q0 107 81.5 181.5t191.5 74.5q92 0 147 -50.5t55 -131.5q0 -109 -79.5 -183.5t-192.5 -74.5zM674 -33
q-305 0 -477 125.5t-172 343.5q0 197 111.5 350t294.5 232.5t403 79.5q306 0 477.5 -125.5t171.5 -343.5q0 -149 -64.5 -274.5t-175 -209.5t-257.5 -131t-312 -47zM731 324q99 0 160 79.5t61 182.5q0 74 -47 114.5t-127 40.5q-102 0 -161.5 -79t-59.5 -179q0 -76 47 -117.5
t127 -41.5z" />
    <glyph glyph-name="divide" unicode="&#xf7;" horiz-adv-x="1177" 
d="M670 901q-112 0 -174 77t-43 191q15 91 82 147t161 56q111 0 172.5 -76.5t42.5 -191.5q-13 -89 -81 -146t-160 -57zM78 676l12 82h1067l-12 -82h-1067zM537 61q-112 0 -174.5 77.5t-43.5 191.5q15 91 82.5 146.5t161.5 55.5q111 0 172.5 -76.5t42.5 -191.5
q-13 -89 -81 -146t-160 -57z" />
    <glyph glyph-name="oslash" unicode="&#xf8;" horiz-adv-x="1505" 
d="M1032 1081q242 -43 359.5 -187t83.5 -362q-27 -171 -136 -299.5t-281 -197t-386 -68.5q-32 0 -90 4l-189 -463l-74 31l179 441q-253 38 -377 183.5t-90 368.5q27 171 136 299.5t281.5 197.5t385.5 69q58 0 114 -6l164 405l76 -33zM547 543q-12 -77 14 -130t82 -75
l164 403q-10 2 -33 2q-92 0 -152.5 -54.5t-74.5 -145.5zM958 528q20 132 -73 189l-162 -395h6q92 0 153 55t76 151z" />
    <glyph glyph-name="ugrave" unicode="&#xf9;" 
d="M840 1229l-256 293l65 55l256 -295zM379 -25q-189 0 -284 106t-64 288l110 696h529l-92 -592q-12 -72 18 -111.5t96 -39.5q77 0 129 48.5t64 135.5l88 559h530l-168 -1065h-442l-29 242h-2q-79 -125 -205 -196t-278 -71z" />
    <glyph glyph-name="uacute" unicode="&#xfa;" 
d="M858 1229l-49 53l348 295l49 -55zM379 -25q-189 0 -284 106t-64 288l110 696h529l-92 -592q-12 -72 18 -111.5t96 -39.5q77 0 129 48.5t64 135.5l88 559h530l-168 -1065h-442l-29 242h-2q-79 -125 -205 -196t-278 -71z" />
    <glyph glyph-name="ucircumflex" unicode="&#xfb;" 
d="M471 1208l-43 64l414 264h110l330 -264l-55 -64l-338 265zM379 -25q-189 0 -284 106t-64 288l110 696h529l-92 -592q-12 -72 18 -111.5t96 -39.5q77 0 129 48.5t64 135.5l88 559h530l-168 -1065h-442l-29 242h-2q-79 -125 -205 -196t-278 -71z" />
    <glyph glyph-name="udieresis" unicode="&#xfc;" 
d="M502 1188q-92 0 -147.5 50.5t-55.5 133.5q0 108 80.5 182t191.5 74q91 0 147 -51t56 -131q0 -109 -79.5 -183.5t-192.5 -74.5zM1182 1188q-91 0 -147 50.5t-56 133.5q0 107 81 181.5t191 74.5q93 0 148 -50.5t55 -131.5q0 -109 -79.5 -183.5t-192.5 -74.5zM379 -25
q-189 0 -284 106t-64 288l110 696h529l-92 -592q-12 -72 18 -111.5t96 -39.5q77 0 129 48.5t64 135.5l88 559h530l-168 -1065h-442l-29 242h-2q-79 -125 -205 -196t-278 -71z" />
    <glyph glyph-name="yacute" unicode="&#xfd;" horiz-adv-x="1492" 
d="M866 1229l-49 53l348 295l49 -55zM426 -463q-166 0 -329.5 38t-272.5 103l199 363q91 -51 202 -81t209 -30q169 0 282.5 74.5t133.5 198.5l12 84h-2q-61 -126 -182 -199.5t-266 -73.5q-197 0 -295 121.5t-66 317.5l99 612h530l-84 -528q-12 -78 18 -125t93 -47
q75 0 127.5 50t64.5 136l82 514h530l-141 -899q-46 -287 -303 -458t-641 -171z" />
    <glyph glyph-name="ydieresis" unicode="&#xff;" horiz-adv-x="1492" 
d="M510 1188q-92 0 -147.5 50.5t-55.5 133.5q0 108 80.5 182t192.5 74q91 0 146.5 -51t55.5 -131q0 -109 -79.5 -183.5t-192.5 -74.5zM1190 1188q-91 0 -147 50.5t-56 133.5q0 107 81.5 181.5t191.5 74.5q92 0 147 -50.5t55 -131.5q0 -109 -79.5 -183.5t-192.5 -74.5z
M426 -463q-166 0 -329.5 38t-272.5 103l199 363q91 -51 202 -81t209 -30q169 0 282.5 74.5t133.5 198.5l12 84h-2q-61 -126 -182 -199.5t-266 -73.5q-197 0 -295 121.5t-66 317.5l99 612h530l-84 -528q-12 -78 18 -125t93 -47q75 0 127.5 50t64.5 136l82 514h530l-141 -899
q-46 -287 -303 -458t-641 -171z" />
    <glyph glyph-name="Amacron" unicode="&#x100;" horiz-adv-x="1845" 
d="M717 1618l12 82h758l-12 -82h-758zM-86 0l811 1475h705l331 -1475h-608l-33 231h-502l-112 -231h-592zM760 573h330l-78 504h-4z" />
    <glyph glyph-name="amacron" unicode="&#x101;" horiz-adv-x="1519" 
d="M481 1208l13 82h757l-12 -82h-758zM434 -25q-194 0 -304 112.5t-110 309.5q0 183 72.5 340.5t209.5 255t310 97.5q136 0 232 -71.5t125 -197.5h2l108 244h459l-168 -1065h-459l-32 242h-2q-69 -125 -187.5 -196t-255.5 -71zM727 358q96 0 158.5 64t62.5 151
q0 61 -45.5 97.5t-122.5 36.5q-96 0 -158.5 -64t-62.5 -151q0 -61 45.5 -97.5t122.5 -36.5z" />
    <glyph glyph-name="Abreve" unicode="&#x102;" horiz-adv-x="1845" 
d="M1094 1618q-148 0 -232 75t-65 191h80q-12 -80 51.5 -133t175.5 -53t194.5 53t94.5 133h84q-19 -116 -127 -191t-256 -75zM-86 0l811 1475h705l331 -1475h-608l-33 231h-502l-112 -231h-592zM760 573h330l-78 504h-4z" />
    <glyph glyph-name="abreve" unicode="&#x103;" horiz-adv-x="1519" 
d="M860 1208q-174 0 -272.5 93t-75.5 235h78q-17 -107 61.5 -177.5t216.5 -70.5t240 70.5t119 177.5h86q-23 -143 -151 -235.5t-302 -92.5zM434 -25q-194 0 -304 112.5t-110 309.5q0 183 72.5 340.5t209.5 255t310 97.5q136 0 232 -71.5t125 -197.5h2l108 244h459
l-168 -1065h-459l-32 242h-2q-69 -125 -187.5 -196t-255.5 -71zM727 358q96 0 158.5 64t62.5 151q0 61 -45.5 97.5t-122.5 36.5q-96 0 -158.5 -64t-62.5 -151q0 -61 45.5 -97.5t122.5 -36.5z" />
    <glyph glyph-name="Aogonek" unicode="&#x104;" horiz-adv-x="1845" 
d="M1649 0q-201 -63 -299 -117.5t-109 -132.5q-6 -43 23 -68.5t84 -25.5q37 0 81.5 22t79.5 58l52 -55q-49 -46 -112.5 -73.5t-119.5 -27.5q-89 0 -137 45t-37 119q11 83 81 143.5t198 112.5h-281l-33 231h-502l-112 -231h-592l811 1475h705l331 -1475h-112zM760 573h330
l-78 504h-4z" />
    <glyph glyph-name="aogonek" unicode="&#x105;" horiz-adv-x="1519" 
d="M1370 0q-201 -63 -298.5 -117.5t-108.5 -132.5q-6 -43 22.5 -68.5t83.5 -25.5q37 0 82 22t80 58l51 -55q-50 -46 -113 -73.5t-118 -27.5q-89 0 -137 45t-37 119q12 83 81 143.5t197 112.5h-244l-32 242h-2q-69 -125 -187.5 -196t-255.5 -71q-194 0 -304 112.5t-110 309.5
q0 183 72.5 340.5t209.5 255t310 97.5q136 0 232 -71.5t125 -197.5h2l108 244h459zM727 358q96 0 158.5 64t62.5 151q0 61 -45.5 97.5t-122.5 36.5q-96 0 -158.5 -64t-62.5 -151q0 -61 45.5 -97.5t122.5 -36.5z" />
    <glyph glyph-name="Cacute" unicode="&#x106;" horiz-adv-x="1902" 
d="M1102 1597l-49 54l297 254l49 -56zM932 -39q-395 0 -625.5 180.5t-230.5 491.5q0 188 79.5 353t212.5 280t312.5 181t374.5 66q351 0 559 -155t217 -416l-553 -100q-11 105 -75 163t-175 58q-98 0 -181 -54.5t-130 -143.5t-47 -191q0 -120 83 -189t224 -69
q132 0 237 68.5t144 185.5l534 -74q-56 -187 -198 -332t-340.5 -224t-421.5 -79z" />
    <glyph glyph-name="cacute" unicode="&#x107;" horiz-adv-x="1480" 
d="M827 1229l-49 53l348 295l50 -55zM682 -33q-308 0 -481.5 126.5t-173.5 348.5q0 144 60 267.5t163 208t243 132.5t298 48q282 0 448.5 -121.5t163.5 -325.5l-500 -86q6 83 -29 128.5t-108 45.5q-92 0 -149.5 -78t-57.5 -176q0 -74 47 -116.5t129 -42.5q85 0 148.5 52
t85.5 142l477 -63q-63 -225 -269 -357.5t-495 -132.5z" />
    <glyph glyph-name="Ccircumflex" unicode="&#x108;" horiz-adv-x="1902" 
d="M768 1597l-43 64l348 223h111l278 -223l-55 -64l-285 224zM932 -39q-395 0 -625.5 180.5t-230.5 491.5q0 188 79.5 353t212.5 280t312.5 181t374.5 66q351 0 559 -155t217 -416l-553 -100q-11 105 -75 163t-175 58q-98 0 -181 -54.5t-130 -143.5t-47 -191q0 -120 83 -189
t224 -69q132 0 237 68.5t144 185.5l534 -74q-56 -187 -198 -332t-340.5 -224t-421.5 -79z" />
    <glyph glyph-name="ccircumflex" unicode="&#x109;" horiz-adv-x="1480" 
d="M440 1208l-43 64l414 264h111l329 -264l-55 -64l-338 265zM682 -33q-308 0 -481.5 126.5t-173.5 348.5q0 144 60 267.5t163 208t243 132.5t298 48q282 0 448.5 -121.5t163.5 -325.5l-500 -86q6 83 -29 128.5t-108 45.5q-92 0 -149.5 -78t-57.5 -176q0 -74 47 -116.5
t129 -42.5q85 0 148.5 52t85.5 142l477 -63q-63 -225 -269 -357.5t-495 -132.5z" />
    <glyph glyph-name="Cdotaccent" unicode="&#x10a;" horiz-adv-x="1902" 
d="M1075 1567q-102 0 -165.5 56t-63.5 146q0 118 90.5 198.5t214.5 80.5q104 0 167.5 -55.5t63.5 -145.5q0 -122 -88.5 -201t-218.5 -79zM932 -39q-395 0 -625.5 180.5t-230.5 491.5q0 188 79.5 353t212.5 280t312.5 181t374.5 66q351 0 559 -155t217 -416l-553 -100
q-11 105 -75 163t-175 58q-98 0 -181 -54.5t-130 -143.5t-47 -191q0 -120 83 -189t224 -69q132 0 237 68.5t144 185.5l534 -74q-56 -187 -198 -332t-340.5 -224t-421.5 -79z" />
    <glyph glyph-name="cdotaccent" unicode="&#x10b;" horiz-adv-x="1480" 
d="M809 1167q-107 0 -173.5 58t-66.5 149q0 125 93 210t225 85q108 0 173.5 -58.5t65.5 -152.5q0 -123 -92.5 -207t-224.5 -84zM682 -33q-308 0 -481.5 126.5t-173.5 348.5q0 144 60 267.5t163 208t243 132.5t298 48q282 0 448.5 -121.5t163.5 -325.5l-500 -86
q6 83 -29 128.5t-108 45.5q-92 0 -149.5 -78t-57.5 -176q0 -74 47 -116.5t129 -42.5q85 0 148.5 52t85.5 142l477 -63q-63 -225 -269 -357.5t-495 -132.5z" />
    <glyph glyph-name="Ccaron" unicode="&#x10c;" horiz-adv-x="1902" 
d="M1030 1618l-276 223l57 64l281 -224l356 224l43 -64l-350 -223h-111zM932 -39q-395 0 -625.5 180.5t-230.5 491.5q0 188 79.5 353t212.5 280t312.5 181t374.5 66q351 0 559 -155t217 -416l-553 -100q-11 105 -75 163t-175 58q-98 0 -181 -54.5t-130 -143.5t-47 -191
q0 -120 83 -189t224 -69q132 0 237 68.5t144 185.5l534 -74q-56 -187 -198 -332t-340.5 -224t-421.5 -79z" />
    <glyph glyph-name="ccaron" unicode="&#x10d;" horiz-adv-x="1480" 
d="M762 1229l-330 264l55 63l334 -264l422 264l43 -63l-414 -264h-110zM682 -33q-308 0 -481.5 126.5t-173.5 348.5q0 144 60 267.5t163 208t243 132.5t298 48q282 0 448.5 -121.5t163.5 -325.5l-500 -86q6 83 -29 128.5t-108 45.5q-92 0 -149.5 -78t-57.5 -176
q0 -74 47 -116.5t129 -42.5q85 0 148.5 52t85.5 142l477 -63q-63 -225 -269 -357.5t-495 -132.5z" />
    <glyph glyph-name="Dcaron" unicode="&#x10e;" horiz-adv-x="1845" 
d="M991 1618l-276 223l57 64l281 -224l356 224l43 -64l-350 -223h-111zM8 0l234 1475h805q380 0 583 -158.5t203 -454.5q0 -415 -254.5 -638.5t-728.5 -223.5h-842zM645 420h219q184 0 283.5 100t99.5 283q0 123 -72.5 187.5t-209.5 64.5h-220z" />
    <glyph glyph-name="dcaron" unicode="&#x10f;" horiz-adv-x="1519" 
d="M416 -25q-186 0 -291 111.5t-105 306.5q0 137 41.5 263t114.5 222.5t181.5 154t234.5 57.5q145 0 246 -70.5t129 -192.5h2l114 709h531l-244 -1536h-452l-33 242h-2q-68 -125 -194 -196t-273 -71zM1649 1049l6 69q130 -37 228 2.5t110 132.5q-44 -30 -92 -40t-88 1
t-71 35.5t-45 64t-7 85.5q9 61 59.5 99t124.5 38q106 0 162 -76t39 -192q-19 -135 -137.5 -196t-288.5 -23zM727 358q96 0 158.5 64t62.5 151q0 61 -45.5 97.5t-122.5 36.5q-96 0 -158.5 -64t-62.5 -151q0 -61 45.5 -97.5t122.5 -36.5z" />
    <glyph glyph-name="Dcroat" unicode="&#x110;" horiz-adv-x="1927" 
d="M1128 1475q380 0 583.5 -158.5t203.5 -454.5q0 -414 -254 -638t-727 -224h-844l123 778h-219l12 82h221l97 615h804zM946 420q184 0 283.5 100t99.5 283q0 124 -72 188t-208 64h-222l-30 -195h252l-15 -82h-250l-57 -358h219z" />
    <glyph glyph-name="dcroat" unicode="&#x111;" horiz-adv-x="1521" 
d="M1735 1311l-9 -80h-161l-195 -1231h-452l-33 242h-2q-68 -125 -194 -196t-273 -71q-186 0 -291 111.5t-105 306.5q0 137 41.5 263t114.5 222.5t181.5 154t234.5 57.5q145 0 246 -70.5t129 -192.5h2l65 404h-299l8 80h304l36 225h531l-35 -225h156zM727 358q96 0 158.5 64
t62.5 151q0 61 -45.5 97.5t-122.5 36.5q-96 0 -158.5 -64t-62.5 -151q0 -61 45.5 -97.5t122.5 -36.5z" />
    <glyph glyph-name="Emacron" unicode="&#x112;" horiz-adv-x="1429" 
d="M537 1618l12 82h758l-13 -82h-757zM8 0l234 1475h1278l-64 -400h-706l-27 -157h627l-56 -340h-624l-29 -179h729l-63 -399h-1299z" />
    <glyph glyph-name="emacron" unicode="&#x113;" horiz-adv-x="1468" 
d="M469 1208l12 82h758l-12 -82h-758zM750 -33q-332 0 -527.5 128t-195.5 349q0 143 64.5 266.5t172.5 207.5t252.5 132t302.5 48q288 0 455.5 -123t167.5 -334q0 -57 -14 -123t-37 -108h-838q11 -44 48 -74t87.5 -42.5t114.5 -12.5q97 0 193.5 24.5t156.5 61.5l199 -195
q-93 -93 -256.5 -149t-345.5 -56zM586 633h338q3 78 -33 120t-103 42q-72 0 -127 -44t-75 -118z" />
    <glyph glyph-name="Ebreve" unicode="&#x114;" horiz-adv-x="1429" 
d="M913 1618q-148 0 -232 75t-65 191h80q-12 -80 52 -133t176 -53t194 53t94 133h84q-19 -116 -127 -191t-256 -75zM8 0l234 1475h1278l-64 -400h-706l-27 -157h627l-56 -340h-624l-29 -179h729l-63 -399h-1299z" />
    <glyph glyph-name="ebreve" unicode="&#x115;" horiz-adv-x="1468" 
d="M846 1208q-174 0 -272.5 93t-75.5 235h77q-17 -107 62 -177.5t217 -70.5t239.5 70.5t118.5 177.5h86q-23 -143 -150.5 -235.5t-301.5 -92.5zM750 -33q-332 0 -527.5 128t-195.5 349q0 143 64.5 266.5t172.5 207.5t252.5 132t302.5 48q288 0 455.5 -123t167.5 -334
q0 -57 -14 -123t-37 -108h-838q11 -44 48 -74t87.5 -42.5t114.5 -12.5q97 0 193.5 24.5t156.5 61.5l199 -195q-93 -93 -256.5 -149t-345.5 -56zM586 633h338q3 78 -33 120t-103 42q-72 0 -127 -44t-75 -118z" />
    <glyph glyph-name="Edotaccent" unicode="&#x116;" horiz-adv-x="1429" 
d="M905 1567q-102 0 -165.5 56t-63.5 146q0 118 90.5 198.5t214.5 80.5q104 0 167.5 -55.5t63.5 -145.5q0 -122 -88.5 -201t-218.5 -79zM8 0l234 1475h1278l-64 -400h-706l-27 -157h627l-56 -340h-624l-29 -179h729l-63 -399h-1299z" />
    <glyph glyph-name="edotaccent" unicode="&#x117;" horiz-adv-x="1468" 
d="M842 1167q-107 0 -173.5 58t-66.5 149q0 125 93 210t225 85q108 0 173.5 -58.5t65.5 -152.5q0 -123 -92.5 -207t-224.5 -84zM750 -33q-332 0 -527.5 128t-195.5 349q0 143 64.5 266.5t172.5 207.5t252.5 132t302.5 48q288 0 455.5 -123t167.5 -334q0 -57 -14 -123
t-37 -108h-838q11 -44 48 -74t87.5 -42.5t114.5 -12.5q97 0 193.5 24.5t156.5 61.5l199 -195q-93 -93 -256.5 -149t-345.5 -56zM586 633h338q3 78 -33 120t-103 42q-72 0 -127 -44t-75 -118z" />
    <glyph glyph-name="Eogonek" unicode="&#x118;" horiz-adv-x="1429" 
d="M1456 1075h-706l-27 -157h627l-56 -340h-624l-29 -179h729l-63 -399q-201 -63 -299 -117.5t-109 -132.5q-6 -43 23 -68.5t84 -25.5q37 0 81.5 22t79.5 58l52 -55q-49 -46 -112.5 -73.5t-119.5 -27.5q-89 0 -137 45t-37 119q11 83 81 143.5t198 112.5h-1084l234 1475h1278
z" />
    <glyph glyph-name="eogonek" unicode="&#x119;" horiz-adv-x="1468" 
d="M1442 641q0 -57 -14 -123t-37 -108h-838q11 -44 48 -74t87.5 -42.5t114.5 -12.5q97 0 193.5 24.5t156.5 61.5l199 -195q-113 -113 -322 -168l2 -4q-201 -63 -298.5 -117.5t-108.5 -132.5q-6 -43 22.5 -68.5t83.5 -25.5q37 0 82 22t80 58l51 -55q-50 -46 -113 -73.5
t-118 -27.5q-89 0 -137 45t-37 119q16 130 204 223q-329 2 -522.5 130t-193.5 347q0 143 64.5 266.5t172.5 207.5t252.5 132t302.5 48q288 0 455.5 -123t167.5 -334zM924 633q3 78 -33 120t-103 42q-72 0 -127 -44t-75 -118h338z" />
    <glyph glyph-name="Ecaron" unicode="&#x11a;" horiz-adv-x="1429" 
d="M860 1618l-276 223l57 64l281 -224l356 224l43 -64l-350 -223h-111zM8 0l234 1475h1278l-64 -400h-706l-27 -157h627l-56 -340h-624l-29 -179h729l-63 -399h-1299z" />
    <glyph glyph-name="ecaron" unicode="&#x11b;" horiz-adv-x="1468" 
d="M795 1229l-330 264l55 63l334 -264l422 264l43 -63l-414 -264h-110zM750 -33q-332 0 -527.5 128t-195.5 349q0 143 64.5 266.5t172.5 207.5t252.5 132t302.5 48q288 0 455.5 -123t167.5 -334q0 -57 -14 -123t-37 -108h-838q11 -44 48 -74t87.5 -42.5t114.5 -12.5
q97 0 193.5 24.5t156.5 61.5l199 -195q-93 -93 -256.5 -149t-345.5 -56zM586 633h338q3 78 -33 120t-103 42q-72 0 -127 -44t-75 -118z" />
    <glyph glyph-name="Gcircumflex" unicode="&#x11c;" horiz-adv-x="1966" 
d="M793 1597l-43 64l348 223h110l279 -223l-55 -64l-285 224zM774 -33q-327 0 -515.5 163.5t-188.5 442.5q0 269 133 485t361.5 335.5t506.5 119.5q329 0 528.5 -138t223.5 -371l-563 -89q-17 73 -79 115.5t-153 42.5q-157 0 -258.5 -114.5t-101.5 -280.5q0 -134 86 -211.5
t235 -77.5q130 0 224 47t122 127h-506l48 297h1071l-136 -860h-438l8 236h-2q-98 -123 -262.5 -196t-343.5 -73z" />
    <glyph glyph-name="gcircumflex" unicode="&#x11d;" horiz-adv-x="1521" 
d="M477 1208l-43 64l414 264h110l330 -264l-55 -64l-338 265zM442 -463q-190 0 -351 32t-253 89l203 365q79 -51 191.5 -81t222.5 -30q170 0 280 63t127 170l10 58h-2q-69 -87 -190 -138t-260 -51q-187 0 -291 107t-104 295q0 132 42 255t116 217t183 150t234 56
q144 0 243.5 -73t127.5 -198h2l106 242h461l-145 -918q-30 -189 -156.5 -327.5t-331 -210.5t-465.5 -72zM727 354q97 0 159 68t62 162q0 65 -43.5 101t-122.5 36q-97 0 -159 -67t-62 -162q0 -65 43.5 -101.5t122.5 -36.5z" />
    <glyph glyph-name="Gbreve" unicode="&#x11e;" horiz-adv-x="1966" 
d="M1108 1618q-148 0 -232 75t-65 191h80q-12 -80 51.5 -133t175.5 -53t194.5 53t94.5 133h84q-19 -116 -127 -191t-256 -75zM774 -33q-327 0 -515.5 163.5t-188.5 442.5q0 269 133 485t361.5 335.5t506.5 119.5q329 0 528.5 -138t223.5 -371l-563 -89q-17 73 -79 115.5
t-153 42.5q-157 0 -258.5 -114.5t-101.5 -280.5q0 -134 86 -211.5t235 -77.5q130 0 224 47t122 127h-506l48 297h1071l-136 -860h-438l8 236h-2q-98 -123 -262.5 -196t-343.5 -73z" />
    <glyph glyph-name="gbreve" unicode="&#x11f;" horiz-adv-x="1521" 
d="M850 1208q-174 0 -272.5 93t-75.5 235h78q-17 -107 61.5 -177.5t216.5 -70.5t240 70.5t119 177.5h86q-23 -143 -151 -235.5t-302 -92.5zM442 -463q-190 0 -351 32t-253 89l203 365q79 -51 191.5 -81t222.5 -30q170 0 280 63t127 170l10 58h-2q-69 -87 -190 -138t-260 -51
q-187 0 -291 107t-104 295q0 132 42 255t116 217t183 150t234 56q144 0 243.5 -73t127.5 -198h2l106 242h461l-145 -918q-30 -189 -156.5 -327.5t-331 -210.5t-465.5 -72zM727 354q97 0 159 68t62 162q0 65 -43.5 101t-122.5 36q-97 0 -159 -67t-62 -162q0 -65 43.5 -101.5
t122.5 -36.5z" />
    <glyph glyph-name="Gdotaccent" unicode="&#x120;" horiz-adv-x="1966" 
d="M1100 1567q-102 0 -166 56.5t-64 145.5q0 118 91 198.5t215 80.5q104 0 167.5 -55.5t63.5 -145.5q0 -122 -88.5 -201t-218.5 -79zM774 -33q-327 0 -515.5 163.5t-188.5 442.5q0 269 133 485t361.5 335.5t506.5 119.5q329 0 528.5 -138t223.5 -371l-563 -89
q-17 73 -79 115.5t-153 42.5q-157 0 -258.5 -114.5t-101.5 -280.5q0 -134 86 -211.5t235 -77.5q130 0 224 47t122 127h-506l48 297h1071l-136 -860h-438l8 236h-2q-98 -123 -262.5 -196t-343.5 -73z" />
    <glyph glyph-name="gdotaccent" unicode="&#x121;" horiz-adv-x="1521" 
d="M844 1167q-107 0 -173.5 58t-66.5 149q0 125 93 210t225 85q108 0 173.5 -58.5t65.5 -152.5q0 -123 -92.5 -207t-224.5 -84zM442 -463q-190 0 -351 32t-253 89l203 365q79 -51 191.5 -81t222.5 -30q170 0 280 63t127 170l10 58h-2q-69 -87 -190 -138t-260 -51
q-187 0 -291 107t-104 295q0 132 42 255t116 217t183 150t234 56q144 0 243.5 -73t127.5 -198h2l106 242h461l-145 -918q-30 -189 -156.5 -327.5t-331 -210.5t-465.5 -72zM727 354q97 0 159 68t62 162q0 65 -43.5 101t-122.5 36q-97 0 -159 -67t-62 -162q0 -65 43.5 -101.5
t122.5 -36.5z" />
    <glyph glyph-name="uni0122" unicode="&#x122;" horiz-adv-x="1966" 
d="M774 -33q-327 0 -515.5 163.5t-188.5 442.5q0 269 133 485t361.5 335.5t506.5 119.5q329 0 528.5 -138t223.5 -371l-563 -89q-17 73 -79 115.5t-153 42.5q-157 0 -258.5 -114.5t-101.5 -280.5q0 -134 86 -211.5t235 -77.5q130 0 224 47t122 127h-506l48 297h1071
l-136 -860h-438l8 236h-2q-98 -123 -262.5 -196t-343.5 -73zM616 -610l7 69q130 -37 228 2.5t110 132.5q-55 -38 -115 -43t-104 17t-69 68.5t-16 103.5q9 61 60 99t125 38q106 0 161.5 -75.5t38.5 -192.5q-19 -135 -137.5 -196t-288.5 -23z" />
    <glyph glyph-name="uni0123" unicode="&#x123;" horiz-adv-x="1521" 
d="M1096 1675l-6 -69q-130 37 -228 -3t-110 -133q44 30 92 40t88 -0.5t71 -35t45 -64t7 -85.5q-9 -61 -60 -99t-125 -38q-106 0 -161.5 75.5t-38.5 192.5q19 135 137.5 196t288.5 23zM442 -463q-190 0 -351 32t-253 89l203 365q79 -51 191.5 -81t222.5 -30q170 0 280 63
t127 170l10 58h-2q-69 -87 -190 -138t-260 -51q-187 0 -291 107t-104 295q0 132 42 255t116 217t183 150t234 56q144 0 243.5 -73t127.5 -198h2l106 242h461l-145 -918q-30 -189 -156.5 -327.5t-331 -210.5t-465.5 -72zM727 354q97 0 159 68t62 162q0 65 -43.5 101
t-122.5 36q-97 0 -159 -67t-62 -162q0 -65 43.5 -101.5t122.5 -36.5z" />
    <glyph glyph-name="Itilde" unicode="&#x128;" horiz-adv-x="772" 
d="M705 1597q-55 0 -90.5 30.5t-71.5 86.5q-40 60 -58 75q-22 19 -47 19q-46 0 -84.5 -53.5t-50.5 -136.5h-82q19 121 81 196.5t147 75.5q30 0 53.5 -9t46.5 -32.5t31.5 -35t30.5 -44.5q3 -3 4.5 -5.5t2.5 -4.5q20 -30 29 -42t27.5 -25t38.5 -13q47 0 86.5 54t52.5 139h84
q-21 -122 -84 -198.5t-147 -76.5zM8 0l234 1475h589l-233 -1475h-590z" />
    <glyph glyph-name="itilde" unicode="&#x129;" horiz-adv-x="661" 
d="M559 1167q-34 0 -60.5 19.5t-39.5 41t-29 56.5q-16 34 -23.5 48.5t-23.5 30t-33 15.5q-32 0 -61 -53.5t-43 -136.5h-80q19 120 74 196t127 76q26 0 47 -10t36.5 -30.5t24.5 -36.5t21 -44q12 -29 20.5 -45.5t23.5 -30.5t31 -14q33 0 63.5 54.5t43.5 138.5h80
q-19 -122 -73 -198.5t-126 -76.5zM-18 0l168 1065h530l-168 -1065h-530z" />
    <glyph glyph-name="Imacron" unicode="&#x12a;" horiz-adv-x="772" 
d="M213 1618l12 82h693l-13 -82h-692zM8 0l234 1475h589l-233 -1475h-590z" />
    <glyph glyph-name="imacron" unicode="&#x12b;" horiz-adv-x="661" 
d="M133 1208l12 82h611l-13 -82h-610zM-18 0l168 1065h530l-168 -1065h-530z" />
    <glyph glyph-name="Iogonek" unicode="&#x12e;" horiz-adv-x="772" 
d="M242 1475h589l-233 -1475h-68q-201 -63 -298.5 -117.5t-108.5 -132.5q-6 -43 22.5 -68.5t83.5 -25.5q37 0 82 22t80 58l51 -55q-50 -46 -113 -73.5t-118 -27.5q-89 0 -137 45t-37 119q12 83 81 143.5t197 112.5h-307z" />
    <glyph glyph-name="iogonek" unicode="&#x12f;" horiz-adv-x="661" 
d="M430 1147q-114 0 -182 59t-68 156q0 132 95.5 219.5t236.5 87.5q114 0 181 -59t67 -158q0 -130 -95.5 -217.5t-234.5 -87.5zM-18 0l168 1065h530l-168 -1065h-43q-201 -63 -298 -117.5t-108 -132.5q-6 -43 22.5 -68.5t82.5 -25.5q37 0 82 22t80 58l51 -55
q-50 -46 -113 -73.5t-118 -27.5q-88 0 -135.5 45.5t-37.5 118.5q10 82 80 142.5t199 113.5h-274z" />
    <glyph glyph-name="Idotaccent" unicode="&#x130;" horiz-adv-x="772" 
d="M547 1567q-102 0 -166 56.5t-64 145.5q0 118 91 198.5t215 80.5q104 0 167.5 -55.5t63.5 -145.5q0 -122 -88.5 -201t-218.5 -79zM8 0l234 1475h589l-233 -1475h-590z" />
    <glyph glyph-name="dotlessi" unicode="&#x131;" horiz-adv-x="661" 
d="M-18 0l168 1065h530l-168 -1065h-530z" />
    <glyph glyph-name="IJ" unicode="&#x132;" horiz-adv-x="2312" 
d="M8 0l234 1475h589l-233 -1475h-590zM1434 -39q-320 0 -497 135.5t-167 374.5l533 139q-6 -108 37.5 -168.5t125.5 -60.5q69 0 116.5 40t57.5 109l152 945h592l-152 -957q-43 -264 -254.5 -410.5t-543.5 -146.5z" />
    <glyph glyph-name="ij" unicode="&#x133;" horiz-adv-x="1325" 
d="M430 1147q-114 0 -182 59t-68 156q0 132 95.5 219.5t236.5 87.5q114 0 181 -59t67 -158q0 -130 -95.5 -217.5t-234.5 -87.5zM1092 1147q-113 0 -180.5 59t-67.5 156q0 132 95.5 219.5t234.5 87.5q114 0 181.5 -59t67.5 -158q0 -131 -95.5 -218t-235.5 -87zM-18 0
l168 1065h530l-168 -1065h-530zM608 -463q-183 0 -336 39l105 324q63 -17 123 -17q59 0 97 32.5t48 96.5l166 1053h532l-176 -1110q-31 -196 -180 -307t-379 -111z" />
    <glyph glyph-name="uni0136" unicode="&#x136;" horiz-adv-x="1794" 
d="M8 0l234 1475h592l-72 -447l4 -2l467 449h711l-644 -566l410 -909h-700l-181 518l-172 -147l-57 -371h-592zM530 -610l7 69q130 -37 227.5 2.5t109.5 132.5q-44 -30 -92 -40t-88 1t-71 35.5t-45 64t-7 85.5q9 61 60 99t125 38q106 0 161.5 -75.5t38.5 -192.5
q-19 -135 -137.5 -196t-288.5 -23z" />
    <glyph glyph-name="uni0137" unicode="&#x137;" horiz-adv-x="1452" 
d="M-18 0l243 1536h531l-117 -733h2l289 262h604l-471 -387l301 -678h-573l-134 385l-98 -82l-47 -303h-530zM362 -610l7 69q130 -37 228 2.5t110 132.5q-55 -38 -115 -43t-104 17t-69 68.5t-16 103.5q9 61 60 99t125 38q106 0 161.5 -75.5t38.5 -192.5
q-19 -135 -137.5 -196t-288.5 -23z" />
    <glyph glyph-name="Lacute" unicode="&#x139;" horiz-adv-x="1372" 
d="M573 1597l-49 54l297 254l49 -56zM8 0l234 1475h592l-162 -1014h647l-72 -461h-1239z" />
    <glyph glyph-name="lacute" unicode="&#x13a;" horiz-adv-x="661" 
d="M520 1597l-49 54l297 254l49 -56zM-18 0l243 1536h531l-244 -1536h-530z" />
    <glyph glyph-name="uni013B" unicode="&#x13b;" horiz-adv-x="1372" 
d="M8 0l234 1475h592l-162 -1014h647l-72 -461h-1239zM377 -610l6 69q130 -37 228 2.5t110 132.5q-44 -30 -92 -40t-88 1t-71 35.5t-45 64t-7 85.5q9 61 59.5 99t124.5 38q106 0 162 -76t39 -192q-19 -135 -137.5 -196t-288.5 -23z" />
    <glyph glyph-name="uni013C" unicode="&#x13c;" horiz-adv-x="661" 
d="M-18 0l243 1536h531l-244 -1536h-530zM-23 -610l7 69q130 -37 228 2.5t110 132.5q-55 -38 -115 -43t-104 17t-69 68.5t-16 103.5q9 61 60 99t125 38q106 0 161.5 -75.5t38.5 -192.5q-19 -135 -137.5 -196t-288.5 -23z" />
    <glyph glyph-name="Lcaron" unicode="&#x13d;" horiz-adv-x="1372" 
d="M915 1049l7 69q130 -37 228 2.5t110 132.5q-55 -38 -115 -43t-104 17t-69 68.5t-16 103.5q9 61 60 99t125 38q106 0 161.5 -75.5t38.5 -192.5q-19 -135 -137.5 -196t-288.5 -23zM8 0l234 1475h592l-162 -1014h647l-72 -461h-1239z" />
    <glyph glyph-name="lcaron" unicode="&#x13e;" horiz-adv-x="661" 
d="M-18 0l243 1536h531l-244 -1536h-530zM797 1049l6 69q130 -37 228 2.5t110 132.5q-44 -30 -92 -40t-88 1t-71 35.5t-45 64t-7 85.5q9 61 59.5 99t124.5 38q106 0 162 -76t39 -192q-19 -135 -137.5 -196t-288.5 -23z" />
    <glyph glyph-name="Lslash" unicode="&#x141;" horiz-adv-x="1495" 
d="M795 461h647l-72 -461h-1239l94 592l-184 -107l-41 72l242 139l123 779h591l-63 -400l274 160l41 -72l-331 -192z" />
    <glyph glyph-name="lslash" unicode="&#x142;" horiz-adv-x="1091" 
d="M1155 1106l-297 -170l-147 -936h-531l94 600l-233 -135l-41 72l293 168l131 831h530l-77 -496l237 138z" />
    <glyph glyph-name="Nacute" unicode="&#x143;" horiz-adv-x="1966" 
d="M1178 1597l-50 54l297 254l50 -56zM8 0l234 1475h688l407 -861h4l138 861h544l-233 -1475h-688l-408 866h-4l-137 -866h-545z" />
    <glyph glyph-name="nacute" unicode="&#x144;" 
d="M856 1229l-49 53l348 295l49 -55zM1106 1090q189 0 284 -106t64 -288l-111 -696h-528l92 592q12 72 -18 111.5t-96 39.5q-77 0 -129 -48.5t-64 -135.5l-88 -559h-530l168 1065h442l29 -242h2q79 125 205 196t278 71z" />
    <glyph glyph-name="uni0145" unicode="&#x145;" horiz-adv-x="1966" 
d="M8 0l234 1475h688l407 -861h4l138 861h544l-233 -1475h-688l-408 866h-4l-137 -866h-545zM635 -610l6 69q130 -37 228 2.5t110 132.5q-44 -30 -92 -40t-88 1t-71 35.5t-45 64t-7 85.5q9 61 59.5 99t124.5 38q106 0 162 -76t39 -192q-19 -135 -137.5 -196t-288.5 -23z" />
    <glyph glyph-name="uni0146" unicode="&#x146;" 
d="M1106 1090q189 0 284 -106t64 -288l-111 -696h-528l92 592q12 72 -18 111.5t-96 39.5q-77 0 -129 -48.5t-64 -135.5l-88 -559h-530l168 1065h442l29 -242h2q79 125 205 196t278 71zM393 -610l6 69q130 -37 228 2.5t110 132.5q-44 -30 -92 -40t-88 1t-71 35.5t-45 64
t-7 85.5q9 61 59.5 99t124.5 38q106 0 162 -76t39 -192q-19 -135 -137.5 -196t-288.5 -23z" />
    <glyph glyph-name="Ncaron" unicode="&#x147;" horiz-adv-x="1966" 
d="M1104 1618l-277 223l58 64l280 -224l357 224l43 -64l-351 -223h-110zM8 0l234 1475h688l407 -861h4l138 861h544l-233 -1475h-688l-408 866h-4l-137 -866h-545z" />
    <glyph glyph-name="ncaron" unicode="&#x148;" 
d="M793 1229l-330 264l55 63l334 -264l422 264l43 -63l-414 -264h-110zM1106 1090q189 0 284 -106t64 -288l-111 -696h-528l92 592q12 72 -18 111.5t-96 39.5q-77 0 -129 -48.5t-64 -135.5l-88 -559h-530l168 1065h442l29 -242h2q79 125 205 196t278 71z" />
    <glyph glyph-name="Omacron" unicode="&#x14c;" horiz-adv-x="1994" 
d="M791 1618l12 82h758l-13 -82h-757zM920 -49q-393 0 -620.5 176.5t-227.5 476.5q0 202 85 375.5t229.5 292t340.5 185.5t414 67q393 0 620.5 -177t227.5 -477q0 -161 -54.5 -305.5t-153.5 -255.5t-231.5 -192t-294 -123.5t-335.5 -42.5zM983 401q177 0 292.5 117
t115.5 287q0 125 -83.5 196.5t-230.5 71.5q-177 0 -292 -116.5t-115 -286.5q0 -125 83 -197t230 -72z" />
    <glyph glyph-name="omacron" unicode="&#x14d;" horiz-adv-x="1509" 
d="M481 1208l13 82h757l-12 -82h-758zM674 -33q-305 0 -477 125.5t-172 343.5q0 197 111.5 350t294.5 232.5t403 79.5q306 0 477.5 -125.5t171.5 -343.5q0 -149 -64.5 -274.5t-175 -209.5t-257.5 -131t-312 -47zM731 324q99 0 160 79.5t61 182.5q0 74 -47 114.5t-127 40.5
q-102 0 -161.5 -79t-59.5 -179q0 -76 47 -117.5t127 -41.5z" />
    <glyph glyph-name="Obreve" unicode="&#x14e;" horiz-adv-x="1994" 
d="M1167 1618q-148 0 -232 75t-65 191h80q-12 -80 52 -133t176 -53t194 53t94 133h84q-19 -116 -127 -191t-256 -75zM920 -49q-393 0 -620.5 176.5t-227.5 476.5q0 202 85 375.5t229.5 292t340.5 185.5t414 67q393 0 620.5 -177t227.5 -477q0 -161 -54.5 -305.5
t-153.5 -255.5t-231.5 -192t-294 -123.5t-335.5 -42.5zM983 401q177 0 292.5 117t115.5 287q0 125 -83.5 196.5t-230.5 71.5q-177 0 -292 -116.5t-115 -286.5q0 -125 83 -197t230 -72z" />
    <glyph glyph-name="obreve" unicode="&#x14f;" horiz-adv-x="1509" 
d="M860 1208q-174 0 -272.5 93t-75.5 235h78q-17 -107 61.5 -177.5t216.5 -70.5t240 70.5t119 177.5h86q-23 -143 -151 -235.5t-302 -92.5zM674 -33q-305 0 -477 125.5t-172 343.5q0 197 111.5 350t294.5 232.5t403 79.5q306 0 477.5 -125.5t171.5 -343.5
q0 -149 -64.5 -274.5t-175 -209.5t-257.5 -131t-312 -47zM731 324q99 0 160 79.5t61 182.5q0 74 -47 114.5t-127 40.5q-102 0 -161.5 -79t-59.5 -179q0 -76 47 -117.5t127 -41.5z" />
    <glyph glyph-name="Ohungarumlaut" unicode="&#x150;" horiz-adv-x="1994" 
d="M985 1597l-49 54l297 254l49 -56zM1360 1597l-51 54l299 254l49 -56zM920 -49q-393 0 -620.5 176.5t-227.5 476.5q0 202 85 375.5t229.5 292t340.5 185.5t414 67q393 0 620.5 -177t227.5 -477q0 -161 -54.5 -305.5t-153.5 -255.5t-231.5 -192t-294 -123.5t-335.5 -42.5z
M983 401q177 0 292.5 117t115.5 287q0 125 -83.5 196.5t-230.5 71.5q-177 0 -292 -116.5t-115 -286.5q0 -125 83 -197t230 -72z" />
    <glyph glyph-name="ohungarumlaut" unicode="&#x151;" horiz-adv-x="1509" 
d="M686 1229l-49 53l348 295l49 -55zM1059 1229l-49 53l350 295l49 -55zM674 -33q-305 0 -477 125.5t-172 343.5q0 197 111.5 350t294.5 232.5t403 79.5q306 0 477.5 -125.5t171.5 -343.5q0 -149 -64.5 -274.5t-175 -209.5t-257.5 -131t-312 -47zM731 324q99 0 160 79.5
t61 182.5q0 74 -47 114.5t-127 40.5q-102 0 -161.5 -79t-59.5 -179q0 -76 47 -117.5t127 -41.5z" />
    <glyph glyph-name="OE" unicode="&#x152;" horiz-adv-x="2435" 
d="M823 -31q-189 0 -340.5 55.5t-248.5 155t-138 243t-14 314.5q36 227 171.5 402.5t345 270.5t460.5 95q193 0 313 -30h1155l-63 -400h-643l-27 -157h561l-53 -340h-561l-29 -179h664l-62 -399h-1171q-136 -31 -320 -31zM952 410q76 0 151.5 24t110.5 60l78 487
q-24 36 -92.5 60t-144.5 24q-172 0 -295 -89t-146 -239q-24 -150 71 -238.5t267 -88.5z" />
    <glyph glyph-name="oe" unicode="&#x153;" horiz-adv-x="2332" 
d="M1735 1085q298 0 450.5 -147.5t112.5 -400.5q-12 -75 -37 -127h-834q12 -57 79 -90t171 -33q100 0 191.5 22.5t152.5 59.5l199 -197q-91 -91 -246 -141.5t-332 -50.5q-368 0 -516 174q-196 -174 -514 -174q-298 0 -459 151t-122 401q26 166 131 292t267.5 193.5
t358.5 67.5q305 0 449 -163q180 163 498 163zM1796 629q9 66 -31 109.5t-110 43.5q-72 0 -127.5 -42t-75.5 -111h344zM946 532q13 86 -39.5 135.5t-154.5 49.5t-169.5 -49.5t-80.5 -135.5t38.5 -135t153.5 -49t170.5 49t81.5 135z" />
    <glyph glyph-name="Racute" unicode="&#x154;" horiz-adv-x="1822" 
d="M1036 1597l-49 54l297 254l49 -56zM1346 -39q-152 0 -241.5 77.5t-125.5 203.5l-33 127q-45 102 -158 102h-114l-74 -471h-592l234 1475h981q276 0 424.5 -107.5t148.5 -308.5q0 -173 -105 -300.5t-298 -180.5v-3q74 -25 96 -124l43 -107q19 -59 86 -59q47 0 90 24
l35 -241q-71 -47 -183.5 -77t-213.5 -30zM727 809h258q102 0 156.5 45t54.5 129q0 60 -42 91.5t-122 31.5h-258z" />
    <glyph glyph-name="racute" unicode="&#x155;" horiz-adv-x="1308" 
d="M778 1229l-49 53l348 295l49 -55zM1026 1090q161 0 236.5 -118.5t50.5 -334.5l-484 -98q15 107 -7.5 163t-78.5 56q-54 0 -91 -52.5t-52 -148.5l-88 -557h-530l168 1065h434l39 -227h2q69 121 173.5 186.5t227.5 65.5z" />
    <glyph glyph-name="uni0156" unicode="&#x156;" horiz-adv-x="1822" 
d="M1346 -39q-152 0 -241.5 77.5t-125.5 203.5l-33 127q-45 102 -158 102h-114l-74 -471h-592l234 1475h981q276 0 424.5 -107.5t148.5 -308.5q0 -173 -105 -300.5t-298 -180.5v-3q74 -25 96 -124l43 -107q19 -59 86 -59q47 0 90 24l35 -241q-71 -47 -183.5 -77t-213.5 -30z
M727 809h258q102 0 156.5 45t54.5 129q0 60 -42 91.5t-122 31.5h-258zM532 -610l7 69q130 -37 228 2.5t110 132.5q-55 -38 -115 -43t-104 17t-69 68.5t-16 103.5q9 61 60 99t125 38q106 0 161.5 -75.5t38.5 -192.5q-19 -135 -137.5 -196t-288.5 -23z" />
    <glyph glyph-name="uni0157" unicode="&#x157;" horiz-adv-x="1308" 
d="M1026 1090q161 0 236.5 -118.5t50.5 -334.5l-484 -98q15 107 -7.5 163t-78.5 56q-54 0 -91 -52.5t-52 -148.5l-88 -557h-530l168 1065h434l39 -227h2q69 121 173.5 186.5t227.5 65.5zM-23 -610l7 69q130 -37 228 2.5t110 132.5q-55 -38 -115 -43t-104 17t-69 68.5
t-16 103.5q9 61 60 99t125 38q106 0 161.5 -75.5t38.5 -192.5q-19 -135 -137.5 -196t-288.5 -23z" />
    <glyph glyph-name="Rcaron" unicode="&#x158;" horiz-adv-x="1822" 
d="M963 1618l-277 223l57 64l281 -224l356 224l43 -64l-350 -223h-110zM1346 -39q-152 0 -241.5 77.5t-125.5 203.5l-33 127q-45 102 -158 102h-114l-74 -471h-592l234 1475h981q276 0 424.5 -107.5t148.5 -308.5q0 -173 -105 -300.5t-298 -180.5v-3q74 -25 96 -124l43 -107
q19 -59 86 -59q47 0 90 24l35 -241q-71 -47 -183.5 -77t-213.5 -30zM727 809h258q102 0 156.5 45t54.5 129q0 60 -42 91.5t-122 31.5h-258z" />
    <glyph glyph-name="rcaron" unicode="&#x159;" horiz-adv-x="1308" 
d="M715 1229l-330 264l55 63l334 -264l422 264l43 -63l-414 -264h-110zM1026 1090q161 0 236.5 -118.5t50.5 -334.5l-484 -98q15 107 -7.5 163t-78.5 56q-54 0 -91 -52.5t-52 -148.5l-88 -557h-530l168 1065h434l39 -227h2q69 121 173.5 186.5t227.5 65.5z" />
    <glyph glyph-name="Sacute" unicode="&#x15a;" horiz-adv-x="1662" 
d="M981 1597l-49 54l297 254l49 -56zM780 -43q-285 0 -492.5 92t-287.5 252l373 223q68 -80 194 -130t267 -50q101 0 159 23t58 65q0 71 -172 96l-217 29q-277 40 -402 137.5t-125 274.5q0 139 64.5 247t176.5 173t253.5 98t306.5 33q264 0 450 -81t259 -220l-347 -218
q-59 65 -155.5 104.5t-206.5 39.5q-103 0 -166 -22t-63 -62q0 -59 182 -88l192 -27q285 -41 414 -143.5t129 -286.5q0 -133 -69.5 -241.5t-187.5 -176.5t-268.5 -104.5t-318.5 -36.5z" />
    <glyph glyph-name="sacute" unicode="&#x15b;" horiz-adv-x="1355" 
d="M786 1229l-49 53l348 295l50 -55zM635 -31q-239 0 -419.5 63t-240.5 185l275 150q64 -51 169.5 -82t213.5 -31q97 0 141.5 11.5t44.5 37.5q0 24 -38 40t-117 30l-205 35q-172 29 -261 96t-89 186q0 106 52 186.5t142 127t200 69.5t238 23q198 0 349.5 -55.5t218.5 -170.5
l-277 -143q-50 45 -131 71.5t-172 26.5q-77 0 -125.5 -14t-48.5 -39q0 -23 32 -37t109 -28l211 -33q189 -33 291 -106t102 -201q0 -102 -52.5 -180t-145 -125t-210 -70t-257.5 -23z" />
    <glyph glyph-name="Scircumflex" unicode="&#x15c;" horiz-adv-x="1662" 
d="M647 1597l-43 64l348 223h111l278 -223l-55 -64l-285 224zM780 -43q-285 0 -492.5 92t-287.5 252l373 223q68 -80 194 -130t267 -50q101 0 159 23t58 65q0 71 -172 96l-217 29q-277 40 -402 137.5t-125 274.5q0 139 64.5 247t176.5 173t253.5 98t306.5 33q264 0 450 -81
t259 -220l-347 -218q-59 65 -155.5 104.5t-206.5 39.5q-103 0 -166 -22t-63 -62q0 -59 182 -88l192 -27q285 -41 414 -143.5t129 -286.5q0 -133 -69.5 -241.5t-187.5 -176.5t-268.5 -104.5t-318.5 -36.5z" />
    <glyph glyph-name="scircumflex" unicode="&#x15d;" horiz-adv-x="1355" 
d="M399 1208l-43 64l414 264h111l329 -264l-55 -64l-338 265zM635 -31q-239 0 -419.5 63t-240.5 185l275 150q64 -51 169.5 -82t213.5 -31q97 0 141.5 11.5t44.5 37.5q0 24 -38 40t-117 30l-205 35q-172 29 -261 96t-89 186q0 106 52 186.5t142 127t200 69.5t238 23
q198 0 349.5 -55.5t218.5 -170.5l-277 -143q-50 45 -131 71.5t-172 26.5q-77 0 -125.5 -14t-48.5 -39q0 -23 32 -37t109 -28l211 -33q189 -33 291 -106t102 -201q0 -102 -52.5 -180t-145 -125t-210 -70t-257.5 -23z" />
    <glyph glyph-name="Scedilla" unicode="&#x15e;" horiz-adv-x="1662" 
d="M1081 946q285 -41 414 -143.5t129 -286.5q0 -133 -69.5 -241.5t-187.5 -176.5t-268.5 -104.5t-318.5 -36.5h-8l-16 -55q92 -6 138 -49.5t34 -124.5q-9 -64 -69 -106t-144 -42q-59 0 -107 30.5t-67 78.5l71 51q10 -34 43.5 -56t73.5 -22q47 0 79 21t38 55q6 40 -27.5 64
t-93.5 24h-72l37 133q-253 15 -435 105t-255 237l373 223q68 -80 194 -130t267 -50q101 0 159 23t58 65q0 71 -172 96l-217 29q-277 40 -402 137.5t-125 274.5q0 139 64.5 247t176.5 173t253.5 98t306.5 33q264 0 450 -81t259 -220l-347 -218q-59 65 -155.5 104.5
t-206.5 39.5q-103 0 -166 -22t-63 -62q0 -59 182 -88z" />
    <glyph glyph-name="scedilla" unicode="&#x15f;" horiz-adv-x="1355" 
d="M907 674q189 -33 291 -106t102 -201q0 -102 -52.5 -180t-145 -125t-210 -70t-257.5 -23h-10l-19 -67q92 -6 138 -49.5t34 -124.5q-9 -64 -69 -106t-144 -42q-59 0 -107 30.5t-67 78.5l72 51q10 -34 43.5 -56t73.5 -22q47 0 78.5 21t37.5 55q6 40 -27.5 64t-93.5 24h-71
l41 145q-209 11 -362 73t-208 173l275 150q64 -51 169.5 -82t213.5 -31q97 0 141.5 11.5t44.5 37.5q0 24 -38 40t-117 30l-205 35q-172 29 -261 96t-89 186q0 106 52 186.5t142 127t200 69.5t238 23q198 0 349.5 -55.5t218.5 -170.5l-277 -143q-50 45 -131 71.5t-172 26.5
q-77 0 -125.5 -14t-48.5 -39q0 -23 32 -37t109 -28z" />
    <glyph glyph-name="Scaron" unicode="&#x160;" horiz-adv-x="1662" 
d="M907 1618l-276 223l57 64l281 -224l356 224l43 -64l-350 -223h-111zM780 -43q-285 0 -492.5 92t-287.5 252l373 223q68 -80 194 -130t267 -50q101 0 159 23t58 65q0 71 -172 96l-217 29q-277 40 -402 137.5t-125 274.5q0 139 64.5 247t176.5 173t253.5 98t306.5 33
q264 0 450 -81t259 -220l-347 -218q-59 65 -155.5 104.5t-206.5 39.5q-103 0 -166 -22t-63 -62q0 -59 182 -88l192 -27q285 -41 414 -143.5t129 -286.5q0 -133 -69.5 -241.5t-187.5 -176.5t-268.5 -104.5t-318.5 -36.5z" />
    <glyph glyph-name="scaron" unicode="&#x161;" horiz-adv-x="1355" 
d="M723 1229l-330 264l56 63l333 -264l422 264l43 -63l-413 -264h-111zM635 -31q-239 0 -419.5 63t-240.5 185l275 150q64 -51 169.5 -82t213.5 -31q97 0 141.5 11.5t44.5 37.5q0 24 -38 40t-117 30l-205 35q-172 29 -261 96t-89 186q0 106 52 186.5t142 127t200 69.5
t238 23q198 0 349.5 -55.5t218.5 -170.5l-277 -143q-50 45 -131 71.5t-172 26.5q-77 0 -125.5 -14t-48.5 -39q0 -23 32 -37t109 -28l211 -33q189 -33 291 -106t102 -201q0 -102 -52.5 -180t-145 -125t-210 -70t-257.5 -23z" />
    <glyph glyph-name="uni0162" unicode="&#x162;" horiz-adv-x="1527" 
d="M180 1475h1467l-72 -451h-438l-162 -1024h-254l-27 -98q92 -6 138 -49.5t34 -124.5q-9 -64 -69 -106t-144 -42q-59 0 -107 30.5t-67 78.5l72 51q10 -34 43.5 -56t73.5 -22q47 0 78.5 21t37.5 55q6 40 -27 64t-93 24h-72l47 174h-256l162 1024h-436z" />
    <glyph glyph-name="uni0163" unicode="&#x163;" horiz-adv-x="1288" 
d="M784 717l-32 -209q-24 -156 133 -156q74 0 138.5 20.5t150.5 69.5l24 -333q-127 -75 -251 -107.5t-275 -32.5h-4l-19 -67q92 -6 138 -49.5t34 -124.5q-9 -64 -69 -106t-144 -42q-59 0 -107 30.5t-67 78.5l72 51q10 -34 43.5 -56t73.5 -22q47 0 78.5 21t37.5 55
q6 40 -27.5 64t-93.5 24h-71l41 147q-213 19 -311.5 128.5t-71.5 289.5l49 326h-207l55 348h207l43 260l547 102l-59 -362h477l-55 -348h-478z" />
    <glyph glyph-name="Tcaron" unicode="&#x164;" horiz-adv-x="1527" 
d="M881 1618l-277 223l58 64l280 -224l356 224l43 -64l-350 -223h-110zM383 0l162 1024h-436l71 451h1467l-72 -451h-438l-162 -1024h-592z" />
    <glyph glyph-name="tcaron" unicode="&#x165;" horiz-adv-x="1288" 
d="M961 1151l6 70q130 -37 228 2.5t110 132.5q-44 -30 -92 -40t-88 0.5t-71 35t-45.5 64t-7.5 85.5q9 61 60 99t125 38q106 0 161.5 -75.5t38.5 -192.5q-19 -135 -137 -196t-288 -23zM672 -31q-255 0 -376 112t-91 310l49 326h-207l55 348h207l43 260l547 102l-59 -362h477
l-55 -348h-478l-32 -209q-24 -156 133 -156q74 0 138.5 20.5t150.5 69.5l24 -333q-127 -75 -251 -107.5t-275 -32.5z" />
    <glyph glyph-name="Utilde" unicode="&#x168;" horiz-adv-x="1826" 
d="M1274 1597q-64 0 -109 31t-90 86q-26 31 -42.5 47.5t-45 31.5t-59.5 15q-64 0 -113 -53.5t-61 -136.5h-84q20 120 95 196t175 76q30 0 58 -9t45.5 -18t42 -32t33 -32.5t32.5 -37.5q33 -40 63 -61t70 -21q65 0 115 54t63 139h82q-19 -121 -94 -198t-176 -77zM823 -39
q-403 0 -592 166t-139 475l137 873h592l-131 -852q-17 -101 36 -156t169 -55q117 0 188 55t86 156l136 852h591l-139 -885q-50 -303 -291.5 -466t-642.5 -163z" />
    <glyph glyph-name="utilde" unicode="&#x169;" 
d="M1034 1208q-45 0 -84 18.5t-60.5 39t-49.5 55.5q-32 36 -46 50.5t-44.5 32t-63.5 17.5q-64 0 -112 -54t-62 -138h-82q20 120 95 196t175 76q46 0 86 -19.5t61.5 -40.5t51.5 -57q27 -32 42.5 -48t43.5 -31t59 -15q65 0 115.5 54t63.5 139h80q-19 -120 -94.5 -197.5
t-174.5 -77.5zM379 -25q-189 0 -284 106t-64 288l110 696h529l-92 -592q-12 -72 18 -111.5t96 -39.5q77 0 129 48.5t64 135.5l88 559h530l-168 -1065h-442l-29 242h-2q-79 -125 -205 -196t-278 -71z" />
    <glyph glyph-name="Umacron" unicode="&#x16a;" horiz-adv-x="1826" 
d="M705 1618l12 82h758l-13 -82h-757zM823 -39q-403 0 -592 166t-139 475l137 873h592l-131 -852q-17 -101 36 -156t169 -55q117 0 188 55t86 156l136 852h591l-139 -885q-50 -303 -291.5 -466t-642.5 -163z" />
    <glyph glyph-name="umacron" unicode="&#x16b;" 
d="M465 1208l12 82h758l-12 -82h-758zM379 -25q-189 0 -284 106t-64 288l110 696h529l-92 -592q-12 -72 18 -111.5t96 -39.5q77 0 129 48.5t64 135.5l88 559h530l-168 -1065h-442l-29 242h-2q-79 -125 -205 -196t-278 -71z" />
    <glyph glyph-name="Ubreve" unicode="&#x16c;" horiz-adv-x="1826" 
d="M1081 1618q-148 0 -232 75t-65 191h80q-12 -80 52 -133t176 -53t194 53t94 133h84q-19 -116 -127 -191t-256 -75zM823 -39q-403 0 -592 166t-139 475l137 873h592l-131 -852q-17 -101 36 -156t169 -55q117 0 188 55t86 156l136 852h591l-139 -885q-50 -303 -291.5 -466
t-642.5 -163z" />
    <glyph glyph-name="ubreve" unicode="&#x16d;" 
d="M844 1208q-174 0 -272.5 93t-75.5 235h77q-17 -107 62 -177.5t217 -70.5t239.5 70.5t118.5 177.5h86q-23 -143 -150.5 -235.5t-301.5 -92.5zM379 -25q-189 0 -284 106t-64 288l110 696h529l-92 -592q-12 -72 18 -111.5t96 -39.5q77 0 129 48.5t64 135.5l88 559h530
l-168 -1065h-442l-29 242h-2q-79 -125 -205 -196t-278 -71z" />
    <glyph glyph-name="Uring" unicode="&#x16e;" horiz-adv-x="1826" 
d="M1081 1597q-76 0 -121 44.5t-45 117.5q0 96 67 162t161 66q76 0 121 -44.5t45 -117.5q0 -96 -67 -162t-161 -66zM1094 1675q56 0 93.5 40.5t37.5 96.5q0 42 -26.5 69.5t-70.5 27.5q-53 0 -93 -40t-40 -95q0 -43 28 -71t71 -28zM823 -39q-403 0 -592 166t-139 475l137 873
h592l-131 -852q-17 -101 36 -156t169 -55q117 0 188 55t86 156l136 852h591l-139 -885q-50 -303 -291.5 -466t-642.5 -163z" />
    <glyph glyph-name="uring" unicode="&#x16f;" 
d="M846 1208q-76 0 -121 44t-45 118q0 99 65.5 163t161.5 64q76 0 121 -43.5t45 -115.5q0 -100 -64.5 -165t-162.5 -65zM858 1286q55 0 93 39t38 100q0 43 -26 69t-70 26q-56 0 -94.5 -39.5t-38.5 -98.5q0 -44 27 -70t71 -26zM379 -25q-189 0 -284 106t-64 288l110 696h529
l-92 -592q-12 -72 18 -111.5t96 -39.5q77 0 129 48.5t64 135.5l88 559h530l-168 -1065h-442l-29 242h-2q-79 -125 -205 -196t-278 -71z" />
    <glyph glyph-name="Uhungarumlaut" unicode="&#x170;" horiz-adv-x="1826" 
d="M899 1597l-49 54l297 254l49 -56zM1274 1597l-51 54l299 254l49 -56zM823 -39q-403 0 -592 166t-139 475l137 873h592l-131 -852q-17 -101 36 -156t169 -55q117 0 188 55t86 156l136 852h591l-139 -885q-50 -303 -291.5 -466t-642.5 -163z" />
    <glyph glyph-name="uhungarumlaut" unicode="&#x171;" 
d="M670 1229l-49 53l348 295l49 -55zM1042 1229l-49 53l350 295l50 -55zM379 -25q-189 0 -284 106t-64 288l110 696h529l-92 -592q-12 -72 18 -111.5t96 -39.5q77 0 129 48.5t64 135.5l88 559h530l-168 -1065h-442l-29 242h-2q-79 -125 -205 -196t-278 -71z" />
    <glyph glyph-name="Uogonek" unicode="&#x172;" horiz-adv-x="1826" 
d="M1305 1475h591l-139 -885q-40 -242 -204 -395.5t-437 -206.5q-178 -59 -266.5 -111.5t-99.5 -126.5q-6 -43 22.5 -68.5t83.5 -25.5q37 0 82 22t80 58l51 -55q-50 -46 -113 -73.5t-118 -27.5q-89 0 -137 45t-37 119q17 128 194 217h-35q-403 0 -592 166t-139 475l137 873
h592l-131 -852q-17 -101 36 -156t169 -55q117 0 188 55t86 156z" />
    <glyph glyph-name="uogonek" unicode="&#x173;" 
d="M1335 0q-201 -63 -298.5 -117.5t-108.5 -132.5q-6 -43 22.5 -68.5t83.5 -25.5q37 0 82 22t80 58l51 -55q-50 -46 -113 -73.5t-118 -27.5q-89 0 -137 45t-37 119q12 83 81 143.5t197 112.5h-227l-29 242h-2q-79 -125 -205 -196t-278 -71q-189 0 -284 106t-64 288l110 696
h529l-92 -592q-12 -72 18 -111.5t96 -39.5q77 0 129 48.5t64 135.5l88 559h530z" />
    <glyph glyph-name="Wcircumflex" unicode="&#x174;" horiz-adv-x="2975" 
d="M1343 1597l-43 64l349 223h110l279 -223l-56 -64l-284 224zM420 0l-270 1475h593l115 -967h4l449 967h653l145 -967h5l417 967h594l-739 -1475h-678l-149 961h-5l-454 -961h-680z" />
    <glyph glyph-name="wcircumflex" unicode="&#x175;" horiz-adv-x="2277" 
d="M872 1208l-43 64l414 264h111l329 -264l-55 -64l-338 265zM276 0l-192 1065h537l53 -608h2l330 608h434l135 -608h2l248 608h536l-528 -1065h-559l-125 590h-2l-313 -590h-558z" />
    <glyph glyph-name="Ycircumflex" unicode="&#x176;" horiz-adv-x="1734" 
d="M729 1597l-43 64l348 223h111l278 -223l-55 -64l-285 224zM496 0l77 492l-423 983h608l174 -557h4l328 557h620l-719 -983l-78 -492h-591z" />
    <glyph glyph-name="ycircumflex" unicode="&#x177;" horiz-adv-x="1492" 
d="M479 1208l-43 64l414 264h111l329 -264l-55 -64l-338 265zM426 -463q-166 0 -329.5 38t-272.5 103l199 363q91 -51 202 -81t209 -30q169 0 282.5 74.5t133.5 198.5l12 84h-2q-61 -126 -182 -199.5t-266 -73.5q-197 0 -295 121.5t-66 317.5l99 612h530l-84 -528
q-12 -78 18 -125t93 -47q75 0 127.5 50t64.5 136l82 514h530l-141 -899q-46 -287 -303 -458t-641 -171z" />
    <glyph glyph-name="Ydieresis" unicode="&#x178;" horiz-adv-x="1734" 
d="M715 1577q-101 0 -157.5 64.5t-41.5 164.5q17 101 94 166.5t178 65.5q103 0 158.5 -65.5t40.5 -166.5q-17 -100 -93.5 -164.5t-178.5 -64.5zM1368 1577q-102 0 -159 65t-40 164q15 101 93 166.5t180 65.5t157.5 -65.5t38.5 -166.5q-15 -99 -91.5 -164t-178.5 -65zM496 0
l77 492l-423 983h608l174 -557h4l328 557h620l-719 -983l-78 -492h-591z" />
    <glyph glyph-name="Zacute" unicode="&#x179;" horiz-adv-x="1525" 
d="M971 1597l-49 54l297 254l49 -56zM-12 0l71 457l807 608h-690l70 410h1341l-78 -467l-809 -598h734l-64 -410h-1382z" />
    <glyph glyph-name="zacute" unicode="&#x17a;" horiz-adv-x="1273" 
d="M774 1229l-49 53l348 295l49 -55zM-37 0l57 369l603 368h-523l52 328h1138l-57 -369l-612 -368h573l-51 -328h-1180z" />
    <glyph glyph-name="Zdotaccent" unicode="&#x17b;" horiz-adv-x="1525" 
d="M944 1567q-102 0 -165.5 56t-63.5 146q0 118 90.5 198.5t214.5 80.5q104 0 167.5 -55.5t63.5 -145.5q0 -122 -88.5 -201t-218.5 -79zM-12 0l71 457l807 608h-690l70 410h1341l-78 -467l-809 -598h734l-64 -410h-1382z" />
    <glyph glyph-name="zdotaccent" unicode="&#x17c;" horiz-adv-x="1273" 
d="M756 1167q-107 0 -173.5 58t-66.5 149q0 125 93 210t225 85q108 0 173.5 -58.5t65.5 -152.5q0 -123 -92.5 -207t-224.5 -84zM-37 0l57 369l603 368h-523l52 328h1138l-57 -369l-612 -368h573l-51 -328h-1180z" />
    <glyph glyph-name="Zcaron" unicode="&#x17d;" horiz-adv-x="1525" 
d="M897 1618l-276 223l57 64l280 -224l357 224l43 -64l-350 -223h-111zM-12 0l71 457l807 608h-690l70 410h1341l-78 -467l-809 -598h734l-64 -410h-1382z" />
    <glyph glyph-name="zcaron" unicode="&#x17e;" horiz-adv-x="1273" 
d="M711 1229l-330 264l55 63l334 -264l422 264l43 -63l-414 -264h-110zM-37 0l57 369l603 368h-523l52 328h1138l-57 -369l-612 -368h573l-51 -328h-1180z" />
    <glyph glyph-name="AEacute" unicode="&#x1fc;" horiz-adv-x="2398" 
d="M1409 1597l-49 54l297 254l49 -56zM-86 0l1016 1475h1558l-63 -400h-553l-23 -153h469l-53 -338h-471l-29 -185h572l-62 -399h-1145l29 195h-459l-127 -195h-659zM897 532h320l100 639h-2z" />
    <glyph glyph-name="aeacute" unicode="&#x1fd;" horiz-adv-x="2254" 
d="M1262 1229l-50 53l349 295l49 -55zM471 -33q-243 0 -375.5 85.5t-109.5 232.5q24 146 184.5 234t411.5 112l280 26q68 7 76 58q4 35 -33.5 53t-107.5 18q-99 0 -204 -38.5t-192 -110.5l-297 149q118 148 299.5 230t378.5 82q291 0 426 -142q203 142 478 142
q283 0 427.5 -147.5t106.5 -397.5q-15 -89 -43 -143h-840q14 -67 81 -98t165 -31q100 0 197 24t157 62l209 -201q-107 -93 -268 -146t-346 -53q-161 0 -276 41.5t-205 120.5q-97 -72 -258 -117t-322 -45zM1370 633h334q10 72 -27 117t-106 45q-66 0 -118.5 -43.5
t-82.5 -118.5zM631 276q94 0 169.5 41.5t84.5 100.5l4 28l-197 -18q-154 -13 -166 -84q-4 -31 25 -49.5t80 -18.5z" />
    <glyph glyph-name="Oslashacute" unicode="&#x1fe;" horiz-adv-x="1994" 
d="M1290 1849l-297 -252l-49 54l297 254zM1362 1507q295 -46 461 -214t166 -423q0 -161 -54.5 -305.5t-153.5 -255.5t-231.5 -192t-294 -123.5t-335.5 -42.5q-87 0 -185 10l-92 -227l-76 30l86 211q-276 56 -428.5 220.5t-152.5 408.5q0 202 85 375.5t229.5 292t340.5 185.5
t414 67q69 0 137 -6l82 204l76 -32zM670 670q0 -89 43 -152t123 -92l262 647h-21q-177 0 -292 -116.5t-115 -286.5zM983 401q177 0 292.5 117t115.5 287q0 100 -54.5 167.5t-154.5 90.5l-267 -657q50 -5 68 -5z" />
    <glyph glyph-name="oslashacute" unicode="&#x1ff;" horiz-adv-x="1505" 
d="M1012 1522l-348 -293l-50 53l349 295zM1032 1081q242 -43 359.5 -187t83.5 -362q-27 -171 -136 -299.5t-281 -197t-386 -68.5q-32 0 -90 4l-189 -463l-74 31l179 441q-253 38 -377 183.5t-90 368.5q27 171 136 299.5t281.5 197.5t385.5 69q58 0 114 -6l164 405l76 -33z
M547 543q-12 -77 14 -130t82 -75l164 403q-10 2 -33 2q-92 0 -152.5 -54.5t-74.5 -145.5zM958 528q20 132 -73 189l-162 -395h6q92 0 153 55t76 151z" />
    <glyph glyph-name="uni0218" unicode="&#x218;" horiz-adv-x="1662" 
d="M780 -43q-285 0 -492.5 92t-287.5 252l373 223q68 -80 194 -130t267 -50q101 0 159 23t58 65q0 71 -172 96l-217 29q-277 40 -402 137.5t-125 274.5q0 139 64.5 247t176.5 173t253.5 98t306.5 33q264 0 450 -81t259 -220l-347 -218q-59 65 -155.5 104.5t-206.5 39.5
q-103 0 -166 -22t-63 -62q0 -59 182 -88l192 -27q285 -41 414 -143.5t129 -286.5q0 -133 -69.5 -241.5t-187.5 -176.5t-268.5 -104.5t-318.5 -36.5zM473 -610l6 69q130 -37 228 2.5t110 132.5q-44 -30 -92 -40t-88 1t-71 35.5t-45 64t-7 85.5q9 61 59.5 99t124.5 38
q106 0 162 -76t39 -192q-19 -135 -137.5 -196t-288.5 -23z" />
    <glyph glyph-name="uni0219" unicode="&#x219;" horiz-adv-x="1355" 
d="M635 -31q-239 0 -419.5 63t-240.5 185l275 150q64 -51 169.5 -82t213.5 -31q97 0 141.5 11.5t44.5 37.5q0 24 -38 40t-117 30l-205 35q-172 29 -261 96t-89 186q0 106 52 186.5t142 127t200 69.5t238 23q198 0 349.5 -55.5t218.5 -170.5l-277 -143q-50 45 -131 71.5
t-172 26.5q-77 0 -125.5 -14t-48.5 -39q0 -23 32 -37t109 -28l211 -33q189 -33 291 -106t102 -201q0 -102 -52.5 -180t-145 -125t-210 -70t-257.5 -23zM324 -610l6 69q130 -37 228 2.5t110 132.5q-44 -30 -92 -40t-88 1t-71 35.5t-45 64t-7 85.5q9 61 59.5 99t124.5 38
q106 0 162 -76t39 -192q-19 -135 -137.5 -196t-288.5 -23z" />
    <glyph glyph-name="uni021A" unicode="&#x21a;" horiz-adv-x="1527" 
d="M383 0l162 1024h-436l71 451h1467l-72 -451h-438l-162 -1024h-592zM412 -610l6 69q130 -37 228 2.5t110 132.5q-44 -30 -92 -40t-88 1t-71 35.5t-45 64t-7 85.5q9 61 59.5 99t124.5 38q106 0 162 -76t39 -192q-19 -135 -137.5 -196t-288.5 -23z" />
    <glyph glyph-name="uni021B" unicode="&#x21b;" horiz-adv-x="1288" 
d="M672 -31q-255 0 -376 112t-91 310l49 326h-207l55 348h207l43 260l547 102l-59 -362h477l-55 -348h-478l-32 -209q-24 -156 133 -156q74 0 138.5 20.5t150.5 69.5l24 -333q-127 -75 -251 -107.5t-275 -32.5zM367 -610l6 69q130 -37 228 2.5t110 132.5q-44 -30 -92 -40
t-88 1t-71 35.5t-45 64t-7 85.5q9 61 59.5 99t124.5 38q106 0 162 -76t39 -192q-19 -135 -137.5 -196t-288.5 -23z" />
    <glyph glyph-name="uni0237" unicode="&#x237;" horiz-adv-x="663" 
d="M-53 -463q-183 0 -336 39l104 324q63 -17 123 -17q59 0 97.5 32.5t48.5 96.5l166 1053h532l-176 -1110q-31 -196 -180 -307t-379 -111z" />
    <glyph glyph-name="circumflex" unicode="&#x2c6;" horiz-adv-x="1007" 
d="M238 1208l-43 64l413 264h111l330 -264l-56 -64l-338 265z" />
    <glyph glyph-name="caron" unicode="&#x2c7;" horiz-adv-x="1007" 
d="M559 1229l-330 264l56 63l333 -264l422 264l43 -63l-413 -264h-111z" />
    <glyph glyph-name="breve" unicode="&#x2d8;" horiz-adv-x="952" 
d="M584 1208q-174 0 -272.5 93t-75.5 235h77q-17 -107 62 -177.5t217 -70.5t239.5 70.5t118.5 177.5h86q-23 -143 -150.5 -235.5t-301.5 -92.5z" />
    <glyph glyph-name="dotaccent" unicode="&#x2d9;" horiz-adv-x="663" 
d="M434 1167q-107 0 -173 58t-66 149q0 125 92.5 210t224.5 85q108 0 174 -58.5t66 -152.5q0 -123 -93 -207t-225 -84z" />
    <glyph glyph-name="ring" unicode="&#x2da;" horiz-adv-x="542" 
d="M379 1208q-76 0 -121 44t-45 118q0 99 65.5 163t161.5 64q76 0 121 -43.5t45 -115.5q0 -100 -65 -165t-162 -65zM391 1286q55 0 93 39t38 100q0 43 -26 69t-70 26q-56 0 -94.5 -39.5t-38.5 -98.5q0 -44 27 -70t71 -26z" />
    <glyph glyph-name="ogonek" unicode="&#x2db;" horiz-adv-x="604" 
d="M129 -420q-89 0 -137 45t-37 119q14 105 123.5 176t322.5 139l48 -59q-201 -63 -299 -117.5t-109 -132.5q-6 -43 22.5 -68.5t83.5 -25.5q37 0 82 22t80 58l51 -55q-50 -46 -113 -73.5t-118 -27.5z" />
    <glyph glyph-name="tilde" unicode="&#x2dc;" horiz-adv-x="1142" 
d="M872 1208q-45 0 -84 18.5t-60.5 39t-49.5 55.5q-32 36 -46 50.5t-44.5 32t-63.5 17.5q-64 0 -112 -54t-62 -138h-82q20 119 95.5 195.5t175.5 76.5q46 0 85.5 -19.5t61 -40t51.5 -57.5q26 -31 42.5 -47.5t44.5 -31.5t59 -15q65 0 115 54t63 139h80q-19 -120 -94.5 -197.5
t-174.5 -77.5z" />
    <glyph glyph-name="hungarumlaut" unicode="&#x2dd;" horiz-adv-x="886" 
d="M246 1229l-49 53l348 295l49 -55zM618 1229l-49 53l351 295l49 -55z" />
    <glyph glyph-name="Wgrave" unicode="&#x1e80;" horiz-adv-x="2975" 
d="M1653 1602l-217 251l61 52l217 -254zM420 0l-270 1475h593l115 -967h4l449 967h653l145 -967h5l417 967h594l-739 -1475h-678l-149 961h-5l-454 -961h-680z" />
    <glyph glyph-name="wgrave" unicode="&#x1e81;" horiz-adv-x="2277" 
d="M1241 1229l-256 293l66 55l256 -295zM276 0l-192 1065h537l53 -608h2l330 608h434l135 -608h2l248 608h536l-528 -1065h-559l-125 590h-2l-313 -590h-558z" />
    <glyph glyph-name="Wacute" unicode="&#x1e82;" horiz-adv-x="2975" 
d="M1677 1597l-49 54l297 254l49 -56zM420 0l-270 1475h593l115 -967h4l449 967h653l145 -967h5l417 967h594l-739 -1475h-678l-149 961h-5l-454 -961h-680z" />
    <glyph glyph-name="wacute" unicode="&#x1e83;" horiz-adv-x="2277" 
d="M1257 1229l-49 53l348 295l50 -55zM276 0l-192 1065h537l53 -608h2l330 608h434l135 -608h2l248 608h536l-528 -1065h-559l-125 590h-2l-313 -590h-558z" />
    <glyph glyph-name="Wdieresis" unicode="&#x1e84;" horiz-adv-x="2975" 
d="M1327 1577q-101 0 -157.5 64.5t-41.5 164.5q17 101 94.5 166.5t178.5 65.5q102 0 157.5 -65t40.5 -167q-17 -100 -93.5 -164.5t-178.5 -64.5zM1980 1577q-102 0 -158.5 65t-39.5 164q15 101 92.5 166.5t179.5 65.5t158 -65.5t39 -166.5q-15 -99 -92 -164t-179 -65zM420 0
l-270 1475h593l115 -967h4l449 967h653l145 -967h5l417 967h594l-739 -1475h-678l-149 961h-5l-454 -961h-680z" />
    <glyph glyph-name="wdieresis" unicode="&#x1e85;" horiz-adv-x="2277" 
d="M903 1188q-92 0 -147.5 50.5t-55.5 133.5q0 108 80.5 182t192.5 74q91 0 147 -51t56 -131q0 -109 -80 -183.5t-193 -74.5zM1583 1188q-91 0 -147 50.5t-56 133.5q0 107 81.5 181.5t191.5 74.5q92 0 147 -50.5t55 -131.5q0 -109 -79.5 -183.5t-192.5 -74.5zM276 0
l-192 1065h537l53 -608h2l330 608h434l135 -608h2l248 608h536l-528 -1065h-559l-125 590h-2l-313 -590h-558z" />
    <glyph glyph-name="uni1E9E" unicode="&#x1e9e;" horiz-adv-x="1875" 
d="M1532 698q46 -17 79 -31.5t73.5 -39t65.5 -52t42.5 -67t17.5 -86.5q0 -139 -83.5 -241t-223.5 -151.5t-317 -49.5q-161 0 -304 26.5t-225 73.5l152 307q58 -30 137 -49t146 -19q49 0 78.5 14t29.5 36q0 33 -76 59l-104 39q-51 17 -88 35t-72.5 45.5t-53.5 65.5t-18 87
q0 137 114.5 220.5t348.5 123.5q6 12 6 29q0 30 -47 50t-131 20q-147 0 -238 -52.5t-108 -156.5l-147 -934h-592l141 893q47 289 305 450.5t652 161.5q363 0 560 -102t197 -287q0 -67 -26.5 -137.5t-73.5 -122.5q-356 -4 -356 -70q0 -30 45 -49z" />
    <glyph glyph-name="Ygrave" unicode="&#x1ef2;" horiz-adv-x="1734" 
d="M1038 1602l-217 251l62 52l217 -254zM496 0l77 492l-423 983h608l174 -557h4l328 557h620l-719 -983l-78 -492h-591z" />
    <glyph glyph-name="ygrave" unicode="&#x1ef3;" horiz-adv-x="1492" 
d="M848 1229l-256 293l65 55l256 -295zM426 -463q-166 0 -329.5 38t-272.5 103l199 363q91 -51 202 -81t209 -30q169 0 282.5 74.5t133.5 198.5l12 84h-2q-61 -126 -182 -199.5t-266 -73.5q-197 0 -295 121.5t-66 317.5l99 612h530l-84 -528q-12 -78 18 -125t93 -47
q75 0 127.5 50t64.5 136l82 514h530l-141 -899q-46 -287 -303 -458t-641 -171z" />
    <glyph glyph-name="endash" unicode="&#x2013;" horiz-adv-x="1466" 
d="M51 512l15 82h1355l-14 -82h-1356z" />
    <glyph glyph-name="emdash" unicode="&#x2014;" horiz-adv-x="2228" 
d="M51 512l15 82h2115l-14 -82h-2116z" />
    <glyph glyph-name="quoteleft" unicode="&#x2018;" horiz-adv-x="653" 
d="M750 1522l-17 -72q-194 45 -330 -46.5t-184 -283.5q81 43 164 50.5t146.5 -17t104 -82t40.5 -137.5q0 -116 -83.5 -192t-201.5 -76q-124 0 -197 86t-73 227q0 109 32 206.5t89.5 169.5t136.5 120.5t173 59.5t200 -13z" />
    <glyph glyph-name="quoteright" unicode="&#x2019;" horiz-adv-x="655" 
d="M86 684l14 72q195 -46 331 45t185 284q-81 -43 -164 -50.5t-146.5 17t-103.5 82t-40 138.5q0 115 83 190.5t201 75.5q124 0 196.5 -85t72.5 -226q0 -136 -49 -252.5t-134 -191t-200 -105t-246 5.5z" />
    <glyph glyph-name="quotesinglbase" unicode="&#x201a;" horiz-adv-x="655" 
d="M-80 -365l14 72q195 -45 332 46.5t185 283.5q-81 -43 -164 -50.5t-146.5 17t-104 82t-40.5 137.5q0 116 83.5 192.5t201.5 76.5q123 0 195.5 -86.5t72.5 -227.5q0 -109 -32 -206.5t-89 -169.5t-136 -120.5t-173 -59.5t-199 13z" />
    <glyph glyph-name="quotedblleft" unicode="&#x201c;" horiz-adv-x="1316" 
d="M750 1522l-17 -72q-194 45 -330 -46.5t-184 -283.5q81 43 164 50.5t146.5 -17t104 -82t40.5 -137.5q0 -116 -83.5 -192t-201.5 -76q-124 0 -197 86t-73 227q0 109 32 206.5t89.5 169.5t136.5 120.5t173 59.5t200 -13zM1411 1522l-14 -72q-194 45 -330 -46.5t-184 -283.5
q81 43 163 50.5t145.5 -17t103.5 -82t40 -137.5q0 -116 -82 -192t-200 -76q-124 0 -197.5 86t-73.5 227q0 109 32 206.5t89 169.5t136 120.5t173 59.5t199 -13z" />
    <glyph glyph-name="quotedblright" unicode="&#x201d;" horiz-adv-x="1316" 
d="M86 684l14 72q195 -46 331 45t185 284q-81 -43 -164 -50.5t-146.5 17t-103.5 82t-40 138.5q0 115 83 190.5t201 75.5q124 0 196.5 -85t72.5 -226q0 -136 -49 -252.5t-134 -191t-200 -105t-246 5.5zM750 684l14 72q194 -46 330.5 45.5t183.5 283.5q-81 -43 -163 -50.5
t-146 17t-104 82t-40 138.5q0 115 83.5 190.5t199.5 75.5q125 0 197.5 -85t72.5 -226q0 -136 -49 -252.5t-134.5 -191t-200 -105t-244.5 5.5z" />
    <glyph glyph-name="quotedblbase" unicode="&#x201e;" horiz-adv-x="1316" 
d="M-80 -365l14 72q195 -45 332 46.5t185 283.5q-81 -43 -164 -50.5t-146.5 17t-104 82t-40.5 137.5q0 116 83.5 192.5t201.5 76.5q123 0 195.5 -86.5t72.5 -227.5q0 -109 -32 -206.5t-89 -169.5t-136 -120.5t-173 -59.5t-199 13zM584 -365l14 72q194 -45 330.5 46.5
t183.5 283.5q-81 -43 -163 -50.5t-145.5 17t-104 82t-40.5 137.5q0 116 83 192.5t200 76.5q125 0 197.5 -86.5t72.5 -227.5q0 -109 -32 -206.5t-89 -169.5t-135.5 -120.5t-172.5 -59.5t-199 13z" />
    <glyph glyph-name="bullet" unicode="&#x2022;" horiz-adv-x="765" 
d="M399 307q-148 0 -243 92.5t-95 235.5t95 235.5t243 92.5t243 -92.5t95 -235.5t-95 -235.5t-243 -92.5z" />
    <glyph glyph-name="ellipsis" unicode="&#x2026;" horiz-adv-x="1921" 
d="M264 -20q-119 0 -193.5 67t-74.5 172q0 125 87 199t214 74q119 0 192.5 -67.5t73.5 -174.5q0 -119 -84.5 -194.5t-214.5 -75.5zM897 -20q-119 0 -193.5 67t-74.5 172q0 125 87 199t214 74q119 0 192.5 -67.5t73.5 -174.5q0 -119 -84.5 -194.5t-214.5 -75.5zM1532 -20
q-119 0 -193.5 67t-74.5 172q0 125 87 199t214 74q119 0 192.5 -67.5t73.5 -174.5q0 -119 -84.5 -194.5t-214.5 -75.5z" />
    <glyph glyph-name="perthousand" unicode="&#x2030;" horiz-adv-x="2920" 
d="M387 -20l-70 47l1301 1501l68 -47zM487 688q-167 0 -268.5 97.5t-101.5 254.5q0 194 133.5 330.5t324.5 136.5q166 0 267.5 -98.5t101.5 -257.5q0 -194 -132.5 -328.5t-324.5 -134.5zM508 913q78 0 134 63t56 157q0 67 -37.5 108t-101.5 41q-85 0 -139.5 -64t-54.5 -159
q0 -65 39.5 -105.5t103.5 -40.5zM1419 -29q-167 0 -268.5 98t-101.5 255q0 194 133.5 330.5t324.5 136.5q166 0 267.5 -99t101.5 -258q0 -194 -132.5 -328.5t-324.5 -134.5zM2410 -29q-167 0 -268.5 98t-101.5 255q0 127 61 234.5t166.5 170t231.5 62.5q166 0 267 -99
t101 -258q0 -194 -132.5 -328.5t-324.5 -134.5zM1440 197q78 0 134 62.5t56 156.5q0 67 -37.5 108t-101.5 41q-85 0 -140 -64t-55 -159q0 -65 40 -105t104 -40zM2431 197q78 0 134 62.5t56 156.5q0 67 -37.5 108t-101.5 41q-85 0 -139.5 -64t-54.5 -159q0 -65 39.5 -105
t103.5 -40z" />
    <glyph glyph-name="guilsinglleft" unicode="&#x2039;" horiz-adv-x="626" 
d="M446 -20l-415 552l592 553l53 -53l-533 -500l373 -499z" />
    <glyph glyph-name="guilsinglright" unicode="&#x203a;" horiz-adv-x="626" 
d="M4 -20l-51 53l530 499l-372 500l69 53l416 -553z" />
    <glyph glyph-name="lira" unicode="&#x20a4;" horiz-adv-x="1574" 
d="M-41 0l49 383q102 23 172 90t90 162h-211l13 82h207l12 82h-209l14 82h207l29 159q35 208 221.5 336.5t450.5 128.5q281 0 452 -132.5t168 -330.5l-475 -32q0 54 -33.5 85t-91.5 31q-72 0 -122 -43t-60 -116l-15 -86h693l-15 -82h-692l-12 -82h692l-12 -82h-697
q-34 -220 -317 -322v-2l1036 6l-51 -317h-1493z" />
    <glyph glyph-name="Euro" unicode="&#x20ac;" horiz-adv-x="2105" 
d="M1561 670l534 -74q-56 -187 -198 -332t-340.5 -224t-421.5 -79q-255 0 -446 77.5t-297 223.5t-113 344h-195v82h197q3 50 12 100h-209v82h229q57 190 196 336.5t334 226.5t414 80q350 0 558 -155t219 -416l-553 -100q-11 105 -75 163t-175 58q-97 0 -178.5 -53
t-128.5 -140h376v-82h-411q-14 -46 -17 -100h428v-82h-419q22 -90 101 -140t198 -50q132 0 237 68.5t144 185.5z" />
    <glyph glyph-name="trademark" unicode="&#x2122;" horiz-adv-x="2625" 
d="M301 573l92 584h-262l49 318h936l-51 -318h-262l-92 -584h-410zM1049 573l143 902h498l161 -531l318 531h514l-143 -902h-332l90 568l-354 -568h-297l-174 568l-91 -568h-333z" />
    <glyph glyph-name="arrowleft" unicode="&#x2190;" horiz-adv-x="1183" 
d="M500 66l-451 469l451 469l59 -56l-356 -373h925v-81h-925l356 -371z" />
    <glyph glyph-name="arrowup" unicode="&#x2191;" horiz-adv-x="1036" 
d="M66 631l469 450l469 -450l-56 -60l-373 357v-926h-81v926l-371 -357z" />
    <glyph glyph-name="arrowright" unicode="&#x2192;" horiz-adv-x="1183" 
d="M684 66l-59 57l356 371h-926v81h926l-356 373l59 56l451 -469z" />
    <glyph glyph-name="arrowdown" unicode="&#x2193;" horiz-adv-x="1036" 
d="M33 434l57 60l371 -357v926h82v-926l372 357l56 -60l-469 -450z" />
    <glyph glyph-name="arrowboth" unicode="&#x2194;" horiz-adv-x="1855" 
d="M1356 1004l450 -469l-450 -469l-60 55l357 373h-1450l356 -371l-59 -57l-451 469l451 469l59 -56l-356 -373h1450l-357 371z" />
    <glyph glyph-name="arrowupdn" unicode="&#x2195;" horiz-adv-x="1150" 
d="M616 -129l373 356l55 -59l-469 -451l-469 451l58 59l371 -356v1323l-373 -356l-56 59l469 451l469 -451l-57 -59l-371 356v-1323z" />
    <glyph glyph-name="uni2196" unicode="&#x2196;" horiz-adv-x="1048" 
d="M805 940v-82l-514 -10l655 -655l-57 -58l-656 653l-12 -514l-80 2l13 652z" />
    <glyph glyph-name="uni2197" unicode="&#x2197;" horiz-adv-x="931" 
d="M137 940l651 -12l13 -652l-82 -2l-10 514l-656 -653l-57 58l653 655l-514 10z" />
    <glyph glyph-name="uni2198" unicode="&#x2198;" horiz-adv-x="1048" 
d="M913 817l-14 -651l-649 -12l-4 82l516 10l-653 655l57 57l653 -653l10 514z" />
    <glyph glyph-name="uni2199" unicode="&#x2199;" horiz-adv-x="931" 
d="M137 817l82 2l10 -514l654 653l59 -57l-655 -655l516 -10l-4 -82l-649 12z" />
    <glyph glyph-name="minus" unicode="&#x2212;" horiz-adv-x="1095" 
d="M59 553l58 369h983l-58 -369h-983z" />
    <glyph glyph-name="notequal" unicode="&#x2260;" horiz-adv-x="1218" 
d="M1202 788h-446l-103 -174h521l-50 -311h-655l-223 -379l-72 31l205 348h-361l50 311h495l103 174h-570l49 312h703l207 350l71 -33l-186 -317h311z" />
    <glyph glyph-name="lessequal" unicode="&#x2264;" horiz-adv-x="1056" 
d="M961 508l-881 168l61 389l936 168l-12 -281l-717 -82l692 -82zM25 338l14 82h942l-14 -82h-942z" />
    <glyph glyph-name="greaterequal" unicode="&#x2265;" horiz-adv-x="1056" 
d="M88 508l10 280l715 82l-690 82l78 281l882 -168l-61 -389zM967 338h-942l14 82h942z" />
    <glyph glyph-name="uniF6C3" unicode="&#xf6c3;" horiz-adv-x="0" 
d="M-651 -610l6 69q130 -37 228 2.5t110 132.5q-44 -30 -92 -40t-88 1t-71 35.5t-45 64t-7 85.5q9 61 59.5 99t124.5 38q106 0 162 -76t39 -192q-19 -135 -137.5 -196t-288.5 -23z" />
    <glyph glyph-name="G.alt1" horiz-adv-x="1953" 
d="M930 -39q-396 0 -626 175.5t-230 471.5q0 194 78.5 363.5t213 287.5t318.5 186t389 68q329 0 527.5 -138t222.5 -371l-561 -82q-17 69 -78.5 110t-149.5 41q-163 0 -262.5 -114t-99.5 -277q0 -131 88 -207t241 -76q124 0 215.5 47t120.5 127h-506l48 297h1069
q0 -47 -13 -149q-56 -347 -327.5 -553.5t-677.5 -206.5z" />
    <glyph glyph-name="K.alt1" horiz-adv-x="1794" 
d="M8 0l234 1475h592l-89 -549l5 -2l483 551h711l-697 -697l463 -778h-711l-299 610h-4l-96 -610h-592z" />
    <glyph glyph-name="R.alt1" horiz-adv-x="1769" 
d="M8 0l234 1475h981q276 0 424.5 -107.5t148.5 -308.5q0 -153 -83 -266t-232 -162v-2q93 -26 130.5 -88t22.5 -166l-59 -375h-592l55 354q9 55 -15 86t-77 31h-272l-74 -471h-592zM727 809h268q97 0 149 45.5t52 130.5q0 58 -40 89.5t-114 31.5h-268z" />
    <glyph glyph-name="R.alt2" horiz-adv-x="1767" 
d="M8 0l234 1475h981q276 0 424.5 -107.5t148.5 -308.5q0 -168 -93 -293.5t-265 -181.5l200 -584h-622l-135 471h-207l-74 -471h-592zM727 809h258q102 0 156.5 45t54.5 129q0 60 -42 91.5t-122 31.5h-258z" />
    <glyph glyph-name="a.alt1" horiz-adv-x="1490" 
d="M369 -25q-186 0 -286.5 68t-100.5 197q0 116 75.5 201t206.5 132.5t314 65.5l288 29q73 7 76 55q3 32 -32 50t-101 18q-107 0 -224 -45.5t-218 -127.5l-277 160q110 149 313.5 234.5t450.5 85.5q112 0 208.5 -16.5t175.5 -52t132 -86.5t75.5 -125t8.5 -163l-104 -655
h-457l-37 195h-2q-78 -103 -204 -161.5t-281 -58.5zM635 293q110 0 177.5 35.5t76.5 95.5l4 22l-217 -20q-69 -6 -107.5 -28.5t-38.5 -55.5q0 -49 105 -49z" />
    <glyph glyph-name="a.alt2" horiz-adv-x="1675" 
d="M367 -25q-185 0 -285 66t-100 190q0 118 75.5 205t206.5 136t314 67l286 29q72 6 78 55q3 32 -32 50t-101 18q-109 0 -226 -45.5t-218 -127.5l-275 160q109 150 310 235t448 85q112 0 208.5 -16.5t176.5 -52t133.5 -86.5t76.5 -125t9 -163l-47 -299q-10 -75 61 -75
q41 0 99 26l30 -241q-69 -45 -168.5 -69t-207.5 -24q-156 0 -243.5 60.5t-105.5 165.5l-4 16h-2q-77 -112 -205.5 -176t-291.5 -64zM635 293q109 0 177 36t77 99l4 18l-217 -20q-146 -13 -146 -84q0 -49 105 -49z" />
    <glyph glyph-name="k.alt1" horiz-adv-x="1441" 
d="M-18 0l243 1536h531l-140 -877h2l302 406h602l-437 -512l273 -553h-596l-176 444h-2l-72 -444h-530z" />
    <glyph glyph-name="u.alt1" horiz-adv-x="1474" 
d="M657 -31q-332 0 -491.5 119t-124.5 340l98 637h531l-90 -569q-9 -64 24 -97.5t105 -33.5q74 0 118.5 33.5t53.5 97.5l90 569h530l-98 -637q-35 -221 -228.5 -340t-517.5 -119z" />
    <glyph glyph-name="y.alt1" horiz-adv-x="1527" 
d="M195 -430l282 467l-395 1028h530l176 -543h3l313 543h508l-912 -1495h-505z" />
    <glyph glyph-name="agrave.alt1" horiz-adv-x="1490" 
d="M856 1229l-256 293l66 55l256 -295zM369 -25q-186 0 -286.5 68t-100.5 197q0 116 75.5 201t206.5 132.5t314 65.5l288 29q73 7 76 55q3 32 -32 50t-101 18q-107 0 -224 -45.5t-218 -127.5l-277 160q110 149 313.5 234.5t450.5 85.5q112 0 208.5 -16.5t175.5 -52
t132 -86.5t75.5 -125t8.5 -163l-104 -655h-457l-37 195h-2q-78 -103 -204 -161.5t-281 -58.5zM635 293q110 0 177.5 35.5t76.5 95.5l4 22l-217 -20q-69 -6 -107.5 -28.5t-38.5 -55.5q0 -49 105 -49z" />
    <glyph glyph-name="agrave.alt2" horiz-adv-x="1675" 
d="M858 1229l-256 293l66 55l256 -295zM367 -25q-185 0 -285 66t-100 190q0 118 75.5 205t206.5 136t314 67l286 29q72 6 78 55q3 32 -32 50t-101 18q-109 0 -226 -45.5t-218 -127.5l-275 160q109 150 310 235t448 85q112 0 208.5 -16.5t176.5 -52t133.5 -86.5t76.5 -125
t9 -163l-47 -299q-10 -75 61 -75q41 0 99 26l30 -241q-69 -45 -168.5 -69t-207.5 -24q-156 0 -243.5 60.5t-105.5 165.5l-4 16h-2q-77 -112 -205.5 -176t-291.5 -64zM635 293q109 0 177 36t77 99l4 18l-217 -20q-146 -13 -146 -84q0 -49 105 -49z" />
    <glyph glyph-name="aacute.alt1" horiz-adv-x="1490" 
d="M872 1229l-49 53l348 295l50 -55zM369 -25q-186 0 -286.5 68t-100.5 197q0 116 75.5 201t206.5 132.5t314 65.5l288 29q73 7 76 55q3 32 -32 50t-101 18q-107 0 -224 -45.5t-218 -127.5l-277 160q110 149 313.5 234.5t450.5 85.5q112 0 208.5 -16.5t175.5 -52t132 -86.5
t75.5 -125t8.5 -163l-104 -655h-457l-37 195h-2q-78 -103 -204 -161.5t-281 -58.5zM635 293q110 0 177.5 35.5t76.5 95.5l4 22l-217 -20q-69 -6 -107.5 -28.5t-38.5 -55.5q0 -49 105 -49z" />
    <glyph glyph-name="aacute.alt2" horiz-adv-x="1675" 
d="M877 1229l-50 53l349 295l49 -55zM367 -25q-185 0 -285 66t-100 190q0 118 75.5 205t206.5 136t314 67l286 29q72 6 78 55q3 32 -32 50t-101 18q-109 0 -226 -45.5t-218 -127.5l-275 160q109 150 310 235t448 85q112 0 208.5 -16.5t176.5 -52t133.5 -86.5t76.5 -125
t9 -163l-47 -299q-10 -75 61 -75q41 0 99 26l30 -241q-69 -45 -168.5 -69t-207.5 -24q-156 0 -243.5 60.5t-105.5 165.5l-4 16h-2q-77 -112 -205.5 -176t-291.5 -64zM635 293q109 0 177 36t77 99l4 18l-217 -20q-146 -13 -146 -84q0 -49 105 -49z" />
    <glyph glyph-name="atilde.alt1" horiz-adv-x="1490" 
d="M1051 1208q-45 0 -84 18.5t-61 39.5t-50 55q-32 36 -46 50.5t-44.5 32t-63.5 17.5q-64 0 -112 -54t-62 -138h-82q20 119 95.5 195.5t175.5 76.5q46 0 85.5 -19.5t61 -40t51.5 -57.5q26 -31 42.5 -47.5t44.5 -31.5t59 -15q65 0 115 54t63 139h80q-19 -120 -94 -197.5
t-174 -77.5zM369 -25q-186 0 -286.5 68t-100.5 197q0 116 75.5 201t206.5 132.5t314 65.5l288 29q73 7 76 55q3 32 -32 50t-101 18q-107 0 -224 -45.5t-218 -127.5l-277 160q110 149 313.5 234.5t450.5 85.5q112 0 208.5 -16.5t175.5 -52t132 -86.5t75.5 -125t8.5 -163
l-104 -655h-457l-37 195h-2q-78 -103 -204 -161.5t-281 -58.5zM635 293q110 0 177.5 35.5t76.5 95.5l4 22l-217 -20q-69 -6 -107.5 -28.5t-38.5 -55.5q0 -49 105 -49z" />
    <glyph glyph-name="atilde.alt2" horiz-adv-x="1675" 
d="M1053 1208q-45 0 -84 18.5t-61 39.5t-50 55q-51 58 -75 74q-36 26 -78 26q-64 0 -112.5 -54t-62.5 -138h-81q20 120 95 196t175 76q46 0 86 -19.5t61.5 -40.5t51.5 -57q27 -32 42.5 -48t43.5 -31t59 -15q65 0 115 54t63 139h80q-19 -120 -94 -197.5t-174 -77.5zM367 -25
q-185 0 -285 66t-100 190q0 118 75.5 205t206.5 136t314 67l286 29q72 6 78 55q3 32 -32 50t-101 18q-109 0 -226 -45.5t-218 -127.5l-275 160q109 150 310 235t448 85q112 0 208.5 -16.5t176.5 -52t133.5 -86.5t76.5 -125t9 -163l-47 -299q-10 -75 61 -75q41 0 99 26
l30 -241q-69 -45 -168.5 -69t-207.5 -24q-156 0 -243.5 60.5t-105.5 165.5l-4 16h-2q-77 -112 -205.5 -176t-291.5 -64zM635 293q109 0 177 36t77 99l4 18l-217 -20q-146 -13 -146 -84q0 -49 105 -49z" />
    <glyph glyph-name="adieresis.alt1" horiz-adv-x="1490" 
d="M518 1188q-92 0 -147.5 50.5t-55.5 133.5q0 108 80.5 182t192.5 74q91 0 147 -51t56 -131q0 -109 -80 -183.5t-193 -74.5zM1198 1188q-91 0 -147 50.5t-56 133.5q0 107 81.5 181.5t191.5 74.5q92 0 147 -50.5t55 -131.5q0 -109 -79.5 -183.5t-192.5 -74.5zM369 -25
q-186 0 -286.5 68t-100.5 197q0 116 75.5 201t206.5 132.5t314 65.5l288 29q73 7 76 55q3 32 -32 50t-101 18q-107 0 -224 -45.5t-218 -127.5l-277 160q110 149 313.5 234.5t450.5 85.5q112 0 208.5 -16.5t175.5 -52t132 -86.5t75.5 -125t8.5 -163l-104 -655h-457l-37 195
h-2q-78 -103 -204 -161.5t-281 -58.5zM635 293q110 0 177.5 35.5t76.5 95.5l4 22l-217 -20q-69 -6 -107.5 -28.5t-38.5 -55.5q0 -49 105 -49z" />
    <glyph glyph-name="adieresis.alt2" horiz-adv-x="1675" 
d="M520 1188q-92 0 -147.5 50.5t-55.5 133.5q0 108 80.5 182t192.5 74q91 0 147 -51t56 -131q0 -109 -80 -183.5t-193 -74.5zM1200 1188q-91 0 -147 50.5t-56 133.5q0 107 81.5 181.5t191.5 74.5q93 0 148 -50.5t55 -131.5q0 -109 -80 -183.5t-193 -74.5zM367 -25
q-185 0 -285 66t-100 190q0 118 75.5 205t206.5 136t314 67l286 29q72 6 78 55q3 32 -32 50t-101 18q-109 0 -226 -45.5t-218 -127.5l-275 160q109 150 310 235t448 85q112 0 208.5 -16.5t176.5 -52t133.5 -86.5t76.5 -125t9 -163l-47 -299q-10 -75 61 -75q41 0 99 26
l30 -241q-69 -45 -168.5 -69t-207.5 -24q-156 0 -243.5 60.5t-105.5 165.5l-4 16h-2q-77 -112 -205.5 -176t-291.5 -64zM635 293q109 0 177 36t77 99l4 18l-217 -20q-146 -13 -146 -84q0 -49 105 -49z" />
    <glyph glyph-name="aring.alt1" horiz-adv-x="1490" 
d="M862 1208q-76 0 -121 44t-45 118q0 99 66 163t162 64q76 0 121 -43.5t45 -115.5q0 -100 -65 -165t-163 -65zM874 1286q55 0 93.5 39.5t38.5 99.5q0 43 -26.5 69t-70.5 26q-56 0 -94.5 -39.5t-38.5 -98.5q0 -44 27 -70t71 -26zM369 -25q-186 0 -286.5 68t-100.5 197
q0 116 75.5 201t206.5 132.5t314 65.5l288 29q73 7 76 55q3 32 -32 50t-101 18q-107 0 -224 -45.5t-218 -127.5l-277 160q110 149 313.5 234.5t450.5 85.5q112 0 208.5 -16.5t175.5 -52t132 -86.5t75.5 -125t8.5 -163l-104 -655h-457l-37 195h-2q-78 -103 -204 -161.5
t-281 -58.5zM635 293q110 0 177.5 35.5t76.5 95.5l4 22l-217 -20q-69 -6 -107.5 -28.5t-38.5 -55.5q0 -49 105 -49z" />
    <glyph glyph-name="aring.alt2" horiz-adv-x="1675" 
d="M864 1208q-76 0 -121 44t-45 118q0 99 66 163t162 64q76 0 121 -43.5t45 -115.5q0 -100 -65 -165t-163 -65zM877 1286q55 0 93 39t38 100q0 43 -26.5 69t-70.5 26q-56 0 -94.5 -39.5t-38.5 -98.5q0 -44 27 -70t72 -26zM367 -25q-185 0 -285 66t-100 190q0 118 75.5 205
t206.5 136t314 67l286 29q72 6 78 55q3 32 -32 50t-101 18q-109 0 -226 -45.5t-218 -127.5l-275 160q109 150 310 235t448 85q112 0 208.5 -16.5t176.5 -52t133.5 -86.5t76.5 -125t9 -163l-47 -299q-10 -75 61 -75q41 0 99 26l30 -241q-69 -45 -168.5 -69t-207.5 -24
q-156 0 -243.5 60.5t-105.5 165.5l-4 16h-2q-77 -112 -205.5 -176t-291.5 -64zM635 293q109 0 177 36t77 99l4 18l-217 -20q-146 -13 -146 -84q0 -49 105 -49z" />
    <glyph glyph-name="amacron.alt1" horiz-adv-x="1490" 
d="M481 1208l13 82h757l-12 -82h-758zM369 -25q-186 0 -286.5 68t-100.5 197q0 116 75.5 201t206.5 132.5t314 65.5l288 29q73 7 76 55q3 32 -32 50t-101 18q-107 0 -224 -45.5t-218 -127.5l-277 160q110 149 313.5 234.5t450.5 85.5q112 0 208.5 -16.5t175.5 -52t132 -86.5
t75.5 -125t8.5 -163l-104 -655h-457l-37 195h-2q-78 -103 -204 -161.5t-281 -58.5zM635 293q110 0 177.5 35.5t76.5 95.5l4 22l-217 -20q-69 -6 -107.5 -28.5t-38.5 -55.5q0 -49 105 -49z" />
    <glyph glyph-name="amacron.alt2" horiz-adv-x="1675" 
d="M485 1208l13 82h757l-12 -82h-758zM367 -25q-185 0 -285 66t-100 190q0 118 75.5 205t206.5 136t314 67l286 29q72 6 78 55q3 32 -32 50t-101 18q-109 0 -226 -45.5t-218 -127.5l-275 160q109 150 310 235t448 85q112 0 208.5 -16.5t176.5 -52t133.5 -86.5t76.5 -125
t9 -163l-47 -299q-10 -75 61 -75q41 0 99 26l30 -241q-69 -45 -168.5 -69t-207.5 -24q-156 0 -243.5 60.5t-105.5 165.5l-4 16h-2q-77 -112 -205.5 -176t-291.5 -64zM635 293q109 0 177 36t77 99l4 18l-217 -20q-146 -13 -146 -84q0 -49 105 -49z" />
    <glyph glyph-name="abreve.alt1" horiz-adv-x="1490" 
d="M860 1208q-174 0 -272.5 93t-75.5 235h78q-17 -107 61.5 -177.5t216.5 -70.5t240 70.5t119 177.5h86q-23 -143 -151 -235.5t-302 -92.5zM369 -25q-186 0 -286.5 68t-100.5 197q0 116 75.5 201t206.5 132.5t314 65.5l288 29q73 7 76 55q3 32 -32 50t-101 18
q-107 0 -224 -45.5t-218 -127.5l-277 160q110 149 313.5 234.5t450.5 85.5q112 0 208.5 -16.5t175.5 -52t132 -86.5t75.5 -125t8.5 -163l-104 -655h-457l-37 195h-2q-78 -103 -204 -161.5t-281 -58.5zM635 293q110 0 177.5 35.5t76.5 95.5l4 22l-217 -20
q-69 -6 -107.5 -28.5t-38.5 -55.5q0 -49 105 -49z" />
    <glyph glyph-name="abreve.alt2" horiz-adv-x="1675" 
d="M862 1208q-174 0 -272.5 93t-75.5 235h78q-17 -107 61.5 -177.5t216.5 -70.5t240 70.5t119 177.5h86q-23 -143 -151 -235.5t-302 -92.5zM367 -25q-185 0 -285 66t-100 190q0 118 75.5 205t206.5 136t314 67l286 29q72 6 78 55q3 32 -32 50t-101 18q-109 0 -226 -45.5
t-218 -127.5l-275 160q109 150 310 235t448 85q112 0 208.5 -16.5t176.5 -52t133.5 -86.5t76.5 -125t9 -163l-47 -299q-10 -75 61 -75q41 0 99 26l30 -241q-69 -45 -168.5 -69t-207.5 -24q-156 0 -243.5 60.5t-105.5 165.5l-4 16h-2q-77 -112 -205.5 -176t-291.5 -64z
M635 293q109 0 177 36t77 99l4 18l-217 -20q-146 -13 -146 -84q0 -49 105 -49z" />
    <glyph glyph-name="aogonek.alt1" horiz-adv-x="1490" 
d="M854 1098q112 0 208.5 -16.5t175.5 -52t132 -86.5t75.5 -125t8.5 -163l-104 -655q-201 -63 -299 -117.5t-109 -132.5q-6 -43 23 -68.5t84 -25.5q37 0 81.5 22t79.5 58l52 -55q-49 -46 -112.5 -73.5t-119.5 -27.5q-89 0 -137 45t-37 119q11 83 81 143.5t198 112.5h-242
l-37 195h-2q-78 -103 -204 -161.5t-281 -58.5q-186 0 -286.5 68t-100.5 197q0 116 75.5 201t206.5 132.5t314 65.5l288 29q73 7 76 55q3 32 -32 50t-101 18q-107 0 -224 -45.5t-218 -127.5l-277 160q110 149 313.5 234.5t450.5 85.5zM889 424l4 22l-217 -20
q-69 -6 -107.5 -28.5t-38.5 -55.5q0 -49 105 -49q110 0 177.5 35.5t76.5 95.5z" />
    <glyph glyph-name="aogonek.alt2" horiz-adv-x="1675" 
d="M1133 -344q37 0 81.5 22t79.5 58l52 -55q-49 -46 -112.5 -73.5t-119.5 -27.5q-89 0 -137 45t-37 119q19 138 223 231q-130 10 -203.5 69.5t-89.5 154.5l-4 16h-2q-77 -112 -205.5 -176t-291.5 -64q-185 0 -285 66t-100 190q0 118 75.5 205t206.5 136t314 67l286 29
q72 6 78 55q3 32 -32 50t-101 18q-109 0 -226 -45.5t-218 -127.5l-275 160q109 150 310 235t448 85q112 0 208.5 -16.5t176.5 -52t133.5 -86.5t76.5 -125t9 -163l-47 -299q-10 -75 61 -75q41 0 99 26l30 -241q-69 -47 -180 -72q-94 -30 -155 -53.5t-116 -53t-83.5 -63.5
t-34.5 -74q-6 -43 23 -68.5t84 -25.5zM889 428l4 18l-217 -20q-146 -13 -146 -84q0 -49 105 -49q109 0 177 36t77 99z" />
    <glyph glyph-name="acircumflex.alt1" horiz-adv-x="1490" 
d="M487 1208l-43 64l414 264h111l329 -264l-55 -64l-338 265zM369 -25q-186 0 -286.5 68t-100.5 197q0 116 75.5 201t206.5 132.5t314 65.5l288 29q73 7 76 55q3 32 -32 50t-101 18q-107 0 -224 -45.5t-218 -127.5l-277 160q110 149 313.5 234.5t450.5 85.5
q112 0 208.5 -16.5t175.5 -52t132 -86.5t75.5 -125t8.5 -163l-104 -655h-457l-37 195h-2q-78 -103 -204 -161.5t-281 -58.5zM635 293q110 0 177.5 35.5t76.5 95.5l4 22l-217 -20q-69 -6 -107.5 -28.5t-38.5 -55.5q0 -49 105 -49z" />
    <glyph glyph-name="acircumflex.alt2" horiz-adv-x="1675" 
d="M489 1208l-43 64l414 264h111l329 -264l-55 -64l-338 265zM367 -25q-185 0 -285 66t-100 190q0 118 75.5 205t206.5 136t314 67l286 29q72 6 78 55q3 32 -32 50t-101 18q-109 0 -226 -45.5t-218 -127.5l-275 160q109 150 310 235t448 85q112 0 208.5 -16.5t176.5 -52
t133.5 -86.5t76.5 -125t9 -163l-47 -299q-10 -75 61 -75q41 0 99 26l30 -241q-69 -45 -168.5 -69t-207.5 -24q-156 0 -243.5 60.5t-105.5 165.5l-4 16h-2q-77 -112 -205.5 -176t-291.5 -64zM635 293q109 0 177 36t77 99l4 18l-217 -20q-146 -13 -146 -84q0 -49 105 -49z" />
    <glyph glyph-name="Gcircumflex.alt1" horiz-adv-x="1953" 
d="M793 1597l-43 64l348 223h110l279 -223l-55 -64l-285 224zM930 -39q-396 0 -626 175.5t-230 471.5q0 194 78.5 363.5t213 287.5t318.5 186t389 68q329 0 527.5 -138t222.5 -371l-561 -82q-17 69 -78.5 110t-149.5 41q-163 0 -262.5 -114t-99.5 -277q0 -131 88 -207
t241 -76q124 0 215.5 47t120.5 127h-506l48 297h1069q0 -47 -13 -149q-56 -347 -327.5 -553.5t-677.5 -206.5z" />
    <glyph glyph-name="Gbreve.alt1" horiz-adv-x="1953" 
d="M1108 1618q-148 0 -232 75t-65 191h80q-12 -80 51.5 -133t175.5 -53t194.5 53t94.5 133h84q-19 -116 -127 -191t-256 -75zM930 -39q-396 0 -626 175.5t-230 471.5q0 194 78.5 363.5t213 287.5t318.5 186t389 68q329 0 527.5 -138t222.5 -371l-561 -82q-17 69 -78.5 110
t-149.5 41q-163 0 -262.5 -114t-99.5 -277q0 -131 88 -207t241 -76q124 0 215.5 47t120.5 127h-506l48 297h1069q0 -47 -13 -149q-56 -347 -327.5 -553.5t-677.5 -206.5z" />
    <glyph glyph-name="Gdotaccent.alt1" horiz-adv-x="1953" 
d="M1100 1567q-102 0 -166 56.5t-64 145.5q0 118 91 198.5t215 80.5q104 0 167.5 -55.5t63.5 -145.5q0 -122 -88.5 -201t-218.5 -79zM930 -39q-396 0 -626 175.5t-230 471.5q0 194 78.5 363.5t213 287.5t318.5 186t389 68q329 0 527.5 -138t222.5 -371l-561 -82
q-17 69 -78.5 110t-149.5 41q-163 0 -262.5 -114t-99.5 -277q0 -131 88 -207t241 -76q124 0 215.5 47t120.5 127h-506l48 297h1069q0 -47 -13 -149q-56 -347 -327.5 -553.5t-677.5 -206.5z" />
    <glyph glyph-name="uni0122.alt1" horiz-adv-x="1953" 
d="M930 -39q-396 0 -626 175.5t-230 471.5q0 194 78.5 363.5t213 287.5t318.5 186t389 68q329 0 527.5 -138t222.5 -371l-561 -82q-17 69 -78.5 110t-149.5 41q-163 0 -262.5 -114t-99.5 -277q0 -131 88 -207t241 -76q124 0 215.5 47t120.5 127h-506l48 297h1069
q0 -47 -13 -149q-56 -347 -327.5 -553.5t-677.5 -206.5zM668 -610l6 69q130 -37 228 2.5t110 132.5q-44 -30 -92 -40t-88 1t-71 35.5t-45 64t-7 85.5q9 61 59.5 99t124.5 38q106 0 162 -76t39 -192q-19 -135 -137.5 -196t-288.5 -23z" />
    <glyph glyph-name="IJacute" horiz-adv-x="2312" 
d="M492 1597l-37 68l401 240l35 -68zM2046 1597l-37 68l401 240l35 -68zM8 0l234 1475h589l-233 -1475h-590zM1434 -39q-320 0 -497 135.5t-167 374.5l533 139q-6 -108 37.5 -168.5t125.5 -60.5q69 0 116.5 40t57.5 109l152 945h592l-152 -957q-43 -264 -254.5 -410.5
t-543.5 -146.5z" />
    <glyph glyph-name="ijacute" horiz-adv-x="1325" 
d="M317 1147l-34 67l469 281l34 -68zM1018 1147l-35 67l469 281l35 -68zM-18 0l168 1065h530l-168 -1065h-530zM608 -463q-181 0 -334 39l103 324q66 -17 123 -17q60 0 98 33t47 96l168 1053h530l-176 -1110q-31 -196 -179.5 -307t-379.5 -111z" />
    <glyph glyph-name="uni0136.alt1" horiz-adv-x="1794" 
d="M8 0l234 1475h592l-89 -549l5 -2l483 551h711l-697 -697l463 -778h-711l-299 610h-4l-96 -610h-592zM530 -610l7 69q130 -37 227.5 2.5t109.5 132.5q-44 -30 -92 -40t-88 1t-71 35.5t-45 64t-7 85.5q9 61 60 99t125 38q106 0 161.5 -75.5t38.5 -192.5
q-19 -135 -137.5 -196t-288.5 -23z" />
    <glyph glyph-name="uni0137.alt1" horiz-adv-x="1441" 
d="M-18 0l243 1536h531l-140 -877h2l302 406h602l-437 -512l273 -553h-596l-176 444h-2l-72 -444h-530zM373 -610l6 69q130 -37 228 2.5t110 132.5q-44 -30 -92 -40t-88 1t-71 35.5t-45 64t-7 85.5q9 61 59.5 99t124.5 38q106 0 162 -76t39 -192q-19 -135 -137.5 -196
t-288.5 -23z" />
    <glyph glyph-name="Racute.alt1" horiz-adv-x="1769" 
d="M1036 1597l-49 54l297 254l49 -56zM8 0l234 1475h981q276 0 424.5 -107.5t148.5 -308.5q0 -153 -83 -266t-232 -162v-2q93 -26 130.5 -88t22.5 -166l-59 -375h-592l55 354q9 55 -15 86t-77 31h-272l-74 -471h-592zM727 809h268q97 0 149 45.5t52 130.5q0 58 -40 89.5
t-114 31.5h-268z" />
    <glyph glyph-name="Racute.alt2" horiz-adv-x="1767" 
d="M1036 1597l-49 54l297 254l49 -56zM8 0l234 1475h981q276 0 424.5 -107.5t148.5 -308.5q0 -168 -93 -293.5t-265 -181.5l200 -584h-622l-135 471h-207l-74 -471h-592zM727 809h258q102 0 156.5 45t54.5 129q0 60 -42 91.5t-122 31.5h-258z" />
    <glyph glyph-name="Rcaron.alt1" horiz-adv-x="1769" 
d="M963 1618l-277 223l57 64l281 -224l356 224l43 -64l-350 -223h-110zM8 0l234 1475h981q276 0 424.5 -107.5t148.5 -308.5q0 -153 -83 -266t-232 -162v-2q93 -26 130.5 -88t22.5 -166l-59 -375h-592l55 354q9 55 -15 86t-77 31h-272l-74 -471h-592zM727 809h268
q97 0 149 45.5t52 130.5q0 58 -40 89.5t-114 31.5h-268z" />
    <glyph glyph-name="Rcaron.alt2" horiz-adv-x="1767" 
d="M963 1618l-277 223l57 64l281 -224l356 224l43 -64l-350 -223h-110zM8 0l234 1475h981q276 0 424.5 -107.5t148.5 -308.5q0 -168 -93 -293.5t-265 -181.5l200 -584h-622l-135 471h-207l-74 -471h-592zM727 809h258q102 0 156.5 45t54.5 129q0 60 -42 91.5t-122 31.5h-258
z" />
    <glyph glyph-name="uni0156.alt1" horiz-adv-x="1769" 
d="M8 0l234 1475h981q276 0 424.5 -107.5t148.5 -308.5q0 -153 -83 -266t-232 -162v-2q93 -26 130.5 -88t22.5 -166l-59 -375h-592l55 354q9 55 -15 86t-77 31h-272l-74 -471h-592zM727 809h268q97 0 149 45.5t52 130.5q0 58 -40 89.5t-114 31.5h-268zM522 -610l6 69
q130 -37 228 2.5t110 132.5q-44 -30 -92 -40t-88 1t-71 35.5t-45 64t-7 85.5q9 61 60 99t125 38q106 0 161.5 -75.5t38.5 -192.5q-19 -135 -137.5 -196t-288.5 -23z" />
    <glyph glyph-name="uni0156.alt2" horiz-adv-x="1767" 
d="M8 0l234 1475h981q276 0 424.5 -107.5t148.5 -308.5q0 -168 -93 -293.5t-265 -181.5l200 -584h-622l-135 471h-207l-74 -471h-592zM727 809h258q102 0 156.5 45t54.5 129q0 60 -42 91.5t-122 31.5h-258zM532 -610l7 69q130 -37 228 2.5t110 132.5q-55 -38 -115 -43
t-104 17t-69 68.5t-16 103.5q9 61 60 99t125 38q106 0 161.5 -75.5t38.5 -192.5q-19 -135 -137.5 -196t-288.5 -23z" />
    <glyph glyph-name="ugrave.alt1" horiz-adv-x="1474" 
d="M838 1229l-256 293l65 55l256 -295zM657 -31q-332 0 -491.5 119t-124.5 340l98 637h531l-90 -569q-9 -64 24 -97.5t105 -33.5q74 0 118.5 33.5t53.5 97.5l90 569h530l-98 -637q-35 -221 -228.5 -340t-517.5 -119z" />
    <glyph glyph-name="uacute.alt1" horiz-adv-x="1474" 
d="M856 1229l-49 53l348 295l49 -55zM657 -31q-332 0 -491.5 119t-124.5 340l98 637h531l-90 -569q-9 -64 24 -97.5t105 -33.5q74 0 118.5 33.5t53.5 97.5l90 569h530l-98 -637q-35 -221 -228.5 -340t-517.5 -119z" />
    <glyph glyph-name="ucircumflex.alt1" horiz-adv-x="1474" 
d="M469 1208l-43 64l414 264h110l330 -264l-55 -64l-338 265zM657 -31q-332 0 -491.5 119t-124.5 340l98 637h531l-90 -569q-9 -64 24 -97.5t105 -33.5q74 0 118.5 33.5t53.5 97.5l90 569h530l-98 -637q-35 -221 -228.5 -340t-517.5 -119z" />
    <glyph glyph-name="utilde.alt1" horiz-adv-x="1474" 
d="M1034 1208q-45 0 -84 18.5t-60.5 39t-49.5 55.5q-32 36 -46 50.5t-44.5 32t-63.5 17.5q-64 0 -112 -54t-62 -138h-82q20 120 95 196t175 76q46 0 86 -19.5t61.5 -40.5t51.5 -57q27 -32 42.5 -48t43.5 -31t59 -15q65 0 115.5 54t63.5 139h80q-19 -120 -94.5 -197.5
t-174.5 -77.5zM657 -31q-332 0 -491.5 119t-124.5 340l98 637h531l-90 -569q-9 -64 24 -97.5t105 -33.5q74 0 118.5 33.5t53.5 97.5l90 569h530l-98 -637q-35 -221 -228.5 -340t-517.5 -119z" />
    <glyph glyph-name="umacron.alt1" horiz-adv-x="1474" 
d="M465 1208l12 82h758l-12 -82h-758zM657 -31q-332 0 -491.5 119t-124.5 340l98 637h531l-90 -569q-9 -64 24 -97.5t105 -33.5q74 0 118.5 33.5t53.5 97.5l90 569h530l-98 -637q-35 -221 -228.5 -340t-517.5 -119z" />
    <glyph glyph-name="ubreve.alt1" horiz-adv-x="1474" 
d="M842 1208q-174 0 -272.5 93t-75.5 235h77q-17 -107 62 -177.5t217 -70.5t239.5 70.5t118.5 177.5h86q-23 -143 -150.5 -235.5t-301.5 -92.5zM657 -31q-332 0 -491.5 119t-124.5 340l98 637h531l-90 -569q-9 -64 24 -97.5t105 -33.5q74 0 118.5 33.5t53.5 97.5l90 569h530
l-98 -637q-35 -221 -228.5 -340t-517.5 -119z" />
    <glyph glyph-name="uring.alt1" horiz-adv-x="1474" 
d="M844 1208q-76 0 -121 44t-45 118q0 99 65.5 163t161.5 64q76 0 121 -43.5t45 -115.5q0 -100 -64.5 -165t-162.5 -65zM856 1286q55 0 93 39t38 100q0 43 -26 69t-70 26q-56 0 -94.5 -39.5t-38.5 -98.5q0 -44 27 -70t71 -26zM657 -31q-332 0 -491.5 119t-124.5 340l98 637
h531l-90 -569q-9 -64 24 -97.5t105 -33.5q74 0 118.5 33.5t53.5 97.5l90 569h530l-98 -637q-35 -221 -228.5 -340t-517.5 -119z" />
    <glyph glyph-name="uhungarumlaut.alt1" horiz-adv-x="1474" 
d="M668 1229l-50 53l349 295l49 -55zM1040 1229l-49 53l350 295l50 -55zM657 -31q-332 0 -491.5 119t-124.5 340l98 637h531l-90 -569q-9 -64 24 -97.5t105 -33.5q74 0 118.5 33.5t53.5 97.5l90 569h530l-98 -637q-35 -221 -228.5 -340t-517.5 -119z" />
    <glyph glyph-name="udieresis.alt1" horiz-adv-x="1474" 
d="M500 1188q-92 0 -147.5 50.5t-55.5 133.5q0 108 80.5 182t191.5 74q91 0 147 -51t56 -131q0 -109 -79.5 -183.5t-192.5 -74.5zM1180 1188q-91 0 -147 50.5t-56 133.5q0 107 81 181.5t191 74.5q93 0 148 -50.5t55 -131.5q0 -109 -79.5 -183.5t-192.5 -74.5zM657 -31
q-332 0 -491.5 119t-124.5 340l98 637h531l-90 -569q-9 -64 24 -97.5t105 -33.5q74 0 118.5 33.5t53.5 97.5l90 569h530l-98 -637q-35 -221 -228.5 -340t-517.5 -119z" />
    <glyph glyph-name="uogonek.alt1" horiz-adv-x="1474" 
d="M971 1065h530l-98 -637q-28 -173 -154.5 -284.5t-339.5 -151.5q-92 -30 -151 -53.5t-113 -53t-81.5 -62.5t-33.5 -73q-6 -43 23 -68.5t84 -25.5q37 0 82 22t80 58l51 -55q-49 -46 -112.5 -73.5t-119.5 -27.5q-89 0 -137 45t-37 119q16 131 209 225q-330 0 -488.5 119
t-123.5 340l98 637h531l-90 -569q-9 -64 24 -97.5t105 -33.5q74 0 118.5 33.5t53.5 97.5z" />
    <glyph glyph-name="ygrave.alt1" horiz-adv-x="1527" 
d="M877 1229l-256 293l65 55l256 -295zM195 -430l282 467l-395 1028h530l176 -543h3l313 543h508l-912 -1495h-505z" />
    <glyph glyph-name="yacute.alt1" horiz-adv-x="1527" 
d="M895 1229l-49 53l348 295l49 -55zM195 -430l282 467l-395 1028h530l176 -543h3l313 543h508l-912 -1495h-505z" />
    <glyph glyph-name="ydieresis.alt1" horiz-adv-x="1527" 
d="M539 1188q-92 0 -147.5 50.5t-55.5 133.5q0 108 80.5 182t191.5 74q91 0 147 -51t56 -131q0 -109 -79.5 -183.5t-192.5 -74.5zM1219 1188q-91 0 -147 50.5t-56 133.5q0 107 81 181.5t191 74.5q93 0 148 -50.5t55 -131.5q0 -109 -79.5 -183.5t-192.5 -74.5zM195 -430
l282 467l-395 1028h530l176 -543h3l313 543h508l-912 -1495h-505z" />
    <glyph glyph-name="ycircumflex.alt1" horiz-adv-x="1527" 
d="M508 1208l-43 64l414 264h110l330 -264l-55 -64l-338 265zM195 -430l282 467l-395 1028h530l176 -543h3l313 543h508l-912 -1495h-505z" />
    <glyph glyph-name="three.alt1" horiz-adv-x="1576" 
d="M715 -31q-319 0 -515 137.5t-192 362.5l588 106q-3 -90 40 -150t120 -60q72 0 121 57t49 131q0 56 -34.5 88.5t-94.5 32.5q-53 0 -101 -23l-123 221l373 224h-710l61 379h1292l-65 -414l-410 -238q29 0 47 -2q152 -19 250 -112.5t98 -229.5q0 -114 -64 -211t-172.5 -162
t-253 -101t-304.5 -36z" />
    <glyph glyph-name="colon.case" horiz-adv-x="653" 
d="M395 819q-119 0 -193.5 68t-74.5 174q0 118 86 194t215 76q121 0 194.5 -67t73.5 -174q0 -122 -86.5 -196.5t-214.5 -74.5zM289 143q-119 0 -194 67.5t-75 172.5q0 125 87.5 198.5t214.5 73.5q121 0 194.5 -67t73.5 -174q0 -119 -85.5 -195t-215.5 -76z" />
    <glyph glyph-name="semicolon.case" horiz-adv-x="655" 
d="M399 819q-119 0 -193.5 67.5t-74.5 172.5q0 125 87 198.5t214 73.5q121 0 194.5 -67t73.5 -174q0 -119 -85.5 -195t-215.5 -76zM-55 -201l16 72q194 -45 330 46.5t184 283.5q-81 -43 -164 -50.5t-146.5 17t-104 82t-40.5 137.5q0 116 83.5 192t201.5 76q124 0 197 -86
t73 -227q0 -109 -32 -206.5t-89 -169.5t-136 -120.5t-173 -59.5t-200 13z" />
    <glyph glyph-name="exclamdown.case" horiz-adv-x="712" 
d="M510 1495q112 0 180 -58.5t68 -154.5q0 -127 -96.5 -213t-233.5 -86q-113 0 -181.5 59.5t-68.5 155.5q0 127 97 212t235 85zM561 922l41 -512l-65 -410h-529l66 410l202 512h285z" />
    <glyph glyph-name="questiondown.case" horiz-adv-x="1513" 
d="M924 1495q112 0 181 -59t69 -154q0 -127 -96.5 -213t-233.5 -86q-113 0 -181.5 59.5t-68.5 155.5q0 127 96.5 212t233.5 85zM1077 922q-19 -118 -80.5 -193.5t-179.5 -122.5l-106 -47q-69 -26 -100 -58.5t-31 -78.5q0 -36 33.5 -57t88.5 -21q88 0 153.5 49.5t86.5 136.5
l518 -86q-50 -223 -269.5 -358t-539.5 -135q-193 0 -341.5 49t-231 140t-82.5 210q0 146 95.5 242.5t295.5 155.5l84 30q63 20 95.5 55t41.5 89h469z" />
    <glyph glyph-name="slash.case" horiz-adv-x="645" 
d="M-4 -121l-72 39l783 1647l75 -39z" />
    <glyph glyph-name="backslash.case" horiz-adv-x="1157" 
d="M967 -121l-789 1647l76 39l784 -1647z" />
    <glyph glyph-name="parenleft.case" horiz-adv-x="458" 
d="M258 -240q-117 157 -167.5 431t-10.5 532q40 264 175.5 542t303.5 437l55 -53q-160 -158 -287.5 -421t-164.5 -505q-36 -237 9.5 -499t152.5 -417z" />
    <glyph glyph-name="parenright.case" horiz-adv-x="458" 
d="M-39 -248l-55 53q157 156 286 418.5t166 497.5q39 243 -5.5 505.5t-155.5 420.5l65 47q120 -160 170.5 -435t7.5 -538q-43 -260 -179 -537t-300 -432z" />
    <glyph glyph-name="braceleft.case" horiz-adv-x="612" 
d="M279 -246q-82 0 -123.5 56.5t-26.5 148.5l86 551q12 70 -16.5 113.5t-85.5 46.5l-41 2l20 129l41 2q59 3 101.5 47t52.5 115l84 530q15 92 74.5 148.5t142.5 56.5h188l-12 -82h-189q-46 0 -79.5 -34t-42.5 -89l-86 -551q-13 -85 -67.5 -141t-129.5 -64v-4q72 -8 108 -64
t23 -141l-90 -571q-9 -55 13.5 -89t68.5 -34h188l-14 -82h-188z" />
    <glyph glyph-name="braceright.case" horiz-adv-x="612" 
d="M88 -246h-188l10 82h188q46 0 80 34t43 89l90 571q13 85 67.5 141t129.5 64v4q-72 8 -108 64t-23 141l86 551q9 55 -13.5 89t-68.5 34h-188l12 82h188q83 0 125 -56.5t27 -148.5l-84 -530q-10 -72 17.5 -115.5t86.5 -46.5l41 -2l-20 -129l-41 -2q-60 -3 -102 -46
t-54 -114l-86 -551q-15 -92 -74 -148.5t-141 -56.5z" />
    <glyph glyph-name="bracketleft.case" horiz-adv-x="462" 
d="M-31 -246l307 1946h351l-13 -82h-266l-282 -1782h266l-13 -82h-350z" />
    <glyph glyph-name="bracketright.case" horiz-adv-x="462" 
d="M248 -246h-350l12 82h266l283 1782h-266l12 82h350z" />
    <glyph glyph-name="hyphen.case" horiz-adv-x="856" 
d="M70 614l45 287h743l-45 -287h-743z" />
    <glyph glyph-name="endash.case" horiz-adv-x="1466" 
d="M84 717l14 82h1356l-14 -82h-1356z" />
    <glyph glyph-name="emdash.case" horiz-adv-x="2228" 
d="M84 717l14 82h2116l-14 -82h-2116z" />
    <glyph glyph-name="guillemotleft.case" horiz-adv-x="1036" 
d="M479 184l-416 553l592 553l54 -53l-533 -500l373 -499zM889 184l-416 553l590 553l53 -53l-530 -500l370 -499z" />
    <glyph glyph-name="guillemotright.case" horiz-adv-x="1036" 
d="M213 1290l416 -553l-590 -553l-53 54l532 499l-373 500zM623 1290l415 -553l-592 -553l-53 54l533 499l-373 500z" />
    <glyph glyph-name="guilsinglleft.case" horiz-adv-x="628" 
d="M479 184l-416 553l592 553l54 -53l-533 -500l373 -499z" />
    <glyph glyph-name="guilsinglright.case" horiz-adv-x="628" 
d="M213 1290l416 -553l-592 -553l-53 54l532 499l-373 500z" />
    <glyph glyph-name="at.case" horiz-adv-x="2109" 
d="M950 -113q-254 0 -453.5 84.5t-313 243.5t-113.5 367q0 170 61 324t169.5 273t252 207t315.5 134.5t353 46.5q255 0 451.5 -85t309.5 -253t113 -398q0 -186 -55 -326.5t-169.5 -223t-277.5 -82.5q-314 0 -358 225l-4 16h-2q-77 -115 -206 -177t-292 -62q-186 0 -286.5 65
t-100.5 187q0 120 75 207.5t206 136.5t315 67l287 29q37 3 58.5 20t21.5 45q0 58 -136 58q-110 0 -226.5 -45t-217.5 -127l-274 160q109 150 309.5 234.5t447.5 84.5q111 0 206 -15.5t175.5 -49.5t134.5 -84.5t78.5 -125t10.5 -167.5l-66 -416q-5 -33 9 -53.5t42 -20.5
q66 0 117 63.5t76.5 163t25.5 213.5q0 203 -103 353.5t-283.5 228.5t-415.5 78q-167 0 -327 -43t-294 -124.5t-235.5 -190.5t-158.5 -249.5t-57 -293.5q0 -143 62 -261t171.5 -197.5t261 -123t329.5 -43.5q224 0 440 88l23 -71q-234 -95 -482 -95zM987 522q111 0 181.5 36.5
t74.5 98.5l2 19l-217 -19q-145 -12 -145 -84q0 -24 27 -37.5t77 -13.5z" />
    <glyph glyph-name="acute.case" horiz-adv-x="479" 
d="M303 1597l-49 54l297 254l49 -56z" />
    <glyph glyph-name="breve.case" horiz-adv-x="833" 
d="M588 1618q-148 0 -232 75t-65 191h80q-12 -80 51.5 -133t175.5 -53t194.5 53t94.5 133h84q-19 -116 -127 -191t-256 -75z" />
    <glyph glyph-name="caron.case" horiz-adv-x="890" 
d="M561 1618l-276 223l57 64l281 -224l356 224l43 -64l-350 -223h-111z" />
    <glyph glyph-name="caron.alt1" horiz-adv-x="581" 
d="M184 1049l6 69q130 -37 228 2.5t110 132.5q-44 -30 -92 -40t-88 1t-71 35.5t-45 64t-7 85.5q9 61 60 99t125 38q106 0 161.5 -75.5t38.5 -192.5q-19 -135 -137.5 -196t-288.5 -23z" />
    <glyph glyph-name="circumflex.case" horiz-adv-x="890" 
d="M299 1597l-43 64l348 223h111l278 -223l-55 -64l-285 224z" />
    <glyph glyph-name="dieresis.case" horiz-adv-x="1296" 
d="M487 1577q-101 0 -157 64.5t-41 164.5q17 101 94 166.5t178 65.5q103 0 158.5 -65.5t40.5 -166.5q-17 -100 -94 -164.5t-179 -64.5zM1141 1577q-102 0 -159 65t-40 164q15 101 92.5 166.5t179.5 65.5t158 -65.5t39 -166.5q-15 -99 -91.5 -164t-178.5 -65z" />
    <glyph glyph-name="dotaccent.case" horiz-adv-x="645" 
d="M485 1567q-102 0 -165.5 56t-63.5 146q0 118 90.5 198.5t214.5 80.5q104 0 168 -55.5t64 -145.5q0 -122 -89 -201t-219 -79z" />
    <glyph glyph-name="grave.case" horiz-adv-x="468" 
d="M508 1602l-217 251l61 52l217 -254z" />
    <glyph glyph-name="hungarumlaut.case" horiz-adv-x="841" 
d="M303 1597l-49 54l297 254l49 -56zM678 1597l-51 54l299 254l49 -56z" />
    <glyph glyph-name="ring.case" horiz-adv-x="542" 
d="M440 1597q-76 0 -121 44.5t-45 117.5q0 96 67 162t161 66q76 0 121 -44.5t45 -117.5q0 -96 -67 -162t-161 -66zM453 1675q56 0 93.5 40.5t37.5 96.5q0 42 -26.5 69.5t-70.5 27.5q-53 0 -93 -40t-40 -95q0 -43 28 -71t71 -28z" />
    <glyph glyph-name="tilde.case" horiz-adv-x="1142" 
d="M934 1597q-64 0 -109 31t-90 86q-26 31 -42.5 47.5t-45 31.5t-59.5 15q-64 0 -113 -53.5t-61 -136.5h-84q20 120 95 196t175 76q30 0 58 -9t45.5 -18t42 -32t33 -32.5t32.5 -37.5q33 -40 63 -61t70 -21q65 0 115 54t63 139h82q-19 -121 -94 -198t-176 -77z" />
    <glyph glyph-name="arrowup.case" horiz-adv-x="1036" 
d="M96 836l469 450l469 -450l-55 -60l-373 357v-926h-82v926l-370 -357z" />
    <glyph glyph-name="uni2197.case" horiz-adv-x="931" 
d="M170 1145l649 -12l15 -652l-82 -2l-13 514l-653 -653l-59 57l655 656l-514 10z" />
    <glyph glyph-name="arrowright.case" horiz-adv-x="1183" 
d="M717 270l-60 58l357 370h-926v82h926l-357 373l60 55l450 -469z" />
    <glyph glyph-name="uni2198.case" horiz-adv-x="1048" 
d="M944 1022l-12 -651l-649 -13l-4 82l516 11l-656 655l60 57l653 -653l10 514z" />
    <glyph glyph-name="arrowdown.case" horiz-adv-x="1036" 
d="M59 598l58 59l370 -356v926h82v-926l373 356l55 -59l-469 -451z" />
    <glyph glyph-name="uni2199.case" horiz-adv-x="931" 
d="M170 1022l82 2l10 -514l653 653l60 -57l-656 -655l517 -11l-5 -82l-649 13z" />
    <glyph glyph-name="arrowleft.case" horiz-adv-x="1183" 
d="M532 270l-450 469l450 469l60 -55l-356 -373h925v-82h-925l356 -370z" />
    <glyph glyph-name="uni2196.case" horiz-adv-x="1048" 
d="M836 1145l2 -82l-514 -10l655 -656l-59 -57l-654 653l-12 -514l-82 2l14 652z" />
    <glyph glyph-name="arrowboth.case" horiz-adv-x="1855" 
d="M1389 1208l450 -469l-450 -469l-60 56l357 372h-1450l356 -370l-60 -58l-450 469l450 469l60 -55l-356 -373h1450l-357 371z" />
    <glyph glyph-name="arrowupdn.case" horiz-adv-x="1150" 
d="M649 76l373 356l55 -59l-469 -451l-469 451l58 59l370 -356v1323l-372 -357l-56 60l469 450l469 -450l-57 -60l-371 357v-1323z" />
    </font>
</defs>
</svg>
