<?xml version="1.0" standalone="no"?>
<!DOCTYPE svg PUBLIC "-//W3C//DTD SVG 1.1//EN" "http://www.w3.org/Graphics/SVG/1.1/DTD/svg11.dtd" >
<svg xmlns="http://www.w3.org/2000/svg" xmlns:xlink="http://www.w3.org/1999/xlink" version="1.1">
<metadata>
Created by FontForge 20170731 at Sat Sep  2 13:02:02 2023
 By Aleksey,,,
Copyright (c) 2018 by Alexander Slobzheninov. All rights reserved.
</metadata>
<defs>
<font id="Agrandir-ThinItalic" horiz-adv-x="1021" >
  <font-face 
    font-family="Agrandir Thin"
    font-weight="100"
    font-style="italic"
    font-stretch="normal"
    units-per-em="2048"
    panose-1="0 0 2 0 0 0 0 0 0 0"
    ascent="1536"
    descent="-512"
    x-height="1026"
    cap-height="1436"
    bbox="-387 -493.349 2908 1970"
    underline-thickness="65"
    underline-position="-310"
    slope="-9"
    unicode-range="U+000D-F6C3"
  />
<missing-glyph horiz-adv-x="0" 
 />
    <glyph glyph-name=".notdef" horiz-adv-x="0" 
 />
    <glyph glyph-name=".null" horiz-adv-x="0" 
 />
    <glyph glyph-name="nonmarkingreturn" horiz-adv-x="682" 
 />
    <glyph glyph-name="NULL" horiz-adv-x="1439" 
d="M145 0l228 1436h987l-227 -1436h-988zM233 74h836l205 1288h-836z" />
    <glyph glyph-name="NULL" horiz-adv-x="1439" 
d="M145 0l228 1436h987l-227 -1436h-988zM233 74h836l205 1288h-836z" />
    <glyph glyph-name="CR" unicode="&#xd;" horiz-adv-x="126" 
 />
    <glyph glyph-name="space" unicode=" " horiz-adv-x="520" 
 />
    <glyph glyph-name="exclam" unicode="!" horiz-adv-x="348" 
d="M113 336l102 694l64 406h81l-61 -406l-119 -694h-67zM94 -20q-29 0 -46 16.5t-17 44.5q0 34 21 57t54 23q30 0 48 -17.5t18 -44.5q0 -35 -22 -57t-56 -22z" />
    <glyph glyph-name="quotedbl" unicode="&#x22;" horiz-adv-x="485" 
d="M156 879l86 557h65l-88 -557h-63zM383 879l88 557h64l-86 -557h-66z" />
    <glyph glyph-name="numbersign" unicode="#" horiz-adv-x="1845" 
d="M393 -20l-59 16l215 504h-492l11 65h507l181 422h-518l10 66h536l195 454l59 -14l-186 -440h428l193 454l61 -16l-186 -438h522l-8 -66h-543l-178 -422h551l-13 -65h-567l-219 -520l-59 14l213 506h-431zM643 565h430l180 422h-430z" />
    <glyph glyph-name="dollar" unicode="$" horiz-adv-x="1144" 
d="M745 748q172 -68 252 -157t80 -216q0 -203 -146 -312.5t-378 -109.5q-33 0 -49 2l-35 -221h-63l36 227q-195 31 -308 162t-107 336l82 12q-6 -179 88 -290t258 -140l108 690l-43 17q-162 62 -235.5 143t-73.5 199q0 181 127.5 287t325.5 106h18l31 196h63l-33 -202
q166 -22 259.5 -132t93.5 -282l-80 -12q0 146 -75 237t-210 111l-96 -608zM559 819l16 -6l95 590h-11q-166 0 -264 -84.5t-98 -218.5q0 -96 62 -162t200 -119zM557 33q199 0 318.5 88t119.5 246q0 106 -67.5 178t-218.5 129l-86 33l-107 -672q14 -2 41 -2z" />
    <glyph glyph-name="percent" unicode="%" horiz-adv-x="1980" 
d="M422 -20l-49 34l1265 1504l50 -35zM506 690q-161 0 -260 94.5t-99 245.5q0 129 64 239t173.5 174t238.5 64q159 0 257.5 -94.5t98.5 -247.5q0 -198 -137.5 -336.5t-335.5 -138.5zM508 764q167 0 280 118t113 279q0 123 -76.5 198t-203.5 75q-168 0 -282 -119t-114 -281
q0 -120 78 -195t205 -75zM1432 -23q-161 0 -259 94.5t-98 245.5q0 129 63.5 239t172.5 174.5t237 64.5q161 0 259 -94.5t98 -247.5q0 -130 -62.5 -239.5t-171.5 -173t-239 -63.5zM1436 51q167 0 280 118t113 280q0 123 -77.5 197.5t-203.5 74.5q-111 0 -203 -55.5t-143 -147
t-51 -196.5q0 -121 78.5 -196t206.5 -75z" />
    <glyph glyph-name="ampersand" unicode="&#x26;" horiz-adv-x="1284" 
d="M973 258l229 -258h-112l-172 190q-217 -238 -490 -235q-179 0 -288 94t-109 244q0 87 28 160.5t81.5 130.5t119.5 100.5t154 83.5q-121 160 -121 297q0 169 118 284t291 115q142 0 230 -80t88 -213q0 -140 -108.5 -240t-358.5 -200l371 -414q112 145 219 381l57 -61
q-119 -242 -227 -379zM375 1071q0 -129 127 -283q237 92 337.5 176.5t100.5 204.5q0 97 -67 159.5t-175 62.5q-135 0 -229 -95t-94 -225zM434 31q242 0 434 221l-403 455q-167 -69 -259.5 -166.5t-92.5 -243.5q0 -119 88 -192.5t233 -73.5z" />
    <glyph glyph-name="quotesingle" unicode="'" horiz-adv-x="258" 
d="M156 879l86 557h65l-88 -557h-63z" />
    <glyph glyph-name="parenleft" unicode="(" horiz-adv-x="444" 
d="M260 -387q-122 150 -173 413t-9 539q44 276 178.5 541.5t304.5 415.5l37 -41q-168 -161 -291.5 -410t-163.5 -512q-43 -259 2 -503.5t162 -401.5z" />
    <glyph glyph-name="parenright" unicode=")" horiz-adv-x="444" 
d="M-94 -389l-41 43q168 157 289.5 400.5t164.5 504.5q40 265 -4 512.5t-161 409.5l51 37q121 -156 171.5 -417.5t6.5 -535.5q-45 -278 -175.5 -541t-301.5 -413z" />
    <glyph glyph-name="asterisk" unicode="*" horiz-adv-x="950" 
d="M446 537l52 323q5 29 -10.5 39.5t-43.5 -4.5l-307 -162l-24 55l307 162q28 15 31 34t-19 34l-256 164l41 55l256 -162q23 -15 42 -5.5t22 38.5l51 326h65l-53 -326q-3 -30 11.5 -39t43.5 6l308 162l22 -55l-307 -164q-28 -15 -31 -34t21 -34l256 -162l-41 -55l-256 162
q-23 15 -42 4.5t-22 -39.5l-51 -323h-66z" />
    <glyph glyph-name="plus" unicode="+" horiz-adv-x="1097" 
d="M473 287l68 430h-408l12 76h408l61 395h82l-63 -395h407l-14 -76h-408l-65 -430h-80z" />
    <glyph glyph-name="comma" unicode="," horiz-adv-x="376" 
d="M-25 -209l2 49q78 -20 123 20t50 126q-31 -11 -57.5 6.5t-26.5 52.5q0 34 19.5 55t51.5 21q33 0 53.5 -27t20.5 -71q0 -117 -66 -187t-170 -45z" />
    <glyph glyph-name="hyphen" unicode="-" horiz-adv-x="905" 
d="M100 504l13 78h702l-12 -78h-703z" />
    <glyph glyph-name="period" unicode="." horiz-adv-x="307" 
d="M74 -20q-29 0 -46.5 16.5t-17.5 44.5q0 34 21.5 57t54.5 23q30 0 48 -17.5t18 -44.5q0 -35 -22 -57t-56 -22z" />
    <glyph glyph-name="slash" unicode="/" horiz-adv-x="649" 
d="M-98 -489l-58 16l893 1929l58 -18z" />
    <glyph glyph-name="zero" unicode="0" horiz-adv-x="1282" 
d="M557 -47q-203 0 -320.5 154.5t-117.5 412.5q0 138 30.5 276.5t90.5 261t140 217.5t187 150.5t224 55.5q202 0 320 -154t118 -412q0 -173 -49 -344t-135 -309t-214 -223.5t-274 -85.5zM561 29q128 0 240.5 81t187 209.5t117.5 285t43 310.5q0 224 -97.5 357t-265.5 133
q-128 0 -240 -81t-186 -209t-116.5 -285t-42.5 -312q0 -223 96.5 -356t263.5 -133z" />
    <glyph glyph-name="one" unicode="1" horiz-adv-x="825" 
d="M-18 0l8 76h377l198 1247h-2q-104 -131 -342 -195l-14 76q240 58 377 234l80 -2l-215 -1360h282l-8 -76h-741z" />
    <glyph glyph-name="two" unicode="2" horiz-adv-x="1044" 
d="M20 0l13 76q29 181 116 300.5t273 235.5l207 129q164 102 230.5 194t66.5 214q0 119 -64 188.5t-176 69.5q-133 0 -240 -107.5t-153 -287.5l-78 28q56 201 183.5 321t287.5 120q149 0 235.5 -89.5t86.5 -240.5q0 -146 -76.5 -253t-263.5 -224l-205 -129
q-169 -103 -246 -208.5t-100 -260.5h774l-10 -76h-861z" />
    <glyph glyph-name="three" unicode="3" horiz-adv-x="1077" 
d="M487 -47q-135 0 -236.5 68.5t-148 183.5t-30.5 250l82 14q-22 -190 73.5 -315t264.5 -125q173 0 289 117t116 286q0 128 -83 203t-230 78l-115 2l8 65l103 4q151 3 250.5 108.5t99.5 254.5q0 107 -65.5 175.5t-172.5 68.5q-137 0 -245 -105.5t-144 -269.5l-82 16
q44 194 174.5 314t300.5 120q143 0 229.5 -88t86.5 -229q0 -136 -76.5 -241.5t-204.5 -151.5v-2q118 -30 182 -116t64 -208q0 -203 -141 -340t-349 -137z" />
    <glyph glyph-name="four" unicode="4" horiz-adv-x="1015" 
d="M618 0l62 381h-662l9 51l788 1004h115l-156 -979h172l-14 -76h-170l-60 -381h-84zM141 457h551l142 882h-3z" />
    <glyph glyph-name="five" unicode="5" horiz-adv-x="1048" 
d="M428 -47q-211 0 -315 139.5t-70 353.5l78 11q-28 -193 56 -310.5t255 -117.5q125 0 228 66t160 177t57 242q0 147 -82 234.5t-224 87.5q-87 0 -174 -38t-141 -100l-61 21l165 715h650l-11 -74h-575l-137 -563q54 51 137.5 81.5t167.5 30.5q170 0 269.5 -104t99.5 -279
q0 -156 -68.5 -287t-191.5 -208.5t-273 -77.5z" />
    <glyph glyph-name="six" unicode="6" horiz-adv-x="1087" 
d="M696 1481q160 0 244.5 -118t89.5 -335l-80 -12q-3 186 -68.5 288.5t-189.5 102.5q-191 0 -333 -221.5t-201 -603.5q149 288 456 288q172 0 275.5 -102.5t103.5 -269.5q0 -146 -69 -271t-189.5 -198.5t-263.5 -73.5q-187 0 -293 99.5t-106 287.5q0 151 24.5 308
t76.5 306.5t124 266t175.5 187.5t223.5 71zM604 797q-125 0 -230 -64.5t-164.5 -171.5t-59.5 -229q0 -135 87.5 -218t235.5 -83q121 0 223 66.5t158.5 174t56.5 228.5q0 132 -83.5 214.5t-223.5 82.5z" />
    <glyph glyph-name="seven" unicode="7" horiz-adv-x="976" 
d="M229 2q225 812 754 1360l-807 -2l10 76h897l-10 -74q-531 -553 -756 -1364z" />
    <glyph glyph-name="eight" unicode="8" horiz-adv-x="1124" 
d="M477 -47q-194 0 -309 97t-115 257q0 174 113 301.5t291 159.5q-104 26 -165 102.5t-61 182.5q0 183 138 305.5t342 122.5q168 0 269 -85t101 -225q0 -146 -92.5 -258.5t-240.5 -144.5q131 -26 205.5 -113t74.5 -213q0 -139 -75 -252t-200.5 -175t-275.5 -62zM604 803
q168 0 282.5 106t114.5 256q0 108 -81 175t-215 67q-168 0 -281 -102.5t-113 -251.5q0 -111 80.5 -180.5t212.5 -69.5zM483 29q198 0 329.5 118t131.5 293q0 130 -94.5 209.5t-251.5 79.5q-197 0 -330 -122t-133 -298q0 -128 94.5 -204t253.5 -76z" />
    <glyph glyph-name="nine" unicode="9" horiz-adv-x="1128" 
d="M455 -45q-98 0 -173 35t-121 97.5t-70.5 143.5t-27.5 179l82 10q2 -84 20 -152.5t54 -123t97 -85t143 -30.5q131 0 248.5 103t198.5 279t114 394q-84 -120 -197 -179t-243 -59q-172 0 -275.5 101.5t-103.5 265.5q0 149 68 274.5t188 199t266 73.5q187 0 293 -103
t106 -303q0 -146 -27 -299.5t-83 -300.5t-133.5 -263t-187.5 -186.5t-236 -70.5zM590 641q125 0 230 64.5t164.5 171.5t59.5 229q0 136 -85.5 218.5t-237.5 82.5q-121 0 -223 -66.5t-158.5 -174t-56.5 -228.5q0 -132 83.5 -214.5t223.5 -82.5z" />
    <glyph glyph-name="colon" unicode=":" horiz-adv-x="311" 
d="M211 834q-31 0 -48.5 17t-17.5 46q0 34 22 57t56 23q30 0 48 -18t18 -46q0 -34 -22 -56.5t-56 -22.5zM76 -20q-31 0 -48.5 16.5t-17.5 44.5q0 34 22 57t56 23q30 0 48 -17.5t18 -44.5q0 -35 -22 -57t-56 -22z" />
    <glyph glyph-name="semicolon" unicode=";" horiz-adv-x="376" 
d="M266 834q-31 0 -48 17t-17 46q0 34 21 57t54 23q30 0 48 -18t18 -46q0 -34 -22 -56.5t-54 -22.5zM-25 -209l2 49q78 -20 123 20t50 126q-31 -11 -57.5 6.5t-26.5 52.5q0 34 19.5 55t51.5 21q33 0 53.5 -27t20.5 -71q0 -117 -66 -187t-170 -45z" />
    <glyph glyph-name="less" unicode="&#x3c;" horiz-adv-x="897" 
d="M707 213l-584 434l16 98l721 437l31 -66l-692 -420l559 -420z" />
    <glyph glyph-name="equal" unicode="=" horiz-adv-x="1097" 
d="M154 840l12 75h895l-14 -75h-893zM98 481l13 78h893l-13 -78h-893z" />
    <glyph glyph-name="greater" unicode="&#x3e;" horiz-adv-x="897" 
d="M248 1182l583 -437l-16 -98l-721 -434l-28 63l690 420l-559 420z" />
    <glyph glyph-name="question" unicode="?" horiz-adv-x="917" 
d="M350 338q23 137 75.5 216t164.5 153l86 71q105 73 159 158t54 197q0 123 -76.5 196.5t-200.5 73.5q-160 0 -274 -108t-158 -287l-78 22q52 205 190 329t329 124q155 0 251.5 -93.5t96.5 -246.5q0 -138 -62 -238.5t-184 -187.5l-88 -72q-99 -68 -143 -133t-62 -180z
M338 -23q-29 0 -46.5 17.5t-17.5 46.5q0 34 21.5 57t54.5 23q30 0 48 -17.5t18 -44.5q0 -35 -22 -58.5t-56 -23.5z" />
    <glyph glyph-name="at" unicode="@" horiz-adv-x="1816" 
d="M782 -373q-218 0 -383.5 89t-254.5 249t-89 369t75.5 401.5t205 334.5t312 227t386.5 85q218 0 382.5 -96t251 -268.5t81.5 -396.5q-4 -127 -28.5 -241t-69.5 -209.5t-119.5 -151.5t-169.5 -56q-102 0 -156 54t-39 153l9 59h-2q-65 -123 -184.5 -194.5t-264.5 -71.5
q-149 0 -241.5 71t-92.5 185q0 130 112 228t296 122l377 47q28 3 48 20.5t23 43.5q22 152 -49 231.5t-223 79.5q-146 0 -256 -88t-133 -209l-72 35q33 141 163 239.5t298 98.5q194 0 284 -104t64 -299l-76 -484q-11 -68 21 -108.5t100 -40.5q77 0 138.5 51.5t98.5 138
t57.5 189t23.5 213.5q8 314 -168 505t-486 191q-192 0 -363 -81t-291 -216t-189.5 -316t-69.5 -376q0 -291 179.5 -466t492.5 -175q140 0 256 24.5t241 87.5l27 -53q-137 -69 -260.5 -95t-272.5 -26zM735 39q181 0 315.5 123.5t163.5 314.5l11 70l-424 -51
q-146 -20 -239 -97t-93 -176q0 -82 74 -133t192 -51z" />
    <glyph glyph-name="A" unicode="A" horiz-adv-x="1212" 
d="M-61 0l759 1436h107l305 -1436h-86l-78 375h-723l-196 -375h-88zM262 451h672l-191 905h-4z" />
    <glyph glyph-name="B" unicode="B" horiz-adv-x="1214" 
d="M41 0l227 1436h584q159 0 248.5 -85.5t89.5 -224.5q0 -135 -86.5 -238.5t-226.5 -137.5v-2q119 -20 189.5 -102t70.5 -200q0 -193 -144 -319.5t-366 -126.5h-586zM250 784h483q154 0 264.5 99t110.5 237q0 109 -68.5 174.5t-197.5 65.5h-502zM137 76h494q182 0 304 105
t122 263q0 118 -92 191.5t-244 73.5h-485z" />
    <glyph glyph-name="C" unicode="C" horiz-adv-x="1439" 
d="M684 -47q-270 0 -431 169.5t-161 446.5q0 139 35.5 273.5t104 249.5t160 203t211 138t249.5 50q218 0 352 -136t146 -382l-84 -11q-12 218 -122.5 336.5t-295.5 118.5q-116 0 -222.5 -47t-187.5 -128.5t-141 -187.5t-91.5 -228.5t-31.5 -246.5q0 -246 139.5 -395
t374.5 -149q107 0 212 44.5t188.5 118t146.5 169t92 198.5l76 -25q-44 -154 -150.5 -286t-258 -212.5t-310.5 -80.5z" />
    <glyph glyph-name="D" unicode="D" horiz-adv-x="1335" 
d="M41 0l227 1436h389q315 0 480.5 -153.5t165.5 -438.5q0 -398 -225.5 -621t-643.5 -223h-393zM137 76h305q375 0 576 202t201 562q0 251 -145.5 385.5t-424.5 134.5h-309z" />
    <glyph glyph-name="E" unicode="E" horiz-adv-x="1091" 
d="M41 0l227 1436h899l-8 -76h-821l-90 -576h735l-10 -73h-737l-101 -635h834l-11 -76h-917z" />
    <glyph glyph-name="F" unicode="F" horiz-adv-x="978" 
d="M41 0l227 1436h815l-10 -76h-733l-94 -598h608l-8 -74h-615l-108 -688h-82z" />
    <glyph glyph-name="G" unicode="G" horiz-adv-x="1538" 
d="M682 -47q-270 0 -430 167.5t-160 442.5q0 180 59.5 347.5t162.5 294t253.5 202.5t321.5 76q207 0 346 -126t164 -329l-76 -14q-22 177 -142.5 286t-297.5 109q-122 0 -233.5 -46t-197 -127t-149 -187t-96.5 -229.5t-33 -250.5q0 -242 139.5 -392t376.5 -150
q175 0 327.5 87.5t254.5 243.5t133 351l-924 -2l11 75h1007l-125 -782h-78l56 365h-2q-108 -193 -283.5 -302.5t-384.5 -109.5z" />
    <glyph glyph-name="H" unicode="H" horiz-adv-x="1239" 
d="M41 0l227 1436h82l-102 -652h829l103 652h82l-228 -1436h-82l113 709h-829l-113 -709h-82z" />
    <glyph glyph-name="I" unicode="I" horiz-adv-x="327" 
d="M41 0l227 1436h82l-227 -1436h-82z" />
    <glyph glyph-name="J" unicode="J" horiz-adv-x="874" 
d="M346 -39q-141 0 -237.5 90t-104.5 225l78 21q5 -106 78 -183t184 -77q132 0 212.5 74t107.5 241l172 1084h82l-173 -1094q-60 -381 -399 -381z" />
    <glyph glyph-name="K" unicode="K" horiz-adv-x="993" 
d="M41 0l227 1436h82l-112 -707h2l753 707h111l-608 -570l395 -866h-94l-365 805l-211 -193l-98 -612h-82z" />
    <glyph glyph-name="L" unicode="L" horiz-adv-x="960" 
d="M41 0l227 1436h82l-213 -1360h731l-10 -76h-817z" />
    <glyph glyph-name="M" unicode="M" horiz-adv-x="1648" 
d="M41 0l227 1436h129l357 -1344h4l784 1344h129l-227 -1436h-82l213 1335l-4 2l-776 -1337h-101l-352 1337h-4l-215 -1337h-82z" />
    <glyph glyph-name="N" unicode="N" horiz-adv-x="1239" 
d="M41 0l227 1436h127l568 -1348h4l213 1348h82l-228 -1436h-125l-567 1348h-4l-215 -1348h-82z" />
    <glyph glyph-name="O" unicode="O" horiz-adv-x="1562" 
d="M698 -47q-283 0 -444.5 161.5t-161.5 440.5q0 253 104.5 464t297.5 336.5t436 125.5q285 0 446.5 -161.5t161.5 -440.5q0 -150 -39.5 -289.5t-114 -254.5t-176 -201t-233 -133.5t-277.5 -47.5zM700 27q165 0 308 69.5t240 185.5t152.5 270t55.5 322q0 247 -141 391
t-389 144q-132 0 -250.5 -44.5t-209 -124.5t-157 -186t-101 -233t-34.5 -262q0 -247 140 -389.5t386 -142.5z" />
    <glyph glyph-name="P" unicode="P" horiz-adv-x="1171" 
d="M41 0l227 1436h555q182 0 286.5 -96.5t104.5 -256.5q0 -210 -146.5 -343.5t-369.5 -133.5h-479l-96 -606h-82zM231 682h474q184 0 306 111.5t122 285.5q0 130 -84.5 205.5t-235.5 75.5h-475z" />
    <glyph glyph-name="Q" unicode="Q" horiz-adv-x="1562" 
d="M717 -47l-17 -105q-18 -106 30 -171.5t149 -65.5q98 0 182.5 75t112.5 187l67 -41q-37 -130 -140 -214.5t-227 -84.5q-137 0 -205 83t-48 230l16 109q-256 19 -400.5 178t-144.5 422q0 253 104.5 464t297.5 336.5t436 125.5q285 0 446.5 -161.5t161.5 -440.5
q0 -185 -60.5 -353t-167 -293t-261 -200.5t-332.5 -79.5zM174 559q0 -247 140 -389.5t386 -142.5q165 0 308 69.5t240 185.5t152.5 270t55.5 322q0 247 -141 391t-389 144q-132 0 -250.5 -44.5t-209 -124.5t-157 -186t-101 -233t-34.5 -262z" />
    <glyph glyph-name="R" unicode="R" horiz-adv-x="1265" 
d="M1014 -39q-124 0 -135 168l-33 303q-17 213 -203 213h-418l-102 -645h-82l227 1436h576q191 0 294 -90.5t103 -245.5q0 -169 -118.5 -290.5t-301.5 -152.5v-2q94 -61 107 -227l30 -293q3 -50 16.5 -73t47.5 -23q62 0 125 78l47 -58q-78 -98 -180 -98zM238 721h493
q179 0 303.5 108.5t124.5 266.5q0 122 -83 193t-240 71h-494z" />
    <glyph glyph-name="S" unicode="S" horiz-adv-x="1144" 
d="M553 -47q-239 0 -385.5 136t-140.5 370l82 12q-7 -206 117.5 -322t330.5 -116q199 0 318.5 88t119.5 246q0 106 -67.5 178t-218.5 129l-189 74q-162 62 -235.5 143t-73.5 199q0 181 127.5 287t325.5 106q200 0 316 -113.5t116 -306.5l-80 -12q0 164 -95 258t-262 94
q-166 0 -264 -84.5t-98 -218.5q0 -96 62 -162t200 -119l186 -71q172 -68 252 -157t80 -216q0 -203 -146 -312.5t-378 -109.5z" />
    <glyph glyph-name="T" unicode="T" horiz-adv-x="1067" 
d="M410 0l217 1360h-471l10 76h1026l-10 -76h-473l-215 -1360h-84z" />
    <glyph glyph-name="U" unicode="U" horiz-adv-x="1236" 
d="M535 -47q-247 0 -364 140.5t-79 369.5l156 973h82l-156 -979q-33 -196 61.5 -312t301.5 -116q205 0 339 113t168 319l154 975h82l-154 -981q-38 -237 -196 -369.5t-395 -132.5z" />
    <glyph glyph-name="V" unicode="V" horiz-adv-x="1208" 
d="M473 0l-305 1436h86l283 -1348h2l708 1348h88l-760 -1436h-102z" />
    <glyph glyph-name="W" unicode="W" horiz-adv-x="1828" 
d="M332 0l-164 1436h82l156 -1354h4l585 1354h129l162 -1354h4l580 1354h86l-619 -1436h-125l-159 1358h-4l-590 -1358h-127z" />
    <glyph glyph-name="X" unicode="X" horiz-adv-x="1089" 
d="M-61 0l587 741l-342 695h95l307 -635l508 635h102l-567 -699l358 -737h-94l-324 676l-530 -676h-100z" />
    <glyph glyph-name="Y" unicode="Y" horiz-adv-x="1064" 
d="M410 0l94 584l-336 852h90l297 -762h2l541 762h94l-606 -852l-94 -584h-82z" />
    <glyph glyph-name="Z" unicode="Z" horiz-adv-x="1077" 
d="M-61 0l16 96l1132 1266h-911l10 74h998l-15 -95l-1132 -1267h952l-14 -74h-1036z" />
    <glyph glyph-name="bracketleft" unicode="[" horiz-adv-x="446" 
d="M-20 -389l303 1907h325l-12 -66h-258l-281 -1778h258l-10 -63h-325z" />
    <glyph glyph-name="backslash" unicode="\" horiz-adv-x="649" 
d="M430 -489l-285 1927l68 18l281 -1929z" />
    <glyph glyph-name="bracketright" unicode="]" horiz-adv-x="446" 
d="M182 -389h-325l10 63h258l283 1778h-258l10 66h325z" />
    <glyph glyph-name="asciicircum" unicode="^" horiz-adv-x="997" 
d="M176 819l-63 39l483 578h96l299 -578l-69 -39l-287 545z" />
    <glyph glyph-name="underscore" unicode="_" horiz-adv-x="954" 
d="M-90 -66l8 66h954l-8 -66h-954z" />
    <glyph glyph-name="grave" unicode="`" horiz-adv-x="352" 
d="M373 1221l-174 292l57 37l172 -290z" />
    <glyph glyph-name="a" unicode="a" horiz-adv-x="1163" 
d="M473 -37q-191 0 -305.5 121t-114.5 319q0 173 75.5 324t211 243.5t299.5 92.5q147 0 248 -74.5t135 -202.5h2l41 240h78l-164 -1026h-76l37 238h-2q-73 -127 -196.5 -201t-268.5 -74zM481 37q143 0 261.5 84t183.5 216.5t65 278.5q0 167 -95.5 270t-254.5 103
q-143 0 -261.5 -84t-183.5 -216.5t-65 -278.5q0 -167 95.5 -270t254.5 -103z" />
    <glyph glyph-name="b" unicode="b" horiz-adv-x="1163" 
d="M524 -37q-148 0 -249 75t-134 202h-2l-43 -240h-76l238 1497h80l-115 -706h2q72 127 195.5 199.5t269.5 72.5q191 0 305.5 -120.5t114.5 -319.5q0 -173 -75.5 -324t-211 -243.5t-299.5 -92.5zM522 37q142 0 260.5 84t183 216.5t64.5 278.5q0 167 -95.5 270t-252.5 103
q-143 0 -261.5 -84t-183.5 -216.5t-65 -278.5q0 -167 95.5 -270t254.5 -103z" />
    <glyph glyph-name="c" unicode="c" horiz-adv-x="1087" 
d="M496 -37q-205 0 -324 120t-119 323q0 172 70.5 322t201 242.5t291.5 92.5q164 0 265 -105.5t106 -273.5l-78 -10q-8 141 -88 229t-209 88q-105 0 -196.5 -50.5t-152 -132.5t-95.5 -186.5t-35 -213.5q0 -171 98.5 -272t268.5 -101q149 0 273 101.5t177 262.5l74 -24
q-62 -185 -206.5 -298.5t-321.5 -113.5z" />
    <glyph glyph-name="d" unicode="d" horiz-adv-x="1163" 
d="M473 -37q-191 0 -306.5 120.5t-115.5 319.5q0 173 76 324t212 243.5t300 92.5q146 0 246.5 -75t134.5 -202h2l115 711h80l-238 -1497h-76l35 238h-2q-72 -128 -195 -201.5t-268 -73.5zM481 37q143 0 261.5 84t183.5 216.5t65 278.5q0 167 -95.5 270t-254.5 103
q-143 0 -261.5 -84t-183.5 -216.5t-65 -278.5q0 -167 95.5 -270t254.5 -103z" />
    <glyph glyph-name="e" unicode="e" horiz-adv-x="1093" 
d="M508 -37q-206 0 -330.5 123.5t-124.5 323.5q0 170 73 319t206 241.5t293 92.5q183 0 286 -122.5t103 -326.5q0 -71 -13 -131h-864q-20 -203 83 -325.5t292 -122.5q129 0 247 70t183 182l66 -41q-76 -129 -212.5 -206t-287.5 -77zM150 553h784q18 194 -67 315t-249 121
q-168 0 -298 -121t-170 -315z" />
    <glyph glyph-name="f" unicode="f" horiz-adv-x="770" 
d="M139 0l152 954h-215l6 72h219l31 193q22 128 107.5 207t203.5 79q108 0 178 -66.5t70 -168.5l-78 -23q3 80 -45 131.5t-129 51.5q-88 0 -150.5 -60.5t-76.5 -157.5l-31 -186h426l-8 -72h-428l-154 -954h-78z" />
    <glyph glyph-name="g" unicode="g" horiz-adv-x="1169" 
d="M379 -467q-173 0 -314.5 84t-191.5 215l76 43q41 -118 162.5 -194t269.5 -76q211 0 355.5 119t183.5 346l28 174h-2q-47 -89 -126.5 -154t-165.5 -95t-171 -30q-192 0 -307 121.5t-115 319.5q0 172 75.5 322.5t211 242.5t299.5 92q132 0 240 -74.5t143 -191.5h2l41 229
h76l-154 -960q-40 -260 -206.5 -396.5t-409.5 -136.5zM489 39q142 0 260.5 84t183 216.5t64.5 278.5q0 166 -95 269.5t-253 103.5q-142 0 -260 -84t-183 -217t-65 -280q0 -165 95.5 -268t252.5 -103z" />
    <glyph glyph-name="h" unicode="h" 
d="M20 0l238 1497h80l-105 -651h3q63 104 173 160.5t244 56.5q170 0 251.5 -99t53.5 -272l-110 -692h-80l111 696q23 138 -40.5 216.5t-199.5 78.5q-165 0 -289 -103t-149 -259l-101 -629h-80z" />
    <glyph glyph-name="i" unicode="i" horiz-adv-x="307" 
d="M274 1247q-30 0 -47.5 17t-17.5 45q0 34 23 57t57 23q28 0 45.5 -17t17.5 -45q0 -34 -23 -57t-55 -23zM31 0l164 1026h79l-163 -1026h-80z" />
    <glyph glyph-name="j" unicode="j" horiz-adv-x="296" 
d="M264 1247q-29 0 -47 17t-18 45q0 36 22 58t55 22q29 0 46.5 -17t17.5 -45q0 -34 -22 -57t-54 -23zM-217 -467q-67 0 -129 27l18 71q52 -22 107 -22q83 0 140 48.5t69 127.5l196 1241h80l-198 -1249q-19 -113 -95 -178.5t-188 -65.5z" />
    <glyph glyph-name="k" unicode="k" horiz-adv-x="808" 
d="M20 0l238 1497h80l-152 -946h2l570 475h114l-456 -383l311 -643h-92l-285 590l-178 -148l-72 -442h-80z" />
    <glyph glyph-name="l" unicode="l" horiz-adv-x="284" 
d="M20 0l238 1497h80l-238 -1497h-80z" />
    <glyph glyph-name="m" unicode="m" horiz-adv-x="1638" 
d="M20 0l164 1026h76l-27 -176h3q54 99 157.5 156t227.5 57q122 0 193.5 -62t82.5 -172h2q59 110 170 172t234 62q156 0 227 -98t45 -271l-111 -694h-80l111 698q23 136 -31.5 213.5t-173.5 77.5q-158 0 -271 -107t-142 -290l-95 -592h-80l111 698q23 136 -31.5 212.5
t-173.5 76.5q-158 0 -271 -106t-142 -289l-95 -592h-80z" />
    <glyph glyph-name="n" unicode="n" 
d="M653 1063q170 0 251.5 -99t53.5 -272l-110 -692h-80l111 696q23 138 -40.5 216.5t-199.5 78.5q-165 0 -289 -103t-149 -259l-101 -629h-80l164 1026h76l-27 -180h3q63 104 173 160.5t244 56.5z" />
    <glyph glyph-name="o" unicode="o" horiz-adv-x="1126" 
d="M481 -37q-200 0 -315 116t-115 316q0 134 43.5 256t120 213t188.5 145t242 54q200 0 315 -116t115 -316q0 -134 -43.5 -256t-120 -213t-188.5 -145t-242 -54zM483 35q149 0 267.5 84t180.5 218t62 290q0 168 -93 265t-257 97q-150 0 -269 -83.5t-181 -217t-62 -289.5
q0 -168 93.5 -266t258.5 -98z" />
    <glyph glyph-name="p" unicode="p" horiz-adv-x="1163" 
d="M-47 -430l231 1456h76l-37 -238h2q73 127 195.5 201t267.5 74q193 0 307.5 -120.5t114.5 -319.5q0 -173 -75.5 -324t-211 -243.5t-299.5 -92.5q-148 0 -248 75t-133 202h-2l-108 -670h-80zM522 37q142 0 260.5 84t183 216.5t64.5 278.5q0 167 -95.5 270t-252.5 103
q-143 0 -261.5 -84t-183.5 -216.5t-65 -278.5q0 -167 95.5 -270t254.5 -103z" />
    <glyph glyph-name="q" unicode="q" horiz-adv-x="1163" 
d="M831 -430l109 663h-2q-72 -125 -196 -197.5t-269 -72.5q-191 0 -306.5 120.5t-115.5 319.5q0 173 76 324t212 243.5t300 92.5q147 0 248.5 -75.5t134.5 -203.5h2l43 242h76l-232 -1456h-80zM481 37q143 0 261.5 84t183.5 216.5t65 278.5q0 167 -95.5 270t-254.5 103
q-143 0 -261.5 -84t-183.5 -216.5t-65 -278.5q0 -167 95.5 -270t254.5 -103z" />
    <glyph glyph-name="r" unicode="r" horiz-adv-x="780" 
d="M539 1063q120 0 183.5 -81.5t51.5 -246.5l-78 -20q20 276 -170 276q-120 0 -211 -108t-118 -277l-97 -606h-80l164 1026h74l-22 -156h2q53 91 132 142t169 51z" />
    <glyph glyph-name="s" unicode="s" horiz-adv-x="876" 
d="M406 -37q-183 0 -293.5 95t-104.5 255l80 17q-10 -133 77.5 -212t242.5 -79q131 0 219 61.5t88 165.5q0 63 -45 108t-138 83l-172 67q-107 42 -165 100t-58 146q0 128 99 210.5t249 82.5q141 0 227 -79.5t89 -213.5l-80 -18q3 108 -61.5 171.5t-178.5 63.5
q-116 0 -189 -58.5t-73 -150.5q0 -64 45 -108t133 -80l168 -66q114 -45 171 -105t57 -149q0 -140 -112 -223.5t-275 -83.5z" />
    <glyph glyph-name="t" unicode="t" horiz-adv-x="796" 
d="M406 -37q-121 0 -184.5 81.5t-43.5 207.5l111 700h-219l12 74h219l49 311l82 23l-51 -334h426l-12 -74h-426l-113 -702q-14 -94 29 -152.5t127 -58.5q82 0 147 51.5t88 136.5l70 -30q-30 -105 -117.5 -169.5t-193.5 -64.5z" />
    <glyph glyph-name="u" unicode="u" 
d="M369 -37q-170 0 -252 99t-54 272l111 692h80l-111 -696q-23 -138 40.5 -216.5t199.5 -78.5q165 0 289 103t149 259l101 629h79l-163 -1026h-76l26 180h-2q-63 -104 -173 -160.5t-244 -56.5z" />
    <glyph glyph-name="v" unicode="v" horiz-adv-x="960" 
d="M350 0l-246 1026h82l224 -946h2l524 946h86l-571 -1026h-101z" />
    <glyph glyph-name="w" unicode="w" horiz-adv-x="1521" 
d="M272 0l-170 1026h82l154 -946h2l444 946h111l154 -946h2l448 946h86l-489 -1026h-111l-156 942h-2l-444 -942h-111z" />
    <glyph glyph-name="x" unicode="x" horiz-adv-x="821" 
d="M-61 0l430 535l-246 491h88l211 -432l348 432h92l-401 -496l258 -530h-88l-225 471l-371 -471h-96z" />
    <glyph glyph-name="y" unicode="y" horiz-adv-x="1007" 
d="M295 -467q-173 0 -295 79t-154 198l72 45q26 -107 128 -178.5t251 -71.5q175 0 296 108.5t152 294.5l25 148h-2q-63 -108 -171.5 -171t-227.5 -63q-171 0 -259 122.5t-57 313.5l107 668h80l-109 -674q-25 -159 42.5 -258.5t203.5 -99.5q152 0 277 111.5t151 281.5
l102 639h80l-162 -1022q-35 -220 -177.5 -345.5t-352.5 -125.5z" />
    <glyph glyph-name="z" unicode="z" horiz-adv-x="915" 
d="M-39 0l14 100l873 852h-717l10 74h795l-14 -100l-871 -852h756l-12 -74h-834z" />
    <glyph glyph-name="braceleft" unicode="{" horiz-adv-x="552" 
d="M246 -389q-76 0 -112.5 50.5t-22.5 137.5l88 557q10 71 -18 112t-89 46l-22 2l14 94l25 2q62 6 102.5 48t52.5 114l88 555q14 86 67.5 137.5t129.5 51.5h164l-13 -66h-161q-47 0 -80.5 -33t-42.5 -90l-88 -559q-13 -87 -61.5 -142t-116.5 -61v-4q64 -6 95 -61.5
t17 -141.5l-88 -561q-9 -57 13 -91t69 -34h164l-10 -63h-164z" />
    <glyph glyph-name="bar" unicode="|" horiz-adv-x="311" 
d="M-33 -471l312 1968h65l-313 -1968h-64z" />
    <glyph glyph-name="braceright" unicode="}" horiz-adv-x="552" 
d="M20 -389h-163l10 63h164q47 0 80.5 34t42.5 91l86 561q14 86 62.5 141.5t117.5 61.5v4q-66 6 -96.5 60.5t-16.5 142.5l86 559q9 57 -13 90t-69 33h-161l10 66h162q76 0 113.5 -51.5t23.5 -137.5l-88 -555q-12 -71 15.5 -113.5t86.5 -48.5l25 -2l-17 -94l-22 -2
q-61 -5 -101.5 -46t-52.5 -112l-88 -557q-13 -86 -67.5 -137t-129.5 -51z" />
    <glyph glyph-name="asciitilde" unicode="~" horiz-adv-x="1056" 
d="M973 637l35 -53q-107 -99 -217 -99q-45 0 -92 19.5t-76.5 40.5t-75.5 59q-48 40 -74 60t-69 40.5t-80 20.5q-99 0 -201 -92l-35 53q55 54 120.5 84.5t125.5 30.5q29 0 59.5 -8.5t50.5 -16.5t54.5 -32t45 -32t48.5 -39q9 -7 14 -11q57 -48 102 -73.5t93 -25.5q85 0 172 74
z" />
    <glyph glyph-name="exclamdown" unicode="&#xa1;" horiz-adv-x="350" 
d="M258 1067q30 0 47 -16.5t17 -44.5q0 -34 -21.5 -57t-54.5 -23q-30 0 -48 17t-18 44q0 34 22 57t56 23zM240 711l-103 -695l-63 -405h-82l61 405l119 695h68z" />
    <glyph glyph-name="cent" unicode="&#xa2;" horiz-adv-x="1085" 
d="M948 385l74 -25q-60 -173 -210.5 -285t-319.5 -112h-7l-36 -229h-66l37 233q-169 22 -268 141t-99 300q0 163 69.5 310.5t195 242.5t276.5 102l39 248h65l-39 -250q141 -13 232.5 -112.5t99.5 -241.5l-78 -9q-9 125 -80.5 200.5t-185.5 86.5l-149 -946q142 1 269.5 99.5
t180.5 246.5zM133 412q0 -151 80.5 -250t218.5 -119l150 942q-125 -10 -229.5 -94.5t-162 -212t-57.5 -266.5z" />
    <glyph glyph-name="sterling" unicode="&#xa3;" horiz-adv-x="1040" 
d="M-20 0l16 113q53 9 97.5 42.5t86.5 100t76 177t59 263.5h-204l10 62h205l51 332q29 176 137 286.5t250 110.5q150 0 232 -121.5t65 -312.5l-80 -6q17 160 -43 262t-174 102q-111 0 -197 -92t-108 -236l-53 -325h512l-11 -62h-512q-47 -279 -122.5 -425t-178.5 -195v-2
h815l-12 -74h-917z" />
    <glyph glyph-name="currency" unicode="&#xa4;" horiz-adv-x="1398" 
d="M10 -102l-41 43l262 229q-69 107 -69 256q0 120 46.5 233.5t131.5 198.5l-188 223l51 45l186 -219q165 137 391 137q109 0 200.5 -37t152.5 -104l258 223l39 -45l-259 -227q68 -111 68 -256q0 -118 -47 -232.5t-129 -199.5l186 -223l-51 -45l-186 219
q-165 -137 -391 -137q-109 0 -200.5 37t-152.5 104zM627 59q146 0 268.5 72.5t193 196t70.5 268.5q0 164 -105.5 266.5t-281.5 102.5q-147 0 -269.5 -73.5t-191.5 -197t-69 -266.5q0 -164 105 -266.5t280 -102.5z" />
    <glyph glyph-name="yen" unicode="&#xa5;" horiz-adv-x="1161" 
d="M459 0l51 322h-490l11 65h489l19 119h-490l12 65h463l-356 865h92l336 -822l596 822h96l-631 -865h465l-12 -65h-487l-21 -119h490l-9 -65h-489l-53 -322h-82z" />
    <glyph glyph-name="section" unicode="&#xa7;" horiz-adv-x="954" 
d="M416 -37q-174 0 -279.5 94.5t-99.5 241.5l80 16q-10 -122 74.5 -199t226.5 -77q132 0 231.5 65.5t114.5 165.5q10 65 -24 106t-115 68l-236 74q-135 45 -194.5 111.5t-44.5 165.5q9 61 54.5 117.5t114.5 95.5q-70 66 -53 182q20 122 121.5 203.5t237.5 81.5
q128 0 208 -78.5t80 -202.5l-77 -18q1 102 -57 161.5t-156 59.5q-104 0 -183.5 -62t-93.5 -153q-10 -64 17.5 -103.5t97.5 -64.5l203 -64q142 -51 198.5 -119.5t42.5 -173.5q-16 -125 -133 -200q89 -72 70 -195q-22 -131 -142 -215t-284 -84zM705 498q107 64 122 166
q10 75 -34.5 126t-155.5 91l-256 82q-62 -28 -104.5 -75.5t-51.5 -99.5q-13 -68 34.5 -114t152.5 -82z" />
    <glyph glyph-name="dieresis" unicode="&#xa8;" horiz-adv-x="612" 
d="M229 1247q-29 0 -46 16t-17 42q0 36 25 60t61 24q29 0 45 -15t16 -41q0 -37 -24.5 -61.5t-59.5 -24.5zM616 1247q-29 0 -45 15.5t-16 42.5q0 36 24 60t60 24q29 0 46 -15t17 -41q0 -36 -25 -61t-61 -25z" />
    <glyph glyph-name="copyright" unicode="&#xa9;" horiz-adv-x="1601" 
d="M719 -43q-284 0 -454.5 173.5t-170.5 453.5q0 180 67 347.5t181 292t274 199t336 74.5q281 0 453 -174.5t172 -454.5q0 -180 -67 -347.5t-180.5 -291t-273.5 -198t-337 -74.5zM723 23q162 0 309.5 69t251.5 184t165.5 268t61.5 316q0 253 -154 412.5t-409 159.5
q-162 0 -309.5 -70t-252 -185t-166.5 -269t-62 -318q0 -255 153.5 -411t411.5 -156zM776 174q-205 0 -323.5 119.5t-118.5 322.5q0 172 70.5 322t201 243t291.5 93q164 0 265 -105.5t106 -273.5l-78 -10q-8 141 -88 229t-209 88q-84 0 -160.5 -33t-133.5 -89.5t-99.5 -130.5
t-64 -159.5t-21.5 -171.5q0 -171 98 -271.5t268 -100.5q149 0 273.5 101.5t177.5 262.5l74 -24q-62 -185 -207 -298.5t-322 -113.5z" />
    <glyph glyph-name="guillemotleft" unicode="&#xab;" horiz-adv-x="958" 
d="M387 -20l-328 532l496 535l45 -39l-459 -496l301 -494zM764 -20l-328 532l496 535l45 -39l-459 -496l301 -494z" />
    <glyph glyph-name="logicalnot" unicode="&#xac;" horiz-adv-x="1196" 
d="M993 373l74 454h-915l12 76h991l-84 -530h-78z" />
    <glyph glyph-name="registered" unicode="&#xae;" horiz-adv-x="1601" 
d="M719 -43q-284 0 -454.5 173.5t-170.5 453.5q0 180 67 347.5t181 292t274 199t336 74.5q282 0 453.5 -174.5t171.5 -454.5q0 -180 -67 -347.5t-180.5 -291t-273.5 -198t-337 -74.5zM723 23q162 0 309.5 69t251.5 184t165.5 268t61.5 316q0 253 -153.5 412.5t-407.5 159.5
q-162 0 -310 -70t-253 -185t-167 -269t-62 -318q0 -255 153.5 -411t411.5 -156zM424 209l164 1028h370q128 0 201.5 -64t73.5 -172q0 -134 -89 -222.5t-231 -100.5l191 -469h-86l-191 465h-249l-74 -465h-80zM588 748h293q118 0 196 69.5t78 177.5q0 77 -54 121.5t-149 44.5
h-297z" />
    <glyph glyph-name="macron" unicode="&#xaf;" horiz-adv-x="673" 
d="M180 1212l10 58h533l-10 -58h-533z" />
    <glyph glyph-name="degree" unicode="&#xb0;" horiz-adv-x="940" 
d="M504 688q-159 0 -258 94t-99 244q0 129 64.5 240t174 176t237.5 65q159 0 257.5 -94.5t98.5 -245.5q0 -130 -63 -240t-172.5 -174.5t-239.5 -64.5zM508 752q113 0 206.5 57t146 151t52.5 203q0 126 -80 203.5t-210 77.5q-172 0 -291 -123.5t-119 -290.5q0 -124 81 -201
t214 -77z" />
    <glyph glyph-name="plusminus" unicode="&#xb1;" horiz-adv-x="1062" 
d="M500 561l47 297h-389l10 78h389l45 270h80l-43 -270h389l-12 -78h-389l-47 -297h-80zM70 307l10 66h858l-10 -66h-858z" />
    <glyph glyph-name="acute" unicode="&#xb4;" horiz-adv-x="352" 
d="M203 1221l-43 39l264 290l45 -37z" />
    <glyph glyph-name="paragraph" unicode="&#xb6;" horiz-adv-x="1148" 
d="M356 -469l183 1159q-204 0 -312 103t-80 270q26 167 167 270t343 103h580l-10 -74h-168l-291 -1831h-78l291 1831h-258l-291 -1831h-76z" />
    <glyph glyph-name="periodcentered" unicode="&#xb7;" horiz-adv-x="307" 
d="M160 522q-29 0 -46.5 17t-17.5 45q0 34 21.5 57t54.5 23q30 0 48 -17.5t18 -44.5q0 -34 -22 -57t-56 -23z" />
    <glyph glyph-name="cedilla" unicode="&#xb8;" horiz-adv-x="464" 
d="M88 -428q-63 0 -114 33.5t-64 85.5l61 35q8 -39 43 -65t80 -26q58 0 94.5 24.5t42.5 72.5q10 51 -24.5 76.5t-106.5 25.5h-55l47 170h66l-31 -108q92 -6 138.5 -47.5t33.5 -118.5q-10 -71 -70.5 -114.5t-140.5 -43.5z" />
    <glyph glyph-name="guillemotright" unicode="&#xbb;" horiz-adv-x="958" 
d="M27 -20l-43 38l456 494l-303 496l58 39l327 -535zM403 -20l-43 38l457 494l-303 496l57 39l328 -535z" />
    <glyph glyph-name="questiondown" unicode="&#xbf;" horiz-adv-x="917" 
d="M561 1067q29 0 46.5 -16.5t17.5 -44.5q0 -34 -21.5 -57t-54.5 -23q-30 0 -48 17t-18 44q0 34 22 57t56 23zM549 709q-23 -137 -75.5 -216t-164.5 -153l-86 -72q-105 -74 -158 -158.5t-53 -195.5q0 -124 75.5 -197t199.5 -73q160 0 274 108t158 287l78 -23
q-52 -205 -189 -328.5t-327 -123.5q-156 0 -253.5 93.5t-97.5 246.5q0 139 62 239.5t186 186.5l86 71q99 69 143 133t62 179z" />
    <glyph glyph-name="Agrave" unicode="&#xc0;" horiz-adv-x="1212" 
d="M770 1593l-145 252l53 33l145 -250zM-61 0l759 1436h107l305 -1436h-86l-78 375h-723l-196 -375h-88zM262 451h672l-191 905h-4z" />
    <glyph glyph-name="Aacute" unicode="&#xc1;" horiz-adv-x="1212" 
d="M793 1589l-45 39l223 250l45 -37zM-61 0l759 1436h107l305 -1436h-86l-78 375h-723l-196 -375h-88zM262 451h672l-191 905h-4z" />
    <glyph glyph-name="Acircumflex" unicode="&#xc2;" horiz-adv-x="1212" 
d="M553 1606l-41 47l258 213h100l191 -215l-49 -45l-195 219zM-61 0l759 1436h107l305 -1436h-86l-78 375h-723l-196 -375h-88zM262 451h672l-191 905h-4z" />
    <glyph glyph-name="Atilde" unicode="&#xc3;" horiz-adv-x="1212" 
d="M936 1597q-54 0 -87 34t-63 93q-34 67 -53 85q-22 22 -51 22q-52 0 -91.5 -60t-53.5 -153h-60q19 123 75 197.5t140 74.5q29 0 53 -10.5t41.5 -32t28.5 -40t25 -46.5q18 -36 28 -53.5t30 -34t44 -16.5q53 0 95.5 61.5t56.5 153.5h61q-21 -124 -78 -199.5t-141 -75.5z
M-61 0l759 1436h107l305 -1436h-86l-78 375h-723l-196 -375h-88zM262 451h672l-191 905h-4z" />
    <glyph glyph-name="Adieresis" unicode="&#xc4;" horiz-adv-x="1212" 
d="M588 1665q-30 0 -47.5 20.5t-14.5 51.5q6 30 30 49.5t54 19.5q31 0 48.5 -20t11.5 -49q-3 -30 -27 -51t-55 -21zM991 1665q-30 0 -46 20.5t-13 51.5q4 29 28.5 49t55.5 20q30 0 47 -19.5t12 -49.5q-4 -31 -28.5 -51.5t-55.5 -20.5zM-61 0l759 1436h107l305 -1436h-86
l-78 375h-723l-196 -375h-88zM262 451h672l-191 905h-4z" />
    <glyph glyph-name="Aring" unicode="&#xc5;" horiz-adv-x="1212" 
d="M782 1616q-70 0 -111.5 40t-41.5 105q0 91 60 150t149 59q67 0 108 -41t41 -106q0 -90 -59 -148.5t-146 -58.5zM788 1671q57 0 97.5 41.5t40.5 102.5q0 44 -27.5 71t-73.5 27q-57 0 -97 -40.5t-40 -100.5q0 -46 27 -73.5t73 -27.5zM-61 0l759 1436h107l305 -1436h-86
l-78 375h-723l-196 -375h-88zM262 451h672l-191 905h-4z" />
    <glyph glyph-name="AE" unicode="&#xc6;" horiz-adv-x="1640" 
d="M-84 0l1008 1436h790l-10 -74h-662l-94 -596h578l-10 -74h-580l-96 -616h678l-11 -76h-762l52 326h-564l-223 -326h-94zM287 399h520l154 951h-3z" />
    <glyph glyph-name="Ccedilla" unicode="&#xc7;" horiz-adv-x="1439" 
d="M1403 532q-32 -113 -101.5 -217t-161.5 -182.5t-206.5 -127t-231.5 -52.5l-16 -57q92 -6 138.5 -47.5t33.5 -118.5q-10 -71 -70.5 -114.5t-140.5 -43.5q-63 0 -114 33.5t-64 85.5l61 35q8 -39 43 -65t80 -26q58 0 95.5 24.5t44.5 72.5q17 102 -134 102h-55l33 121
q-251 15 -398 182.5t-147 431.5q0 139 35.5 273.5t104 249.5t160 203t211 138t249.5 50q218 0 352 -136t146 -382l-84 -11q-12 218 -122.5 336.5t-295.5 118.5q-116 0 -222.5 -47t-187.5 -128.5t-141 -187.5t-91.5 -228.5t-31.5 -246.5q0 -246 139.5 -395t374.5 -149
q107 0 212 44.5t188.5 118t146.5 169t92 198.5z" />
    <glyph glyph-name="Egrave" unicode="&#xc8;" horiz-adv-x="1091" 
d="M754 1593l-146 252l54 33l145 -250zM41 0l227 1436h899l-8 -76h-821l-90 -576h735l-10 -73h-737l-101 -635h834l-11 -76h-917z" />
    <glyph glyph-name="Eacute" unicode="&#xc9;" horiz-adv-x="1091" 
d="M776 1589l-45 39l223 250l45 -37zM41 0l227 1436h899l-8 -76h-821l-90 -576h735l-10 -73h-737l-101 -635h834l-11 -76h-917z" />
    <glyph glyph-name="Ecircumflex" unicode="&#xca;" horiz-adv-x="1091" 
d="M539 1606l-41 47l258 213h100l191 -215l-50 -45l-194 219zM41 0l227 1436h899l-8 -76h-821l-90 -576h735l-10 -73h-737l-101 -635h834l-11 -76h-917z" />
    <glyph glyph-name="Edieresis" unicode="&#xcb;" horiz-adv-x="1091" 
d="M571 1665q-30 0 -47 20.5t-14 51.5q6 30 30 49.5t54 19.5q31 0 48 -20t11 -49q-3 -30 -27 -51t-55 -21zM975 1665q-30 0 -46.5 20.5t-13.5 51.5q4 29 28.5 49t55.5 20t48 -20t12 -49q-4 -31 -28.5 -51.5t-55.5 -20.5zM41 0l227 1436h899l-8 -76h-821l-90 -576h735
l-10 -73h-737l-101 -635h834l-11 -76h-917z" />
    <glyph glyph-name="Igrave" unicode="&#xcc;" horiz-adv-x="327" 
d="M326 1606l-80 252l55 20l80 -252zM41 0l227 1436h82l-227 -1436h-82z" />
    <glyph glyph-name="Iacute" unicode="&#xcd;" horiz-adv-x="327" 
d="M354 1597l-49 29l158 252l51 -29zM41 0l227 1436h82l-227 -1436h-82z" />
    <glyph glyph-name="Icircumflex" unicode="&#xce;" horiz-adv-x="327" 
d="M211 1606l-53 30l172 230h100l98 -226l-57 -34l-96 219zM41 0l227 1436h82l-227 -1436h-82z" />
    <glyph glyph-name="Idieresis" unicode="&#xcf;" horiz-adv-x="327" 
d="M240 1665q-32 0 -49.5 21.5t-14.5 54.5q4 29 26 47t52 18q32 0 50.5 -21.5t14.5 -53.5q-6 -29 -28 -47.5t-51 -18.5zM461 1665q-32 0 -49.5 21.5t-12.5 54.5q3 29 24.5 47t51.5 18q33 0 51.5 -21.5t12.5 -53.5q-4 -29 -26.5 -47.5t-51.5 -18.5zM41 0l227 1436h82
l-227 -1436h-82z" />
    <glyph glyph-name="Ntilde" unicode="&#xd1;" horiz-adv-x="1239" 
d="M967 1597q-54 0 -87 34t-63 93q-34 67 -53 85q-22 22 -51 22q-52 0 -92 -60.5t-54 -152.5h-59q19 123 75 197.5t140 74.5q29 0 52.5 -10.5t41.5 -32t28.5 -39.5t24.5 -47q13 -26 21 -40t21 -31.5t28 -25t33 -7.5q53 0 95 61.5t56 153.5h62q-21 -124 -78 -199.5
t-141 -75.5zM41 0l227 1436h127l568 -1348h4l213 1348h82l-228 -1436h-125l-567 1348h-4l-215 -1348h-82z" />
    <glyph glyph-name="Ograve" unicode="&#xd2;" horiz-adv-x="1562" 
d="M944 1593l-145 252l53 33l145 -250zM698 -47q-283 0 -444.5 161.5t-161.5 440.5q0 253 104.5 464t297.5 336.5t436 125.5q285 0 446.5 -161.5t161.5 -440.5q0 -150 -39.5 -289.5t-114 -254.5t-176 -201t-233 -133.5t-277.5 -47.5zM700 27q165 0 308 69.5t240 185.5
t152.5 270t55.5 322q0 247 -141 391t-389 144q-132 0 -250.5 -44.5t-209 -124.5t-157 -186t-101 -233t-34.5 -262q0 -247 140 -389.5t386 -142.5z" />
    <glyph glyph-name="Oacute" unicode="&#xd3;" horiz-adv-x="1562" 
d="M969 1589l-45 39l223 250l45 -37zM698 -47q-283 0 -444.5 161.5t-161.5 440.5q0 253 104.5 464t297.5 336.5t436 125.5q285 0 446.5 -161.5t161.5 -440.5q0 -150 -39.5 -289.5t-114 -254.5t-176 -201t-233 -133.5t-277.5 -47.5zM700 27q165 0 308 69.5t240 185.5
t152.5 270t55.5 322q0 247 -141 391t-389 144q-132 0 -250.5 -44.5t-209 -124.5t-157 -186t-101 -233t-34.5 -262q0 -247 140 -389.5t386 -142.5z" />
    <glyph glyph-name="Ocircumflex" unicode="&#xd4;" horiz-adv-x="1562" 
d="M729 1606l-41 47l258 213h101l190 -215l-49 -45l-195 219zM698 -47q-283 0 -444.5 161.5t-161.5 440.5q0 253 104.5 464t297.5 336.5t436 125.5q285 0 446.5 -161.5t161.5 -440.5q0 -150 -39.5 -289.5t-114 -254.5t-176 -201t-233 -133.5t-277.5 -47.5zM700 27
q165 0 308 69.5t240 185.5t152.5 270t55.5 322q0 247 -141 391t-389 144q-132 0 -250.5 -44.5t-209 -124.5t-157 -186t-101 -233t-34.5 -262q0 -247 140 -389.5t386 -142.5z" />
    <glyph glyph-name="Otilde" unicode="&#xd5;" horiz-adv-x="1562" 
d="M1110 1597q-29 0 -52 10.5t-41.5 31t-30 39t-25.5 46.5q-15 30 -21 41t-20.5 31t-29.5 27.5t-34 7.5q-52 0 -91.5 -60t-53.5 -153h-60q19 123 75 197.5t140 74.5q29 0 53 -10.5t41.5 -32t28.5 -40t25 -46.5q18 -36 28 -53.5t30 -34t44 -16.5q53 0 95.5 61.5t56.5 153.5
h61q-21 -124 -78 -199.5t-141 -75.5zM698 -47q-283 0 -444.5 161.5t-161.5 440.5q0 253 104.5 464t297.5 336.5t436 125.5q285 0 446.5 -161.5t161.5 -440.5q0 -150 -39.5 -289.5t-114 -254.5t-176 -201t-233 -133.5t-277.5 -47.5zM700 27q165 0 308 69.5t240 185.5
t152.5 270t55.5 322q0 247 -141 391t-389 144q-132 0 -250.5 -44.5t-209 -124.5t-157 -186t-101 -233t-34.5 -262q0 -247 140 -389.5t386 -142.5z" />
    <glyph glyph-name="Odieresis" unicode="&#xd6;" horiz-adv-x="1562" 
d="M764 1665q-30 0 -47.5 20.5t-14.5 51.5q6 30 30 49.5t54 19.5q31 0 48.5 -20t11.5 -49q-3 -30 -27 -51t-55 -21zM1167 1665q-30 0 -46 20.5t-13 51.5q4 29 28.5 49t55.5 20q30 0 47 -19.5t12 -49.5q-4 -31 -28.5 -51.5t-55.5 -20.5zM698 -47q-283 0 -444.5 161.5
t-161.5 440.5q0 253 104.5 464t297.5 336.5t436 125.5q285 0 446.5 -161.5t161.5 -440.5q0 -150 -39.5 -289.5t-114 -254.5t-176 -201t-233 -133.5t-277.5 -47.5zM700 27q165 0 308 69.5t240 185.5t152.5 270t55.5 322q0 247 -141 391t-389 144q-132 0 -250.5 -44.5
t-209 -124.5t-157 -186t-101 -233t-34.5 -262q0 -247 140 -389.5t386 -142.5z" />
    <glyph glyph-name="multiply" unicode="&#xd7;" horiz-adv-x="720" 
d="M150 465l-48 49l246 242l-168 241l62 50l164 -234l241 234l47 -50l-245 -241l169 -242l-63 -49l-166 235z" />
    <glyph glyph-name="Oslash" unicode="&#xd8;" horiz-adv-x="1562" 
d="M1049 1473q231 -32 360 -189t129 -405q0 -150 -39.5 -289.5t-114 -254.5t-176 -201t-233 -133.5t-277.5 -47.5q-63 0 -112 8l-70 -229l-59 18l67 221q-205 46 -318.5 199t-113.5 385q0 253 104.5 464t297.5 336.5t436 125.5q35 0 53 -2l59 198l64 -18zM174 559
q0 -204 97.5 -339.5t275.5 -176.5l414 1366h-35q-132 0 -250.5 -44.5t-209 -124.5t-157 -186t-101 -233t-34.5 -262zM700 27q165 0 308 69.5t240 185.5t152.5 270t55.5 322q0 220 -113 360t-315 169l-420 -1370q44 -6 92 -6z" />
    <glyph glyph-name="Ugrave" unicode="&#xd9;" horiz-adv-x="1236" 
d="M782 1593l-145 252l53 33l146 -250zM535 -47q-247 0 -364 140.5t-79 369.5l156 973h82l-156 -979q-33 -196 61.5 -312t301.5 -116q205 0 339 113t168 319l154 975h82l-154 -981q-38 -237 -196 -369.5t-395 -132.5z" />
    <glyph glyph-name="Uacute" unicode="&#xda;" horiz-adv-x="1236" 
d="M805 1589l-45 39l223 250l45 -37zM535 -47q-247 0 -364 140.5t-79 369.5l156 973h82l-156 -979q-33 -196 61.5 -312t301.5 -116q205 0 339 113t168 319l154 975h82l-154 -981q-38 -237 -196 -369.5t-395 -132.5z" />
    <glyph glyph-name="Ucircumflex" unicode="&#xdb;" horiz-adv-x="1236" 
d="M565 1606l-41 47l258 213h101l190 -215l-49 -45l-195 219zM535 -47q-247 0 -364 140.5t-79 369.5l156 973h82l-156 -979q-33 -196 61.5 -312t301.5 -116q205 0 339 113t168 319l154 975h82l-154 -981q-38 -237 -196 -369.5t-395 -132.5z" />
    <glyph glyph-name="Udieresis" unicode="&#xdc;" horiz-adv-x="1236" 
d="M600 1665q-30 0 -47 20.5t-14 51.5q6 30 30 49.5t54 19.5q31 0 48 -20t11 -49q-3 -30 -27 -51t-55 -21zM1004 1665q-30 0 -46.5 20.5t-13.5 51.5q4 29 28.5 49t55.5 20q30 0 47 -19.5t12 -49.5q-4 -31 -28 -51.5t-55 -20.5zM535 -47q-247 0 -364 140.5t-79 369.5l156 973
h82l-156 -979q-33 -196 61.5 -312t301.5 -116q205 0 339 113t168 319l154 975h82l-154 -981q-38 -237 -196 -369.5t-395 -132.5z" />
    <glyph glyph-name="Yacute" unicode="&#xdd;" horiz-adv-x="1064" 
d="M711 1589l-45 39l223 250l45 -37zM410 0l94 584l-336 852h90l297 -762h2l541 762h94l-606 -852l-94 -584h-82z" />
    <glyph glyph-name="germandbls" unicode="&#xdf;" horiz-adv-x="1009" 
d="M729 545q94 -60 135 -122t41 -144q0 -137 -92 -218t-231 -81q-158 0 -237 101t-60 267l86 14q-24 -136 34 -224.5t183 -88.5q99 0 169 63.5t70 157.5q0 117 -143 211l-115 78q-71 44 -103 88.5t-32 97.5q0 114 102.5 188.5t276.5 88.5q27 46 42 104t15 107
q0 98 -59 155.5t-158 57.5q-151 0 -253.5 -103.5t-129.5 -275.5l-170 -1067h-82l170 1075q32 205 158 325t311 120q134 0 214.5 -76t80.5 -207q0 -69 -25.5 -150t-62.5 -126q-156 -3 -252 -60t-98 -147q0 -66 102 -133z" />
    <glyph glyph-name="agrave" unicode="&#xe0;" horiz-adv-x="1163" 
d="M641 1221l-174 292l57 37l172 -290zM473 -37q-191 0 -305.5 121t-114.5 319q0 173 75.5 324t211 243.5t299.5 92.5q147 0 248 -74.5t135 -202.5h2l41 240h78l-164 -1026h-76l37 238h-2q-73 -127 -196.5 -201t-268.5 -74zM481 37q143 0 261.5 84t183.5 216.5t65 278.5
q0 167 -95.5 270t-254.5 103q-143 0 -261.5 -84t-183.5 -216.5t-65 -278.5q0 -167 95.5 -270t254.5 -103z" />
    <glyph glyph-name="aacute" unicode="&#xe1;" horiz-adv-x="1163" 
d="M700 1221l-43 39l265 290l45 -37zM473 -37q-191 0 -305.5 121t-114.5 319q0 173 75.5 324t211 243.5t299.5 92.5q147 0 248 -74.5t135 -202.5h2l41 240h78l-164 -1026h-76l37 238h-2q-73 -127 -196.5 -201t-268.5 -74zM481 37q143 0 261.5 84t183.5 216.5t65 278.5
q0 167 -95.5 270t-254.5 103q-143 0 -261.5 -84t-183.5 -216.5t-65 -278.5q0 -167 95.5 -270t254.5 -103z" />
    <glyph glyph-name="acircumflex" unicode="&#xe2;" horiz-adv-x="1163" 
d="M399 1217l-41 47l314 256h100l232 -258l-50 -45l-237 260zM473 -37q-191 0 -305.5 121t-114.5 319q0 173 75.5 324t211 243.5t299.5 92.5q147 0 248 -74.5t135 -202.5h2l41 240h78l-164 -1026h-76l37 238h-2q-73 -127 -196.5 -201t-268.5 -74zM481 37q143 0 261.5 84
t183.5 216.5t65 278.5q0 167 -95.5 270t-254.5 103q-143 0 -261.5 -84t-183.5 -216.5t-65 -278.5q0 -167 95.5 -270t254.5 -103z" />
    <glyph glyph-name="atilde" unicode="&#xe3;" horiz-adv-x="1163" 
d="M821 1208q-29 0 -51.5 9.5t-40.5 30t-28 36.5t-25 45q-19 39 -28.5 57t-31 37t-47.5 19q-49 0 -91.5 -61t-57.5 -152h-60q21 121 80.5 196.5t139.5 75.5q30 0 53.5 -10.5t41.5 -33.5t28 -40.5t24 -48.5q33 -63 51 -79q22 -21 49 -21q54 0 96.5 61t57.5 154h59
q-21 -122 -80 -198.5t-139 -76.5zM473 -37q-191 0 -305.5 121t-114.5 319q0 173 75.5 324t211 243.5t299.5 92.5q147 0 248 -74.5t135 -202.5h2l41 240h78l-164 -1026h-76l37 238h-2q-73 -127 -196.5 -201t-268.5 -74zM481 37q143 0 261.5 84t183.5 216.5t65 278.5
q0 167 -95.5 270t-254.5 103q-143 0 -261.5 -84t-183.5 -216.5t-65 -278.5q0 -167 95.5 -270t254.5 -103z" />
    <glyph glyph-name="adieresis" unicode="&#xe4;" horiz-adv-x="1163" 
d="M483 1247q-29 0 -46 16t-17 42q0 36 25 60t61 24q29 0 45 -15t16 -41q0 -37 -24.5 -61.5t-59.5 -24.5zM870 1247q-29 0 -45 15.5t-16 42.5q0 36 24 60t60 24q29 0 46 -15t17 -41q0 -36 -25 -61t-61 -25zM473 -37q-191 0 -305.5 121t-114.5 319q0 173 75.5 324t211 243.5
t299.5 92.5q147 0 248 -74.5t135 -202.5h2l41 240h78l-164 -1026h-76l37 238h-2q-73 -127 -196.5 -201t-268.5 -74zM481 37q143 0 261.5 84t183.5 216.5t65 278.5q0 167 -95.5 270t-254.5 103q-143 0 -261.5 -84t-183.5 -216.5t-65 -278.5q0 -167 95.5 -270t254.5 -103z" />
    <glyph glyph-name="aring" unicode="&#xe5;" horiz-adv-x="1163" 
d="M676 1227q-70 0 -111 40t-41 105q0 88 60.5 147.5t148.5 59.5q67 0 108.5 -40t41.5 -105q0 -87 -61 -147t-146 -60zM684 1282q56 0 96.5 41t40.5 100q0 45 -27.5 73t-72.5 28q-56 0 -96.5 -41.5t-40.5 -100.5q0 -44 28 -72t72 -28zM473 -37q-191 0 -305.5 121t-114.5 319
q0 173 75.5 324t211 243.5t299.5 92.5q147 0 248 -74.5t135 -202.5h2l41 240h78l-164 -1026h-76l37 238h-2q-73 -127 -196.5 -201t-268.5 -74zM481 37q143 0 261.5 84t183.5 216.5t65 278.5q0 167 -95.5 270t-254.5 103q-143 0 -261.5 -84t-183.5 -216.5t-65 -278.5
q0 -167 95.5 -270t254.5 -103z" />
    <glyph glyph-name="ae" unicode="&#xe6;" horiz-adv-x="1765" 
d="M348 -37q-173 0 -270.5 82t-77.5 211q19 117 128.5 201t274.5 106l379 47q28 3 48 19.5t24 42.5q25 159 -47 238t-211 79q-148 0 -252 -75t-123 -189l-71 33q31 135 153.5 220t290.5 85q145 0 235.5 -69.5t100.5 -202.5q74 128 180 200t223 72q124 0 210 -68t120.5 -191
t9.5 -280q-6 -41 -10 -55h-754q-15 -196 68.5 -315t239.5 -119q117 0 224 69t173 181l65 -39q-78 -131 -203.5 -207t-261.5 -76q-152 0 -251.5 93t-116.5 251q-51 -154 -188.5 -249t-309.5 -95zM918 541h677q29 196 -47 322t-221 126q-144 0 -259.5 -129t-149.5 -319z
M354 35q175 0 306 112.5t157 284.5l17 113l-433 -53q-126 -15 -217 -83.5t-106 -160.5q-14 -93 62.5 -153t213.5 -60z" />
    <glyph glyph-name="ccedilla" unicode="&#xe7;" horiz-adv-x="1087" 
d="M1024 375q-60 -180 -200 -293t-312 -119l-18 -67q92 -6 138.5 -47.5t33.5 -118.5q-10 -71 -70.5 -114.5t-140.5 -43.5q-64 0 -115 33.5t-64 85.5l62 35q8 -39 43 -65t80 -26q58 0 95 24.5t44 72.5q9 51 -26 76.5t-107 25.5h-55l37 131q-184 13 -290 131.5t-106 309.5
q0 172 70.5 322t201 242.5t291.5 92.5q164 0 265 -105.5t106 -273.5l-78 -10q-8 141 -88 229t-209 88q-105 0 -196.5 -50.5t-152 -132.5t-95.5 -186.5t-35 -213.5q0 -171 98.5 -272t268.5 -101q149 0 273 101.5t177 262.5z" />
    <glyph glyph-name="egrave" unicode="&#xe8;" horiz-adv-x="1093" 
d="M621 1221l-175 292l58 37l172 -290zM508 -37q-206 0 -330.5 123.5t-124.5 323.5q0 170 73 319t206 241.5t293 92.5q183 0 286 -122.5t103 -326.5q0 -71 -13 -131h-864q-20 -203 83 -325.5t292 -122.5q129 0 247 70t183 182l66 -41q-76 -129 -212.5 -206t-287.5 -77z
M150 553h784q18 194 -67 315t-249 121q-168 0 -298 -121t-170 -315z" />
    <glyph glyph-name="eacute" unicode="&#xe9;" horiz-adv-x="1093" 
d="M680 1221l-43 39l264 290l45 -37zM508 -37q-206 0 -330.5 123.5t-124.5 323.5q0 170 73 319t206 241.5t293 92.5q183 0 286 -122.5t103 -326.5q0 -71 -13 -131h-864q-20 -203 83 -325.5t292 -122.5q129 0 247 70t183 182l66 -41q-76 -129 -212.5 -206t-287.5 -77z
M150 553h784q18 194 -67 315t-249 121q-168 0 -298 -121t-170 -315z" />
    <glyph glyph-name="ecircumflex" unicode="&#xea;" horiz-adv-x="1093" 
d="M381 1217l-41 47l313 256h101l231 -258l-49 -45l-238 260zM508 -37q-206 0 -330.5 123.5t-124.5 323.5q0 170 73 319t206 241.5t293 92.5q183 0 286 -122.5t103 -326.5q0 -71 -13 -131h-864q-20 -203 83 -325.5t292 -122.5q129 0 247 70t183 182l66 -41
q-76 -129 -212.5 -206t-287.5 -77zM150 553h784q18 194 -67 315t-249 121q-168 0 -298 -121t-170 -315z" />
    <glyph glyph-name="edieresis" unicode="&#xeb;" horiz-adv-x="1093" 
d="M465 1247q-29 0 -46.5 16t-17.5 42q0 36 25 60t61 24q29 0 45.5 -15t16.5 -41q0 -37 -24.5 -61.5t-59.5 -24.5zM852 1247q-29 0 -45 15.5t-16 42.5q0 37 23.5 60.5t59.5 23.5q29 0 46.5 -15t17.5 -41q0 -36 -25 -61t-61 -25zM508 -37q-206 0 -330.5 123.5t-124.5 323.5
q0 170 73 319t206 241.5t293 92.5q183 0 286 -122.5t103 -326.5q0 -71 -13 -131h-864q-20 -203 83 -325.5t292 -122.5q129 0 247 70t183 182l66 -41q-76 -129 -212.5 -206t-287.5 -77zM150 553h784q18 194 -67 315t-249 121q-168 0 -298 -121t-170 -315z" />
    <glyph glyph-name="igrave" unicode="&#xec;" horiz-adv-x="284" 
d="M229 1235l-82 297l60 18l82 -295zM20 0l164 1026h80l-164 -1026h-80z" />
    <glyph glyph-name="iacute" unicode="&#xed;" horiz-adv-x="284" 
d="M276 1227l-51 28l178 293l54 -24zM20 0l164 1026h80l-164 -1026h-80z" />
    <glyph glyph-name="icircumflex" unicode="&#xee;" horiz-adv-x="284" 
d="M106 1217l-55 30l201 273h100l115 -269l-57 -34l-113 260zM20 0l164 1026h80l-164 -1026h-80z" />
    <glyph glyph-name="idieresis" unicode="&#xef;" horiz-adv-x="284" 
d="M154 1247q-34 0 -52 21t-12 55q4 30 25.5 48t52.5 18q33 0 50.5 -21t12.5 -55q-4 -31 -25 -48.5t-52 -17.5zM373 1247q-34 0 -52 21t-14 55q6 30 27 48t51 18q35 0 52.5 -21t11.5 -55q-3 -30 -24 -48t-52 -18zM20 0l164 1026h80l-164 -1026h-80z" />
    <glyph glyph-name="ntilde" unicode="&#xf1;" 
d="M795 1208q-29 0 -51.5 9.5t-40.5 30t-28.5 37t-25.5 44.5q-15 32 -21 43.5t-20.5 32.5t-29.5 29t-35 8q-49 0 -92 -61t-58 -152h-59q21 121 80 196.5t139 75.5q30 0 53.5 -10.5t41.5 -33.5t28 -40.5t24 -48.5q34 -65 54 -82q20 -18 47 -18q54 0 96 61t57 154h60
q-21 -122 -80 -198.5t-139 -76.5zM653 1063q170 0 251.5 -99t53.5 -272l-110 -692h-80l111 696q23 138 -40.5 216.5t-199.5 78.5q-165 0 -289 -103t-149 -259l-101 -629h-80l164 1026h76l-27 -180h3q63 104 173 160.5t244 56.5z" />
    <glyph glyph-name="ograve" unicode="&#xf2;" horiz-adv-x="1126" 
d="M643 1221l-174 292l57 37l172 -290zM481 -37q-200 0 -315 116t-115 316q0 134 43.5 256t120 213t188.5 145t242 54q200 0 315 -116t115 -316q0 -134 -43.5 -256t-120 -213t-188.5 -145t-242 -54zM483 35q149 0 267.5 84t180.5 218t62 290q0 168 -93 265t-257 97
q-150 0 -269 -83.5t-181 -217t-62 -289.5q0 -168 93.5 -266t258.5 -98z" />
    <glyph glyph-name="oacute" unicode="&#xf3;" horiz-adv-x="1126" 
d="M700 1221l-43 39l265 290l45 -37zM481 -37q-200 0 -315 116t-115 316q0 134 43.5 256t120 213t188.5 145t242 54q200 0 315 -116t115 -316q0 -134 -43.5 -256t-120 -213t-188.5 -145t-242 -54zM483 35q149 0 267.5 84t180.5 218t62 290q0 168 -93 265t-257 97
q-150 0 -269 -83.5t-181 -217t-62 -289.5q0 -168 93.5 -266t258.5 -98z" />
    <glyph glyph-name="ocircumflex" unicode="&#xf4;" horiz-adv-x="1126" 
d="M401 1217l-41 47l314 256h100l232 -258l-50 -45l-237 260zM481 -37q-200 0 -315 116t-115 316q0 134 43.5 256t120 213t188.5 145t242 54q200 0 315 -116t115 -316q0 -134 -43.5 -256t-120 -213t-188.5 -145t-242 -54zM483 35q149 0 267.5 84t180.5 218t62 290
q0 168 -93 265t-257 97q-150 0 -269 -83.5t-181 -217t-62 -289.5q0 -168 93.5 -266t258.5 -98z" />
    <glyph glyph-name="otilde" unicode="&#xf5;" horiz-adv-x="1126" 
d="M823 1208q-29 0 -51.5 9.5t-40.5 30t-28 36.5t-25 45q-19 39 -28.5 57t-31 37t-47.5 19q-49 0 -91.5 -61t-57.5 -152h-60q21 121 80.5 196.5t139.5 75.5q30 0 53.5 -10.5t41.5 -33.5t28 -40.5t24 -48.5q33 -63 51 -79q22 -21 49 -21q54 0 96.5 61t57.5 154h59
q-21 -122 -80 -198.5t-139 -76.5zM481 -37q-200 0 -315 116t-115 316q0 134 43.5 256t120 213t188.5 145t242 54q200 0 315 -116t115 -316q0 -134 -43.5 -256t-120 -213t-188.5 -145t-242 -54zM483 35q149 0 267.5 84t180.5 218t62 290q0 168 -93 265t-257 97
q-150 0 -269 -83.5t-181 -217t-62 -289.5q0 -168 93.5 -266t258.5 -98z" />
    <glyph glyph-name="odieresis" unicode="&#xf6;" horiz-adv-x="1126" 
d="M485 1247q-29 0 -46 16t-17 42q0 36 25 60t61 24q29 0 45 -15t16 -41q0 -37 -24.5 -61.5t-59.5 -24.5zM872 1247q-29 0 -45 15.5t-16 42.5q0 36 24 60t60 24q29 0 46 -15t17 -41q0 -36 -25 -61t-61 -25zM481 -37q-200 0 -315 116t-115 316q0 134 43.5 256t120 213
t188.5 145t242 54q200 0 315 -116t115 -316q0 -134 -43.5 -256t-120 -213t-188.5 -145t-242 -54zM483 35q149 0 267.5 84t180.5 218t62 290q0 168 -93 265t-257 97q-150 0 -269 -83.5t-181 -217t-62 -289.5q0 -168 93.5 -266t258.5 -98z" />
    <glyph glyph-name="divide" unicode="&#xf7;" horiz-adv-x="1056" 
d="M612 1010q-34 0 -51.5 21.5t-11.5 55.5q3 29 24 47.5t52 18.5q34 0 52 -21t13 -55q-6 -31 -26.5 -49t-51.5 -18zM135 713l10 65h852l-10 -65h-852zM506 338q-34 0 -52 21.5t-14 56.5q4 29 26 47t52 18q34 0 52.5 -22t13.5 -56q-4 -29 -26 -47t-52 -18z" />
    <glyph glyph-name="oslash" unicode="&#xf8;" horiz-adv-x="1122" 
d="M768 1049q170 -38 249.5 -182.5t45.5 -358.5q-40 -249 -199 -397t-385 -148q-29 0 -43 2l-139 -454l-59 16l135 446q-180 34 -264.5 179t-49.5 366q40 249 199 397t385 148q41 0 59 -2l121 395l64 -18zM139 508q-29 -187 39.5 -311.5t216.5 -153.5l287 944q-14 2 -41 2
q-194 0 -331 -131.5t-171 -349.5zM983 518q29 180 -35 302.5t-203 156.5l-288 -942h24q193 0 330.5 132.5t171.5 350.5z" />
    <glyph glyph-name="ugrave" unicode="&#xf9;" 
d="M586 1221l-174 292l57 37l172 -290zM369 -37q-170 0 -252 99t-54 272l111 692h80l-111 -696q-23 -138 40.5 -216.5t199.5 -78.5q165 0 289 103t149 259l101 629h79l-163 -1026h-76l26 180h-2q-63 -104 -173 -160.5t-244 -56.5z" />
    <glyph glyph-name="uacute" unicode="&#xfa;" 
d="M643 1221l-43 39l264 290l45 -37zM369 -37q-170 0 -252 99t-54 272l111 692h80l-111 -696q-23 -138 40.5 -216.5t199.5 -78.5q165 0 289 103t149 259l101 629h79l-163 -1026h-76l26 180h-2q-63 -104 -173 -160.5t-244 -56.5z" />
    <glyph glyph-name="ucircumflex" unicode="&#xfb;" 
d="M344 1217l-41 47l313 256h101l231 -258l-49 -45l-237 260zM369 -37q-170 0 -252 99t-54 272l111 692h80l-111 -696q-23 -138 40.5 -216.5t199.5 -78.5q165 0 289 103t149 259l101 629h79l-163 -1026h-76l26 180h-2q-63 -104 -173 -160.5t-244 -56.5z" />
    <glyph glyph-name="udieresis" unicode="&#xfc;" 
d="M428 1247q-29 0 -46 16t-17 42q0 36 25 60t61 24q29 0 45 -15t16 -41q0 -37 -24.5 -61.5t-59.5 -24.5zM815 1247q-29 0 -45 15.5t-16 42.5q0 36 24 60t60 24q29 0 46 -15t17 -41q0 -36 -25 -61t-61 -25zM369 -37q-170 0 -252 99t-54 272l111 692h80l-111 -696
q-23 -138 40.5 -216.5t199.5 -78.5q165 0 289 103t149 259l101 629h79l-163 -1026h-76l26 180h-2q-63 -104 -173 -160.5t-244 -56.5z" />
    <glyph glyph-name="yacute" unicode="&#xfd;" horiz-adv-x="1007" 
d="M631 1221l-43 39l264 290l45 -37zM295 -467q-173 0 -295 79t-154 198l72 45q26 -107 128 -178.5t251 -71.5q175 0 296 108.5t152 294.5l25 148h-2q-63 -108 -171.5 -171t-227.5 -63q-171 0 -259 122.5t-57 313.5l107 668h80l-109 -674q-25 -159 42.5 -258.5t203.5 -99.5
q152 0 277 111.5t151 281.5l102 639h80l-162 -1022q-35 -220 -177.5 -345.5t-352.5 -125.5z" />
    <glyph glyph-name="ydieresis" unicode="&#xff;" horiz-adv-x="1007" 
d="M416 1247q-29 0 -46.5 16t-17.5 42q0 36 25 60t61 24q29 0 45.5 -15t16.5 -41q0 -37 -24.5 -61.5t-59.5 -24.5zM803 1247q-29 0 -45.5 15.5t-16.5 42.5q0 36 24 60t60 24q29 0 46.5 -15t17.5 -41q0 -36 -25 -61t-61 -25zM295 -467q-173 0 -295 79t-154 198l72 45
q26 -107 128 -178.5t251 -71.5q175 0 296 108.5t152 294.5l25 148h-2q-63 -108 -171.5 -171t-227.5 -63q-171 0 -259 122.5t-57 313.5l107 668h80l-109 -674q-25 -159 42.5 -258.5t203.5 -99.5q152 0 277 111.5t151 281.5l102 639h80l-162 -1022q-35 -220 -177.5 -345.5
t-352.5 -125.5z" />
    <glyph glyph-name="Amacron" unicode="&#x100;" horiz-adv-x="1212" 
d="M514 1622l10 57h533l-10 -57h-533zM-61 0l759 1436h107l305 -1436h-86l-78 375h-723l-196 -375h-88zM262 451h672l-191 905h-4z" />
    <glyph glyph-name="amacron" unicode="&#x101;" horiz-adv-x="1163" 
d="M406 1212l10 58h532l-10 -58h-532zM473 -37q-191 0 -305.5 121t-114.5 319q0 173 75.5 324t211 243.5t299.5 92.5q147 0 248 -74.5t135 -202.5h2l41 240h78l-164 -1026h-76l37 238h-2q-73 -127 -196.5 -201t-268.5 -74zM481 37q143 0 261.5 84t183.5 216.5t65 278.5
q0 167 -95.5 270t-254.5 103q-143 0 -261.5 -84t-183.5 -216.5t-65 -278.5q0 -167 95.5 -270t254.5 -103z" />
    <glyph glyph-name="Abreve" unicode="&#x102;" horiz-adv-x="1212" 
d="M782 1618q-116 0 -181 70.5t-46 177.5h63q-14 -80 34.5 -132.5t135.5 -52.5t152.5 52.5t79.5 132.5h67q-19 -108 -104.5 -178t-200.5 -70zM-61 0l759 1436h107l305 -1436h-86l-78 375h-723l-196 -375h-88zM262 451h672l-191 905h-4z" />
    <glyph glyph-name="abreve" unicode="&#x103;" horiz-adv-x="1163" 
d="M674 1227q-130 0 -201.5 82.5t-52.5 210.5h65q-17 -100 39.5 -166t159.5 -66q104 0 180.5 66t91.5 166h68q-20 -127 -119 -210t-231 -83zM473 -37q-191 0 -305.5 121t-114.5 319q0 173 75.5 324t211 243.5t299.5 92.5q147 0 248 -74.5t135 -202.5h2l41 240h78l-164 -1026
h-76l37 238h-2q-73 -127 -196.5 -201t-268.5 -74zM481 37q143 0 261.5 84t183.5 216.5t65 278.5q0 167 -95.5 270t-254.5 103q-143 0 -261.5 -84t-183.5 -216.5t-65 -278.5q0 -167 95.5 -270t254.5 -103z" />
    <glyph glyph-name="Aogonek" unicode="&#x104;" horiz-adv-x="1212" 
d="M1108 0q-77 -41 -120.5 -64.5t-94.5 -55.5t-77.5 -56t-46.5 -53t-24 -58q-5 -35 14 -56.5t54 -21.5q39 0 84 30.5t78 78.5l29 -53q-38 -52 -94 -84.5t-109 -32.5q-65 0 -98.5 38t-24.5 101q11 80 95 148.5t249 150.5l-76 363h-723l-196 -375h-88l759 1436h107l305 -1436
h-2zM262 451h672l-191 905h-4z" />
    <glyph glyph-name="aogonek" unicode="&#x105;" horiz-adv-x="1163" 
d="M979 0q-77 -41 -120.5 -64.5t-94.5 -55.5t-77.5 -56t-46.5 -53t-24 -58q-5 -35 14 -56.5t54 -21.5q39 0 84 30.5t78 78.5l28 -53q-38 -53 -94 -85t-108 -32q-65 0 -98.5 38t-24.5 101q11 82 97.5 151.5t260.5 155.5l33 218h-2q-73 -127 -196.5 -201t-268.5 -74
q-191 0 -305.5 121t-114.5 319q0 173 75.5 324t211 243.5t299.5 92.5q147 0 248 -74.5t135 -202.5h2l41 240h78zM481 37q143 0 261.5 84t183.5 216.5t65 278.5q0 167 -95.5 270t-254.5 103q-143 0 -261.5 -84t-183.5 -216.5t-65 -278.5q0 -167 95.5 -270t254.5 -103z" />
    <glyph glyph-name="Cacute" unicode="&#x106;" horiz-adv-x="1439" 
d="M889 1589l-45 39l223 250l45 -37zM684 -47q-270 0 -431 169.5t-161 446.5q0 139 35.5 273.5t104 249.5t160 203t211 138t249.5 50q218 0 352 -136t146 -382l-84 -11q-12 218 -122.5 336.5t-295.5 118.5q-116 0 -222.5 -47t-187.5 -128.5t-141 -187.5t-91.5 -228.5
t-31.5 -246.5q0 -246 139.5 -395t374.5 -149q107 0 212 44.5t188.5 118t146.5 169t92 198.5l76 -25q-44 -154 -150.5 -286t-258 -212.5t-310.5 -80.5z" />
    <glyph glyph-name="cacute" unicode="&#x107;" horiz-adv-x="1087" 
d="M672 1221l-43 39l264 290l45 -37zM496 -37q-205 0 -324 120t-119 323q0 172 70.5 322t201 242.5t291.5 92.5q164 0 265 -105.5t106 -273.5l-78 -10q-8 141 -88 229t-209 88q-105 0 -196.5 -50.5t-152 -132.5t-95.5 -186.5t-35 -213.5q0 -171 98.5 -272t268.5 -101
q149 0 273 101.5t177 262.5l74 -24q-62 -185 -206.5 -298.5t-321.5 -113.5z" />
    <glyph glyph-name="Ccircumflex" unicode="&#x108;" horiz-adv-x="1439" 
d="M649 1606l-41 47l258 213h101l190 -215l-49 -45l-195 219zM684 -47q-270 0 -431 169.5t-161 446.5q0 139 35.5 273.5t104 249.5t160 203t211 138t249.5 50q218 0 352 -136t146 -382l-84 -11q-12 218 -122.5 336.5t-295.5 118.5q-116 0 -222.5 -47t-187.5 -128.5
t-141 -187.5t-91.5 -228.5t-31.5 -246.5q0 -246 139.5 -395t374.5 -149q107 0 212 44.5t188.5 118t146.5 169t92 198.5l76 -25q-44 -154 -150.5 -286t-258 -212.5t-310.5 -80.5z" />
    <glyph glyph-name="ccircumflex" unicode="&#x109;" horiz-adv-x="1087" 
d="M373 1217l-41 47l313 256h100l232 -258l-49 -45l-238 260zM496 -37q-205 0 -324 120t-119 323q0 172 70.5 322t201 242.5t291.5 92.5q164 0 265 -105.5t106 -273.5l-78 -10q-8 141 -88 229t-209 88q-105 0 -196.5 -50.5t-152 -132.5t-95.5 -186.5t-35 -213.5
q0 -171 98.5 -272t268.5 -101q149 0 273 101.5t177 262.5l74 -24q-62 -185 -206.5 -298.5t-321.5 -113.5z" />
    <glyph glyph-name="Cdotaccent" unicode="&#x10a;" horiz-adv-x="1439" 
d="M885 1665q-29 0 -45.5 16t-16.5 43q0 36 25.5 60t58.5 24q28 0 45 -16t17 -43q0 -35 -25 -59.5t-59 -24.5zM684 -47q-270 0 -431 169.5t-161 446.5q0 139 35.5 273.5t104 249.5t160 203t211 138t249.5 50q218 0 352 -136t146 -382l-84 -11q-12 218 -122.5 336.5
t-295.5 118.5q-116 0 -222.5 -47t-187.5 -128.5t-141 -187.5t-91.5 -228.5t-31.5 -246.5q0 -246 139.5 -395t374.5 -149q107 0 212 44.5t188.5 118t146.5 169t92 198.5l76 -25q-44 -154 -150.5 -286t-258 -212.5t-310.5 -80.5z" />
    <glyph glyph-name="cdotaccent" unicode="&#x10b;" horiz-adv-x="1087" 
d="M653 1247q-29 0 -46 16t-17 42q0 36 25 60t61 24q28 0 44.5 -15.5t16.5 -42.5q0 -35 -25 -59.5t-59 -24.5zM496 -37q-205 0 -324 120t-119 323q0 172 70.5 322t201 242.5t291.5 92.5q164 0 265 -105.5t106 -273.5l-78 -10q-8 141 -88 229t-209 88q-105 0 -196.5 -50.5
t-152 -132.5t-95.5 -186.5t-35 -213.5q0 -171 98.5 -272t268.5 -101q149 0 273 101.5t177 262.5l74 -24q-62 -185 -206.5 -298.5t-321.5 -113.5z" />
    <glyph glyph-name="Ccaron" unicode="&#x10c;" horiz-adv-x="1439" 
d="M827 1618l-190 215l49 45l195 -217l262 217l43 -45l-258 -215h-101zM684 -47q-270 0 -431 169.5t-161 446.5q0 139 35.5 273.5t104 249.5t160 203t211 138t249.5 50q218 0 352 -136t146 -382l-84 -11q-12 218 -122.5 336.5t-295.5 118.5q-116 0 -222.5 -47t-187.5 -128.5
t-141 -187.5t-91.5 -228.5t-31.5 -246.5q0 -246 139.5 -395t374.5 -149q107 0 212 44.5t188.5 118t146.5 169t92 198.5l76 -25q-44 -154 -150.5 -286t-258 -212.5t-310.5 -80.5z" />
    <glyph glyph-name="ccaron" unicode="&#x10d;" horiz-adv-x="1087" 
d="M600 1247l-231 254l51 47l235 -260l320 260l39 -45l-314 -256h-100zM496 -37q-205 0 -324 120t-119 323q0 172 70.5 322t201 242.5t291.5 92.5q164 0 265 -105.5t106 -273.5l-78 -10q-8 141 -88 229t-209 88q-105 0 -196.5 -50.5t-152 -132.5t-95.5 -186.5t-35 -213.5
q0 -171 98.5 -272t268.5 -101q149 0 273 101.5t177 262.5l74 -24q-62 -185 -206.5 -298.5t-321.5 -113.5z" />
    <glyph glyph-name="Dcaron" unicode="&#x10e;" horiz-adv-x="1335" 
d="M752 1618l-191 215l49 45l195 -217l262 217l43 -45l-258 -215h-100zM41 0l227 1436h389q315 0 480.5 -153.5t165.5 -438.5q0 -398 -225.5 -621t-643.5 -223h-393zM137 76h305q375 0 576 202t201 562q0 251 -145.5 385.5t-424.5 134.5h-309z" />
    <glyph glyph-name="dcaron" unicode="&#x10f;" horiz-adv-x="1163" 
d="M473 -37q-191 0 -306.5 120.5t-115.5 319.5q0 173 76 324t212 243.5t300 92.5q146 0 246.5 -75t134.5 -202h2l115 711h80l-238 -1497h-76l35 238h-2q-72 -128 -195 -201.5t-268 -73.5zM1255 1153l2 49q72 -17 113.5 15.5t44.5 111.5q-33 -12 -59 11t-21 59
q3 26 23.5 42.5t48.5 16.5q40 0 56.5 -36.5t6.5 -102.5q-13 -99 -71 -142.5t-144 -23.5zM481 37q143 0 261.5 84t183.5 216.5t65 278.5q0 167 -95.5 270t-254.5 103q-143 0 -261.5 -84t-183.5 -216.5t-65 -278.5q0 -167 95.5 -270t254.5 -103z" />
    <glyph glyph-name="Dcroat" unicode="&#x110;" horiz-adv-x="1433" 
d="M756 1436q314 0 479.5 -153.5t165.5 -438.5q0 -398 -225.5 -621t-643.5 -223h-393l127 805h-270l8 61h272l91 570h389zM541 76q374 0 575 202t201 562q0 251 -145 385.5t-424 134.5h-310l-78 -494h428l-8 -61h-430l-117 -729h308z" />
    <glyph glyph-name="dcroat" unicode="&#x111;" horiz-adv-x="1196" 
d="M1395 1309l-9 -62h-208l-199 -1247h-76l35 238h-2q-72 -128 -195 -201.5t-268 -73.5q-191 0 -306.5 120.5t-115.5 319.5q0 173 76 324t212 243.5t300 92.5q146 0 246.5 -75t134.5 -202h2l74 461h-457l8 62h459l31 188h80l-31 -188h209zM481 37q143 0 261.5 84
t183.5 216.5t65 278.5q0 167 -95.5 270t-254.5 103q-143 0 -261.5 -84t-183.5 -216.5t-65 -278.5q0 -167 95.5 -270t254.5 -103z" />
    <glyph glyph-name="Emacron" unicode="&#x112;" horiz-adv-x="1091" 
d="M498 1622l10 57h532l-10 -57h-532zM41 0l227 1436h899l-8 -76h-821l-90 -576h735l-10 -73h-737l-101 -635h834l-11 -76h-917z" />
    <glyph glyph-name="emacron" unicode="&#x113;" horiz-adv-x="1093" 
d="M385 1212l10 58h533l-10 -58h-533zM508 -37q-206 0 -330.5 123.5t-124.5 323.5q0 170 73 319t206 241.5t293 92.5q183 0 286 -122.5t103 -326.5q0 -71 -13 -131h-864q-20 -203 83 -325.5t292 -122.5q129 0 247 70t183 182l66 -41q-76 -129 -212.5 -206t-287.5 -77z
M150 553h784q18 194 -67 315t-249 121q-168 0 -298 -121t-170 -315z" />
    <glyph glyph-name="Ebreve" unicode="&#x114;" horiz-adv-x="1091" 
d="M768 1618q-116 0 -181 70.5t-46 177.5h63q-14 -80 34.5 -132.5t135.5 -52.5t152.5 52.5t79.5 132.5h67q-19 -108 -104.5 -178t-200.5 -70zM41 0l227 1436h899l-8 -76h-821l-90 -576h735l-10 -73h-737l-101 -635h834l-11 -76h-917z" />
    <glyph glyph-name="ebreve" unicode="&#x115;" horiz-adv-x="1093" 
d="M653 1227q-130 0 -201.5 82.5t-52.5 210.5h66q-17 -100 39.5 -166t159.5 -66q104 0 180.5 66t91.5 166h68q-20 -127 -119.5 -210t-231.5 -83zM508 -37q-206 0 -330.5 123.5t-124.5 323.5q0 170 73 319t206 241.5t293 92.5q183 0 286 -122.5t103 -326.5q0 -71 -13 -131
h-864q-20 -203 83 -325.5t292 -122.5q129 0 247 70t183 182l66 -41q-76 -129 -212.5 -206t-287.5 -77zM150 553h784q18 194 -67 315t-249 121q-168 0 -298 -121t-170 -315z" />
    <glyph glyph-name="Edotaccent" unicode="&#x116;" horiz-adv-x="1091" 
d="M774 1665q-29 0 -45 16t-16 43q0 36 25.5 60t58.5 24q28 0 44.5 -15.5t16.5 -43.5q0 -35 -25 -59.5t-59 -24.5zM41 0l227 1436h899l-8 -76h-821l-90 -576h735l-10 -73h-737l-101 -635h834l-11 -76h-917z" />
    <glyph glyph-name="edotaccent" unicode="&#x117;" horiz-adv-x="1093" 
d="M659 1247q-29 0 -46 16t-17 42q0 36 25 60t61 24q28 0 44.5 -15.5t16.5 -42.5q0 -35 -25 -59.5t-59 -24.5zM508 -37q-206 0 -330.5 123.5t-124.5 323.5q0 170 73 319t206 241.5t293 92.5q183 0 286 -122.5t103 -326.5q0 -71 -13 -131h-864q-20 -203 83 -325.5t292 -122.5
q129 0 247 70t183 182l66 -41q-76 -129 -212.5 -206t-287.5 -77zM150 553h784q18 194 -67 315t-249 121q-168 0 -298 -121t-170 -315z" />
    <glyph glyph-name="Eogonek" unicode="&#x118;" horiz-adv-x="1091" 
d="M1159 1360h-821l-90 -576h735l-10 -73h-737l-101 -635h834l-11 -76q-77 -40 -120.5 -64t-94.5 -56t-77 -56t-46 -53t-24 -58q-5 -35 14 -56.5t54 -21.5q39 0 83.5 30.5t77.5 78.5l29 -53q-38 -52 -94 -84.5t-109 -32.5q-65 0 -98.5 38t-24.5 101q11 77 88.5 142.5
t229.5 144.5h-805l227 1436h899z" />
    <glyph glyph-name="eogonek" unicode="&#x119;" horiz-adv-x="1093" 
d="M512 35q129 0 247 70t183 182l66 -41q-52 -87 -134.5 -152.5t-179.5 -97.5q-183 -97 -262.5 -156.5t-89.5 -126.5q-5 -35 14 -56.5t54 -21.5q39 0 83.5 30.5t77.5 78.5l29 -53q-38 -52 -94 -84.5t-109 -32.5q-65 0 -98.5 38t-24.5 101q10 67 71.5 125.5t178.5 124.5h-16
q-206 0 -330.5 123.5t-124.5 323.5q0 170 73 319t206 241.5t293 92.5q183 0 286 -122.5t103 -326.5q0 -71 -13 -131h-864q-20 -203 83 -325.5t292 -122.5zM618 989q-168 0 -298 -121t-170 -315h784q18 194 -67 315t-249 121z" />
    <glyph glyph-name="Ecaron" unicode="&#x11a;" horiz-adv-x="1091" 
d="M717 1618l-191 215l49 45l195 -217l262 217l43 -45l-258 -215h-100zM41 0l227 1436h899l-8 -76h-821l-90 -576h735l-10 -73h-737l-101 -635h834l-11 -76h-917z" />
    <glyph glyph-name="ecaron" unicode="&#x11b;" horiz-adv-x="1093" 
d="M606 1247l-231 254l51 47l236 -260l319 260l39 -45l-313 -256h-101zM508 -37q-206 0 -330.5 123.5t-124.5 323.5q0 170 73 319t206 241.5t293 92.5q183 0 286 -122.5t103 -326.5q0 -71 -13 -131h-864q-20 -203 83 -325.5t292 -122.5q129 0 247 70t183 182l66 -41
q-76 -129 -212.5 -206t-287.5 -77zM150 553h784q18 194 -67 315t-249 121q-168 0 -298 -121t-170 -315z" />
    <glyph glyph-name="Gcircumflex" unicode="&#x11c;" horiz-adv-x="1538" 
d="M680 1606l-41 47l258 213h100l191 -215l-49 -45l-195 219zM682 -47q-270 0 -430 167.5t-160 442.5q0 180 59.5 347.5t162.5 294t253.5 202.5t321.5 76q207 0 346 -126t164 -329l-76 -14q-22 177 -142.5 286t-297.5 109q-122 0 -233.5 -46t-197 -127t-149 -187
t-96.5 -229.5t-33 -250.5q0 -242 139.5 -392t376.5 -150q175 0 327.5 87.5t254.5 243.5t133 351l-924 -2l11 75h1007l-125 -782h-78l56 365h-2q-108 -193 -283.5 -302.5t-384.5 -109.5z" />
    <glyph glyph-name="gcircumflex" unicode="&#x11d;" horiz-adv-x="1169" 
d="M408 1217l-41 47l313 256h100l232 -258l-49 -45l-238 260zM379 -467q-173 0 -314.5 84t-191.5 215l76 43q41 -118 162.5 -194t269.5 -76q211 0 355.5 119t183.5 346l28 174h-2q-47 -89 -126.5 -154t-165.5 -95t-171 -30q-192 0 -307 121.5t-115 319.5q0 172 75.5 322.5
t211 242.5t299.5 92q132 0 240 -74.5t143 -191.5h2l41 229h76l-154 -960q-40 -260 -206.5 -396.5t-409.5 -136.5zM489 39q142 0 260.5 84t183 216.5t64.5 278.5q0 166 -95 269.5t-253 103.5q-142 0 -260 -84t-183 -217t-65 -280q0 -165 95.5 -268t252.5 -103z" />
    <glyph glyph-name="Gbreve" unicode="&#x11e;" horiz-adv-x="1538" 
d="M909 1618q-116 0 -181 70.5t-46 177.5h63q-14 -80 34.5 -132.5t135.5 -52.5t152.5 52.5t79.5 132.5h67q-19 -108 -104.5 -178t-200.5 -70zM682 -47q-270 0 -430 167.5t-160 442.5q0 180 59.5 347.5t162.5 294t253.5 202.5t321.5 76q207 0 346 -126t164 -329l-76 -14
q-22 177 -142.5 286t-297.5 109q-122 0 -233.5 -46t-197 -127t-149 -187t-96.5 -229.5t-33 -250.5q0 -242 139.5 -392t376.5 -150q175 0 327.5 87.5t254.5 243.5t133 351l-924 -2l11 75h1007l-125 -782h-78l56 365h-2q-108 -193 -283.5 -302.5t-384.5 -109.5z" />
    <glyph glyph-name="gbreve" unicode="&#x11f;" horiz-adv-x="1169" 
d="M680 1227q-130 0 -201.5 82.5t-52.5 210.5h66q-17 -100 39 -166t159 -66q104 0 181 66t92 166h67q-20 -127 -119 -210t-231 -83zM379 -467q-173 0 -314.5 84t-191.5 215l76 43q41 -118 162.5 -194t269.5 -76q211 0 355.5 119t183.5 346l28 174h-2q-47 -89 -126.5 -154
t-165.5 -95t-171 -30q-192 0 -307 121.5t-115 319.5q0 172 75.5 322.5t211 242.5t299.5 92q132 0 240 -74.5t143 -191.5h2l41 229h76l-154 -960q-40 -260 -206.5 -396.5t-409.5 -136.5zM489 39q142 0 260.5 84t183 216.5t64.5 278.5q0 166 -95 269.5t-253 103.5
q-142 0 -260 -84t-183 -217t-65 -280q0 -165 95.5 -268t252.5 -103z" />
    <glyph glyph-name="Gdotaccent" unicode="&#x120;" horiz-adv-x="1538" 
d="M918 1665q-29 0 -45.5 16t-16.5 43q0 36 25.5 60t58.5 24q28 0 44.5 -15.5t16.5 -43.5q0 -35 -24.5 -59.5t-58.5 -24.5zM682 -47q-270 0 -430 167.5t-160 442.5q0 180 59.5 347.5t162.5 294t253.5 202.5t321.5 76q207 0 346 -126t164 -329l-76 -14q-22 177 -142.5 286
t-297.5 109q-122 0 -233.5 -46t-197 -127t-149 -187t-96.5 -229.5t-33 -250.5q0 -242 139.5 -392t376.5 -150q175 0 327.5 87.5t254.5 243.5t133 351l-924 -2l11 75h1007l-125 -782h-78l56 365h-2q-108 -193 -283.5 -302.5t-384.5 -109.5z" />
    <glyph glyph-name="gdotaccent" unicode="&#x121;" horiz-adv-x="1169" 
d="M688 1247q-29 0 -46 16t-17 42q0 36 25 60t61 24q28 0 44.5 -15.5t16.5 -42.5q0 -35 -25 -59.5t-59 -24.5zM379 -467q-173 0 -314.5 84t-191.5 215l76 43q41 -118 162.5 -194t269.5 -76q211 0 355.5 119t183.5 346l28 174h-2q-47 -89 -126.5 -154t-165.5 -95t-171 -30
q-192 0 -307 121.5t-115 319.5q0 172 75.5 322.5t211 242.5t299.5 92q132 0 240 -74.5t143 -191.5h2l41 229h76l-154 -960q-40 -260 -206.5 -396.5t-409.5 -136.5zM489 39q142 0 260.5 84t183 216.5t64.5 278.5q0 166 -95 269.5t-253 103.5q-142 0 -260 -84t-183 -217
t-65 -280q0 -165 95.5 -268t252.5 -103z" />
    <glyph glyph-name="uni0122" unicode="&#x122;" horiz-adv-x="1538" 
d="M682 -47q-270 0 -430 167.5t-160 442.5q0 180 59.5 347.5t162.5 294t253.5 202.5t321.5 76q207 0 346 -126t164 -329l-76 -14q-22 177 -142.5 286t-297.5 109q-122 0 -233.5 -46t-197 -127t-149 -187t-96.5 -229.5t-33 -250.5q0 -242 139.5 -392t376.5 -150
q175 0 327.5 87.5t254.5 243.5t133 351l-924 -2l11 75h1007l-125 -782h-78l56 365h-2q-108 -193 -283.5 -302.5t-384.5 -109.5zM508 -487l2 49q71 -17 112 15.5t44 111.5q-34 -12 -59.5 10t-20.5 59q4 26 24.5 43t46.5 17q40 0 57.5 -37.5t8.5 -104.5q-15 -97 -73 -140
t-142 -23z" />
    <glyph glyph-name="uni0123" unicode="&#x123;" horiz-adv-x="1169" 
d="M834 1513v-49q-72 17 -113.5 -15.5t-44.5 -111.5q34 12 59.5 -10t20.5 -59q-4 -26 -25 -43t-47 -17q-40 0 -57.5 37.5t-8.5 104.5q15 97 73.5 140t142.5 23zM379 -467q-173 0 -314.5 84t-191.5 215l76 43q41 -118 162.5 -194t269.5 -76q211 0 355.5 119t183.5 346l28 174
h-2q-47 -89 -126.5 -154t-165.5 -95t-171 -30q-192 0 -307 121.5t-115 319.5q0 172 75.5 322.5t211 242.5t299.5 92q132 0 240 -74.5t143 -191.5h2l41 229h76l-154 -960q-40 -260 -206.5 -396.5t-409.5 -136.5zM489 39q142 0 260.5 84t183 216.5t64.5 278.5q0 166 -95 269.5
t-253 103.5q-142 0 -260 -84t-183 -217t-65 -280q0 -165 95.5 -268t252.5 -103z" />
    <glyph glyph-name="Itilde" unicode="&#x128;" horiz-adv-x="327" 
d="M438 1597q-48 0 -71 36t-37 96q-17 73 -31 89q-9 11 -23 11q-33 0 -60.5 -59t-41.5 -152h-59q43 272 168 272q25 0 43.5 -11t30 -33t18 -41t12.5 -48q16 -70 28 -84q10 -14 25 -14q34 0 62.5 59.5t42.5 153.5h59q-22 -132 -61 -203.5t-105 -71.5zM41 0l227 1436h82
l-227 -1436h-82z" />
    <glyph glyph-name="itilde" unicode="&#x129;" horiz-adv-x="284" 
d="M354 1208q-46 0 -68.5 33t-35.5 90q-2 8 -5.5 22.5t-6 22.5t-6 20t-7 18.5t-8.5 13t-11 9.5t-13 3q-33 0 -60 -58.5t-43 -152.5h-59q46 272 168 272q31 0 52.5 -20t31 -44.5t16.5 -60.5q19 -75 31 -91q13 -14 28 -15q35 0 62 58.5t41 154.5h59q-43 -275 -166 -275zM20 0
l164 1026h80l-164 -1026h-80z" />
    <glyph glyph-name="Imacron" unicode="&#x12a;" horiz-adv-x="327" 
d="M193 1610l10 57h289l-9 -57h-290zM41 0l227 1436h82l-227 -1436h-82z" />
    <glyph glyph-name="imacron" unicode="&#x12b;" horiz-adv-x="284" 
d="M117 1217l8 59h274l-8 -59h-274zM20 0l164 1026h80l-164 -1026h-80z" />
    <glyph glyph-name="Iogonek" unicode="&#x12e;" horiz-adv-x="327" 
d="M123 0q-77 -41 -120.5 -64.5t-94.5 -55.5t-77.5 -56t-46.5 -53t-24 -58q-5 -35 14 -56.5t54 -21.5q39 0 84 30.5t78 78.5l28 -53q-38 -53 -94 -85t-108 -32q-65 0 -98.5 38t-24.5 101q11 81 96 150t254 153l225 1420h82z" />
    <glyph glyph-name="iogonek" unicode="&#x12f;" horiz-adv-x="284" 
d="M289 1389q28 0 45.5 -17t17.5 -45q0 -34 -23 -57t-55 -23q-30 0 -47.5 17t-17.5 45q0 34 23 57t57 23zM33 18l162 1008h79l-163 -1026q-77 -41 -120.5 -64.5t-94.5 -55.5t-77.5 -56t-46.5 -53t-24 -58q-5 -35 14 -56.5t54 -21.5q39 0 83.5 30.5t77.5 78.5l29 -53
q-38 -53 -93.5 -85t-109.5 -32q-64 0 -96.5 38t-23.5 101q10 81 94.5 149.5t255.5 155.5z" />
    <glyph glyph-name="Idotaccent" unicode="&#x130;" horiz-adv-x="327" 
d="M348 1665q-29 0 -45 16t-16 43q0 36 25.5 60t58.5 24q28 0 44.5 -15.5t16.5 -43.5q0 -35 -25 -59.5t-59 -24.5zM41 0l227 1436h82l-227 -1436h-82z" />
    <glyph glyph-name="dotlessi" unicode="&#x131;" horiz-adv-x="284" 
d="M20 0l164 1026h80l-164 -1026h-80z" />
    <glyph glyph-name="IJ" unicode="&#x132;" horiz-adv-x="1202" 
d="M41 0l227 1436h82l-227 -1436h-82zM674 -39q-141 0 -237.5 90t-104.5 225l78 21q5 -106 78 -183t184 -77q132 0 212 74t107 241l172 1084h82l-172 -1094q-60 -381 -399 -381z" />
    <glyph glyph-name="ij" unicode="&#x133;" horiz-adv-x="604" 
d="M274 1247q-30 0 -47.5 17t-17.5 45q0 34 23 57t57 23q28 0 45.5 -17t17.5 -45q0 -34 -23 -57t-55 -23zM571 1247q-29 0 -47 17t-18 45q0 36 22.5 58t55.5 22q29 0 46 -17t17 -45q0 -34 -22 -57t-54 -23zM90 -467q-67 0 -129 27l19 71q52 -22 106 -22q83 0 140 48.5
t69 127.5l197 1241h79l-198 -1249q-19 -113 -95 -178.5t-188 -65.5zM31 0l164 1026h79l-163 -1026h-80z" />
    <glyph glyph-name="uni0136" unicode="&#x136;" horiz-adv-x="993" 
d="M41 0l227 1436h82l-112 -707h2l753 707h111l-608 -570l395 -866h-94l-365 805l-211 -193l-98 -612h-82zM274 -487l2 49q71 -17 112 15.5t44 111.5q-34 -12 -59.5 10t-20.5 59q4 26 25 43t47 17q40 0 57 -37.5t8 -104.5q-15 -97 -73 -140t-142 -23z" />
    <glyph glyph-name="uni0137" unicode="&#x137;" horiz-adv-x="808" 
d="M20 0l238 1497h80l-152 -946h2l570 475h114l-456 -383l311 -643h-92l-285 590l-178 -148l-72 -442h-80zM164 -487l2 49q71 -17 112 15.5t44 111.5q-34 -12 -59.5 10t-20.5 59q4 26 24.5 43t46.5 17q40 0 57.5 -37.5t8.5 -104.5q-15 -97 -73 -140t-142 -23z" />
    <glyph glyph-name="Lacute" unicode="&#x139;" horiz-adv-x="960" 
d="M350 1589l-45 39l223 250l45 -37zM41 0l227 1436h82l-213 -1360h731l-10 -76h-817z" />
    <glyph glyph-name="lacute" unicode="&#x13a;" horiz-adv-x="284" 
d="M330 1589l-45 39l223 250l45 -37zM20 0l238 1497h80l-238 -1497h-80z" />
    <glyph glyph-name="uni013B" unicode="&#x13b;" horiz-adv-x="960" 
d="M41 0l227 1436h82l-213 -1360h731l-10 -76h-817zM276 -487l3 49q71 -17 111.5 15.5t43.5 111.5q-34 -12 -59.5 10t-20.5 59q4 26 25 43t47 17q40 0 57.5 -37.5t8.5 -104.5q-15 -97 -73.5 -140t-142.5 -23z" />
    <glyph glyph-name="uni013C" unicode="&#x13c;" horiz-adv-x="284" 
d="M20 0l238 1497h80l-238 -1497h-80zM-123 -487l2 49q71 -17 112 15.5t44 111.5q-34 -12 -59.5 10t-20.5 59q4 26 25 43t47 17q40 0 57 -37.5t8 -104.5q-15 -97 -73 -140t-142 -23z" />
    <glyph glyph-name="Lcaron" unicode="&#x13d;" horiz-adv-x="960" 
d="M518 1153l2 49q72 -17 113.5 15.5t44.5 111.5q-33 -12 -59 11t-21 59q3 26 23.5 42.5t48.5 16.5q40 0 56.5 -36.5t6.5 -102.5q-13 -99 -71 -142.5t-144 -23.5zM41 0l227 1436h82l-213 -1360h731l-10 -76h-817z" />
    <glyph glyph-name="lcaron" unicode="&#x13e;" horiz-adv-x="284" 
d="M20 0l238 1497h80l-238 -1497h-80zM377 1153l2 49q72 -17 113.5 15.5t44.5 111.5q-33 -12 -59 11t-21 59q3 26 23 42.5t48 16.5q40 0 57 -36.5t7 -102.5q-13 -99 -71 -142.5t-144 -23.5z" />
    <glyph glyph-name="Lslash" unicode="&#x141;" horiz-adv-x="1048" 
d="M223 76h731l-8 -76h-817l100 637l-196 -115l-33 56l244 141l112 717h82l-104 -664l463 270l30 -55l-508 -297z" />
    <glyph glyph-name="lslash" unicode="&#x142;" horiz-adv-x="731" 
d="M731 1020l-338 -221l-127 -799h-80l117 741l-268 -176l-35 56l317 206l107 670h80l-96 -610l288 188z" />
    <glyph glyph-name="Nacute" unicode="&#x143;" horiz-adv-x="1239" 
d="M825 1589l-45 39l224 250l45 -37zM41 0l227 1436h127l568 -1348h4l213 1348h82l-228 -1436h-125l-567 1348h-4l-215 -1348h-82z" />
    <glyph glyph-name="nacute" unicode="&#x144;" 
d="M672 1221l-43 39l264 290l45 -37zM653 1063q170 0 251.5 -99t53.5 -272l-110 -692h-80l111 696q23 138 -40.5 216.5t-199.5 78.5q-165 0 -289 -103t-149 -259l-101 -629h-80l164 1026h76l-27 -180h3q63 104 173 160.5t244 56.5z" />
    <glyph glyph-name="uni0145" unicode="&#x145;" horiz-adv-x="1239" 
d="M41 0l227 1436h127l568 -1348h4l213 1348h82l-228 -1436h-125l-567 1348h-4l-215 -1348h-82zM356 -487l2 49q71 -17 112 15.5t44 111.5q-34 -12 -59.5 10t-20.5 59q4 26 25 43t47 17q40 0 57 -37.5t8 -104.5q-15 -97 -73 -140t-142 -23z" />
    <glyph glyph-name="uni0146" unicode="&#x146;" 
d="M653 1063q170 0 251.5 -99t53.5 -272l-110 -692h-80l111 696q23 138 -40.5 216.5t-199.5 78.5q-165 0 -289 -103t-149 -259l-101 -629h-80l164 1026h76l-27 -180h3q63 104 173 160.5t244 56.5zM264 -487l2 49q71 -17 112 15.5t44 111.5q-34 -12 -59.5 10t-20.5 59
q4 26 25 43t47 17q40 0 57 -37.5t8 -104.5q-15 -97 -73 -140t-142 -23z" />
    <glyph glyph-name="Ncaron" unicode="&#x147;" horiz-adv-x="1239" 
d="M764 1618l-191 215l50 45l194 -217l262 217l43 -45l-258 -215h-100zM41 0l227 1436h127l568 -1348h4l213 1348h82l-228 -1436h-125l-567 1348h-4l-215 -1348h-82z" />
    <glyph glyph-name="ncaron" unicode="&#x148;" 
d="M598 1247l-231 254l51 47l235 -260l320 260l39 -45l-314 -256h-100zM653 1063q170 0 251.5 -99t53.5 -272l-110 -692h-80l111 696q23 138 -40.5 216.5t-199.5 78.5q-165 0 -289 -103t-149 -259l-101 -629h-80l164 1026h76l-27 -180h3q63 104 173 160.5t244 56.5z" />
    <glyph glyph-name="Omacron" unicode="&#x14c;" horiz-adv-x="1562" 
d="M690 1622l10 57h533l-10 -57h-533zM698 -47q-283 0 -444.5 161.5t-161.5 440.5q0 253 104.5 464t297.5 336.5t436 125.5q285 0 446.5 -161.5t161.5 -440.5q0 -150 -39.5 -289.5t-114 -254.5t-176 -201t-233 -133.5t-277.5 -47.5zM700 27q165 0 308 69.5t240 185.5
t152.5 270t55.5 322q0 247 -141 391t-389 144q-132 0 -250.5 -44.5t-209 -124.5t-157 -186t-101 -233t-34.5 -262q0 -247 140 -389.5t386 -142.5z" />
    <glyph glyph-name="omacron" unicode="&#x14d;" horiz-adv-x="1126" 
d="M408 1212l10 58h532l-10 -58h-532zM481 -37q-200 0 -315 116t-115 316q0 134 43.5 256t120 213t188.5 145t242 54q200 0 315 -116t115 -316q0 -134 -43.5 -256t-120 -213t-188.5 -145t-242 -54zM483 35q149 0 267.5 84t180.5 218t62 290q0 168 -93 265t-257 97
q-150 0 -269 -83.5t-181 -217t-62 -289.5q0 -168 93.5 -266t258.5 -98z" />
    <glyph glyph-name="Obreve" unicode="&#x14e;" horiz-adv-x="1562" 
d="M958 1618q-116 0 -181 70.5t-46 177.5h64q-14 -80 34.5 -132.5t135.5 -52.5t152 52.5t79 132.5h68q-19 -108 -105 -178t-201 -70zM698 -47q-283 0 -444.5 161.5t-161.5 440.5q0 253 104.5 464t297.5 336.5t436 125.5q285 0 446.5 -161.5t161.5 -440.5
q0 -150 -39.5 -289.5t-114 -254.5t-176 -201t-233 -133.5t-277.5 -47.5zM700 27q165 0 308 69.5t240 185.5t152.5 270t55.5 322q0 247 -141 391t-389 144q-132 0 -250.5 -44.5t-209 -124.5t-157 -186t-101 -233t-34.5 -262q0 -247 140 -389.5t386 -142.5z" />
    <glyph glyph-name="obreve" unicode="&#x14f;" horiz-adv-x="1126" 
d="M676 1227q-130 0 -201.5 82.5t-52.5 210.5h65q-17 -100 39.5 -166t159.5 -66q104 0 180.5 66t91.5 166h68q-20 -127 -119 -210t-231 -83zM481 -37q-200 0 -315 116t-115 316q0 134 43.5 256t120 213t188.5 145t242 54q200 0 315 -116t115 -316q0 -134 -43.5 -256
t-120 -213t-188.5 -145t-242 -54zM483 35q149 0 267.5 84t180.5 218t62 290q0 168 -93 265t-257 97q-150 0 -269 -83.5t-181 -217t-62 -289.5q0 -168 93.5 -266t258.5 -98z" />
    <glyph glyph-name="Ohungarumlaut" unicode="&#x150;" horiz-adv-x="1562" 
d="M817 1550l-45 39l223 250l45 -37zM1124 1550l-45 39l224 250l45 -37zM698 -47q-283 0 -444.5 161.5t-161.5 440.5q0 253 104.5 464t297.5 336.5t436 125.5q285 0 446.5 -161.5t161.5 -440.5q0 -150 -39.5 -289.5t-114 -254.5t-176 -201t-233 -133.5t-277.5 -47.5zM700 27
q165 0 308 69.5t240 185.5t152.5 270t55.5 322q0 247 -141 391t-389 144q-132 0 -250.5 -44.5t-209 -124.5t-157 -186t-101 -233t-34.5 -262q0 -247 140 -389.5t386 -142.5z" />
    <glyph glyph-name="ohungarumlaut" unicode="&#x151;" horiz-adv-x="1126" 
d="M549 1221l-43 39l264 290l45 -37zM856 1221l-43 39l262 290l47 -37zM481 -37q-200 0 -315 116t-115 316q0 134 43.5 256t120 213t188.5 145t242 54q200 0 315 -116t115 -316q0 -134 -43.5 -256t-120 -213t-188.5 -145t-242 -54zM483 35q149 0 267.5 84t180.5 218t62 290
q0 168 -93 265t-257 97q-150 0 -269 -83.5t-181 -217t-62 -289.5q0 -168 93.5 -266t258.5 -98z" />
    <glyph glyph-name="OE" unicode="&#x152;" horiz-adv-x="1923" 
d="M690 -47q-323 0 -483 209.5t-105 560.5q57 347 281.5 553.5t544.5 206.5q129 0 239 -47h834l-12 -76h-760l-96 -594h677l-10 -74h-680l-98 -616h778l-10 -76h-850q-126 -47 -250 -47zM694 29q134 0 244 47l211 1284q-96 47 -221 47q-287 0 -490 -189.5t-254 -504.5
q-51 -312 88 -498t422 -186z" />
    <glyph glyph-name="oe" unicode="&#x153;" horiz-adv-x="2019" 
d="M1925 483h-864q-25 -196 81.5 -322t295.5 -126q125 0 244 69.5t188 176.5l65 -37q-80 -128 -217 -204.5t-286 -76.5q-172 0 -288.5 88t-152.5 240q-77 -152 -213.5 -240t-300.5 -88q-224 0 -341 154.5t-77 400.5q40 242 202.5 393.5t383.5 151.5q164 0 272.5 -86
t141.5 -236q76 149 207 235.5t286 86.5q134 0 230 -73t135.5 -196t17.5 -272q-1 -5 -4.5 -19.5t-5.5 -19.5zM479 35q188 0 329 135.5t175 347.5q34 206 -61.5 338.5t-280.5 132.5q-187 0 -327.5 -135t-174.5 -346q-34 -206 61 -339.5t279 -133.5zM1548 985
q-168 0 -299.5 -120.5t-173.5 -307.5h783q19 191 -67 309.5t-243 118.5z" />
    <glyph glyph-name="Racute" unicode="&#x154;" horiz-adv-x="1265" 
d="M774 1589l-45 39l223 250l45 -37zM1014 -39q-124 0 -135 168l-33 303q-17 213 -203 213h-418l-102 -645h-82l227 1436h576q191 0 294 -90.5t103 -245.5q0 -169 -118.5 -290.5t-301.5 -152.5v-2q94 -61 107 -227l30 -293q3 -50 16.5 -73t47.5 -23q62 0 125 78l47 -58
q-78 -98 -180 -98zM238 721h493q179 0 303.5 108.5t124.5 266.5q0 122 -83 193t-240 71h-494z" />
    <glyph glyph-name="racute" unicode="&#x155;" horiz-adv-x="780" 
d="M551 1221l-43 39l264 290l45 -37zM539 1063q120 0 183.5 -81.5t51.5 -246.5l-78 -20q20 276 -170 276q-120 0 -211 -108t-118 -277l-97 -606h-80l164 1026h74l-22 -156h2q53 91 132 142t169 51z" />
    <glyph glyph-name="uni0156" unicode="&#x156;" horiz-adv-x="1265" 
d="M1014 -39q-124 0 -135 168l-33 303q-17 213 -203 213h-418l-102 -645h-82l227 1436h576q191 0 294 -90.5t103 -245.5q0 -169 -118.5 -290.5t-301.5 -152.5v-2q94 -61 107 -227l30 -293q3 -50 16.5 -73t47.5 -23q62 0 125 78l47 -58q-78 -98 -180 -98zM238 721h493
q179 0 303.5 108.5t124.5 266.5q0 122 -83 193t-240 71h-494zM342 -487l2 49q71 -17 112 15.5t44 111.5q-34 -12 -59.5 10t-20.5 59q4 26 25 43t47 17q40 0 57 -37.5t8 -104.5q-15 -97 -73 -140t-142 -23z" />
    <glyph glyph-name="uni0157" unicode="&#x157;" horiz-adv-x="780" 
d="M539 1063q120 0 183.5 -81.5t51.5 -246.5l-78 -20q20 276 -170 276q-120 0 -211 -108t-118 -277l-97 -606h-80l164 1026h74l-22 -156h2q53 91 132 142t169 51zM-123 -487l2 49q71 -17 112 15.5t44 111.5q-34 -12 -59.5 10t-20.5 59q4 26 25 43t47 17q40 0 57 -37.5
t8 -104.5q-15 -97 -73 -140t-142 -23z" />
    <glyph glyph-name="Rcaron" unicode="&#x158;" horiz-adv-x="1265" 
d="M713 1618l-191 215l49 45l195 -217l262 217l43 -45l-258 -215h-100zM1014 -39q-124 0 -135 168l-33 303q-17 213 -203 213h-418l-102 -645h-82l227 1436h576q191 0 294 -90.5t103 -245.5q0 -169 -118.5 -290.5t-301.5 -152.5v-2q94 -61 107 -227l30 -293q3 -50 16.5 -73
t47.5 -23q62 0 125 78l47 -58q-78 -98 -180 -98zM238 721h493q179 0 303.5 108.5t124.5 266.5q0 122 -83 193t-240 71h-494z" />
    <glyph glyph-name="rcaron" unicode="&#x159;" horiz-adv-x="780" 
d="M477 1247l-231 254l51 47l235 -260l320 260l39 -45l-313 -256h-101zM539 1063q120 0 183.5 -81.5t51.5 -246.5l-78 -20q20 276 -170 276q-120 0 -211 -108t-118 -277l-97 -606h-80l164 1026h74l-22 -156h2q53 91 132 142t169 51z" />
    <glyph glyph-name="Sacute" unicode="&#x15a;" horiz-adv-x="1144" 
d="M733 1589l-45 39l223 250l45 -37zM553 -47q-239 0 -385.5 136t-140.5 370l82 12q-7 -206 117.5 -322t330.5 -116q199 0 318.5 88t119.5 246q0 106 -67.5 178t-218.5 129l-189 74q-162 62 -235.5 143t-73.5 199q0 181 127.5 287t325.5 106q200 0 316 -113.5t116 -306.5
l-80 -12q0 164 -95 258t-262 94q-166 0 -264 -84.5t-98 -218.5q0 -96 62 -162t200 -119l186 -71q172 -68 252 -157t80 -216q0 -203 -146 -312.5t-378 -109.5z" />
    <glyph glyph-name="sacute" unicode="&#x15b;" horiz-adv-x="876" 
d="M559 1221l-43 39l264 290l45 -37zM406 -37q-183 0 -293.5 95t-104.5 255l80 17q-10 -133 77.5 -212t242.5 -79q131 0 219 61.5t88 165.5q0 63 -45 108t-138 83l-172 67q-107 42 -165 100t-58 146q0 128 99 210.5t249 82.5q141 0 227 -79.5t89 -213.5l-80 -18
q3 108 -61.5 171.5t-178.5 63.5q-116 0 -189 -58.5t-73 -150.5q0 -64 45 -108t133 -80l168 -66q114 -45 171 -105t57 -149q0 -140 -112 -223.5t-275 -83.5z" />
    <glyph glyph-name="Scircumflex" unicode="&#x15c;" horiz-adv-x="1144" 
d="M494 1606l-41 47l258 213h100l190 -215l-49 -45l-194 219zM553 -47q-239 0 -385.5 136t-140.5 370l82 12q-7 -206 117.5 -322t330.5 -116q199 0 318.5 88t119.5 246q0 106 -67.5 178t-218.5 129l-189 74q-162 62 -235.5 143t-73.5 199q0 181 127.5 287t325.5 106
q200 0 316 -113.5t116 -306.5l-80 -12q0 164 -95 258t-262 94q-166 0 -264 -84.5t-98 -218.5q0 -96 62 -162t200 -119l186 -71q172 -68 252 -157t80 -216q0 -203 -146 -312.5t-378 -109.5z" />
    <glyph glyph-name="scircumflex" unicode="&#x15d;" horiz-adv-x="876" 
d="M260 1217l-41 47l313 256h101l231 -258l-49 -45l-237 260zM406 -37q-183 0 -293.5 95t-104.5 255l80 17q-10 -133 77.5 -212t242.5 -79q131 0 219 61.5t88 165.5q0 63 -45 108t-138 83l-172 67q-107 42 -165 100t-58 146q0 128 99 210.5t249 82.5q141 0 227 -79.5
t89 -213.5l-80 -18q3 108 -61.5 171.5t-178.5 63.5q-116 0 -189 -58.5t-73 -150.5q0 -64 45 -108t133 -80l168 -66q114 -45 171 -105t57 -149q0 -140 -112 -223.5t-275 -83.5z" />
    <glyph glyph-name="Scedilla" unicode="&#x15e;" horiz-adv-x="1144" 
d="M745 748q172 -68 252 -157t80 -216q0 -203 -146 -312.5t-378 -109.5h-27l-16 -57q92 -6 138.5 -47.5t33.5 -118.5q-10 -71 -70.5 -114.5t-140.5 -43.5q-63 0 -114 33.5t-64 85.5l61 35q8 -39 43 -65t80 -26q58 0 95 24.5t44 72.5q9 51 -26 76.5t-107 25.5h-55l35 125
q-203 25 -322.5 157t-113.5 343l82 12q-7 -206 117.5 -322t330.5 -116q199 0 318.5 88t119.5 246q0 106 -67.5 178t-218.5 129l-189 74q-162 62 -235.5 143t-73.5 199q0 181 127.5 287t325.5 106q200 0 316 -113.5t116 -306.5l-80 -12q0 164 -95 258t-262 94
q-166 0 -264 -84.5t-98 -218.5q0 -96 62 -162t200 -119z" />
    <glyph glyph-name="scedilla" unicode="&#x15f;" horiz-adv-x="876" 
d="M565 524q114 -45 171 -105t57 -149q0 -140 -112 -223.5t-275 -83.5h-11l-18 -67q92 -6 138.5 -47.5t33.5 -118.5q-10 -71 -70.5 -114.5t-140.5 -43.5q-63 0 -114 33.5t-64 85.5l61 35q8 -39 43 -65t80 -26q58 0 95 24.5t44 72.5q9 51 -26 76.5t-107 25.5h-55l37 133
q-153 19 -241.5 111t-82.5 235l80 17q-10 -133 77.5 -212t242.5 -79q131 0 219 61.5t88 165.5q0 63 -45 108t-138 83l-172 67q-107 42 -165 100t-58 146q0 128 99 210.5t249 82.5q141 0 227 -79.5t89 -213.5l-80 -18q3 108 -61.5 171.5t-178.5 63.5q-116 0 -189 -58.5
t-73 -150.5q0 -64 45 -108t133 -80z" />
    <glyph glyph-name="Scaron" unicode="&#x160;" horiz-adv-x="1144" 
d="M672 1618l-191 215l49 45l195 -217l262 217l43 -45l-258 -215h-100zM553 -47q-239 0 -385.5 136t-140.5 370l82 12q-7 -206 117.5 -322t330.5 -116q199 0 318.5 88t119.5 246q0 106 -67.5 178t-218.5 129l-189 74q-162 62 -235.5 143t-73.5 199q0 181 127.5 287
t325.5 106q200 0 316 -113.5t116 -306.5l-80 -12q0 164 -95 258t-262 94q-166 0 -264 -84.5t-98 -218.5q0 -96 62 -162t200 -119l186 -71q172 -68 252 -157t80 -216q0 -203 -146 -312.5t-378 -109.5z" />
    <glyph glyph-name="scaron" unicode="&#x161;" horiz-adv-x="876" 
d="M487 1247l-231 254l51 47l236 -260l319 260l39 -45l-313 -256h-101zM406 -37q-183 0 -293.5 95t-104.5 255l80 17q-10 -133 77.5 -212t242.5 -79q131 0 219 61.5t88 165.5q0 63 -45 108t-138 83l-172 67q-107 42 -165 100t-58 146q0 128 99 210.5t249 82.5
q141 0 227 -79.5t89 -213.5l-80 -18q3 108 -61.5 171.5t-178.5 63.5q-116 0 -189 -58.5t-73 -150.5q0 -64 45 -108t133 -80l168 -66q114 -45 171 -105t57 -149q0 -140 -112 -223.5t-275 -83.5z" />
    <glyph glyph-name="uni0162" unicode="&#x162;" horiz-adv-x="1067" 
d="M166 1436h1026l-10 -76h-473l-215 -1360h-11l-28 -104q92 -6 138.5 -47.5t33.5 -118.5q-10 -71 -70.5 -114.5t-140.5 -43.5q-63 0 -114 33.5t-64 85.5l61 35q8 -39 43 -65t80 -26q58 0 95 24.5t44 72.5q9 51 -26 76.5t-107 25.5h-55l45 166h-8l217 1360h-471z" />
    <glyph glyph-name="uni0163" unicode="&#x163;" horiz-adv-x="796" 
d="M369 952l-113 -702q-14 -94 29 -152.5t127 -58.5q82 0 147 51.5t88 136.5l70 -30q-30 -103 -116.5 -167.5t-190.5 -66.5l-19 -67q92 -6 138.5 -47.5t33.5 -118.5q-10 -71 -70.5 -114.5t-140.5 -43.5q-63 0 -114 33.5t-64 85.5l62 35q8 -39 42.5 -65t79.5 -26
q58 0 95.5 24.5t44.5 72.5q9 51 -26 76.5t-107 25.5h-56l37 135q-94 20 -139.5 97t-28.5 186l111 700h-219l12 74h219l49 311l82 23l-51 -334h426l-12 -74h-426z" />
    <glyph glyph-name="Tcaron" unicode="&#x164;" horiz-adv-x="1067" 
d="M659 1618l-190 215l49 45l195 -217l262 217l43 -45l-258 -215h-101zM410 0l217 1360h-471l10 76h1026l-10 -76h-473l-215 -1360h-84z" />
    <glyph glyph-name="tcaron" unicode="&#x165;" horiz-adv-x="796" 
d="M569 1194l2 49q72 -17 113.5 15.5t44.5 111.5q-33 -12 -59 11t-21 59q3 26 23.5 42.5t48.5 16.5q40 0 56.5 -36.5t6.5 -102.5q-13 -99 -71 -142.5t-144 -23.5zM406 -37q-121 0 -184.5 81.5t-43.5 207.5l111 700h-219l12 74h219l49 311l82 23l-51 -334h426l-12 -74h-426
l-113 -702q-14 -94 29 -152.5t127 -58.5q82 0 147 51.5t88 136.5l70 -30q-30 -105 -117.5 -169.5t-193.5 -64.5z" />
    <glyph glyph-name="Utilde" unicode="&#x168;" horiz-adv-x="1236" 
d="M948 1597q-29 0 -52 10.5t-41.5 31t-30 39t-25.5 46.5q-15 30 -21 41t-20.5 31t-29.5 27.5t-34 7.5q-52 0 -91.5 -60t-53.5 -153h-60q19 123 75.5 197.5t140.5 74.5q29 0 52.5 -10.5t41.5 -32t28.5 -39.5t24.5 -47q18 -36 28 -53.5t30 -34t44 -16.5q53 0 95.5 61.5
t56.5 153.5h61q-21 -124 -78 -199.5t-141 -75.5zM535 -47q-247 0 -364 140.5t-79 369.5l156 973h82l-156 -979q-33 -196 61.5 -312t301.5 -116q205 0 339 113t168 319l154 975h82l-154 -981q-38 -237 -196 -369.5t-395 -132.5z" />
    <glyph glyph-name="utilde" unicode="&#x169;" 
d="M766 1208q-29 0 -51.5 9.5t-40.5 30t-28 36.5t-25 45q-19 39 -28.5 57t-31 37t-47.5 19q-49 0 -91.5 -61t-57.5 -152h-60q21 121 80 196.5t139 75.5q30 0 54 -11t41.5 -33t28 -40.5t24.5 -48.5q33 -63 51 -79q22 -21 49 -21q54 0 96.5 61t57.5 154h59
q-21 -122 -80 -198.5t-139 -76.5zM369 -37q-170 0 -252 99t-54 272l111 692h80l-111 -696q-23 -138 40.5 -216.5t199.5 -78.5q165 0 289 103t149 259l101 629h79l-163 -1026h-76l26 180h-2q-63 -104 -173 -160.5t-244 -56.5z" />
    <glyph glyph-name="Umacron" unicode="&#x16a;" horiz-adv-x="1236" 
d="M526 1622l11 57h532l-10 -57h-533zM535 -47q-247 0 -364 140.5t-79 369.5l156 973h82l-156 -979q-33 -196 61.5 -312t301.5 -116q205 0 339 113t168 319l154 975h82l-154 -981q-38 -237 -196 -369.5t-395 -132.5z" />
    <glyph glyph-name="umacron" unicode="&#x16b;" 
d="M350 1212l10 58h533l-10 -58h-533zM369 -37q-170 0 -252 99t-54 272l111 692h80l-111 -696q-23 -138 40.5 -216.5t199.5 -78.5q165 0 289 103t149 259l101 629h79l-163 -1026h-76l26 180h-2q-63 -104 -173 -160.5t-244 -56.5z" />
    <glyph glyph-name="Ubreve" unicode="&#x16c;" horiz-adv-x="1236" 
d="M795 1618q-116 0 -181.5 70.5t-46.5 177.5h64q-14 -80 34.5 -132.5t135.5 -52.5t152 52.5t79 132.5h68q-19 -108 -104.5 -178t-200.5 -70zM535 -47q-247 0 -364 140.5t-79 369.5l156 973h82l-156 -979q-33 -196 61.5 -312t301.5 -116q205 0 339 113t168 319l154 975h82
l-154 -981q-38 -237 -196 -369.5t-395 -132.5z" />
    <glyph glyph-name="ubreve" unicode="&#x16d;" 
d="M618 1227q-130 0 -201 82.5t-52 210.5h65q-17 -100 39.5 -166t159.5 -66q104 0 180.5 66t91.5 166h68q-20 -127 -119.5 -210t-231.5 -83zM369 -37q-170 0 -252 99t-54 272l111 692h80l-111 -696q-23 -138 40.5 -216.5t199.5 -78.5q165 0 289 103t149 259l101 629h79
l-163 -1026h-76l26 180h-2q-63 -104 -173 -160.5t-244 -56.5z" />
    <glyph glyph-name="Uring" unicode="&#x16e;" horiz-adv-x="1236" 
d="M795 1616q-70 0 -112 40t-42 105q0 91 60 150t149 59q67 0 108 -41t41 -106q0 -90 -58.5 -148.5t-145.5 -58.5zM801 1671q57 0 97 41.5t40 102.5q0 44 -27 71t-73 27q-57 0 -97.5 -40.5t-40.5 -100.5q0 -46 27.5 -73.5t73.5 -27.5zM535 -47q-247 0 -364 140.5t-79 369.5
l156 973h82l-156 -979q-33 -196 61.5 -312t301.5 -116q205 0 339 113t168 319l154 975h82l-154 -981q-38 -237 -196 -369.5t-395 -132.5z" />
    <glyph glyph-name="uring" unicode="&#x16f;" 
d="M618 1227q-70 0 -110.5 40t-40.5 105q0 88 60.5 147.5t148.5 59.5q67 0 108 -40t41 -105q0 -87 -61 -147t-146 -60zM627 1282q56 0 96.5 41t40.5 100q0 45 -27.5 73t-72.5 28q-56 0 -97 -41.5t-41 -100.5q0 -44 28.5 -72t72.5 -28zM369 -37q-170 0 -252 99t-54 272
l111 692h80l-111 -696q-23 -138 40.5 -216.5t199.5 -78.5q165 0 289 103t149 259l101 629h79l-163 -1026h-76l26 180h-2q-63 -104 -173 -160.5t-244 -56.5z" />
    <glyph glyph-name="Uhungarumlaut" unicode="&#x170;" horiz-adv-x="1236" 
d="M653 1550l-45 39l223 250l46 -37zM961 1550l-46 39l224 250l45 -37zM535 -47q-247 0 -364 140.5t-79 369.5l156 973h82l-156 -979q-33 -196 61.5 -312t301.5 -116q205 0 339 113t168 319l154 975h82l-154 -981q-38 -237 -196 -369.5t-395 -132.5z" />
    <glyph glyph-name="uhungarumlaut" unicode="&#x171;" 
d="M492 1221l-43 39l264 290l45 -37zM799 1221l-43 39l262 290l47 -37zM369 -37q-170 0 -252 99t-54 272l111 692h80l-111 -696q-23 -138 40.5 -216.5t199.5 -78.5q165 0 289 103t149 259l101 629h79l-163 -1026h-76l26 180h-2q-63 -104 -173 -160.5t-244 -56.5z" />
    <glyph glyph-name="Uogonek" unicode="&#x172;" horiz-adv-x="1236" 
d="M1198 1436h82l-154 -981q-27 -173 -121.5 -292t-238.5 -171q-173 -90 -252.5 -150t-89.5 -127q-4 -35 14.5 -56t53.5 -21q39 0 83.5 30t77.5 78l29 -53q-38 -52 -94 -84.5t-109 -32.5q-65 0 -98.5 38t-24.5 101q9 64 66.5 120.5t165.5 119.5q-18 -2 -53 -2
q-247 0 -364 140.5t-79 369.5l156 973h82l-156 -979q-33 -196 61.5 -312t301.5 -116q205 0 339 113t168 319z" />
    <glyph glyph-name="uogonek" unicode="&#x173;" 
d="M838 0q-77 -41 -120.5 -64.5t-94.5 -55.5t-77.5 -56t-46.5 -53t-24 -58q-5 -35 14 -56.5t54 -21.5q39 0 84 30.5t78 78.5l28 -53q-38 -52 -94 -84.5t-109 -32.5q-64 0 -97.5 38t-24.5 101q11 82 97 151t259 156l24 160h-2q-63 -104 -173 -160.5t-244 -56.5
q-170 0 -252 99t-54 272l111 692h80l-111 -696q-23 -138 40.5 -216.5t199.5 -78.5q165 0 289 103t149 259l101 629h79z" />
    <glyph glyph-name="Wcircumflex" unicode="&#x174;" horiz-adv-x="1828" 
d="M860 1606l-41 47l258 213h101l190 -215l-49 -45l-195 219zM332 0l-164 1436h82l156 -1354h4l585 1354h129l162 -1354h4l580 1354h86l-619 -1436h-125l-159 1358h-4l-590 -1358h-127z" />
    <glyph glyph-name="wcircumflex" unicode="&#x175;" horiz-adv-x="1521" 
d="M600 1217l-41 47l313 256h101l231 -258l-49 -45l-237 260zM272 0l-170 1026h82l154 -946h2l444 946h111l154 -946h2l448 946h86l-489 -1026h-111l-156 942h-2l-444 -942h-111z" />
    <glyph glyph-name="Ycircumflex" unicode="&#x176;" horiz-adv-x="1064" 
d="M471 1606l-41 47l258 213h100l191 -215l-49 -45l-195 219zM410 0l94 584l-336 852h90l297 -762h2l541 762h94l-606 -852l-94 -584h-82z" />
    <glyph glyph-name="ycircumflex" unicode="&#x177;" horiz-adv-x="1007" 
d="M332 1217l-41 47l313 256h101l231 -258l-49 -45l-238 260zM295 -467q-173 0 -295 79t-154 198l72 45q26 -107 128 -178.5t251 -71.5q175 0 296 108.5t152 294.5l25 148h-2q-63 -108 -171.5 -171t-227.5 -63q-171 0 -259 122.5t-57 313.5l107 668h80l-109 -674
q-25 -159 42.5 -258.5t203.5 -99.5q152 0 277 111.5t151 281.5l102 639h80l-162 -1022q-35 -220 -177.5 -345.5t-352.5 -125.5z" />
    <glyph glyph-name="Ydieresis" unicode="&#x178;" horiz-adv-x="1064" 
d="M506 1665q-30 0 -47.5 20.5t-14.5 51.5q6 30 30 49.5t54 19.5q31 0 48.5 -20t11.5 -49q-3 -30 -27 -51t-55 -21zM909 1665q-30 0 -46 20.5t-13 51.5q4 29 28.5 49t55.5 20q30 0 47 -19.5t12 -49.5q-4 -31 -28.5 -51.5t-55.5 -20.5zM410 0l94 584l-336 852h90l297 -762h2
l541 762h94l-606 -852l-94 -584h-82z" />
    <glyph glyph-name="Zacute" unicode="&#x179;" horiz-adv-x="1077" 
d="M743 1589l-45 39l224 250l45 -37zM-61 0l16 96l1132 1266h-911l10 74h998l-15 -95l-1132 -1267h952l-14 -74h-1036z" />
    <glyph glyph-name="zacute" unicode="&#x17a;" horiz-adv-x="915" 
d="M612 1221l-43 39l265 290l45 -37zM-39 0l14 100l873 852h-717l10 74h795l-14 -100l-871 -852h756l-12 -74h-834z" />
    <glyph glyph-name="Zdotaccent" unicode="&#x17b;" horiz-adv-x="1077" 
d="M741 1665q-29 0 -45 16t-16 43q0 36 25.5 60t58.5 24q28 0 44.5 -15.5t16.5 -43.5q0 -35 -25 -59.5t-59 -24.5zM-61 0l16 96l1132 1266h-911l10 74h998l-15 -95l-1132 -1267h952l-14 -74h-1036z" />
    <glyph glyph-name="zdotaccent" unicode="&#x17c;" horiz-adv-x="915" 
d="M592 1247q-29 0 -46.5 16t-17.5 42q0 36 25 60t61 24q28 0 45 -15.5t17 -42.5q0 -35 -25 -59.5t-59 -24.5zM-39 0l14 100l873 852h-717l10 74h795l-14 -100l-871 -852h756l-12 -74h-834z" />
    <glyph glyph-name="Zcaron" unicode="&#x17d;" horiz-adv-x="1077" 
d="M682 1618l-190 215l49 45l194 -217l262 217l43 -45l-258 -215h-100zM-61 0l16 96l1132 1266h-911l10 74h998l-15 -95l-1132 -1267h952l-14 -74h-1036z" />
    <glyph glyph-name="zcaron" unicode="&#x17e;" horiz-adv-x="915" 
d="M539 1247l-232 254l51 47l236 -260l319 260l39 -45l-313 -256h-100zM-39 0l14 100l873 852h-717l10 74h795l-14 -100l-871 -852h756l-12 -74h-834z" />
    <glyph glyph-name="AEacute" unicode="&#x1fc;" horiz-adv-x="1640" 
d="M1016 1589l-45 39l223 250l45 -37zM-84 0l1008 1436h790l-10 -74h-662l-94 -596h578l-10 -74h-580l-96 -616h678l-11 -76h-762l52 326h-564l-223 -326h-94zM287 399h520l154 951h-3z" />
    <glyph glyph-name="aeacute" unicode="&#x1fd;" horiz-adv-x="1765" 
d="M1036 1221l-43 39l264 290l46 -37zM348 -37q-173 0 -270.5 82t-77.5 211q19 117 128.5 201t274.5 106l379 47q28 3 48 19.5t24 42.5q25 159 -47 238t-211 79q-148 0 -252 -75t-123 -189l-71 33q31 135 153.5 220t290.5 85q145 0 235.5 -69.5t100.5 -202.5q74 128 180 200
t223 72q124 0 210 -68t120.5 -191t9.5 -280q-6 -41 -10 -55h-754q-15 -196 68.5 -315t239.5 -119q117 0 224 69t173 181l65 -39q-78 -131 -203.5 -207t-261.5 -76q-152 0 -251.5 93t-116.5 251q-51 -154 -188.5 -249t-309.5 -95zM918 541h677q29 196 -47 322t-221 126
q-144 0 -259.5 -129t-149.5 -319zM354 35q175 0 306 112.5t157 284.5l17 113l-433 -53q-126 -15 -217 -83.5t-106 -160.5q-14 -93 62.5 -153t213.5 -60z" />
    <glyph glyph-name="Oslashacute" unicode="&#x1fe;" horiz-adv-x="1562" 
d="M989 1841l-223 -252l-45 39l223 250zM1049 1473q231 -32 360 -189t129 -405q0 -150 -39.5 -289.5t-114 -254.5t-176 -201t-233 -133.5t-277.5 -47.5q-63 0 -112 8l-70 -229l-59 18l67 221q-205 46 -318.5 199t-113.5 385q0 253 104.5 464t297.5 336.5t436 125.5
q35 0 53 -2l59 198l64 -18zM174 559q0 -204 97.5 -339.5t275.5 -176.5l414 1366h-35q-132 0 -250.5 -44.5t-209 -124.5t-157 -186t-101 -233t-34.5 -262zM700 27q165 0 308 69.5t240 185.5t152.5 270t55.5 322q0 220 -113 360t-315 169l-420 -1370q44 -6 92 -6z" />
    <glyph glyph-name="oslashacute" unicode="&#x1ff;" horiz-adv-x="1122" 
d="M776 1513l-266 -292l-43 39l264 290zM768 1049q170 -38 249.5 -182.5t45.5 -358.5q-40 -249 -199 -397t-385 -148q-29 0 -43 2l-139 -454l-59 16l135 446q-180 34 -264.5 179t-49.5 366q40 249 199 397t385 148q41 0 59 -2l121 395l64 -18zM139 508q-29 -187 39.5 -311.5
t216.5 -153.5l287 944q-14 2 -41 2q-194 0 -331 -131.5t-171 -349.5zM983 518q29 180 -35 302.5t-203 156.5l-288 -942h24q193 0 330.5 132.5t171.5 350.5z" />
    <glyph glyph-name="uni0218" unicode="&#x218;" horiz-adv-x="1144" 
d="M553 -47q-239 0 -385.5 136t-140.5 370l82 12q-7 -206 117.5 -322t330.5 -116q199 0 318.5 88t119.5 246q0 106 -67.5 178t-218.5 129l-189 74q-162 62 -235.5 143t-73.5 199q0 181 127.5 287t325.5 106q200 0 316 -113.5t116 -306.5l-80 -12q0 164 -95 258t-262 94
q-166 0 -264 -84.5t-98 -218.5q0 -96 62 -162t200 -119l186 -71q172 -68 252 -157t80 -216q0 -203 -146 -312.5t-378 -109.5zM326 -487l2 49q71 -17 111.5 15.5t43.5 111.5q-34 -12 -59.5 10t-20.5 59q4 26 25 43t47 17q40 0 57.5 -37.5t8.5 -104.5q-15 -97 -73 -140
t-142 -23z" />
    <glyph glyph-name="uni0219" unicode="&#x219;" horiz-adv-x="876" 
d="M406 -37q-183 0 -293.5 95t-104.5 255l80 17q-10 -133 77.5 -212t242.5 -79q131 0 219 61.5t88 165.5q0 63 -45 108t-138 83l-172 67q-107 42 -165 100t-58 146q0 128 99 210.5t249 82.5q141 0 227 -79.5t89 -213.5l-80 -18q3 108 -61.5 171.5t-178.5 63.5
q-116 0 -189 -58.5t-73 -150.5q0 -64 45 -108t133 -80l168 -66q114 -45 171 -105t57 -149q0 -140 -112 -223.5t-275 -83.5zM193 -487l2 49q71 -17 111.5 15.5t43.5 111.5q-34 -12 -59.5 10t-20.5 59q4 26 25 43t47 17q40 0 57.5 -37.5t8.5 -104.5q-15 -97 -73 -140t-142 -23
z" />
    <glyph glyph-name="uni021A" unicode="&#x21a;" horiz-adv-x="1067" 
d="M410 0l217 1360h-471l10 76h1026l-10 -76h-473l-215 -1360h-84zM270 -487l2 49q71 -17 112 15.5t44 111.5q-34 -12 -59.5 10t-20.5 59q4 26 25 43t47 17q40 0 57 -37.5t8 -104.5q-15 -97 -73 -140t-142 -23z" />
    <glyph glyph-name="uni021B" unicode="&#x21b;" horiz-adv-x="796" 
d="M406 -37q-121 0 -184.5 81.5t-43.5 207.5l111 700h-219l12 74h219l49 311l82 23l-51 -334h426l-12 -74h-426l-113 -702q-14 -94 29 -152.5t127 -58.5q82 0 147 51.5t88 136.5l70 -30q-30 -105 -117.5 -169.5t-193.5 -64.5zM207 -487l2 49q71 -17 112 15.5t44 111.5
q-34 -12 -59.5 10t-20.5 59q4 26 24.5 43t46.5 17q40 0 57.5 -37.5t8.5 -104.5q-15 -97 -73 -140t-142 -23z" />
    <glyph glyph-name="uni0237" unicode="&#x237;" horiz-adv-x="294" 
d="M-217 -467q-67 0 -129 27l18 71q52 -22 107 -22q83 0 140 48.5t69 127.5l196 1241h80l-198 -1249q-19 -113 -95 -178.5t-188 -65.5z" />
    <glyph glyph-name="circumflex" unicode="&#x2c6;" horiz-adv-x="727" 
d="M201 1217l-41 47l313 256h100l232 -258l-49 -45l-238 260z" />
    <glyph glyph-name="caron" unicode="&#x2c7;" horiz-adv-x="727" 
d="M428 1247l-231 254l51 47l235 -260l320 260l39 -45l-314 -256h-100z" />
    <glyph glyph-name="breve" unicode="&#x2d8;" horiz-adv-x="686" 
d="M455 1227q-130 0 -201.5 82.5t-52.5 210.5h65q-17 -100 39.5 -166t159.5 -66q104 0 180.5 66t91.5 166h68q-20 -127 -119 -210t-231 -83z" />
    <glyph glyph-name="dotaccent" unicode="&#x2d9;" horiz-adv-x="225" 
d="M229 1247q-29 0 -46 16t-17 42q0 36 25 60t61 24q28 0 44.5 -15.5t16.5 -42.5q0 -35 -25 -59.5t-59 -24.5z" />
    <glyph glyph-name="ring" unicode="&#x2da;" horiz-adv-x="436" 
d="M332 1227q-70 0 -111 40t-41 105q0 87 60 147t147 60q69 0 110.5 -40t41.5 -105q0 -87 -61 -147t-146 -60zM340 1282q56 0 96.5 41t40.5 100q0 45 -27.5 73t-72.5 28q-56 0 -96.5 -41.5t-40.5 -100.5q0 -44 28 -72t72 -28z" />
    <glyph glyph-name="ogonek" unicode="&#x2db;" horiz-adv-x="481" 
d="M45 -426q-65 0 -98.5 38t-24.5 101q13 87 109.5 160t298.5 172l22 -45q-77 -40 -120.5 -64t-94.5 -56t-77 -56t-46 -53t-24 -58q-5 -35 13.5 -56.5t53.5 -21.5q39 0 84 30.5t78 78.5l29 -53q-38 -52 -94 -84.5t-109 -32.5z" />
    <glyph glyph-name="tilde" unicode="&#x2dc;" horiz-adv-x="720" 
d="M614 1208q-29 0 -51.5 9.5t-40.5 30t-28 36.5t-25 45q-19 39 -28.5 57t-31 37t-47.5 19q-49 0 -91.5 -61t-57.5 -152h-59q21 121 80 196.5t139 75.5q30 0 53.5 -10.5t41.5 -33.5t28 -40.5t24 -48.5q34 -65 54 -82q20 -18 47 -18q54 0 96 61t57 154h60
q-21 -122 -80.5 -198.5t-139.5 -76.5z" />
    <glyph glyph-name="hungarumlaut" unicode="&#x2dd;" horiz-adv-x="657" 
d="M203 1221l-43 39l264 290l45 -37zM510 1221l-43 39l262 290l47 -37z" />
    <glyph glyph-name="Wgrave" unicode="&#x1e80;" horiz-adv-x="1828" 
d="M1077 1593l-145 252l53 33l145 -250zM332 0l-164 1436h82l156 -1354h4l585 1354h129l162 -1354h4l580 1354h86l-619 -1436h-125l-159 1358h-4l-590 -1358h-127z" />
    <glyph glyph-name="wgrave" unicode="&#x1e81;" horiz-adv-x="1521" 
d="M840 1221l-174 292l57 37l172 -290zM272 0l-170 1026h82l154 -946h2l444 946h111l154 -946h2l448 946h86l-489 -1026h-111l-156 942h-2l-444 -942h-111z" />
    <glyph glyph-name="Wacute" unicode="&#x1e82;" horiz-adv-x="1828" 
d="M1100 1589l-45 39l223 250l45 -37zM332 0l-164 1436h82l156 -1354h4l585 1354h129l162 -1354h4l580 1354h86l-619 -1436h-125l-159 1358h-4l-590 -1358h-127z" />
    <glyph glyph-name="wacute" unicode="&#x1e83;" horiz-adv-x="1521" 
d="M899 1221l-43 39l264 290l45 -37zM272 0l-170 1026h82l154 -946h2l444 946h111l154 -946h2l448 946h86l-489 -1026h-111l-156 942h-2l-444 -942h-111z" />
    <glyph glyph-name="Wdieresis" unicode="&#x1e84;" horiz-adv-x="1828" 
d="M895 1665q-30 0 -47 20.5t-14 51.5q6 30 30 49.5t54 19.5q31 0 48 -20t11 -49q-3 -30 -27 -51t-55 -21zM1298 1665q-30 0 -46 20.5t-13 51.5q4 29 28.5 49t55.5 20q30 0 47 -19.5t12 -49.5q-4 -31 -28.5 -51.5t-55.5 -20.5zM332 0l-164 1436h82l156 -1354h4l585 1354h129
l162 -1354h4l580 1354h86l-619 -1436h-125l-159 1358h-4l-590 -1358h-127z" />
    <glyph glyph-name="wdieresis" unicode="&#x1e85;" horiz-adv-x="1521" 
d="M684 1247q-29 0 -46 16t-17 42q0 36 25 60t61 24q29 0 45 -15t16 -41q0 -37 -24.5 -61.5t-59.5 -24.5zM1071 1247q-29 0 -45 15.5t-16 42.5q0 36 24 60t60 24q29 0 46 -15t17 -41q0 -36 -25 -61t-61 -25zM272 0l-170 1026h82l154 -946h2l444 946h111l154 -946h2l448 946
h86l-489 -1026h-111l-156 942h-2l-444 -942h-111z" />
    <glyph glyph-name="uni1E9E" unicode="&#x1e9e;" horiz-adv-x="1064" 
d="M760 547q107 -59 155 -123t48 -150q0 -129 -101.5 -211.5t-257.5 -82.5q-165 0 -249 98t-64 266l82 18q-24 -138 40 -226.5t195 -88.5q113 0 194 63t81 158q0 63 -39 113.5t-125 97.5l-131 74q-79 43 -114.5 90t-35.5 109q0 64 36.5 116t99 85.5t136 53.5t156.5 27
q24 39 40 91t16 94q0 86 -68.5 139t-185.5 53q-155 0 -264.5 -96t-135.5 -254l-168 -1061h-82l168 1071q31 188 164.5 301t323.5 113q151 0 240.5 -71t89.5 -187q0 -67 -25 -141t-59 -115q-75 -2 -145 -16t-128 -39.5t-92.5 -66.5t-34.5 -91q0 -78 111 -140z" />
    <glyph glyph-name="Ygrave" unicode="&#x1ef2;" horiz-adv-x="1064" 
d="M686 1593l-145 252l53 33l145 -250zM410 0l94 584l-336 852h90l297 -762h2l541 762h94l-606 -852l-94 -584h-82z" />
    <glyph glyph-name="ygrave" unicode="&#x1ef3;" horiz-adv-x="1007" 
d="M571 1221l-174 292l58 37l172 -290zM295 -467q-173 0 -295 79t-154 198l72 45q26 -107 128 -178.5t251 -71.5q175 0 296 108.5t152 294.5l25 148h-2q-63 -108 -171.5 -171t-227.5 -63q-171 0 -259 122.5t-57 313.5l107 668h80l-109 -674q-25 -159 42.5 -258.5
t203.5 -99.5q152 0 277 111.5t151 281.5l102 639h80l-162 -1022q-35 -220 -177.5 -345.5t-352.5 -125.5z" />
    <glyph glyph-name="endash" unicode="&#x2013;" horiz-adv-x="1298" 
d="M102 514l11 64h1093l-10 -64h-1094z" />
    <glyph glyph-name="emdash" unicode="&#x2014;" horiz-adv-x="1894" 
d="M102 514l11 64h1689l-10 -64h-1690z" />
    <glyph glyph-name="quoteleft" unicode="&#x2018;" horiz-adv-x="376" 
d="M438 1470l-2 -49q-78 20 -122.5 -19.5t-49.5 -125.5q31 11 57.5 -6.5t26.5 -52.5q0 -34 -19 -55t-50 -21q-34 0 -55 27t-21 71q0 117 65.5 186.5t169.5 44.5z" />
    <glyph glyph-name="quoteright" unicode="&#x2019;" horiz-adv-x="374" 
d="M190 1147l3 49q78 -20 122.5 19.5t49.5 125.5q-31 -11 -57.5 7t-26.5 53q0 34 19 55t50 21q34 0 55 -27.5t21 -71.5q0 -117 -66 -186.5t-170 -44.5z" />
    <glyph glyph-name="quotesinglbase" unicode="&#x201a;" horiz-adv-x="376" 
d="M-25 -209l2 49q78 -20 123 20t50 126q-31 -11 -57.5 6.5t-26.5 52.5q0 34 19.5 55t51.5 21q33 0 53.5 -27t20.5 -71q0 -117 -66 -187t-170 -45z" />
    <glyph glyph-name="quotedblleft" unicode="&#x201c;" horiz-adv-x="620" 
d="M438 1470l-2 -49q-78 20 -122.5 -19.5t-49.5 -125.5q31 11 57.5 -6.5t26.5 -52.5q0 -34 -19 -55t-50 -21q-34 0 -55 27t-21 71q0 117 65.5 186.5t169.5 44.5zM682 1470l-2 -49q-78 20 -122.5 -19.5t-49.5 -125.5q31 11 57.5 -6.5t26.5 -52.5q0 -34 -19.5 -55t-50.5 -21
q-34 0 -55 27t-21 71q0 117 66 186.5t170 44.5z" />
    <glyph glyph-name="quotedblright" unicode="&#x201d;" horiz-adv-x="618" 
d="M190 1145v49q80 -20 124.5 19t47.5 126q-30 -11 -55.5 7t-25.5 53q0 34 19 55t50 21q34 0 55 -27.5t21 -71.5q0 -117 -66 -186.5t-170 -44.5zM434 1145v49q80 -20 124.5 19t47.5 126q-30 -11 -56 7t-26 53q0 34 19.5 55t50.5 21q34 0 55 -27.5t21 -71.5
q0 -117 -66 -186.5t-170 -44.5z" />
    <glyph glyph-name="quotedblbase" unicode="&#x201e;" horiz-adv-x="620" 
d="M-25 -209l2 49q78 -20 123 20t50 126q-31 -11 -57.5 6.5t-26.5 52.5q0 34 19 55t50 21q34 0 55 -27t21 -71q0 -117 -66 -187t-170 -45zM219 -209l2 49q78 -20 122.5 19.5t49.5 126.5q-31 -11 -57.5 6.5t-26.5 52.5q0 34 19.5 55t50.5 21q34 0 55 -27t21 -71
q0 -117 -66 -187t-170 -45z" />
    <glyph glyph-name="bullet" unicode="&#x2022;" horiz-adv-x="464" 
d="M252 489q-65 0 -106.5 42t-41.5 104t41.5 103.5t106.5 41.5q62 0 104.5 -42t42.5 -103t-42.5 -103.5t-104.5 -42.5z" />
    <glyph glyph-name="ellipsis" unicode="&#x2026;" horiz-adv-x="888" 
d="M74 -20q-29 0 -46.5 16.5t-17.5 44.5q0 34 21.5 57t54.5 23q30 0 48 -17.5t18 -44.5q0 -35 -22 -57t-56 -22zM365 -20q-29 0 -46.5 16.5t-17.5 44.5q0 34 21.5 57t54.5 23q30 0 47.5 -17.5t17.5 -44.5q0 -35 -21.5 -57t-55.5 -22zM655 -20q-29 0 -46 16.5t-17 44.5
q0 34 21.5 57t54.5 23q30 0 47.5 -17.5t17.5 -44.5q0 -35 -22 -57t-56 -22z" />
    <glyph glyph-name="perthousand" unicode="&#x2030;" horiz-adv-x="2983" 
d="M422 -20l-49 34l1265 1504l50 -35zM506 690q-161 0 -260 94.5t-99 245.5q0 129 64 239t173.5 174t238.5 64q159 0 257.5 -94.5t98.5 -247.5q0 -198 -137.5 -336.5t-335.5 -138.5zM508 764q167 0 280 118t113 279q0 123 -76.5 198t-203.5 75q-168 0 -282 -119t-114 -281
q0 -120 78 -195t205 -75zM1432 -23q-161 0 -259 94.5t-98 245.5q0 129 63.5 239t172.5 174.5t237 64.5q161 0 259 -94.5t98 -247.5q0 -130 -62.5 -239.5t-171.5 -173t-239 -63.5zM2435 -23q-160 0 -258 94t-98 246q0 129 63.5 239t172.5 174.5t237 64.5q161 0 258.5 -94.5
t97.5 -247.5q0 -130 -62.5 -239.5t-171.5 -173t-239 -63.5zM1436 51q167 0 280 118t113 280q0 123 -77.5 197.5t-203.5 74.5q-111 0 -203 -55.5t-143 -147t-51 -196.5q0 -121 78.5 -196t206.5 -75zM2439 51q167 0 280 118t113 280q0 123 -77 197.5t-203 74.5
q-111 0 -203.5 -55.5t-143.5 -147t-51 -196.5q0 -121 78.5 -196t206.5 -75z" />
    <glyph glyph-name="guilsinglleft" unicode="&#x2039;" horiz-adv-x="581" 
d="M387 -20l-328 532l496 535l45 -39l-459 -496l301 -494z" />
    <glyph glyph-name="guilsinglright" unicode="&#x203a;" horiz-adv-x="581" 
d="M27 -20l-43 38l456 494l-303 496l58 39l327 -535z" />
    <glyph glyph-name="lira" unicode="&#x20a4;" horiz-adv-x="1042" 
d="M-23 0l17 92q101 28 185 154t110 293h-205l8 63h207l20 137h-202l10 66h205l43 285q29 176 139.5 286.5t253.5 110.5q150 0 233 -120t68 -310l-80 -8q12 162 -49 261t-174 99q-111 0 -198.5 -91t-112.5 -235l-43 -278h512l-11 -66h-514l-20 -137h514l-10 -63h-516
q-24 -164 -101 -290t-174 -171v-2h815l-12 -76h-918z" />
    <glyph glyph-name="Euro" unicode="&#x20ac;" horiz-adv-x="1665" 
d="M1552 557l76 -25q-33 -115 -103.5 -220.5t-164.5 -185t-211.5 -126.5t-237.5 -47q-272 0 -433 169.5t-161 446.5v27h-202v63h207q7 78 20 138h-227v63h243q50 175 150.5 314t249 224t319.5 85q218 0 352 -136t146 -382l-82 -11q-12 218 -123.5 336.5t-296.5 118.5
q-111 0 -213.5 -43t-181.5 -118.5t-139 -174.5t-95 -213h732v-63h-748q-17 -75 -22 -138h770v-63h-775v-25q0 -246 139 -395t373 -149q107 0 212.5 44.5t189 118t146 169t91.5 198.5z" />
    <glyph glyph-name="trademark" unicode="&#x2122;" horiz-adv-x="1923" 
d="M334 573l125 789h-303l10 74h684l-10 -74h-305l-125 -789h-76zM797 573l135 863h117l268 -781l512 781h117l-136 -863h-75l123 777l-512 -777h-84l-267 777l-123 -777h-75z" />
    <glyph glyph-name="arrowleft" unicode="&#x2190;" horiz-adv-x="1191" 
d="M524 66l-450 469l450 469l47 -46l-376 -391h925v-65h-925l376 -391z" />
    <glyph glyph-name="arrowup" unicode="&#x2191;" horiz-adv-x="1077" 
d="M82 594l469 450l469 -450l-43 -47l-393 377v-926h-64v926l-391 -377z" />
    <glyph glyph-name="arrowright" unicode="&#x2192;" horiz-adv-x="1189" 
d="M674 66l-47 45l377 391h-926v65h926l-377 391l47 46l450 -469z" />
    <glyph glyph-name="arrowdown" unicode="&#x2193;" horiz-adv-x="1077" 
d="M57 432l45 47l392 -377v926h65v-926l391 377l45 -47l-469 -450z" />
    <glyph glyph-name="arrowboth" unicode="&#x2194;" horiz-adv-x="1861" 
d="M1346 1004l450 -469l-450 -469l-48 45l377 391h-1480l376 -391l-47 -45l-450 469l450 469l47 -46l-376 -391h1480l-377 391z" />
    <glyph glyph-name="arrowupdn" unicode="&#x2195;" horiz-adv-x="1185" 
d="M625 -164l393 377l45 -47l-469 -451l-469 451l45 47l391 -377v1354l-393 -377l-43 47l469 451l469 -451l-45 -47l-393 377v-1354z" />
    <glyph glyph-name="uni2196" unicode="&#x2196;" horiz-adv-x="1069" 
d="M836 913v-63l-543 -10l653 -656l-45 -45l-653 654l-12 -543l-64 2l12 649z" />
    <glyph glyph-name="uni2197" unicode="&#x2197;" horiz-adv-x="964" 
d="M137 913l649 -12l13 -649l-64 -2l-10 543l-655 -654l-45 45l653 656l-543 10z" />
    <glyph glyph-name="uni2198" unicode="&#x2198;" horiz-adv-x="1069" 
d="M901 807l-12 -651l-651 -13v66l542 10l-653 653l45 48l655 -656l9 545z" />
    <glyph glyph-name="uni2199" unicode="&#x2199;" horiz-adv-x="964" 
d="M170 807l66 2l8 -545l655 656l45 -48l-653 -653l543 -10v-66l-652 13z" />
    <glyph glyph-name="minus" unicode="&#x2212;" horiz-adv-x="987" 
d="M137 729l10 76h785l-12 -76h-783z" />
    <glyph glyph-name="notequal" unicode="&#x2260;" horiz-adv-x="1097" 
d="M1047 840h-355l-139 -281h451l-13 -78h-477l-258 -518l-57 19l247 499h-348l13 78h374l140 281h-471l12 75h498l233 471l57 -18l-225 -453h332z" />
    <glyph glyph-name="lessequal" unicode="&#x2264;" horiz-adv-x="866" 
d="M715 426l-572 346l17 96l680 344l24 -71l-643 -322l539 -323zM53 195l10 63h660l-8 -63h-662z" />
    <glyph glyph-name="greaterequal" unicode="&#x2265;" horiz-adv-x="866" 
d="M123 426l-23 70l643 323l-540 322l45 71l573 -344l-16 -96zM713 195h-660l8 63h660z" />
    <glyph glyph-name="uniF6C3" unicode="&#xf6c3;" horiz-adv-x="0" 
d="M-387 -487l2 49q71 -17 112 15.5t44 111.5q-34 -12 -59.5 10t-20.5 59q4 26 24.5 43t46.5 17q40 0 57.5 -37.5t8.5 -104.5q-15 -97 -73 -140t-142 -23z" />
    <glyph glyph-name="G.alt1" horiz-adv-x="1529" 
d="M690 -47q-274 0 -436 169t-162 445q0 177 61 344t165.5 293t254 202.5t316.5 76.5q205 0 347 -126.5t165 -326.5l-80 -14q-26 176 -144 281.5t-294 105.5q-119 1 -230 -44.5t-196.5 -126.5t-150 -186t-98.5 -228.5t-34 -250.5q0 -240 139.5 -387t378.5 -147
q175 -1 327 84t254.5 239t133.5 351l-858 -2l8 77l942 -4q-4 -55 -6 -65q-26 -164 -97.5 -305t-176 -241t-241.5 -157t-288 -57z" />
    <glyph glyph-name="K.alt1" horiz-adv-x="972" 
d="M41 0l227 1436h82l-104 -652h2l743 652h113l-782 -680l569 -756h-109l-540 729h-2l-117 -729h-82z" />
    <glyph glyph-name="R.alt1" horiz-adv-x="1234" 
d="M41 0l227 1436h576q191 0 294 -89.5t103 -242.5q0 -142 -86.5 -253t-236.5 -165v-2q94 -22 136.5 -90t28.5 -172l-67 -422h-84l69 426q13 106 -41.5 162.5t-156.5 56.5h-578l-102 -645h-82zM238 721h493q179 0 303.5 108.5t124.5 266.5q0 122 -83 193t-240 71h-494z" />
    <glyph glyph-name="R.alt2" horiz-adv-x="1216" 
d="M41 0l227 1436h576q191 0 294 -89.5t103 -242.5q0 -187 -125.5 -312t-343.5 -137l287 -655h-92l-285 645h-457l-102 -645h-82zM238 721h493q196 0 312 106t116 269q0 122 -83 193t-240 71h-494z" />
    <glyph glyph-name="a.alt1" horiz-adv-x="999" 
d="M317 -37q-148 0 -234.5 63.5t-86.5 172.5q0 70 27.5 127.5t74.5 98t118 71.5t149.5 51t177.5 35l248 34q56 6 63 60q25 160 -49 239.5t-219 79.5q-152 0 -268 -94t-138 -223l-71 33q31 149 167.5 252.5t309.5 103.5q185 0 281 -102.5t65 -298.5l-107 -666h-75l34 231h-2
q-69 -126 -192 -197t-273 -71zM328 37q186 0 326 122.5t169 317.5l11 74l-293 -41q-100 -14 -181 -37t-146.5 -58t-101.5 -86t-36 -114q0 -82 66.5 -130t185.5 -48z" />
    <glyph glyph-name="a.alt2" horiz-adv-x="1144" 
d="M317 -37q-150 0 -235.5 65.5t-85.5 178.5q0 84 42 149t120 108.5t171.5 71.5t213.5 46l248 34q56 6 63 60q25 160 -49 239.5t-219 79.5q-152 0 -268 -94t-138 -223l-71 33q31 149 167.5 252.5t309.5 103.5q186 0 281.5 -102.5t64.5 -298.5l-84 -533q-7 -44 8.5 -70
t48.5 -26q30 0 64 21t61 55l43 -58q-36 -43 -83 -67.5t-91 -24.5q-70 0 -106 46t-25 120l16 102h-2q-69 -126 -192 -197t-273 -71zM330 37q184 0 324 122.5t169 317.5l11 74l-293 -41q-465 -64 -465 -297q0 -82 66.5 -129t187.5 -47z" />
    <glyph glyph-name="k.alt1" horiz-adv-x="808" 
d="M20 0l238 1497h80l-148 -928h3l563 457h116l-608 -489l463 -537h-109l-432 510h-2l-84 -510h-80z" />
    <glyph glyph-name="u.alt1" horiz-adv-x="1011" 
d="M422 -37q-200 0 -292.5 100t-63.5 287l108 676h80l-111 -680q-23 -150 50.5 -230.5t232.5 -80.5q162 0 263 81.5t126 233.5l107 676h79l-108 -680q-29 -185 -152 -284t-319 -99z" />
    <glyph glyph-name="y.alt1" horiz-adv-x="966" 
d="M127 -430l289 510l-314 946h84l283 -840h2l471 840h86l-817 -1456h-84z" />
    <glyph glyph-name="agrave.alt1" horiz-adv-x="999" 
d="M584 1221l-174 292l57 37l172 -290zM317 -37q-148 0 -234.5 63.5t-86.5 172.5q0 70 27.5 127.5t74.5 98t118 71.5t149.5 51t177.5 35l248 34q56 6 63 60q25 160 -49 239.5t-219 79.5q-152 0 -268 -94t-138 -223l-71 33q31 149 167.5 252.5t309.5 103.5q185 0 281 -102.5
t65 -298.5l-107 -666h-75l34 231h-2q-69 -126 -192 -197t-273 -71zM328 37q186 0 326 122.5t169 317.5l11 74l-293 -41q-100 -14 -181 -37t-146.5 -58t-101.5 -86t-36 -114q0 -82 66.5 -130t185.5 -48z" />
    <glyph glyph-name="agrave.alt2" horiz-adv-x="1144" 
d="M584 1221l-174 292l57 37l172 -290zM317 -37q-150 0 -235.5 65.5t-85.5 178.5q0 84 42 149t120 108.5t171.5 71.5t213.5 46l248 34q56 6 63 60q25 160 -49 239.5t-219 79.5q-152 0 -268 -94t-138 -223l-71 33q31 149 167.5 252.5t309.5 103.5q186 0 281.5 -102.5
t64.5 -298.5l-84 -533q-7 -44 8.5 -70t48.5 -26q30 0 64 21t61 55l43 -58q-36 -43 -83 -67.5t-91 -24.5q-70 0 -106 46t-25 120l16 102h-2q-69 -126 -192 -197t-273 -71zM330 37q184 0 324 122.5t169 317.5l11 74l-293 -41q-465 -64 -465 -297q0 -82 66.5 -129t187.5 -47z
" />
    <glyph glyph-name="aacute.alt1" horiz-adv-x="999" 
d="M641 1221l-43 39l264 290l45 -37zM317 -37q-148 0 -234.5 63.5t-86.5 172.5q0 70 27.5 127.5t74.5 98t118 71.5t149.5 51t177.5 35l248 34q56 6 63 60q25 160 -49 239.5t-219 79.5q-152 0 -268 -94t-138 -223l-71 33q31 149 167.5 252.5t309.5 103.5q185 0 281 -102.5
t65 -298.5l-107 -666h-75l34 231h-2q-69 -126 -192 -197t-273 -71zM328 37q186 0 326 122.5t169 317.5l11 74l-293 -41q-100 -14 -181 -37t-146.5 -58t-101.5 -86t-36 -114q0 -82 66.5 -130t185.5 -48z" />
    <glyph glyph-name="aacute.alt2" horiz-adv-x="1144" 
d="M641 1221l-43 39l264 290l45 -37zM317 -37q-150 0 -235.5 65.5t-85.5 178.5q0 84 42 149t120 108.5t171.5 71.5t213.5 46l248 34q56 6 63 60q25 160 -49 239.5t-219 79.5q-152 0 -268 -94t-138 -223l-71 33q31 149 167.5 252.5t309.5 103.5q186 0 281.5 -102.5
t64.5 -298.5l-84 -533q-7 -44 8.5 -70t48.5 -26q30 0 64 21t61 55l43 -58q-36 -43 -83 -67.5t-91 -24.5q-70 0 -106 46t-25 120l16 102h-2q-69 -126 -192 -197t-273 -71zM330 37q184 0 324 122.5t169 317.5l11 74l-293 -41q-465 -64 -465 -297q0 -82 66.5 -129t187.5 -47z
" />
    <glyph glyph-name="atilde.alt1" horiz-adv-x="999" 
d="M764 1208q-29 0 -51.5 9.5t-40.5 30t-28.5 37t-25.5 44.5q-15 32 -21 43.5t-20.5 32.5t-29.5 29t-35 8q-49 0 -92 -61t-58 -152h-59q21 121 80 196.5t139 75.5q30 0 54 -11t41.5 -33t28 -40.5t24.5 -48.5q33 -63 51 -79q22 -21 49 -21q54 0 96.5 61t57.5 154h59
q-21 -122 -80 -198.5t-139 -76.5zM317 -37q-148 0 -234.5 63.5t-86.5 172.5q0 70 27.5 127.5t74.5 98t118 71.5t149.5 51t177.5 35l248 34q56 6 63 60q25 160 -49 239.5t-219 79.5q-152 0 -268 -94t-138 -223l-71 33q31 149 167.5 252.5t309.5 103.5q185 0 281 -102.5
t65 -298.5l-107 -666h-75l34 231h-2q-69 -126 -192 -197t-273 -71zM328 37q186 0 326 122.5t169 317.5l11 74l-293 -41q-100 -14 -181 -37t-146.5 -58t-101.5 -86t-36 -114q0 -82 66.5 -130t185.5 -48z" />
    <glyph glyph-name="atilde.alt2" horiz-adv-x="1144" 
d="M764 1208q-29 0 -51.5 9.5t-40.5 30t-28.5 37t-25.5 44.5q-15 32 -21 43.5t-20.5 32.5t-29.5 29t-35 8q-49 0 -92 -61t-58 -152h-59q21 121 80 196.5t139 75.5q30 0 54 -11t41.5 -33t28 -40.5t24.5 -48.5q33 -63 51 -79q22 -21 49 -21q54 0 96.5 61t57.5 154h59
q-21 -122 -80 -198.5t-139 -76.5zM317 -37q-150 0 -235.5 65.5t-85.5 178.5q0 84 42 149t120 108.5t171.5 71.5t213.5 46l248 34q56 6 63 60q25 160 -49 239.5t-219 79.5q-152 0 -268 -94t-138 -223l-71 33q31 149 167.5 252.5t309.5 103.5q186 0 281.5 -102.5t64.5 -298.5
l-84 -533q-7 -44 8.5 -70t48.5 -26q30 0 64 21t61 55l43 -58q-36 -43 -83 -67.5t-91 -24.5q-70 0 -106 46t-25 120l16 102h-2q-69 -126 -192 -197t-273 -71zM330 37q184 0 324 122.5t169 317.5l11 74l-293 -41q-465 -64 -465 -297q0 -82 66.5 -129t187.5 -47z" />
    <glyph glyph-name="adieresis.alt1" horiz-adv-x="999" 
d="M426 1247q-29 0 -46.5 16t-17.5 42q0 36 25.5 60t61.5 24q29 0 45 -15t16 -41q0 -37 -24.5 -61.5t-59.5 -24.5zM813 1247q-29 0 -45 15.5t-16 42.5q0 36 24 60t60 24q29 0 46 -15t17 -41q0 -36 -25 -61t-61 -25zM317 -37q-148 0 -234.5 63.5t-86.5 172.5q0 70 27.5 127.5
t74.5 98t118 71.5t149.5 51t177.5 35l248 34q56 6 63 60q25 160 -49 239.5t-219 79.5q-152 0 -268 -94t-138 -223l-71 33q31 149 167.5 252.5t309.5 103.5q185 0 281 -102.5t65 -298.5l-107 -666h-75l34 231h-2q-69 -126 -192 -197t-273 -71zM328 37q186 0 326 122.5
t169 317.5l11 74l-293 -41q-100 -14 -181 -37t-146.5 -58t-101.5 -86t-36 -114q0 -82 66.5 -130t185.5 -48z" />
    <glyph glyph-name="adieresis.alt2" horiz-adv-x="1144" 
d="M426 1247q-29 0 -46.5 16t-17.5 42q0 36 25.5 60t61.5 24q29 0 45 -15t16 -41q0 -37 -24.5 -61.5t-59.5 -24.5zM813 1247q-29 0 -45 15.5t-16 42.5q0 36 24 60t60 24q29 0 46 -15t17 -41q0 -36 -25 -61t-61 -25zM317 -37q-150 0 -235.5 65.5t-85.5 178.5q0 84 42 149
t120 108.5t171.5 71.5t213.5 46l248 34q56 6 63 60q25 160 -49 239.5t-219 79.5q-152 0 -268 -94t-138 -223l-71 33q31 149 167.5 252.5t309.5 103.5q186 0 281.5 -102.5t64.5 -298.5l-84 -533q-7 -44 8.5 -70t48.5 -26q30 0 64 21t61 55l43 -58q-36 -43 -83 -67.5
t-91 -24.5q-70 0 -106 46t-25 120l16 102h-2q-69 -126 -192 -197t-273 -71zM330 37q184 0 324 122.5t169 317.5l11 74l-293 -41q-465 -64 -465 -297q0 -82 66.5 -129t187.5 -47z" />
    <glyph glyph-name="aring.alt1" horiz-adv-x="999" 
d="M616 1227q-70 0 -110.5 40t-40.5 105q0 88 60.5 147.5t148.5 59.5q67 0 108 -40t41 -105q0 -87 -61 -147t-146 -60zM625 1282q56 0 96.5 41t40.5 100q0 45 -27.5 73t-72.5 28q-56 0 -97 -41.5t-41 -100.5q0 -44 28.5 -72t72.5 -28zM317 -37q-148 0 -234.5 63.5
t-86.5 172.5q0 70 27.5 127.5t74.5 98t118 71.5t149.5 51t177.5 35l248 34q56 6 63 60q25 160 -49 239.5t-219 79.5q-152 0 -268 -94t-138 -223l-71 33q31 149 167.5 252.5t309.5 103.5q185 0 281 -102.5t65 -298.5l-107 -666h-75l34 231h-2q-69 -126 -192 -197t-273 -71z
M328 37q186 0 326 122.5t169 317.5l11 74l-293 -41q-100 -14 -181 -37t-146.5 -58t-101.5 -86t-36 -114q0 -82 66.5 -130t185.5 -48z" />
    <glyph glyph-name="aring.alt2" horiz-adv-x="1144" 
d="M616 1227q-70 0 -110.5 40t-40.5 105q0 88 60.5 147.5t148.5 59.5q67 0 108 -40t41 -105q0 -87 -61 -147t-146 -60zM625 1282q56 0 96.5 41t40.5 100q0 45 -27.5 73t-72.5 28q-56 0 -97 -41.5t-41 -100.5q0 -44 28.5 -72t72.5 -28zM317 -37q-150 0 -235.5 65.5
t-85.5 178.5q0 84 42 149t120 108.5t171.5 71.5t213.5 46l248 34q56 6 63 60q25 160 -49 239.5t-219 79.5q-152 0 -268 -94t-138 -223l-71 33q31 149 167.5 252.5t309.5 103.5q186 0 281.5 -102.5t64.5 -298.5l-84 -533q-7 -44 8.5 -70t48.5 -26q30 0 64 21t61 55l43 -58
q-36 -43 -83 -67.5t-91 -24.5q-70 0 -106 46t-25 120l16 102h-2q-69 -126 -192 -197t-273 -71zM330 37q184 0 324 122.5t169 317.5l11 74l-293 -41q-465 -64 -465 -297q0 -82 66.5 -129t187.5 -47z" />
    <glyph glyph-name="amacron.alt1" horiz-adv-x="999" 
d="M348 1212l10 58h533l-10 -58h-533zM317 -37q-148 0 -234.5 63.5t-86.5 172.5q0 70 27.5 127.5t74.5 98t118 71.5t149.5 51t177.5 35l248 34q56 6 63 60q25 160 -49 239.5t-219 79.5q-152 0 -268 -94t-138 -223l-71 33q31 149 167.5 252.5t309.5 103.5q185 0 281 -102.5
t65 -298.5l-107 -666h-75l34 231h-2q-69 -126 -192 -197t-273 -71zM328 37q186 0 326 122.5t169 317.5l11 74l-293 -41q-100 -14 -181 -37t-146.5 -58t-101.5 -86t-36 -114q0 -82 66.5 -130t185.5 -48z" />
    <glyph glyph-name="amacron.alt2" horiz-adv-x="1144" 
d="M348 1212l10 58h533l-10 -58h-533zM317 -37q-150 0 -235.5 65.5t-85.5 178.5q0 84 42 149t120 108.5t171.5 71.5t213.5 46l248 34q56 6 63 60q25 160 -49 239.5t-219 79.5q-152 0 -268 -94t-138 -223l-71 33q31 149 167.5 252.5t309.5 103.5q186 0 281.5 -102.5
t64.5 -298.5l-84 -533q-7 -44 8.5 -70t48.5 -26q30 0 64 21t61 55l43 -58q-36 -43 -83 -67.5t-91 -24.5q-70 0 -106 46t-25 120l16 102h-2q-69 -126 -192 -197t-273 -71zM330 37q184 0 324 122.5t169 317.5l11 74l-293 -41q-465 -64 -465 -297q0 -82 66.5 -129t187.5 -47z
" />
    <glyph glyph-name="abreve.alt1" horiz-adv-x="999" 
d="M614 1227q-130 0 -201.5 82.5t-52.5 210.5h66q-17 -100 39.5 -166t159.5 -66q104 0 180.5 66t91.5 166h68q-20 -127 -119.5 -210t-231.5 -83zM317 -37q-148 0 -234.5 63.5t-86.5 172.5q0 70 27.5 127.5t74.5 98t118 71.5t149.5 51t177.5 35l248 34q56 6 63 60
q25 160 -49 239.5t-219 79.5q-152 0 -268 -94t-138 -223l-71 33q31 149 167.5 252.5t309.5 103.5q185 0 281 -102.5t65 -298.5l-107 -666h-75l34 231h-2q-69 -126 -192 -197t-273 -71zM328 37q186 0 326 122.5t169 317.5l11 74l-293 -41q-100 -14 -181 -37t-146.5 -58
t-101.5 -86t-36 -114q0 -82 66.5 -130t185.5 -48z" />
    <glyph glyph-name="abreve.alt2" horiz-adv-x="1144" 
d="M616 1227q-130 0 -201.5 82.5t-52.5 210.5h66q-17 -100 39.5 -166t159.5 -66q104 0 180.5 66t91.5 166h68q-20 -127 -119.5 -210t-231.5 -83zM317 -37q-150 0 -235.5 65.5t-85.5 178.5q0 84 42 149t120 108.5t171.5 71.5t213.5 46l248 34q56 6 63 60q25 160 -49 239.5
t-219 79.5q-152 0 -268 -94t-138 -223l-71 33q31 149 167.5 252.5t309.5 103.5q186 0 281.5 -102.5t64.5 -298.5l-84 -533q-7 -44 8.5 -70t48.5 -26q30 0 64 21t61 55l43 -58q-36 -43 -83 -67.5t-91 -24.5q-70 0 -106 46t-25 120l16 102h-2q-69 -126 -192 -197t-273 -71z
M330 37q184 0 324 122.5t169 317.5l11 74l-293 -41q-465 -64 -465 -297q0 -82 66.5 -129t187.5 -47z" />
    <glyph glyph-name="aogonek.alt1" horiz-adv-x="999" 
d="M586 1067q185 0 281 -102.5t65 -298.5l-107 -666q-77 -40 -120.5 -64t-94.5 -56t-77 -56t-46 -53t-24 -58q-5 -35 13.5 -56.5t53.5 -21.5q39 0 84 30.5t78 78.5l29 -53q-38 -52 -94 -84.5t-109 -32.5q-65 0 -98.5 38t-24.5 101q11 82 97.5 151t259.5 156l32 211h-2
q-69 -126 -192 -197t-273 -71q-148 0 -234.5 63.5t-86.5 172.5q0 70 27.5 127.5t74.5 98t118 71.5t149.5 51t177.5 35l248 34q56 6 63 60q25 160 -49 239.5t-219 79.5q-152 0 -268 -94t-138 -223l-71 33q31 149 167.5 252.5t309.5 103.5zM823 477l11 74l-293 -41
q-100 -14 -181 -37t-146.5 -58t-101.5 -86t-36 -114q0 -82 66.5 -130t185.5 -48q186 0 326 122.5t169 317.5z" />
    <glyph glyph-name="aogonek.alt2" horiz-adv-x="1144" 
d="M946 -31q-155 -83 -226 -137.5t-79 -118.5q-5 -35 14 -56.5t54 -21.5q39 0 83.5 30.5t77.5 78.5l29 -53q-38 -52 -94 -84.5t-109 -32.5q-65 0 -98.5 38t-24.5 101q10 70 76 130.5t193 129.5q-43 17 -62.5 58t-11.5 98l16 102h-2q-69 -126 -192 -197t-273 -71t-235.5 65.5
t-85.5 178.5q0 84 42 149t120 108.5t171.5 71.5t213.5 46l248 34q56 6 63 60q25 160 -49 239.5t-219 79.5q-152 0 -268 -94t-138 -223l-71 33q31 149 167.5 252.5t309.5 103.5q186 0 281.5 -102.5t64.5 -298.5l-84 -533q-7 -44 8.5 -70t48.5 -26q30 0 64 21t61 55l43 -58
q-58 -68 -127 -86zM823 477l11 74l-293 -41q-465 -64 -465 -297q0 -82 66.5 -129t187.5 -47q184 0 324 122.5t169 317.5z" />
    <glyph glyph-name="acircumflex.alt1" horiz-adv-x="999" 
d="M342 1217l-41 47l313 256h101l231 -258l-49 -45l-238 260zM317 -37q-148 0 -234.5 63.5t-86.5 172.5q0 70 27.5 127.5t74.5 98t118 71.5t149.5 51t177.5 35l248 34q56 6 63 60q25 160 -49 239.5t-219 79.5q-152 0 -268 -94t-138 -223l-71 33q31 149 167.5 252.5
t309.5 103.5q185 0 281 -102.5t65 -298.5l-107 -666h-75l34 231h-2q-69 -126 -192 -197t-273 -71zM328 37q186 0 326 122.5t169 317.5l11 74l-293 -41q-100 -14 -181 -37t-146.5 -58t-101.5 -86t-36 -114q0 -82 66.5 -130t185.5 -48z" />
    <glyph glyph-name="acircumflex.alt2" horiz-adv-x="1144" 
d="M342 1217l-41 47l313 256h101l231 -258l-49 -45l-238 260zM317 -37q-150 0 -235.5 65.5t-85.5 178.5q0 84 42 149t120 108.5t171.5 71.5t213.5 46l248 34q56 6 63 60q25 160 -49 239.5t-219 79.5q-152 0 -268 -94t-138 -223l-71 33q31 149 167.5 252.5t309.5 103.5
q186 0 281.5 -102.5t64.5 -298.5l-84 -533q-7 -44 8.5 -70t48.5 -26q30 0 64 21t61 55l43 -58q-36 -43 -83 -67.5t-91 -24.5q-70 0 -106 46t-25 120l16 102h-2q-69 -126 -192 -197t-273 -71zM330 37q184 0 324 122.5t169 317.5l11 74l-293 -41q-465 -64 -465 -297
q0 -82 66.5 -129t187.5 -47z" />
    <glyph glyph-name="Gcircumflex.alt1" horiz-adv-x="1529" 
d="M680 1606l-41 47l258 213h100l191 -215l-49 -45l-195 219zM690 -47q-274 0 -436 169t-162 445q0 177 61 344t165.5 293t254 202.5t316.5 76.5q205 0 347 -126.5t165 -326.5l-80 -14q-26 176 -144 281.5t-294 105.5q-119 1 -230 -44.5t-196.5 -126.5t-150 -186
t-98.5 -228.5t-34 -250.5q0 -240 139.5 -387t378.5 -147q175 -1 327 84t254.5 239t133.5 351l-858 -2l8 77l942 -4q-4 -55 -6 -65q-26 -164 -97.5 -305t-176 -241t-241.5 -157t-288 -57z" />
    <glyph glyph-name="Gbreve.alt1" horiz-adv-x="1529" 
d="M909 1618q-116 0 -181 70.5t-46 177.5h63q-14 -80 34.5 -132.5t135.5 -52.5t152.5 52.5t79.5 132.5h67q-19 -108 -104.5 -178t-200.5 -70zM690 -47q-274 0 -436 169t-162 445q0 177 61 344t165.5 293t254 202.5t316.5 76.5q205 0 347 -126.5t165 -326.5l-80 -14
q-26 176 -144 281.5t-294 105.5q-119 1 -230 -44.5t-196.5 -126.5t-150 -186t-98.5 -228.5t-34 -250.5q0 -240 139.5 -387t378.5 -147q175 -1 327 84t254.5 239t133.5 351l-858 -2l8 77l942 -4q-4 -55 -6 -65q-26 -164 -97.5 -305t-176 -241t-241.5 -157t-288 -57z" />
    <glyph glyph-name="Gdotaccent.alt1" horiz-adv-x="1529" 
d="M918 1665q-29 0 -45.5 16t-16.5 43q0 36 25.5 60t58.5 24q28 0 44.5 -15.5t16.5 -43.5q0 -35 -24.5 -59.5t-58.5 -24.5zM690 -47q-274 0 -436 169t-162 445q0 177 61 344t165.5 293t254 202.5t316.5 76.5q205 0 347 -126.5t165 -326.5l-80 -14q-26 176 -144 281.5
t-294 105.5q-119 1 -230 -44.5t-196.5 -126.5t-150 -186t-98.5 -228.5t-34 -250.5q0 -240 139.5 -387t378.5 -147q175 -1 327 84t254.5 239t133.5 351l-858 -2l8 77l942 -4q-4 -55 -6 -65q-26 -164 -97.5 -305t-176 -241t-241.5 -157t-288 -57z" />
    <glyph glyph-name="uni0122.alt1" horiz-adv-x="1529" 
d="M690 -47q-274 0 -436 169t-162 445q0 177 61 344t165.5 293t254 202.5t316.5 76.5q205 0 347 -126.5t165 -326.5l-80 -14q-26 176 -144 281.5t-294 105.5q-119 1 -230 -44.5t-196.5 -126.5t-150 -186t-98.5 -228.5t-34 -250.5q0 -240 139.5 -387t378.5 -147
q175 -1 327 84t254.5 239t133.5 351l-858 -2l8 77l942 -4q-4 -55 -6 -65q-26 -164 -97.5 -305t-176 -241t-241.5 -157t-288 -57zM510 -487l2 49q71 -17 112 15.5t44 111.5q-34 -12 -59.5 10t-20.5 59q4 26 24.5 43t46.5 17q40 0 57.5 -37.5t8.5 -104.5q-15 -97 -73 -140
t-142 -23z" />
    <glyph glyph-name="IJacute" horiz-adv-x="1208" 
d="M358 1597l-51 29l160 252l51 -29zM1243 1597l-51 29l160 252l51 -29zM47 0l227 1436h82l-227 -1436h-82zM680 -39q-140 0 -237.5 89.5t-106.5 225.5l80 21q5 -106 78 -183t184 -77q132 0 212 74t107 241l172 1084h82l-174 -1094q-57 -381 -397 -381z" />
    <glyph glyph-name="ijacute" horiz-adv-x="579" 
d="M283 1229l-56 26l179 295l53 -26zM567 1229l-53 26l176 295l55 -26zM68 -467q-68 0 -127 27l16 71q55 -22 109 -22q81 0 138.5 49t69.5 127l197 1241h80l-199 -1249q-19 -113 -94.5 -178.5t-189.5 -65.5zM20 0l164 1026h80l-164 -1026h-80z" />
    <glyph glyph-name="uni0136.alt1" horiz-adv-x="972" 
d="M41 0l227 1436h82l-104 -652h2l743 652h113l-782 -680l569 -756h-109l-540 729h-2l-117 -729h-82zM274 -487l2 49q71 -17 112 15.5t44 111.5q-34 -12 -59.5 10t-20.5 59q4 26 25 43t47 17q40 0 57 -37.5t8 -104.5q-15 -97 -73 -140t-142 -23z" />
    <glyph glyph-name="uni0137.alt1" horiz-adv-x="808" 
d="M20 0l238 1497h80l-148 -928h3l563 457h116l-608 -489l463 -537h-109l-432 510h-2l-84 -510h-80zM164 -487l2 49q71 -17 112 15.5t44 111.5q-34 -12 -59.5 10t-20.5 59q4 26 24.5 43t46.5 17q40 0 57.5 -37.5t8.5 -104.5q-15 -97 -73 -140t-142 -23z" />
    <glyph glyph-name="Racute.alt1" horiz-adv-x="1234" 
d="M774 1589l-45 39l223 250l45 -37zM41 0l227 1436h576q191 0 294 -89.5t103 -242.5q0 -142 -86.5 -253t-236.5 -165v-2q94 -22 136.5 -90t28.5 -172l-67 -422h-84l69 426q13 106 -41.5 162.5t-156.5 56.5h-578l-102 -645h-82zM238 721h493q179 0 303.5 108.5t124.5 266.5
q0 122 -83 193t-240 71h-494z" />
    <glyph glyph-name="Racute.alt2" horiz-adv-x="1216" 
d="M774 1589l-45 39l223 250l45 -37zM41 0l227 1436h576q191 0 294 -89.5t103 -242.5q0 -187 -125.5 -312t-343.5 -137l287 -655h-92l-285 645h-457l-102 -645h-82zM238 721h493q196 0 312 106t116 269q0 122 -83 193t-240 71h-494z" />
    <glyph glyph-name="Rcaron.alt1" horiz-adv-x="1234" 
d="M713 1618l-191 215l49 45l195 -217l262 217l43 -45l-258 -215h-100zM41 0l227 1436h576q191 0 294 -89.5t103 -242.5q0 -142 -86.5 -253t-236.5 -165v-2q94 -22 136.5 -90t28.5 -172l-67 -422h-84l69 426q13 106 -41.5 162.5t-156.5 56.5h-578l-102 -645h-82zM238 721
h493q179 0 303.5 108.5t124.5 266.5q0 122 -83 193t-240 71h-494z" />
    <glyph glyph-name="Rcaron.alt2" horiz-adv-x="1216" 
d="M713 1618l-191 215l49 45l195 -217l262 217l43 -45l-258 -215h-100zM41 0l227 1436h576q191 0 294 -89.5t103 -242.5q0 -187 -125.5 -312t-343.5 -137l287 -655h-92l-285 645h-457l-102 -645h-82zM238 721h493q196 0 312 106t116 269q0 122 -83 193t-240 71h-494z" />
    <glyph glyph-name="uni0156.alt1" horiz-adv-x="1234" 
d="M41 0l227 1436h576q191 0 294 -89.5t103 -242.5q0 -142 -86.5 -253t-236.5 -165v-2q94 -22 136.5 -90t28.5 -172l-67 -422h-84l69 426q13 106 -41.5 162.5t-156.5 56.5h-578l-102 -645h-82zM238 721h493q179 0 303.5 108.5t124.5 266.5q0 122 -83 193t-240 71h-494z
M342 -487l2 49q71 -17 112 15.5t44 111.5q-34 -12 -59.5 10t-20.5 59q4 26 25 43t47 17q40 0 57 -37.5t8 -104.5q-15 -97 -73 -140t-142 -23z" />
    <glyph glyph-name="uni0156.alt2" horiz-adv-x="1216" 
d="M41 0l227 1436h576q191 0 294 -89.5t103 -242.5q0 -187 -125.5 -312t-343.5 -137l287 -655h-92l-285 645h-457l-102 -645h-82zM238 721h493q196 0 312 106t116 269q0 122 -83 193t-240 71h-494zM342 -487l2 49q71 -17 112 15.5t44 111.5q-34 -12 -59.5 10t-20.5 59
q4 26 25 43t47 17q40 0 57 -37.5t8 -104.5q-15 -97 -73 -140t-142 -23z" />
    <glyph glyph-name="ugrave.alt1" horiz-adv-x="1011" 
d="M586 1221l-174 292l57 37l172 -290zM422 -37q-200 0 -292.5 100t-63.5 287l108 676h80l-111 -680q-23 -150 50.5 -230.5t232.5 -80.5q162 0 263 81.5t126 233.5l107 676h79l-108 -680q-29 -185 -152 -284t-319 -99z" />
    <glyph glyph-name="uacute.alt1" horiz-adv-x="1011" 
d="M645 1221l-43 39l264 290l45 -37zM422 -37q-200 0 -292.5 100t-63.5 287l108 676h80l-111 -680q-23 -150 50.5 -230.5t232.5 -80.5q162 0 263 81.5t126 233.5l107 676h79l-108 -680q-29 -185 -152 -284t-319 -99z" />
    <glyph glyph-name="ucircumflex.alt1" horiz-adv-x="1011" 
d="M346 1217l-41 47l313 256h101l231 -258l-49 -45l-237 260zM422 -37q-200 0 -292.5 100t-63.5 287l108 676h80l-111 -680q-23 -150 50.5 -230.5t232.5 -80.5q162 0 263 81.5t126 233.5l107 676h79l-108 -680q-29 -185 -152 -284t-319 -99z" />
    <glyph glyph-name="utilde.alt1" horiz-adv-x="1011" 
d="M768 1208q-29 0 -51.5 9.5t-40.5 30t-28 36.5t-25 45q-19 39 -28.5 57t-31 37t-47.5 19q-49 0 -91.5 -61t-57.5 -152h-60q21 121 80 196.5t139 75.5q30 0 54 -11t41.5 -33t28 -40.5t24.5 -48.5q33 -63 51 -79q22 -21 49 -21q54 0 96.5 61t57.5 154h59
q-21 -122 -80 -198.5t-139 -76.5zM422 -37q-200 0 -292.5 100t-63.5 287l108 676h80l-111 -680q-23 -150 50.5 -230.5t232.5 -80.5q162 0 263 81.5t126 233.5l107 676h79l-108 -680q-29 -185 -152 -284t-319 -99z" />
    <glyph glyph-name="umacron.alt1" horiz-adv-x="1011" 
d="M350 1212l10 58h533l-10 -58h-533zM422 -37q-200 0 -292.5 100t-63.5 287l108 676h80l-111 -680q-23 -150 50.5 -230.5t232.5 -80.5q162 0 263 81.5t126 233.5l107 676h79l-108 -680q-29 -185 -152 -284t-319 -99z" />
    <glyph glyph-name="ubreve.alt1" horiz-adv-x="1011" 
d="M618 1227q-130 0 -201 82.5t-52 210.5h65q-17 -100 39.5 -166t159.5 -66q104 0 180.5 66t91.5 166h68q-20 -127 -119.5 -210t-231.5 -83zM422 -37q-200 0 -292.5 100t-63.5 287l108 676h80l-111 -680q-23 -150 50.5 -230.5t232.5 -80.5q162 0 263 81.5t126 233.5l107 676
h79l-108 -680q-29 -185 -152 -284t-319 -99z" />
    <glyph glyph-name="uring.alt1" horiz-adv-x="1011" 
d="M621 1227q-70 0 -111 40t-41 105q0 88 60.5 147.5t148.5 59.5q67 0 108 -40t41 -105q0 -87 -60.5 -147t-145.5 -60zM629 1282q56 0 96.5 41t40.5 100q0 45 -27.5 73t-72.5 28q-56 0 -97 -41.5t-41 -100.5q0 -44 28.5 -72t72.5 -28zM422 -37q-200 0 -292.5 100t-63.5 287
l108 676h80l-111 -680q-23 -150 50.5 -230.5t232.5 -80.5q162 0 263 81.5t126 233.5l107 676h79l-108 -680q-29 -185 -152 -284t-319 -99z" />
    <glyph glyph-name="uhungarumlaut.alt1" horiz-adv-x="1011" 
d="M494 1221l-43 39l264 290l45 -37zM801 1221l-43 39l262 290l47 -37zM422 -37q-200 0 -292.5 100t-63.5 287l108 676h80l-111 -680q-23 -150 50.5 -230.5t232.5 -80.5q162 0 263 81.5t126 233.5l107 676h79l-108 -680q-29 -185 -152 -284t-319 -99z" />
    <glyph glyph-name="udieresis.alt1" horiz-adv-x="1011" 
d="M430 1247q-29 0 -46 16t-17 42q0 36 25 60t61 24q29 0 45 -15t16 -41q0 -37 -24.5 -61.5t-59.5 -24.5zM817 1247q-29 0 -45 15.5t-16 42.5q0 36 24 60t60 24q29 0 46 -15t17 -41q0 -36 -25 -61t-61 -25zM422 -37q-200 0 -292.5 100t-63.5 287l108 676h80l-111 -680
q-23 -150 50.5 -230.5t232.5 -80.5q162 0 263 81.5t126 233.5l107 676h79l-108 -680q-29 -185 -152 -284t-319 -99z" />
    <glyph glyph-name="uogonek.alt1" horiz-adv-x="1011" 
d="M922 1026h79l-108 -680q-44 -265 -270 -350q-185 -98 -265 -157t-90 -126q-5 -35 14 -56.5t54 -21.5q39 0 84 30.5t78 78.5l28 -53q-38 -53 -94 -85t-108 -32q-65 0 -98.5 38t-24.5 101q10 67 72 126.5t178 123.5h-29q-200 0 -292.5 100t-63.5 287l108 676h80l-111 -680
q-23 -150 50.5 -230.5t232.5 -80.5q162 0 263 81.5t126 233.5z" />
    <glyph glyph-name="ygrave.alt1" horiz-adv-x="966" 
d="M584 1221l-174 292l57 37l172 -290zM127 -430l289 510l-314 946h84l283 -840h2l471 840h86l-817 -1456h-84z" />
    <glyph glyph-name="yacute.alt1" horiz-adv-x="966" 
d="M643 1221l-43 39l264 290l45 -37zM127 -430l289 510l-314 946h84l283 -840h2l471 840h86l-817 -1456h-84z" />
    <glyph glyph-name="ydieresis.alt1" horiz-adv-x="966" 
d="M428 1247q-29 0 -46 16t-17 42q0 36 25 60t61 24q29 0 45 -15t16 -41q0 -37 -24.5 -61.5t-59.5 -24.5zM815 1247q-29 0 -45 15.5t-16 42.5q0 36 24 60t60 24q29 0 46 -15t17 -41q0 -36 -25 -61t-61 -25zM127 -430l289 510l-314 946h84l283 -840h2l471 840h86l-817 -1456
h-84z" />
    <glyph glyph-name="ycircumflex.alt1" horiz-adv-x="966" 
d="M344 1217l-41 47l313 256h101l231 -258l-49 -45l-237 260zM127 -430l289 510l-314 946h84l283 -840h2l471 840h86l-817 -1456h-84z" />
    <glyph glyph-name="three.alt1" horiz-adv-x="1077" 
d="M459 -47q-199 0 -304 141.5t-83 360.5l82 14q-19 -198 61.5 -319t245.5 -121q122 0 224.5 65t160 173t57.5 233q0 134 -81 214.5t-224 80.5q-47 0 -93 -11t-71 -28l-28 57l530 547h-633l12 76h715l-16 -97l-465 -481q41 6 76 6q167 -1 263.5 -100.5t96.5 -261.5
q0 -148 -68 -274t-189.5 -200.5t-268.5 -74.5z" />
    <glyph glyph-name="colon.case" horiz-adv-x="311" 
d="M242 1032q-29 0 -46.5 17.5t-17.5 46.5q0 34 22 57t56 23q30 0 48 -18t18 -46q0 -34 -23 -57t-57 -23zM106 178q-29 0 -46 16.5t-17 45.5q0 34 21.5 56.5t54.5 22.5q30 0 47.5 -17t17.5 -44q0 -35 -22 -57.5t-56 -22.5z" />
    <glyph glyph-name="semicolon.case" horiz-adv-x="376" 
d="M297 1032q-31 0 -48.5 17.5t-17.5 46.5q0 34 22 57t56 23q29 0 47.5 -18t18.5 -46q0 -34 -22 -57t-56 -23zM8 -10v49q78 -20 122.5 19.5t49.5 125.5q-30 -11 -56 7t-26 53q0 34 19.5 54.5t50.5 20.5q34 0 54 -27t20 -71q0 -117 -65 -186.5t-169 -44.5z" />
    <glyph glyph-name="exclamdown.case" horiz-adv-x="350" 
d="M319 1456q30 0 47 -16.5t17 -44.5q0 -34 -21.5 -57t-54.5 -23q-30 0 -47.5 17t-17.5 44q0 34 22 57t55 23zM301 1100l-102 -694l-64 -406h-82l62 406l118 694h68z" />
    <glyph glyph-name="questiondown.case" horiz-adv-x="917" 
d="M623 1456q29 0 46 -16.5t17 -44.5q0 -34 -21.5 -57t-54.5 -23q-30 0 -47.5 17t-17.5 44q0 34 22 57t56 23zM610 1098q-23 -138 -75 -216.5t-164 -152.5l-86 -72q-105 -74 -158 -158.5t-53 -195.5q0 -124 75 -197t199 -73q160 0 274 108t158 287l78 -22
q-52 -205 -189 -329t-327 -124q-156 0 -253 93.5t-97 246.5q0 139 62 239.5t186 186.5l86 72q99 69 142.5 132.5t61.5 178.5z" />
    <glyph glyph-name="slash.case" horiz-adv-x="393" 
d="M-39 -121l-57 25l588 1638l61 -22z" />
    <glyph glyph-name="backslash.case" horiz-adv-x="907" 
d="M752 -121l-592 1641l61 22l588 -1638z" />
    <glyph glyph-name="parenleft.case" horiz-adv-x="446" 
d="M283 -244q-123 151 -174 414t-9 539q44 276 179 540.5t305 415.5l37 -41q-168 -160 -291 -409t-164 -513q-41 -259 3.5 -503.5t160.5 -401.5z" />
    <glyph glyph-name="parenright.case" horiz-adv-x="444" 
d="M-72 -246l-41 43q168 157 291 401.5t164 503.5q40 264 -5 513t-161 409l51 37q120 -154 171 -416.5t8 -535.5q-44 -277 -176.5 -542t-301.5 -413z" />
    <glyph glyph-name="braceleft.case" horiz-adv-x="552" 
d="M268 -246q-76 0 -112.5 51t-22.5 136l88 559q10 71 -17.5 111.5t-88.5 45.5l-21 2l12 95l27 2q61 6 101.5 48.5t52.5 113.5l88 555q14 86 67 137t129 51h164l-10 -66h-164q-48 0 -81 -32.5t-42 -89.5l-88 -560q-13 -87 -61.5 -141.5t-116.5 -60.5v-4q66 -6 96.5 -61
t16.5 -142l-88 -563q-9 -56 13 -89.5t69 -33.5h163l-12 -64h-162z" />
    <glyph glyph-name="braceright.case" horiz-adv-x="552" 
d="M43 -246h-164l10 64h164q47 0 80.5 33.5t42.5 89.5l88 563q12 86 61 141.5t117 61.5v4q-66 6 -96 60t-16 142l86 560q9 57 -13 89.5t-69 32.5h-162l10 66h162q76 0 113.5 -51t23.5 -137l-88 -555q-12 -71 16 -113.5t89 -48.5l22 -2l-14 -95l-25 -2q-61 -5 -101 -45.5
t-52 -111.5l-88 -559q-13 -85 -67.5 -136t-129.5 -51z" />
    <glyph glyph-name="bracketleft.case" horiz-adv-x="446" 
d="M2 -246l303 1907h326l-13 -66h-258l-280 -1777h258l-10 -64h-326z" />
    <glyph glyph-name="bracketright.case" horiz-adv-x="446" 
d="M205 -246h-326l10 64h258l283 1777h-258l10 66h326z" />
    <glyph glyph-name="hyphen.case" horiz-adv-x="905" 
d="M133 713l14 75h701l-12 -75h-703z" />
    <glyph glyph-name="endash.case" horiz-adv-x="1298" 
d="M135 717l10 65h1094l-10 -65h-1094z" />
    <glyph glyph-name="emdash.case" horiz-adv-x="1894" 
d="M135 717l10 65h1690l-10 -65h-1690z" />
    <glyph glyph-name="guillemotleft.case" horiz-adv-x="958" 
d="M420 184l-328 533l496 534l45 -39l-459 -495l301 -494zM797 184l-328 533l496 534l45 -39l-459 -495l301 -494z" />
    <glyph glyph-name="guillemotright.case" horiz-adv-x="958" 
d="M225 1251l328 -532l-496 -535l-45 39l459 496l-301 493zM602 1251l328 -532l-496 -535l-45 39l459 496l-301 493z" />
    <glyph glyph-name="guilsinglleft.case" horiz-adv-x="581" 
d="M420 184l-328 533l496 534l45 -39l-459 -495l301 -494z" />
    <glyph glyph-name="guilsinglright.case" horiz-adv-x="581" 
d="M225 1251l328 -532l-496 -535l-45 39l459 496l-301 493z" />
    <glyph glyph-name="at.case" horiz-adv-x="1816" 
d="M817 -162q-218 0 -383.5 89t-254.5 249t-89 369t75.5 401.5t204.5 335t312 227t387 84.5q217 0 381.5 -96t251.5 -269t82 -397q-4 -127 -28.5 -241t-69.5 -209t-120 -151t-171 -56q-101 0 -155.5 54t-39.5 153l10 59h-2q-67 -123 -186 -194.5t-264 -71.5q-148 0 -241 71
t-93 185q0 130 111.5 228t295.5 122l377 47q30 3 50.5 20.5t23.5 43.5q20 153 -50 232t-222 79q-148 0 -258 -88t-131 -209l-72 35q33 142 162.5 240t298.5 98q193 0 283.5 -105t62.5 -299l-76 -483q-11 -69 21.5 -109t101.5 -40q77 0 137.5 51.5t97.5 138.5t57.5 188.5
t24.5 213.5q8 314 -168.5 505t-486.5 191q-191 0 -362 -81t-291 -216t-190 -316t-70 -376q0 -291 179 -466t492 -175q142 0 257.5 24.5t240.5 87.5l27 -53q-134 -69 -258 -95t-273 -26zM768 250q182 0 316 123t165 315l8 70l-423 -51q-146 -20 -239 -97t-93 -176
q0 -82 74 -133t192 -51z" />
    <glyph glyph-name="acute.case" horiz-adv-x="317" 
d="M262 1589l-45 39l223 250l45 -37z" />
    <glyph glyph-name="breve.case" horiz-adv-x="614" 
d="M483 1618q-116 0 -181 70.5t-46 177.5h63q-14 -80 34.5 -132.5t135.5 -52.5t152.5 52.5t79.5 132.5h67q-19 -108 -104.5 -178t-200.5 -70z" />
    <glyph glyph-name="caron.case" horiz-adv-x="630" 
d="M440 1618l-190 215l49 45l195 -217l262 217l43 -45l-258 -215h-101z" />
    <glyph glyph-name="caron.alt1" horiz-adv-x="274" 
d="M145 1153l2 49q72 -17 113.5 15.5t44.5 111.5q-33 -12 -59 11t-21 59q3 26 23.5 42.5t48.5 16.5q40 0 56.5 -36.5t6.5 -102.5q-13 -99 -71 -142.5t-144 -23.5z" />
    <glyph glyph-name="circumflex.case" horiz-adv-x="630" 
d="M262 1606l-41 47l258 213h101l190 -215l-49 -45l-195 219z" />
    <glyph glyph-name="dieresis.case" horiz-adv-x="628" 
d="M295 1665q-30 0 -47.5 20.5t-14.5 51.5q6 30 30 49.5t54 19.5q31 0 48.5 -20t11.5 -49q-3 -30 -27 -51t-55 -21zM698 1665q-30 0 -46 20.5t-13 51.5q4 29 28.5 49t55.5 20q30 0 47 -19.5t12 -49.5q-4 -31 -28.5 -51.5t-55.5 -20.5z" />
    <glyph glyph-name="dotaccent.case" horiz-adv-x="225" 
d="M295 1665q-29 0 -45.5 16t-16.5 43q0 36 25.5 60t58.5 24q28 0 45 -16t17 -43q0 -35 -25 -59.5t-59 -24.5z" />
    <glyph glyph-name="grave.case" horiz-adv-x="317" 
d="M399 1593l-145 252l53 33l146 -250z" />
    <glyph glyph-name="hungarumlaut.case" horiz-adv-x="624" 
d="M262 1589l-45 39l223 250l45 -37zM569 1589l-45 39l224 250l45 -37z" />
    <glyph glyph-name="ring.case" horiz-adv-x="436" 
d="M395 1616q-70 0 -111.5 40t-41.5 105q0 91 60 150t149 59q67 0 108 -41t41 -106q0 -90 -59 -148.5t-146 -58.5zM401 1671q57 0 97.5 41.5t40.5 102.5q0 44 -27.5 71t-73.5 27q-57 0 -97 -40.5t-40 -100.5q0 -46 27 -73.5t73 -27.5z" />
    <glyph glyph-name="tilde.case" horiz-adv-x="720" 
d="M676 1597q-54 0 -87 34t-63 93q-34 67 -53 85q-22 22 -51 22q-52 0 -92 -60.5t-54 -152.5h-59q19 123 75 197.5t140 74.5q29 0 53 -10.5t41.5 -32t28.5 -40t25 -46.5q18 -36 28 -53.5t30 -34t44 -16.5q53 0 95.5 61.5t56.5 153.5h61q-21 -124 -78 -199.5t-141 -75.5z" />
    <glyph glyph-name="arrowup.case" horiz-adv-x="1077" 
d="M115 795l469 450l469 -450l-45 -47l-392 376v-925h-65v925l-391 -376z" />
    <glyph glyph-name="uni2197.case" horiz-adv-x="964" 
d="M168 1116l651 -14l12 -649l-65 -2l-10 544l-654 -655l-47 45l656 655l-543 11v65z" />
    <glyph glyph-name="arrowright.case" horiz-adv-x="1189" 
d="M707 270l-48 45l377 392h-925v65h925l-377 391l48 45l450 -469z" />
    <glyph glyph-name="uni2198.case" horiz-adv-x="1069" 
d="M934 1008l-12 -650l-652 -14l-2 66l545 10l-655 655l47 45l653 -655l10 545z" />
    <glyph glyph-name="arrowdown.case" horiz-adv-x="1077" 
d="M90 635l45 47l391 -377v926h64v-926l393 377l45 -47l-469 -451z" />
    <glyph glyph-name="uni2199.case" horiz-adv-x="964" 
d="M203 1012l65 2l8 -545l656 655l45 -47l-653 -653l542 -10v-66l-651 12z" />
    <glyph glyph-name="arrowleft.case" horiz-adv-x="1191" 
d="M557 270l-451 469l451 469l47 -45l-377 -391h926v-65h-926l377 -392z" />
    <glyph glyph-name="uni2196.case" horiz-adv-x="1069" 
d="M868 1118v-63l-542 -11l653 -655l-45 -45l-653 653l-13 -542l-63 2l12 649z" />
    <glyph glyph-name="arrowboth.case" horiz-adv-x="1861" 
d="M1378 1208l451 -469l-451 -469l-47 45l377 392h-1481l377 -392l-47 -45l-451 469l451 469l47 -45l-377 -391h1481l-377 391z" />
    <glyph glyph-name="arrowupdn.case" horiz-adv-x="1187" 
d="M657 41l394 377l45 -47l-469 -451l-469 451l45 47l391 -377v1354l-393 -377l-43 47l469 451l469 -451l-45 -47l-394 377v-1354z" />
    </font>
</defs>
</svg>
